<?xml version="1.0" encoding="UTF-8" standalone="no"?>
<svg
   xmlns:svg="http://www.w3.org/2000/svg"
   xmlns="http://www.w3.org/2000/svg"
   width="720.0"
   height="540.0"

>
    <g transform="scale(13.183080064992398, -13.183080064992398)   translate(4.794023831185496,-26.00707307249501)" stroke-width="0.4"  fill="none">
       <!-- hidden lines -->
       <g  stroke="rgb(180,180,180)" fill="none" stroke-dasharray="0.4,0.4" >
			<path d="M37.68466834387586,18.87643572992885 L31.13081297972354,20.900201653750194 " />
			<path d="M-3.2769276820761615,-0.7830046729070679 L31.130812979723537,20.900201653750194 " />
			<path d="M1.3517326688564162,-2.212289356605893 L1.4199601471251515,-2.165596776290685 L1.4799162445033054,-2.1167447857167097 L1.531251711950944,-2.0660179516178427 L1.5736675162837108,-2.0137117618407343 L1.5914512626462205,-1.9870613123242988 L1.606916582064927,-1.9601309041045845 L1.6200409446552666,-1.9329597694128833 L1.6308052308396797,-1.9055874911709225 L1.639193759201018,-1.8780539453264473 L1.6451943093272403,-1.8503992427619238 L1.648798139614117,-1.8226636708609822 L1.65,-1.794887634817747 " />
			<path d="M1.65,-1.7948876348177403 L1.648798139614117,-1.767111598774499 L1.6451943093272405,-1.7393760268735572 L1.639193759201018,-1.7117213243090335 L1.6308052308396797,-1.6841877784645587 L1.6200409446552666,-1.6568155002225977 L1.606916582064927,-1.6296443655308963 L1.5914512626462205,-1.6027139573111824 L1.5736675162837108,-1.5760635077947467 L1.5312517119509443,-1.5237573180176385 L1.4799162445033052,-1.473030483918771 L1.4199601471251515,-1.4241784933447956 L1.3517326688564175,-1.3774859130295887 " />
			<path d="M31.130812979723537,24.489976923385676 L31.130812979723537,20.900201653750194 " />
			<path d="M1.3517326688564164,0.41740172178815244 L1.4199601471251515,0.37070914147294454 L1.4799162445033052,0.32185715089896944 L1.531251711950944,0.2711303168001021 L1.5736675162837108,0.2188241270229937 L1.5914512626462205,0.19217367750655792 L1.606916582064927,0.1652432692868439 L1.6200409446552668,0.13807213459514242 L1.6308052308396799,0.11069985635318133 L1.639193759201018,0.08316631050870647 L1.6451943093272405,0.0555116079441826 L1.648798139614117,0.02777603604324113 L1.65,2.8961999753116498e-15 " />
			<path d="M1.65,-3.361587425872791e-16 L1.648798139614117,-0.027776036043241796 L1.6451943093272405,-0.05551160794418327 L1.639193759201018,-0.08316631050870714 L1.6308052308396797,-0.11069985635318198 L1.6200409446552666,-0.13807213459514278 L1.606916582064927,-0.16524326928684427 L1.5914512626462205,-0.1921736775065583 L1.5736675162837108,-0.21882412702299373 L1.5312517119509441,-0.27113031680010213 L1.4799162445033054,-0.3218571508989695 L1.4199601471251517,-0.3707091414729446 L1.3517326688564208,-0.4174017217881498 " />
			<path d="M1.65,1.7948876348177403 L1.65,0.0 " />
			<path d="M1.65,-1.7948876348177403 L1.65,0.0 " />

       </g>

       <!-- solid lines -->
       <g  stroke="rgb(40,40,40)" fill="none">
			<path d="M3.2769276820761615,0.7830046729070679 L3.2769276820761615,-2.8067705967284127 " />
			<path d="M3.2769276820761615,-2.8067705967284127 L37.68466834387586,18.87643572992885 " />
			<path d="M37.68466834387586,22.466210999564332 L37.68466834387586,18.87643572992885 " />
			<path d="M3.2769276820761615,0.7830046729070679 L37.68466834387586,22.466210999564332 " />
			<path d="M1.3517326688564166,1.377485913029588 L1.3517326688564166,-0.4174017217881523 " />
			<path d="M1.3517326688564166,-2.2122893566058925 L1.3517326688564166,-0.4174017217881523 " />
			<path d="M3.2769276820761615,-2.8067705967284127 L1.3517326688564166,-2.2122893566058925 " />
			<path d="M3.2769276820761615,0.7830046729070679 L1.3517326688564166,1.377485913029588 " />
			<path d="M-1.3517326688564166,-1.3774859130295878 L-3.2769276820761615,-0.7830046729070679 " />
			<path d="M1.3517326688564164,-1.377485913029588 L1.2925570552498862,-1.3424786753558648 L1.2287289503171297,-1.3090998600030401 L1.1604780999740918,-1.2774696122662696 L1.0880501695768496,-1.2477017835632864 L1.01170585966205,-1.2199035216321956 L0.931719967569,-1.1941748848588092 L0.8483803983210574,-1.1706084821217355 L0.7619871283266004,-1.1492891394515774 L0.6728511256296786,-1.1302935947040842 L0.5812932305968487,-1.1136902213462658 L0.4876430010691032,-1.0995387823496818 L0.3922375261357068,-1.0878902150767633 L0.29542021279970004,-1.078786447934446 L0.19753954990240313,-1.072260249455069 L0.09894785375610975,-1.0683351103477623 L9.054395166147101e-17,-1.0670251589448707 L-0.09894785375610957,-1.0683351103477623 L-0.1975395499024029,-1.072260249455069 L-0.2954202127996999,-1.078786447934446 L-0.3922375261357066,-1.0878902150767633 L-0.4876430010691029,-1.0995387823496818 L-0.5812932305968485,-1.1136902213462658 L-0.6728511256296784,-1.1302935947040842 L-0.7619871283266002,-1.1492891394515774 L-0.8483803983210573,-1.1706084821217355 L-0.9317199675689998,-1.194174884858809 L-1.0117058596620498,-1.2199035216321952 L-1.0880501695768496,-1.247701783563286 L-1.1604780999740916,-1.2774696122662692 L-1.2287289503171297,-1.3090998600030401 L-1.292557055249886,-1.3424786753558648 L-1.3517326688564122,-1.377485913029585 " />
			<path d="M37.68466834387586,22.466210999564332 L31.13081297972354,24.489976923385676 " />
			<path d="M-3.2769276820761615,2.8067705967284127 L31.130812979723537,24.489976923385676 " />
			<path d="M-1.3517326688564166,2.2122893566058925 L-3.2769276820761615,2.8067705967284127 " />
			<path d="M-1.3517326688564164,2.212289356605893 L-1.2727496300662022,2.2580956124481757 L-1.18580948481548,2.301005937225705 L-1.0914557744065685,2.3407520597762326 L-0.9902783890275547,2.3770854912209898 L-0.8829098798164148,2.4097790784929076 L-0.7700215042130386,2.4386284244754175 L-0.6523190293232337,2.463453165873276 L-0.5305383195316671,2.484098100826282 L-0.4054407359495552,2.500434159216156 L-0.27780837645931017,2.5123592096003255 L-0.14843918611491458,2.5197986977277322 L-0.018141968467328094,2.5227061126447348 L0.11226867099637018,2.5210632774770505 L0.24197741768697736,2.5148804630697983 L0.37017334518039924,2.504196323775179 L0.49605498505050494,2.489077655789238 L0.6188353375714976,2.4696189795485664 L0.7377467919633859,2.4459419487977576 L0.852045925419659,2.418194590022071 L0.9610181509141099,2.386550377000291 L1.0639821847291757,2.351207146263599 L1.1602943057752435,2.312385860240887 L1.249352380072074,2.270329225823218 L1.3305996252316725,2.2253001769840366 L1.4035280914074342,2.1775802309416266 L1.467681836947007,2.127467728140942 L1.5226597788950018,2.075275967058265 L1.5465981099042705,2.048501880217146 L1.568118200524479,2.0213312454897094 L1.5871864022260063,1.9938065465217536 L1.6037729002203776,1.9659708205692505 L1.6178517600782762,1.937867591205859 L1.6294009682802741,1.9095408002700394 L1.6384024666368797,1.8810347391581768 L1.644842180524085,1.8523939795711366 L1.6487100408902622,1.823663303822542 L1.65,1.7948876348177432 " />
			<path d="M1.65,1.7948876348177398 L1.648798139614117,1.7671115987744985 L1.6451943093272405,1.739376026873557 L1.639193759201018,1.7117213243090332 L1.6308052308396797,1.6841877784645582 L1.6200409446552666,1.6568155002225975 L1.606916582064927,1.629644365530896 L1.5914512626462205,1.602713957311182 L1.5736675162837108,1.5760635077947465 L1.5312517119509441,1.5237573180176383 L1.4799162445033054,1.473030483918771 L1.4199601471251517,1.4241784933447956 L1.3517326688564208,1.3774859130295904 " />
			<path d="M-1.3517326688564164,0.41740172178815255 L-1.2925570552498862,0.4524089594618754 L-1.2287289503171297,0.48578777481470026 L-1.1604780999740918,0.517418022551471 L-1.0880501695768496,0.5471858512544541 L-1.01170585966205,0.574984113185545 L-0.931719967569,0.6007127499589313 L-0.8483803983210574,0.6242791526960048 L-0.7619871283266004,0.6455984953661629 L-0.6728511256296786,0.664594040113656 L-0.5812932305968487,0.6811974134714746 L-0.48764300106910313,0.6953488524680584 L-0.3922375261357067,0.7069974197409769 L-0.2954202127997,0.7161011868832944 L-0.19753954990240308,0.7226273853626713 L-0.09894785375610972,0.7265525244699779 L-5.601161896658446e-17,0.7278624758728696 L0.0989478537561096,0.726552524469978 L0.19753954990240297,0.7226273853626713 L0.29542021279969993,0.7161011868832944 L0.39223752613570667,0.706997419740977 L0.48764300106910297,0.6953488524680584 L0.5812932305968485,0.6811974134714746 L0.6728511256296784,0.664594040113656 L0.7619871283266002,0.645598495366163 L0.8483803983210573,0.6242791526960049 L0.9317199675689998,0.6007127499589311 L1.0117058596620498,0.5749841131855448 L1.0880501695768496,0.547185851254454 L1.1604780999740916,0.5174180225514708 L1.2287289503171297,0.48578777481470015 L1.292557055249886,0.4524089594618754 L1.3517326688564122,0.4174017217881551 " />
			<path d="M-1.3517326688564166,0.4174017217881523 L-1.3517326688564166,2.2122893566058925 " />
			<path d="M-1.3517326688564166,0.4174017217881523 L-1.3517326688564166,-1.377485913029588 " />
			<path d="M-3.2769276820761615,2.8067705967284127 L-3.2769276820761615,-0.7830046729070679 " />

       </g>
    </g>
    
</svg>
