<?xml version="1.0" encoding="UTF-8" standalone="no"?>
<svg
   xmlns:svg="http://www.w3.org/2000/svg"
   xmlns="http://www.w3.org/2000/svg"
   width="720.0"
   height="540.0"

>
    <g transform="scale(6.917336633547308, -6.917336633547308)   translate(7.133926894444389,-4.548320519542086)" stroke-width="0.4"  fill="none">
       <!-- hidden lines -->
       <g  stroke="rgb(180,180,180)" fill="none" stroke-dasharray="0.4,0.4" >
			<path d="M4.242640687119286,0.552344770738994 L-1.414213562373095,-1.657034312216982 " />
			<path d="M-1.4142135623730951,-1.657034312216982 L-1.4142135623730951,-56.891511386116385 " />
			<path d="M0.2828427124746191,-2.835369823126836 L0.285187897394388,-2.9292421982661 L0.2922137296258287,-3.0208935004828072 L0.30389108189241676,-3.1099437672706673 L0.32017154292309846,-3.196023819341047 L0.3409876181528524,-3.2787767911444656 L0.36625300953763396,-3.357859610342517 L0.39586297332366316,-3.432944420096724 L0.429694754287837,-3.5037199382778805 L0.4676080946490163,-3.569892747960949 L0.5094458155403758,-3.6311885138554603 L0.5550344686321824,-3.6873531196284115 L0.6041850552035423,-3.738153721404612 L0.6566938096820345,-3.783379713076947 L0.7123430444028768,-3.822843599424621 L0.7709020520854704,-3.8563817734196695 L0.8321280622858915,-3.8838551944992266 " />
			<path d="M0.8321280622858959,-3.8838551944992283 L0.8804318460114031,-3.9006519952971694 L0.9300215566453827,-3.9138179204887353 L0.980777728231371,-3.923321252206941 L1.0325780847063015,-3.9291390960932837 L1.0852978344742514,-3.9312574364522574 L1.1388099710403248,-3.9296711700163938 L1.1929855789804242,-3.924384118240477 L1.2476941445098,-3.915409018095326 L1.302803869902187,-3.9027674913833166 L1.3581819910020725,-3.8864899926495653 L1.4136950970651765,-3.8666157358142614 L1.4692094521566197,-3.8431925997029017 L1.5245913173325034,-3.8162770127020016 L1.5797072728287405,-3.7859338168181735 L1.6344245394809533,-3.7522361114680525 L1.6886112986011093,-3.7152650773753964 L1.742137009540289,-3.675109780999615 L1.7948727241725417,-3.6318669599668656 L1.846691397542214,-3.5856407900206415 L1.8974681939263793,-3.5365426340532755 L1.9470807875750267,-3.484690773822985 L1.9954096574045057,-3.43021012500275 L2.0423383749342885,-3.3732319362475214 L2.0877538847733756,-3.313893473004709 L2.131546776980636,-3.2523376868297005 L2.1736115506429377,-3.188712871003042 L2.21384686803609,-3.123172303278935 L2.2521557987562946,-3.055873876625702 L2.2884460532339803,-2.9869797188477976 L2.3226302050674597,-2.9166558020057254 L2.3546259016407878,-2.8450715425748045 L2.3843560625184272,-2.7723993933060447 L2.4117490651387694,-2.698814427772363 L2.4367389173591585,-2.6244939186010114 L2.4592654164367427,-2.5496169104082917 L2.479274294062156,-2.4743637884653897 L2.496717347096629,-2.3989158441344633 L2.5115525536975687,-2.3234548381218656 L2.523744174552864,-2.248162562600683 L2.533262838980015,-2.173220403257471 L2.5400856156826785,-2.098808902318245 L2.544196067994175,-2.0251073236064454 L2.5455842934748523,-1.952293220680685 L2.5442469477679333,-1.8805420090926734 L2.5401872526563634,-1.8100265437957908 L2.533414988301254,-1.7409167027223624 L2.523946469680616,-1.6733789775328414 L2.511804507285152,-1.6075760725228136 L2.4970183521657816,-1.543666512654104 L2.4796236254653037,-1.4818042616542533 L2.459662232603936,-1.4221383511044121 L2.4371822623254933,-1.364812521409212 L2.41223787084739,-1.3099648755135376 L2.384889151393567,-1.2577275462004387 L2.3552019894246534,-1.20822637777168 L2.3232479039141207,-1.1615806228777965 L2.2891038750528114,-1.1179026552280134 L2.252852158796916,-1.0772976988721363 L2.2145800887061697,-1.0398635747066023 L2.1743798655496582,-1.0056904648153662 L2.1323483351860903,-0.974860695213368 L2.088586755253639,-0.9474485375159487 L2.0432005512314233,-0.9235200300120214 L1.9962990624603032,-0.9031328185720571 " />
			<path d="M1.9962990624602943,-0.9031328185720535 L1.931073473169269,-0.8813949000316446 L1.8635989296319388,-0.8662364078219944 L1.7941690262208527,-0.8577232993809119 L1.723085865445482,-0.855892616837179 L1.650658743447639,-0.8607523258333121 L1.5772028041960515,-0.8722812808655596 L1.5030376682359496,-0.8904293172919486 L1.4284860419602285,-0.9151174696080346 L1.3538723134535116,-0.9462383150405964 L1.2795211410188567,-0.9836564409642352 L1.205756040528693,-1.0272090341070625 L1.1328979777466848,-1.0767065889817302 L1.0612639717455994,-1.131933732459288 L0.9911657154979638,-1.1926501608979934 L0.9229082196415808,-1.2585916857494497 L0.8567884853211355,-1.3294713830924454 L0.7930942118806059,-1.4049808420926588 L0.7321025450295494,-1.4847915069559416 L0.674078870930229,-1.5685561065360991 L0.6192756614527318,-1.6559101653766661 L0.5679313756225913,-1.7464735896118622 L0.5202694220409183,-1.839852320826168 L0.47649718679174746,-1.9356400506762736 L0.43680513106635643,-2.0334199888147557 L0.40136596243096134,-2.1327666764229147 L0.3703338833437586,-2.233247837461759 L0.34384392019115784,-2.334426259585987 L0.3220113357626928,-2.435861696536761 L0.3049311277210427,-2.5371127837356133 L0.29267761524941527,-2.6377389587443596 L0.2853041156748646,-2.7373023782347645 L0.2828427124746191,-2.8353698231268294 " />
			<path d="M-1.4142135623730951,-1.657034312216982 L-4.242640687119286,-0.5523447707389939 " />
			<path d="M-0.8818037506561653,-2.380497658988841 L0.2828427124746189,-2.835369823126836 " />
			<path d="M1.9962990624602943,-0.9031328185720533 L-0.8321280622858961,0.20155672290593468 " />
			<path d="M0.8321280622858961,-3.8838551944992283 L-1.9962990624602943,-2.77916565302124 " />

       </g>

       <!-- solid lines -->
       <g  stroke="rgb(40,40,40)" fill="none">
			<path d="M4.242640687119286,0.552344770738994 L4.242640687119286,-54.682132303160415 " />
			<path d="M4.242640687119286,-54.682132303160415 L-1.414213562373095,-56.89151138611639 " />
			<path d="M4.242640687119286,0.552344770738994 L1.4142135623730954,1.657034312216982 " />
			<path d="M1.4142135623730951,1.657034312216982 L1.4142135623730951,-53.57744276168243 " />
			<path d="M4.242640687119286,-54.682132303160415 L1.4142135623730954,-53.57744276168243 " />
			<path d="M-1.4142135623730951,-56.891511386116385 L-4.242640687119286,-55.786821844638396 " />
			<path d="M1.4142135623730951,-53.57744276168243 L-4.242640687119286,-55.7868218446384 " />
			<path d="M1.4142135623730951,1.657034312216982 L-4.242640687119286,-0.5523447707389941 " />
			<path d="M-4.242640687119286,-0.552344770738994 L-4.242640687119286,-55.786821844638396 " />
			<path d="M-2.5455844122715714,-1.730680281648848 L-0.8818037506561653,-2.380497658988841 " />
			<path d="M-2.5455844122715714,-1.7306802816488478 L-2.5431230090713255,-1.6326128367567763 L-2.535749509496775,-1.5330494172663718 L-2.5234959970251474,-1.432423242257625 L-2.5064157889834977,-1.3311721550587734 L-2.4845832045550322,-1.2297367181079988 L-2.458093241402432,-1.1285582959837712 L-2.427061162315229,-1.0280771349449265 L-2.391621993679834,-0.9287304473367675 L-2.3519299379544427,-0.8309505091982857 L-2.308157702705272,-0.7351627793481799 L-2.2604957491235993,-0.6417840481338741 L-2.2091514632934586,-0.551220623898678 L-2.1543482538159613,-0.46386656505811086 L-2.096324579716641,-0.3801019654779536 L-2.0353329128655844,-0.3002913006146706 L-1.971638639425055,-0.22478184161445736 L-1.9055189051046098,-0.15390214427146165 L-1.8372614092482267,-0.08796061942000533 L-1.7671631530005913,-0.027244190981300154 L-1.6955291469995055,0.02798295249625804 L-1.622671084217497,0.07748050737092638 L-1.5489059837273331,0.12103310051375349 L-1.4745548112926783,0.15845122643739207 L-1.3999410827859615,0.18957207186995362 L-1.3253894565102404,0.21426022418603985 L-1.2512243205501385,0.2324082606124287 L-1.177768381298551,0.2439372156446764 L-1.1053412593007084,0.24879692464080927 L-1.0342580985253376,0.2469662420970764 L-0.9648281951142514,0.23845313365599385 L-0.8973536515769214,0.2232946414463437 L-0.8321280622859,0.2015567229059363 " />
			<path d="M-0.8321280622858956,0.20155672290593452 L-0.7852265735147663,0.1811695114659666 L-0.7398403694925506,0.15724100396203933 L-0.6960787895600997,0.12982884626461977 L-0.6540472591965323,0.09899907666262231 L-0.6138470360400217,0.06482596677138686 L-0.575574965949275,0.027391842605852368 L-0.5393232496933791,-0.013213113750024652 L-0.5051792208320696,-0.05689108139980781 L-0.473225135321537,-0.10353683629369126 L-0.44353797335262346,-0.15303800472245 L-0.41618925389880057,-0.20527533403554887 L-0.3912448624206968,-0.2601229799312237 L-0.3687648921422546,-0.3174488096264245 L-0.34880349928088683,-0.3771147201762657 L-0.331408772580408,-0.43897697117611645 L-0.3166226174610385,-0.5028865310448252 L-0.3044806550655743,-0.5686894360548518 L-0.29501213644493673,-0.6362271612443738 L-0.28823987208982693,-0.7053370023178023 L-0.28418017697825704,-0.7758524676146847 L-0.2828428312713378,-0.8476036792026961 L-0.284231056752015,-0.9204177821284567 L-0.2883415090635115,-0.9941193608402562 L-0.2951642857661756,-1.0685308617794822 L-0.30468295019332614,-1.1434730211226942 L-0.3168745710486214,-1.2187652966438765 L-0.3317097776495612,-1.2942263026564744 L-0.3491528306840337,-1.369674246987401 L-0.3691617083094476,-1.4449273689303026 L-0.3916882073870318,-1.5198043771230225 L-0.41667805960742077,-1.5941248862943742 L-0.44407106222776305,-1.667709851828056 L-0.4738012231054024,-1.7403820010968158 L-0.5057969196787304,-1.8119662605277367 L-0.5399810715122093,-1.8822901773698089 L-0.5762713259898955,-1.9511843351477132 L-0.6145802567101002,-2.0184827618009464 L-0.6548155741032521,-2.0840233295250528 L-0.696880347765554,-2.147648145351712 L-0.7406732399728142,-2.2092039315267202 L-0.7860887498119014,-2.2685423947695327 L-0.8330174673416844,-2.325520583524762 L-0.8813463371711634,-2.3800012323449966 L-0.9309589308198105,-2.4318530925752873 L-0.981735727203976,-2.480951248542653 L-1.0335544005736483,-2.5271774184888773 L-1.0862901152059004,-2.570420239521626 L-1.1398158261450806,-2.610575535897408 L-1.1940025852652376,-2.647546569990064 L-1.2487198519174498,-2.6812442753401857 L-1.3038358074136867,-2.7115874712240133 L-1.3592176725895702,-2.738503058224913 L-1.4147320276810134,-2.761926194336273 L-1.4702451337441174,-2.7818004511715766 L-1.525623254844003,-2.7980779499053283 L-1.5807329802363892,-2.8107194766173373 L-1.6354415457657647,-2.8196945767624886 L-1.6896171537058642,-2.8249816285384055 L-1.7431292902719375,-2.826567894974269 L-1.7958490400398883,-2.824449554615295 L-1.8476493965148197,-2.818631710728953 L-1.8984055681008076,-2.809128379010747 L-1.947995278734787,-2.7959624538191816 L-1.9962990624602854,-2.7791656530212436 " />
			<path d="M-1.9962990624602943,-2.77916565302124 L-2.05752507266072,-2.751692231941681 L-2.1160840803433136,-2.7181540579466326 L-2.171733315064156,-2.6786901715989586 L-2.224242069542648,-2.633464179926624 L-2.273392656114008,-2.5826635781504232 L-2.3189813092058142,-2.5264989723774725 L-2.360819030097174,-2.465203206482961 L-2.398732370458353,-2.3990303967998923 L-2.432564151422527,-2.328254878618736 L-2.4621741152085566,-2.2531700688645286 L-2.487439506593338,-2.174087249666478 L-2.508255581823092,-2.091334277863059 L-2.5245360428537733,-2.005254225792679 L-2.5362133951203614,-1.9162039590048194 L-2.543239227351802,-1.824552656788112 L-2.5455844122715714,-1.730680281648851 " />

       </g>
    </g>
    
</svg>
