<?xml version="1.0" encoding="UTF-8" standalone="no"?>
<svg
   xmlns:svg="http://www.w3.org/2000/svg"
   xmlns="http://www.w3.org/2000/svg"
   width="720.0"
   height="540.0"

>
    <g transform="scale(13.183080064992398, -13.183080064992398)   translate(4.794023831185496,-26.00707307249501)" stroke-width="0.4"  fill="none">
       <!-- hidden lines -->
       <g  stroke="rgb(180,180,180)" fill="none" stroke-dasharray="0.4,0.4" >
			<path d="M37.68466834387586,18.87643572992885 L31.13081297972354,20.900201653750194 " />
			<path d="M-3.2769276820761615,-0.7830046729070679 L31.130812979723537,20.900201653750194 " />
			<path d="M1.3107710728304642,-2.1996408195820094 L1.376931051757723,-2.1543631659430202 L1.4350702977001752,-2.1069915387197713 L1.4848501449221276,-2.057801881411779 L1.5259806218508711,-2.0070807276885225 L1.5432254668084564,-1.9812378675513729 L1.5582221401841716,-1.9551235323080134 L1.5709487948172285,-1.9287757653342426 L1.5813868905112045,-1.902232950069311 L1.5895212210434115,-1.8755337540989108 L1.5953399363173242,-1.8487170728242213 L1.5988345596258107,-1.8218219727990659 L1.6,-1.7948876348177467 " />
			<path d="M1.6,-1.7948876348177403 L1.5988345596258107,-1.7679532968364153 L1.5953399363173242,-1.7410581968112597 L1.5895212210434115,-1.71424151553657 L1.5813868905112047,-1.6875423195661703 L1.5709487948172285,-1.6609995043012384 L1.5582221401841716,-1.6346517373274674 L1.5432254668084564,-1.6085374020841083 L1.5259806218508714,-1.5826945419469585 L1.484850144922128,-1.531973388223702 L1.435070297700175,-1.4827837309157093 L1.376931051757723,-1.4354121036924605 L1.3107710728304656,-1.3901344500534718 " />
			<path d="M31.130812979723537,24.489976923385676 L31.130812979723537,20.900201653750194 " />
			<path d="M1.3107710728304645,0.4047531847642691 L1.376931051757723,0.35947553112527963 L1.435070297700175,0.312103903902031 L1.4848501449221276,0.2629142465940384 L1.5259806218508711,0.2121930928707818 L1.5432254668084564,0.18635023273363197 L1.5582221401841716,0.16023589749027292 L1.5709487948172285,0.13388813051650175 L1.581386890511205,0.10734531525156978 L1.5895212210434115,0.08064611928116992 L1.5953399363173242,0.05382943800648011 L1.5988345596258107,0.026934337981324732 L1.6,2.8084363396961456e-15 " />
			<path d="M1.6,-3.259721140240282e-16 L1.5988345596258107,-0.026934337981325385 L1.5953399363173242,-0.053829438006480754 L1.5895212210434115,-0.08064611928117058 L1.5813868905112047,-0.10734531525157043 L1.5709487948172285,-0.1338881305165021 L1.5582221401841716,-0.16023589749027323 L1.5432254668084564,-0.1863502327336323 L1.5259806218508714,-0.21219309287078178 L1.4848501449221279,-0.26291424659403845 L1.4350702977001752,-0.3121039039020311 L1.3769310517577231,-0.3594755311252797 L1.3107710728304687,-0.40475318476426647 " />
			<path d="M1.6,1.7948876348177403 L1.6,-5.551115123125783e-17 " />
			<path d="M1.6,-1.7948876348177403 L1.6,-5.551115123125783e-17 " />

       </g>

       <!-- solid lines -->
       <g  stroke="rgb(40,40,40)" fill="none">
			<path d="M3.2769276820761615,0.7830046729070679 L3.2769276820761615,-2.8067705967284127 " />
			<path d="M3.2769276820761615,-2.8067705967284127 L37.68466834387586,18.87643572992885 " />
			<path d="M37.68466834387586,22.466210999564332 L37.68466834387586,18.87643572992885 " />
			<path d="M3.2769276820761615,0.7830046729070679 L37.68466834387586,22.466210999564332 " />
			<path d="M1.3107710728304647,1.3901344500534714 L1.3107710728304647,-0.40475318476426897 " />
			<path d="M1.3107710728304647,-2.1996408195820094 L1.3107710728304647,-0.40475318476426897 " />
			<path d="M3.2769276820761615,-2.8067705967284127 L1.3107710728304647,-2.1996408195820094 " />
			<path d="M3.2769276820761615,0.7830046729070679 L1.3107710728304647,1.3901344500534711 " />
			<path d="M-1.3107710728304642,-1.3901344500534716 L-3.2769276820761615,-0.7830046729070679 " />
			<path d="M1.3107710728304645,-1.3901344500534711 L1.2533886596362533,-1.3561880377638005 L1.1914947397014592,-1.3238207016640917 L1.125312096944574,-1.2931489462829808 L1.0550789523169453,-1.2642831729952395 L0.9810481063389578,-1.237327282637818 L0.9034860291578183,-1.212378301524231 L0.8226719014022376,-1.1895260322034327 L0.7388966092864004,-1.168852730220249 L0.6524616975802945,-1.1504328080408617 L0.563678284215126,-1.1343325672090376 L0.47286594043064556,-1.1206099596971986 L0.3803515404952309,-1.1093143793113383 L0.2864680851391031,-1.1004864839006063 L0.19155350293566364,-1.0941580490115133 L0.09594943394531856,-1.090351853513519 L8.611803945260045e-17,-1.0890815976076849 L-0.09594943394531838,-1.090351853513519 L-0.19155350293566345,-1.0941580490115133 L-0.28646808513910293,-1.1004864839006063 L-0.3803515404952307,-1.1093143793113383 L-0.4728659404306453,-1.1206099596971986 L-0.5636782842151259,-1.1343325672090376 L-0.6524616975802943,-1.1504328080408617 L-0.7388966092864003,-1.168852730220249 L-0.8226719014022374,-1.1895260322034324 L-0.9034860291578181,-1.212378301524231 L-0.9810481063389576,-1.2373272826378177 L-1.055078952316945,-1.2642831729952393 L-1.1253120969445738,-1.2931489462829804 L-1.1914947397014592,-1.3238207016640915 L-1.2533886596362533,-1.3561880377638003 L-1.3107710728304605,-1.3901344500534685 " />
			<path d="M37.68466834387586,22.466210999564332 L31.13081297972354,24.489976923385676 " />
			<path d="M-3.2769276820761615,2.8067705967284127 L31.130812979723537,24.489976923385676 " />
			<path d="M-1.3107710728304642,2.199640819582009 L-3.2769276820761615,2.8067705967284127 " />
			<path d="M-1.3107710728304645,2.1996408195820094 L-1.2341814594581357,2.2440590070654354 L-1.1498758640634958,2.2856690189709186 L-1.0583813570003089,2.3242107135653693 L-0.9602699529964168,2.359443131936043 L-0.8561550349734932,2.391146004442145 L-0.746687519236886,2.4191211278191243 L-0.6325517860104085,2.4431936043261384 L-0.5144614007579803,2.4632129351896594 L-0.393154653041993,2.479053961507113 L-0.26938994080902806,2.490617646728126 L-0.1439410289599172,2.497831695821369 L-0.017592211847106028,2.5006510072560384 L0.10886659005708625,2.4990579549722227 L0.2346447686661599,2.4930624985773115 L0.35895597108402355,2.482702121079499 L0.4810230158065503,2.4680415945476772 L0.6000827515844825,2.449172575162784 L0.715390828570556,2.4262130301923026 L0.8262263519220936,2.3993065004704244 L0.9318963887651975,2.3686212029947593 L1.0317403003434433,2.3343489792500884 L1.1251338722669029,2.2967040958341247 L1.2114932170395871,2.2559219048836585 L1.2902784244670764,2.212257372675967 L1.3609969371223605,2.165983485604539 L1.423206629766795,2.1173895434947845 L1.4765185734739414,2.0667793509297643 L1.4997315005132321,2.0408166000535277 L1.5205994671752525,2.0144693178935893 L1.539089844582794,1.9877787007125411 L1.5551737214258208,1.9607864816070837 L1.5688259491668135,1.9335348652547037 L1.5800251813626902,1.9060664619229999 L1.5887539070418228,1.8784242208448303 L1.5949984780839612,1.850651363063458 L1.5987491305602544,1.8227913138526997 L1.6,1.7948876348177432 " />
			<path d="M1.6,1.79488763481774 L1.5988345596258107,1.767953296836415 L1.5953399363173242,1.7410581968112595 L1.5895212210434115,1.7142415155365698 L1.5813868905112047,1.6875423195661698 L1.5709487948172285,1.6609995043012382 L1.5582221401841716,1.634651737327467 L1.5432254668084564,1.608537402084108 L1.5259806218508714,1.5826945419469585 L1.4848501449221279,1.5319733882237019 L1.4350702977001752,1.4827837309157093 L1.3769310517577231,1.4354121036924605 L1.3107710728304687,1.3901344500534738 " />
			<path d="M-1.3107710728304645,0.40475318476426914 L-1.2533886596362533,0.4386995970539399 L-1.1914947397014592,0.4710669331536488 L-1.125312096944574,0.5017386885347598 L-1.0550789523169453,0.530604461822501 L-0.9810481063389578,0.5575603521799225 L-0.9034860291578183,0.5825093332935093 L-0.8226719014022376,0.6053616026143077 L-0.7388966092864004,0.6260349045974913 L-0.6524616975802945,0.6444548267768786 L-0.563678284215126,0.6605550676087028 L-0.4728659404306455,0.6742776751205416 L-0.38035154049523084,0.6855732555064019 L-0.28646808513910305,0.6944011509171341 L-0.1915535029356636,0.7007295858062269 L-0.09594943394531853,0.7045357813042211 L-5.431429717971827e-17,0.7058060372100554 L0.09594943394531841,0.7045357813042211 L0.1915535029356635,0.7007295858062269 L0.286468085139103,0.6944011509171341 L0.38035154049523073,0.685573255506402 L0.47286594043064534,0.6742776751205416 L0.5636782842151259,0.6605550676087028 L0.6524616975802943,0.6444548267768786 L0.7388966092864003,0.6260349045974914 L0.8226719014022374,0.6053616026143078 L0.9034860291578181,0.5825093332935091 L0.9810481063389576,0.5575603521799223 L1.055078952316945,0.5306044618225009 L1.1253120969445738,0.5017386885347597 L1.1914947397014592,0.47106693315364867 L1.2533886596362533,0.43869959705393985 L1.3107710728304605,0.4047531847642717 " />
			<path d="M-1.3107710728304647,0.40475318476426897 L-1.3107710728304647,2.1996408195820094 " />
			<path d="M-1.3107710728304647,0.40475318476426897 L-1.3107710728304647,-1.3901344500534714 " />
			<path d="M-3.2769276820761615,2.8067705967284127 L-3.2769276820761615,-0.7830046729070679 " />

       </g>
    </g>
    
</svg>
