<?xml version="1.0" encoding="UTF-8" standalone="no"?>
<svg
   xmlns:svg="http://www.w3.org/2000/svg"
   xmlns="http://www.w3.org/2000/svg"
   width="900.0"
   height="600.0"

>
    <g transform="scale(6.373937668025583, -6.373937668025583)   translate(12.137777882222222,-17.737777882222222)" stroke-width="0.4"  fill="none">
       <!-- hidden lines -->
       <g  stroke="rgb(180,180,180)" fill="none" stroke-dasharray="0.4,0.4" >
			<path d="M0.0,0.0 L2.0,0.0 " />
			<path d="M0.0,0.0 L2.0,0.0 " />
			<path d="M0.0,0.0 L0.0,-2.0 " />
			<path d="M0.0,14.6 L0.0,14.508198264441342 L0.0,14.233947517854624 L0.0,13.780696622502166 L0.0,13.154145471375319 L0.0,12.362173308732947 L0.0,11.414739644033235 L0.0,10.323759005323591 L0.0,9.102951107137509 L0.0,7.7676683171239125 L0.0,6.334702591116347 L0.0,4.822074304545438 L0.0,3.2488056357621886 L0.0,1.6346813511082932 L0.0,6.972200594645983e-14 " />
			<path d="M0.0,0.0 L0.0,-1.0 " />
			<path d="M0.0,-1.0 L0.0,-2.0 " />
			<path d="M0.0,0.0 L0.0,-2.0 " />
			<path d="M0.0,4.0 L0.0,3.55214209558677 L0.0,3.1099162641747453 L0.0,2.6788837521793356 L0.0,2.264465043529773 L0.0,1.8718716939386604 L0.0,1.5060407925650727 L0.0,1.1715728752538173 L0.0,0.8726740701278879 L0.0,0.6131032030868706 L0.0,0.3961245283903301 L0.0,0.22446667876653548 L0.0,0.10028835127270996 L0.0,0.025151160427031805 L0.0,4.996003610813204e-16 " />
			<path d="M0.0,0.0 L0.0,0.10028835127270108 L0.0,0.39612452839031587 L0.0,0.8726740701278706 L0.0,1.5060407925650545 L0.0,2.264465043529756 L0.0,3.1099162641747315 L0.0,3.9999999999999907 L0.0,4.89008373582525 L0.0,5.735534956470227 L0.0,6.493959207434931 L0.0,7.127325929872116 L0.0,7.603875471609674 L0.0,7.899711648727294 L0.0,7.9999999999999964 " />
			<path d="M0.0,8.0 L0.0,7.974848839572971 L0.0,7.899711648727294 L0.0,7.77553332123347 L0.0,7.603875471609677 L0.0,7.3868967969131365 L0.0,7.12732592987212 L0.0,6.828427124746191 L0.0,6.493959207434935 L0.0,6.128128306061347 L0.0,5.735534956470233 L0.0,5.321116247820669 L0.0,4.890083735825258 L0.0,4.447857904413232 L0.0,4.000000000000036 " />
			<path d="M2.0,0.0 L78.0,0.0 " />
			<path d="M78.0,0.0 L80.0,0.0 " />
			<path d="M80.0,0.0 L80.0,-2.0 " />
			<path d="M0.0,-2.0 L80.0,-2.0 " />
			<path d="M2.0,0.0 L2.0,1.4555381893430022 L2.0,2.8927721414320873 L2.0,4.293627805417172 L2.0,5.640488608528256 L2.0,6.916416994699375 L2.0,8.105367424163536 L2.0,9.192388155425117 L2.0,10.163809272084388 L2.0,11.007414589967693 L2.0,11.712595282731447 L2.0,12.270483294008777 L2.0,12.674062858363705 L2.0,12.918258728612152 L2.0,12.999999999999996 " />
			<path d="M2.0,12.999999999999998 L2.0,12.918258728612152 L2.0,12.674062858363705 L2.0,12.270483294008777 L2.0,11.712595282731447 L2.0,11.007414589967691 L2.0,10.163809272084386 L2.0,9.192388155425116 L2.0,8.105367424163534 L2.0,6.916416994699373 L2.0,5.640488608528253 L2.0,4.29362780541717 L2.0,2.892772141432085 L2.0,1.4555381893430002 L2.0,6.17284001691587e-14 " />
			<path d="M2.0,4.0 L2.0,4.184741385570458 L2.0,4.3671595410279185 L2.0,4.544960452226025 L2.0,4.715908169543971 L2.0,4.877852926250306 L2.0,5.02875817306691 L2.0,5.166726188957803 L2.0,5.290021946072249 L2.0,5.397094928726669 L2.0,5.486598632038992 L2.0,5.557407495008807 L2.0,5.608631055100009 L2.0,5.6396251463238505 L2.0,5.65 " />
			<path d="M2.0,5.65 L2.0,5.608631055100009 L2.0,5.486598632038992 L2.0,5.290021946072249 L2.0,5.02875817306691 L2.0,4.715908169543971 L2.0,4.3671595410279185 L2.0,4.0 L2.0,3.6328404589720815 L2.0,3.2840918304560294 L2.0,2.97124182693309 L2.0,2.709978053927751 L2.0,2.5134013679610088 L2.0,2.391368944899991 L2.0,2.350000000000002 " />
			<path d="M2.0,2.35 L2.0,2.3603748536761495 L2.0,2.391368944899991 L2.0,2.4425925049911936 L2.0,2.5134013679610083 L2.0,2.602905071273331 L2.0,2.7099780539277507 L2.0,2.833273811042196 L2.0,2.971241826933089 L2.0,3.1221470737496944 L2.0,3.284091830456029 L2.0,3.455039547773974 L2.0,3.6328404589720806 L2.0,3.8152586144295415 L2.0,3.999999999999985 " />
			<path d="M2.0,0.0 L78.0,0.0 " />
			<path d="M78.0,0.0 L80.0,0.0 " />
			<path d="M80.0,0.0 L80.0,-2.0 " />
			<path d="M0.0,-2.0 L80.0,-2.0 " />
			<path d="M0.0,2.3594865558827754e-15 L80.0,2.3594865558827754e-15 " />
			<path d="M80.0,14.6 L80.0,14.508198264441342 L80.0,14.233947517854624 L80.0,13.780696622502166 L80.0,13.154145471375319 L80.0,12.362173308732947 L80.0,11.414739644033235 L80.0,10.323759005323591 L80.0,9.102951107137509 L80.0,7.7676683171239125 L80.0,6.334702591116347 L80.0,4.822074304545438 L80.0,3.2488056357621886 L80.0,1.6346813511082932 L80.0,6.972200594645983e-14 " />
			<path d="M80.0,0.0 L80.0,-1.0 " />
			<path d="M0.0,-1.0 L80.0,-1.0 " />
			<path d="M0.0,-2.0 L80.0,-2.0 " />
			<path d="M80.0,-1.0 L80.0,-2.0 " />
			<path d="M-4.0,0.0 L-4.0,0.10028835127270552 L-4.0,0.3961245283903234 L-4.0,0.8726740701278803 L-4.0,1.5060407925650656 L-4.0,2.264465043529767 L-4.0,3.1099162641747418 L-4.0,3.9999999999999996 L-4.0,4.890083735825257 L-4.0,5.735534956470232 L-4.0,6.4939592074349335 L-4.0,7.127325929872119 L-4.0,7.603875471609676 L-4.0,7.899711648727294 L-4.0,7.9999999999999964 " />
			<path d="M2.0,0.0 L78.0,0.0 " />
			<path d="M80.0,4.0 L80.0,3.55214209558677 L80.0,3.1099162641747453 L80.0,2.6788837521793356 L80.0,2.264465043529773 L80.0,1.8718716939386604 L80.0,1.5060407925650727 L80.0,1.1715728752538173 L80.0,0.8726740701278879 L80.0,0.6131032030868706 L80.0,0.3961245283903301 L80.0,0.22446667876653548 L80.0,0.10028835127270996 L80.0,0.025151160427031805 L80.0,4.996003610813204e-16 " />
			<path d="M80.0,0.0 L80.0,0.10028835127270108 L80.0,0.39612452839031587 L80.0,0.8726740701278706 L80.0,1.5060407925650545 L80.0,2.264465043529756 L80.0,3.1099162641747315 L80.0,3.9999999999999907 L80.0,4.89008373582525 L80.0,5.735534956470227 L80.0,6.493959207434931 L80.0,7.127325929872116 L80.0,7.603875471609674 L80.0,7.899711648727294 L80.0,7.9999999999999964 " />
			<path d="M80.0,8.0 L80.0,7.974848839572971 L80.0,7.899711648727294 L80.0,7.77553332123347 L80.0,7.603875471609677 L80.0,7.3868967969131365 L80.0,7.12732592987212 L80.0,6.828427124746191 L80.0,6.493959207434935 L80.0,6.128128306061347 L80.0,5.735534956470233 L80.0,5.321116247820669 L80.0,4.890083735825258 L80.0,4.447857904413232 L80.0,4.000000000000036 " />
			<path d="M2.0,1.9062434440709366e-15 L78.0,1.9062434440709366e-15 " />
			<path d="M78.0,0.0 L78.0,1.4555381893430022 L78.0,2.8927721414320873 L78.0,4.293627805417172 L78.0,5.640488608528256 L78.0,6.916416994699375 L78.0,8.105367424163536 L78.0,9.192388155425117 L78.0,10.163809272084388 L78.0,11.007414589967693 L78.0,11.712595282731447 L78.0,12.270483294008777 L78.0,12.674062858363705 L78.0,12.918258728612152 L78.0,12.999999999999996 " />
			<path d="M78.0,12.999999999999998 L78.0,12.918258728612152 L78.0,12.674062858363705 L78.0,12.270483294008777 L78.0,11.712595282731447 L78.0,11.007414589967691 L78.0,10.163809272084386 L78.0,9.192388155425116 L78.0,8.105367424163534 L78.0,6.916416994699373 L78.0,5.640488608528253 L78.0,4.29362780541717 L78.0,2.892772141432085 L78.0,1.4555381893430002 L78.0,6.17284001691587e-14 " />
			<path d="M-4.0,4.0 L-4.0,4.184741385570458 L-4.0,4.3671595410279185 L-4.0,4.544960452226025 L-4.0,4.715908169543971 L-4.0,4.877852926250306 L-4.0,5.02875817306691 L-4.0,5.166726188957803 L-4.0,5.290021946072249 L-4.0,5.397094928726669 L-4.0,5.486598632038992 L-4.0,5.557407495008807 L-4.0,5.608631055100009 L-4.0,5.6396251463238505 L-4.0,5.65 " />
			<path d="M-4.0,5.65 L-4.0,5.608631055100009 L-4.0,5.486598632038992 L-4.0,5.290021946072249 L-4.0,5.02875817306691 L-4.0,4.715908169543971 L-4.0,4.3671595410279185 L-4.0,4.0 L-4.0,3.6328404589720815 L-4.0,3.2840918304560294 L-4.0,2.97124182693309 L-4.0,2.709978053927751 L-4.0,2.5134013679610088 L-4.0,2.391368944899991 L-4.0,2.350000000000002 " />
			<path d="M-4.0,2.35 L-4.0,2.3603748536761495 L-4.0,2.391368944899991 L-4.0,2.4425925049911936 L-4.0,2.5134013679610083 L-4.0,2.602905071273331 L-4.0,2.7099780539277507 L-4.0,2.833273811042196 L-4.0,2.971241826933089 L-4.0,3.1221470737496944 L-4.0,3.284091830456029 L-4.0,3.455039547773974 L-4.0,3.6328404589720806 L-4.0,3.8152586144295415 L-4.0,3.999999999999985 " />
			<path d="M78.0,4.0 L78.0,4.184741385570458 L78.0,4.3671595410279185 L78.0,4.544960452226025 L78.0,4.715908169543971 L78.0,4.877852926250306 L78.0,5.02875817306691 L78.0,5.166726188957803 L78.0,5.290021946072249 L78.0,5.397094928726669 L78.0,5.486598632038992 L78.0,5.557407495008807 L78.0,5.608631055100009 L78.0,5.6396251463238505 L78.0,5.65 " />
			<path d="M78.0,5.65 L78.0,5.608631055100009 L78.0,5.486598632038992 L78.0,5.290021946072249 L78.0,5.02875817306691 L78.0,4.715908169543971 L78.0,4.3671595410279185 L78.0,4.0 L78.0,3.6328404589720815 L78.0,3.2840918304560294 L78.0,2.97124182693309 L78.0,2.709978053927751 L78.0,2.5134013679610088 L78.0,2.391368944899991 L78.0,2.350000000000002 " />
			<path d="M78.0,2.35 L78.0,2.3603748536761495 L78.0,2.391368944899991 L78.0,2.4425925049911936 L78.0,2.5134013679610083 L78.0,2.602905071273331 L78.0,2.7099780539277507 L78.0,2.833273811042196 L78.0,2.971241826933089 L78.0,3.1221470737496944 L78.0,3.284091830456029 L78.0,3.455039547773974 L78.0,3.6328404589720806 L78.0,3.8152586144295415 L78.0,3.999999999999985 " />
			<path d="M84.0,0.0 L84.0,0.10028835127270552 L84.0,0.3961245283903234 L84.0,0.8726740701278803 L84.0,1.5060407925650656 L84.0,2.264465043529767 L84.0,3.1099162641747418 L84.0,3.9999999999999996 L84.0,4.890083735825257 L84.0,5.735534956470232 L84.0,6.4939592074349335 L84.0,7.127325929872119 L84.0,7.603875471609676 L84.0,7.899711648727294 L84.0,7.9999999999999964 " />
			<path d="M84.0,4.0 L84.0,4.184741385570458 L84.0,4.3671595410279185 L84.0,4.544960452226025 L84.0,4.715908169543971 L84.0,4.877852926250306 L84.0,5.02875817306691 L84.0,5.166726188957803 L84.0,5.290021946072249 L84.0,5.397094928726669 L84.0,5.486598632038992 L84.0,5.557407495008807 L84.0,5.608631055100009 L84.0,5.6396251463238505 L84.0,5.65 " />
			<path d="M84.0,5.65 L84.0,5.608631055100009 L84.0,5.486598632038992 L84.0,5.290021946072249 L84.0,5.02875817306691 L84.0,4.715908169543971 L84.0,4.3671595410279185 L84.0,4.0 L84.0,3.6328404589720815 L84.0,3.2840918304560294 L84.0,2.97124182693309 L84.0,2.709978053927751 L84.0,2.5134013679610088 L84.0,2.391368944899991 L84.0,2.350000000000002 " />
			<path d="M84.0,2.35 L84.0,2.3603748536761495 L84.0,2.391368944899991 L84.0,2.4425925049911936 L84.0,2.5134013679610083 L84.0,2.602905071273331 L84.0,2.7099780539277507 L84.0,2.833273811042196 L84.0,2.971241826933089 L84.0,3.1221470737496944 L84.0,3.284091830456029 L84.0,3.455039547773974 L84.0,3.6328404589720806 L84.0,3.8152586144295415 L84.0,3.999999999999985 " />
			<path d="M-9.0,4.0 L-5.0,4.0 " />
			<path d="M-5.0,4.0 L-5.0,-56.0 " />
			<path d="M-9.0,-56.0 L-5.0,-56.0 " />
			<path d="M-9.0,4.0 L-9.0,-56.0 " />
			<path d="M-9.0,4.0 L-7.0,4.0 " />
			<path d="M-5.0,4.0 L-7.0,4.0 " />
			<path d="M-5.0,4.0 L-5.0,3.8152586144295424 L-5.0,3.6328404589720815 L-5.0,3.455039547773975 L-5.0,3.2840918304560294 L-5.0,3.122147073749695 L-5.0,2.97124182693309 L-5.0,2.8332738110421967 L-5.0,2.709978053927751 L-5.0,2.602905071273331 L-5.0,2.5134013679610088 L-5.0,2.442592504991194 L-5.0,2.391368944899991 L-5.0,2.3603748536761495 L-5.0,2.350000000000001 " />
			<path d="M-5.0,2.35 L-5.0,2.3603748536761495 L-5.0,2.391368944899991 L-5.0,2.4425925049911936 L-5.0,2.5134013679610083 L-5.0,2.602905071273331 L-5.0,2.7099780539277507 L-5.0,2.833273811042196 L-5.0,2.971241826933089 L-5.0,3.1221470737496944 L-5.0,3.284091830456029 L-5.0,3.455039547773974 L-5.0,3.6328404589720806 L-5.0,3.8152586144295415 L-5.0,3.999999999999985 " />
			<path d="M-9.0,4.0 L-9.0,3.815258614429542 L-9.0,3.6328404589720815 L-9.0,3.4550395477739744 L-9.0,3.2840918304560294 L-9.0,3.122147073749695 L-9.0,2.97124182693309 L-9.0,2.8332738110421967 L-9.0,2.7099780539277507 L-9.0,2.602905071273331 L-9.0,2.5134013679610083 L-9.0,2.4425925049911936 L-9.0,2.391368944899991 L-9.0,2.3603748536761495 L-9.0,2.35 " />
			<path d="M-9.0,2.35 L-9.0,2.3603748536761495 L-9.0,2.391368944899991 L-9.0,2.4425925049911936 L-9.0,2.5134013679610083 L-9.0,2.602905071273331 L-9.0,2.7099780539277507 L-9.0,2.8332738110421967 L-9.0,2.9712418269330896 L-9.0,3.1221470737496944 L-9.0,3.284091830456029 L-9.0,3.455039547773974 L-9.0,3.632840458972081 L-9.0,3.815258614429542 L-9.0,3.999999999999993 " />
			<path d="M-7.0,4.0 L-7.0,3.815258614429542 L-7.0,3.6328404589720815 L-7.0,3.4550395477739744 L-7.0,3.2840918304560294 L-7.0,3.122147073749695 L-7.0,2.97124182693309 L-7.0,2.8332738110421967 L-7.0,2.7099780539277507 L-7.0,2.602905071273331 L-7.0,2.5134013679610083 L-7.0,2.4425925049911936 L-7.0,2.391368944899991 L-7.0,2.3603748536761495 L-7.0,2.35 " />
			<path d="M-7.0,2.35 L-7.0,2.3603748536761495 L-7.0,2.391368944899991 L-7.0,2.4425925049911936 L-7.0,2.5134013679610083 L-7.0,2.602905071273331 L-7.0,2.7099780539277507 L-7.0,2.8332738110421967 L-7.0,2.9712418269330896 L-7.0,3.1221470737496944 L-7.0,3.284091830456029 L-7.0,3.455039547773974 L-7.0,3.632840458972081 L-7.0,3.815258614429542 L-7.0,3.999999999999993 " />
			<path d="M-7.0,4.0 L-9.0,4.0 " />
			<path d="M-7.0,4.0 L-5.0,4.0 " />
			<path d="M85.0,4.0 L89.0,4.0 " />
			<path d="M89.0,4.0 L89.0,-56.0 " />
			<path d="M85.0,-56.0 L89.0,-56.0 " />
			<path d="M85.0,4.0 L85.0,-56.0 " />
			<path d="M85.0,4.0 L87.0,4.0 " />
			<path d="M89.0,4.0 L87.0,4.0 " />
			<path d="M89.0,4.0 L89.0,3.8152586144295424 L89.0,3.6328404589720815 L89.0,3.455039547773975 L89.0,3.2840918304560294 L89.0,3.122147073749695 L89.0,2.97124182693309 L89.0,2.8332738110421967 L89.0,2.709978053927751 L89.0,2.602905071273331 L89.0,2.5134013679610088 L89.0,2.442592504991194 L89.0,2.391368944899991 L89.0,2.3603748536761495 L89.0,2.350000000000001 " />
			<path d="M89.0,2.35 L89.0,2.3603748536761495 L89.0,2.391368944899991 L89.0,2.4425925049911936 L89.0,2.5134013679610083 L89.0,2.602905071273331 L89.0,2.7099780539277507 L89.0,2.833273811042196 L89.0,2.971241826933089 L89.0,3.1221470737496944 L89.0,3.284091830456029 L89.0,3.455039547773974 L89.0,3.6328404589720806 L89.0,3.8152586144295415 L89.0,3.999999999999985 " />
			<path d="M85.0,4.0 L85.0,3.815258614429542 L85.0,3.6328404589720815 L85.0,3.4550395477739744 L85.0,3.2840918304560294 L85.0,3.122147073749695 L85.0,2.97124182693309 L85.0,2.8332738110421967 L85.0,2.7099780539277507 L85.0,2.602905071273331 L85.0,2.5134013679610083 L85.0,2.4425925049911936 L85.0,2.391368944899991 L85.0,2.3603748536761495 L85.0,2.35 " />
			<path d="M85.0,2.35 L85.0,2.3603748536761495 L85.0,2.391368944899991 L85.0,2.4425925049911936 L85.0,2.5134013679610083 L85.0,2.602905071273331 L85.0,2.7099780539277507 L85.0,2.8332738110421967 L85.0,2.9712418269330896 L85.0,3.1221470737496944 L85.0,3.284091830456029 L85.0,3.455039547773974 L85.0,3.632840458972081 L85.0,3.815258614429542 L85.0,3.999999999999993 " />
			<path d="M87.0,4.0 L87.0,3.815258614429542 L87.0,3.6328404589720815 L87.0,3.4550395477739744 L87.0,3.2840918304560294 L87.0,3.122147073749695 L87.0,2.97124182693309 L87.0,2.8332738110421967 L87.0,2.7099780539277507 L87.0,2.602905071273331 L87.0,2.5134013679610083 L87.0,2.4425925049911936 L87.0,2.391368944899991 L87.0,2.3603748536761495 L87.0,2.35 " />
			<path d="M87.0,2.35 L87.0,2.3603748536761495 L87.0,2.391368944899991 L87.0,2.4425925049911936 L87.0,2.5134013679610083 L87.0,2.602905071273331 L87.0,2.7099780539277507 L87.0,2.8332738110421967 L87.0,2.9712418269330896 L87.0,3.1221470737496944 L87.0,3.284091830456029 L87.0,3.455039547773974 L87.0,3.632840458972081 L87.0,3.815258614429542 L87.0,3.999999999999993 " />
			<path d="M87.0,4.0 L85.0,4.0 " />
			<path d="M87.0,4.0 L89.0,4.0 " />
			<path d="M-9.0,4.0 L-9.0,3.832053285845038 L-9.0,3.6662185990655285 L-9.0,3.504581407067249 L-9.0,3.349174391323663 L-9.0,3.201951885226995 L-9.0,3.0647652972119 L-9.0,2.939339828220179 L-9.0,2.8272527762979554 L-9.0,2.7299137011575736 L-9.0,2.6485466981463714 L-9.0,2.5841750045374487 L-9.0,2.5376081317272643 L-9.0,2.509431685160136 L-9.0,2.5 " />
			<path d="M-9.0,2.5 L-9.0,2.5376081317272643 L-9.0,2.6485466981463714 L-9.0,2.8272527762979554 L-9.0,3.0647652972118995 L-9.0,3.349174391323663 L-9.0,3.6662185990655285 L-9.0,4.0 L-9.0,4.3337814009344715 L-9.0,4.650825608676337 L-9.0,4.9352347027881 L-9.0,5.172747223702045 L-9.0,5.3514533018536286 L-9.0,5.462391868272736 L-9.0,5.499999999999998 " />
			<path d="M89.0,4.0 L89.0,3.832053285845038 L89.0,3.6662185990655285 L89.0,3.504581407067249 L89.0,3.349174391323663 L89.0,3.201951885226995 L89.0,3.0647652972119 L89.0,2.939339828220179 L89.0,2.8272527762979554 L89.0,2.7299137011575736 L89.0,2.6485466981463714 L89.0,2.5841750045374487 L89.0,2.5376081317272643 L89.0,2.509431685160136 L89.0,2.5 " />
			<path d="M89.0,2.5 L89.0,2.5376081317272643 L89.0,2.6485466981463714 L89.0,2.8272527762979554 L89.0,3.0647652972118995 L89.0,3.349174391323663 L89.0,3.6662185990655285 L89.0,4.0 L89.0,4.3337814009344715 L89.0,4.650825608676337 L89.0,4.9352347027881 L89.0,5.172747223702045 L89.0,5.3514533018536286 L89.0,5.462391868272736 L89.0,5.499999999999998 " />
			<path d="M78.0,12.999999999999998 L2.0,12.999999999999998 " />
			<path d="M2.0,5.65 L-4.0,5.65 " />
			<path d="M2.0,2.35 L-4.0,2.35 " />
			<path d="M84.0,5.65 L78.0,5.65 " />
			<path d="M84.0,2.35 L78.0,2.35 " />
			<path d="M-9.0,2.35 L-7.0,2.35 " />
			<path d="M-5.0,2.35 L-7.0,2.35 " />
			<path d="M85.0,2.35 L87.0,2.35 " />
			<path d="M89.0,2.35 L87.0,2.35 " />
			<path d="M84.0,5.5 L-4.0,5.5 " />
			<path d="M89.0,2.5 L85.0,2.5 " />
			<path d="M84.0,2.5 L-4.0,2.5 " />
			<path d="M-5.0,2.5 L-9.0,2.5 " />

       </g>

       <!-- solid lines -->
       <g  stroke="rgb(40,40,40)" fill="none">
			<path d="M0.0,-0.9999999999999999 L0.0,-2.0 " />
			<path d="M0.0,0.0 L0.0,-1.0 " />
			<path d="M0.0,0.0 L0.0,1.634681351108295 L0.0,3.2488056357621904 L0.0,4.82207430454544 L0.0,6.334702591116349 L0.0,7.767668317123915 L0.0,9.10295110713751 L0.0,10.323759005323595 L0.0,11.414739644033236 L0.0,12.362173308732949 L0.0,13.154145471375319 L0.0,13.780696622502166 L0.0,14.233947517854624 L0.0,14.508198264441342 L0.0,14.599999999999998 " />
			<path d="M0.0,-2.0 L80.0,-2.0 " />
			<path d="M0.0,-1.0 L80.0,-1.0 " />
			<path d="M80.0,-0.9999999999999999 L80.0,-2.0 " />
			<path d="M80.0,0.0 L80.0,-1.0 " />
			<path d="M0.0,0.0 L80.0,0.0 " />
			<path d="M80.0,0.0 L80.0,1.634681351108295 L80.0,3.2488056357621904 L80.0,4.82207430454544 L80.0,6.334702591116349 L80.0,7.767668317123915 L80.0,9.10295110713751 L80.0,10.323759005323595 L80.0,11.414739644033236 L80.0,12.362173308732949 L80.0,13.154145471375319 L80.0,13.780696622502166 L80.0,14.233947517854624 L80.0,14.508198264441342 L80.0,14.599999999999998 " />
			<path d="M-4.0,4.0 L-4.0,3.5521420955867686 L-4.0,3.1099162641747427 L-4.0,2.6788837521793316 L-4.0,2.2644650435297677 L-4.0,1.8718716939386537 L-4.0,1.506040792565066 L-4.0,1.1715728752538102 L-4.0,0.8726740701278808 L-4.0,0.6131032030868635 L-4.0,0.3961245283903234 L-4.0,0.2244666787665297 L-4.0,0.10028835127270552 L-4.0,0.025151160427029584 L-4.0,4.961309141293668e-16 " />
			<path d="M-4.0,8.0 L-4.0,7.974848839572971 L-4.0,7.899711648727294 L-4.0,7.77553332123347 L-4.0,7.603875471609677 L-4.0,7.3868967969131365 L-4.0,7.12732592987212 L-4.0,6.828427124746191 L-4.0,6.493959207434935 L-4.0,6.128128306061347 L-4.0,5.735534956470233 L-4.0,5.321116247820669 L-4.0,4.890083735825258 L-4.0,4.447857904413232 L-4.0,4.000000000000036 " />
			<path d="M84.0,4.0 L84.0,3.5521420955867686 L84.0,3.1099162641747427 L84.0,2.6788837521793316 L84.0,2.2644650435297677 L84.0,1.8718716939386537 L84.0,1.506040792565066 L84.0,1.1715728752538102 L84.0,0.8726740701278808 L84.0,0.6131032030868635 L84.0,0.3961245283903234 L84.0,0.2244666787665297 L84.0,0.10028835127270552 L84.0,0.025151160427029584 L84.0,4.961309141293668e-16 " />
			<path d="M84.0,8.0 L84.0,7.974848839572971 L84.0,7.899711648727294 L84.0,7.77553332123347 L84.0,7.603875471609677 L84.0,7.3868967969131365 L84.0,7.12732592987212 L84.0,6.828427124746191 L84.0,6.493959207434935 L84.0,6.128128306061347 L84.0,5.735534956470233 L84.0,5.321116247820669 L84.0,4.890083735825258 L84.0,4.447857904413232 L84.0,4.000000000000036 " />
			<path d="M-5.0,4.0 L-5.0,-56.0 " />
			<path d="M-9.0,-56.0 L-5.0,-56.0 " />
			<path d="M-9.0,4.0 L-9.0,-56.0 " />
			<path d="M-9.0,4.0 L-5.0,4.0 " />
			<path d="M89.0,4.0 L89.0,-56.0 " />
			<path d="M85.0,-56.0 L89.0,-56.0 " />
			<path d="M85.0,4.0 L85.0,-56.0 " />
			<path d="M85.0,4.0 L89.0,4.0 " />
			<path d="M-9.0,5.5 L-9.0,5.490568314839864 L-9.0,5.462391868272736 L-9.0,5.415824995462551 L-9.0,5.351453301853629 L-9.0,5.270086298842426 L-9.0,5.172747223702045 L-9.0,5.060660171779821 L-9.0,4.935234702788101 L-9.0,4.798048114773005 L-9.0,4.650825608676337 L-9.0,4.495418592932751 L-9.0,4.3337814009344715 L-9.0,4.167946714154962 L-9.0,4.000000000000013 " />
			<path d="M89.0,5.5 L89.0,5.490568314839864 L89.0,5.462391868272736 L89.0,5.415824995462551 L89.0,5.351453301853629 L89.0,5.270086298842426 L89.0,5.172747223702045 L89.0,5.060660171779821 L89.0,4.935234702788101 L89.0,4.798048114773005 L89.0,4.650825608676337 L89.0,4.495418592932751 L89.0,4.3337814009344715 L89.0,4.167946714154962 L89.0,4.000000000000013 " />
			<path d="M80.0,14.6 L0.0,14.6 " />
			<path d="M0.0,8.0 L-4.0,8.0 " />
			<path d="M0.0,0.0 L-4.0,0.0 " />
			<path d="M84.0,8.0 L80.0,8.0 " />
			<path d="M84.0,0.0 L80.0,0.0 " />
			<path d="M89.0,5.5 L84.0,5.5 " />
			<path d="M-4.0,5.5 L-9.0,5.5 " />
			<path d="M85.0,2.5 L84.0,2.5 " />
			<path d="M-4.0,2.5 L-5.0,2.5 " />

       </g>
    </g>
    
</svg>
