<?xml version="1.0" encoding="UTF-8" standalone="no"?>
<svg
   xmlns:svg="http://www.w3.org/2000/svg"
   xmlns="http://www.w3.org/2000/svg"
   width="900.0"
   height="600.0"

>
    <g transform="scale(3.085308263298374, -3.085308263298374)   translate(19.634520565792858,-17.14847660112342)" stroke-width="0.4"  fill="none">
       <!-- hidden lines -->
       <g  stroke="rgb(180,180,180)" fill="none" stroke-dasharray="0.4,0.4" >
			<path d="M6.08111831820431,-2.3750825141776746 L-6.081118318204307,2.3750825141776737 " />
			<path d="M-6.081118318204309,2.375082514177674 L-6.081118318204309,0.5339332783810273 " />
			<path d="M6.081118318204309,-4.216231749974321 L-6.081118318204311,0.5339332783810278 " />
			<path d="M6.081118318204309,-2.375082514177674 L6.081118318204309,-4.216231749974321 " />
			<path d="M-6.081118318204309,2.375082514177674 L-10.323759005323595,0.7180482019606924 " />
			<path d="M-10.323759005323595,0.7180482019606922 L-13.152186130069785,1.8227377434386802 " />
			<path d="M-13.152186130069783,2.927427284916668 L-13.152186130069783,1.8227377434386796 " />
			<path d="M14.6,-9.307746845710374e-16 L14.59890064685151,-0.0699756773999094 L14.59560275296458,-0.13994081672019223 L14.590106814989904,-0.20988488146821976 L14.582413660595517,-0.2797973383251155 L14.572524448342177,-0.34966765873203487 L14.560440667508876,-0.419485320475728 L14.546164137868558,-0.4892398092731458 L14.529697009414075,-0.5589206203548523 L14.511041762034399,-0.6285172600470051 L14.490201205141165,-0.6980192473516631 L14.467178477245588,-0.7674161155251864 L14.441977045485803,-0.83669741365449 L14.414600705104732,-0.9058527082309121 L14.38505357887854,-0.974871584721463 L14.353340116495758,-1.043743649137214 L14.319465093887164,-1.112458529598596 L14.245251098562516,-1.2493753710550026 L14.162456296640341,-1.38553963550504 L14.071130560613422,-1.520869302687313 L13.97132890169025,-1.6552828550706133 L13.863111436658336,-1.7886993269570317 L13.746543351672104,-1.9210383532526671 L13.621694862987189,-2.052220217876554 L13.488641174664787,-2.182165901778648 L13.347462433271549,-2.3107971305379498 L13.198243679602275,-2.438036421512085 L13.041074797454526,-2.563807130509956 L12.876050459485985,-2.6880334979593306 L12.70327007018719,-2.810640694541581 L12.522837706003974,-2.9315548662660644 L12.334862052645725,-3.050703178957006 L12.139456339617164,-3.168013862126083 L11.936738272013125,-3.283416252204284 L11.726829959617419,-3.3968408351069983 L11.509857843348453,-3.5082192881067042 L11.285952619095962,-3.617484520988024 L11.055249158994677,-3.724570716460358 L10.817886430182405,-3.8294133698037665 L10.57400741109142,-3.931949327724194 L10.32375900532361,-4.032116826394651 " />
			<path d="M10.323759005323595,-4.032116826394656 L7.495331880577405,-5.136806367872644 " />
			<path d="M7.495331880577403,-5.136806367872644 L4.6669047558312124,-5.136806367872644 " />
			<path d="M4.666904755831214,-5.136806367872644 L1.8384776310850244,-4.032116826394657 " />
			<path d="M6.081118318204309,-2.375082514177674 L1.8384776310850244,-4.032116826394656 " />
			<path d="M1.7677669529663702,2.8998100463797187 L1.6323895762927219,2.844274852793173 L1.5041522642616107,2.7862121544874903 L1.3833639517899794,2.7257618295885795 L1.2703156285023787,2.6630695082239453 L1.1652796377114716,2.598286221686954 L1.0685090203191403,2.531568038589219 L0.9802369052187871,2.463075688877645 L0.9006759476674135,2.3929741766219093 L0.8300178169804777,2.3214323825052023 L0.7684327347837252,2.2486226569758725 L0.7410898145308011,2.2117970261859274 L0.7160690649343846,2.1747204050400994 L0.6933855575584458,2.1374151271085813 L0.6730529560996383,2.099903663695867 L0.6550835081567952,2.0622086103048716 L0.6394880378534356,2.024352673026248 L0.6262759393177197,1.9863586548610899 L0.6154551710237719,1.9482494419852514 L0.6070322509977988,1.9100479899635736 L0.60101225289187,1.87177730992231 L0.5973988029277426,1.8334604546880846 L0.5961940777125596,1.7951205049017447 " />
			<path d="M0.5961940777125596,1.7951205049017303 L0.5973988029277426,1.7567805551153766 L0.60101225289187,1.7184636998811509 L0.6070322509977988,1.6801930198398871 L0.6154551710237719,1.6419915678182093 L0.6262759393177197,1.6038823549423706 L0.639488037853436,1.5658883367772125 L0.6550835081567947,1.5280323994985898 L0.6730529560996379,1.4903373461075944 L0.6933855575584453,1.4528258826948803 L0.7160690649343837,1.4155206047633633 L0.7410898145308003,1.3784439836175348 L0.7684327347837243,1.3416183528275898 L0.8300178169804768,1.26880862729826 L0.9006759476674127,1.1972668331815526 L0.9802369052187863,1.1271653209258163 L1.0685090203191399,1.0586729712142424 L1.1652796377114716,0.9919547881165068 L1.2703156285023787,0.9271715015795156 L1.3833639517899798,0.8644791802148812 L1.504152264261612,0.8040288553159701 L1.6323895762927236,0.7459661570102871 L1.7677669529663698,0.6904309634237422 L1.9099582583244863,0.637557063701994 L2.0586209410579777,0.5874718357006783 L2.213396859742826,0.5402959391209987 L2.3739131456341505,0.4961430248299361 L2.539783100939673,0.4551194610653557 L2.7106071304085684,0.41732407718560705 L2.885973703991431,0.38284792558094005 L3.0654603482522003,0.3517740623203254 L3.2486346641436796,0.32417734706210655 L3.4350553686947105,0.3001242627105274 L3.6242733580995035,0.2796727552525924 L3.8158327896480464,0.2628720941611078 L4.009272179891113,0.2497627537002074 L4.204125516394317,0.24037631541930438 L4.399923380402887,0.23473539207037164 L4.59619407771256,0.23285357313184396 L4.792464775022232,0.23473539207037164 L4.988262639030802,0.24037631541930415 L5.183115975534006,0.2497627537002074 L5.376555365777072,0.2628720941611078 L5.568114797325615,0.2796727552525924 L5.757332786730409,0.3001242627105274 L5.94375349128144,0.32417734706210655 L6.126927807172919,0.3517740623203254 L6.306414451433689,0.3828479255809403 L6.48178102501655,0.4173240771856068 L6.652605054485447,0.4551194610653557 L6.818475009790967,0.49614302482993566 L6.978991295682292,0.5402959391209985 L7.133767214367142,0.5874718357006783 L7.282429897100633,0.637557063701994 L7.4246212024587495,0.6904309634237422 L7.559998579132396,0.7459661570102871 L7.688235891163508,0.8040288553159703 L7.80902420363514,0.8644791802148816 L7.922072526922741,0.9271715015795157 L8.027108517713648,0.9919547881165071 L8.12387913510598,1.058672971214242 L8.212151250206333,1.127165320925816 L8.291712207757707,1.1972668331815526 L8.362370338444643,1.2688086272982604 L8.423955420641395,1.3416183528275898 L8.451298340894319,1.3784439836175348 L8.476319090490735,1.415520604763363 L8.499002597866674,1.45282588269488 L8.519335199325482,1.4903373461075942 L8.537304647268325,1.5280323994985894 L8.552900117571683,1.565888336777212 L8.566112216107399,1.60388235494237 L8.576932984401347,1.641991567818209 L8.58535590442732,1.6801930198398876 L8.59137590253325,1.718463699881151 L8.594989352497377,1.7567805551153766 L8.59619407771256,1.7951205049017234 " />
			<path d="M8.59619407771256,1.7951205049017303 L8.593483616065958,1.8526232121532968 L8.58535590442732,1.910047989963573 L8.571821957721983,1.9673170145036494 L8.552900117571683,2.024352673026248 L8.528616027437426,2.081077669048912 L8.499002597866674,2.1374151271085804 L8.464099961891968,2.193288696945584 L8.423955420641395,2.2486226569758707 L8.378623379234647,2.303342016911234 L8.328165273051516,2.3573726193884568 L8.27264948447279,2.410641240469662 L8.212151250206333,2.4630756888776437 L8.146752559323977,2.514604903831718 L8.076542042147405,2.5651590513514786 L8.00161485013362,2.61466961889796 L7.922072526922742,2.663069508223945 L7.83802287072294,2.710293126307574 L7.749579788218986,2.7562764742460324 L7.656863140202396,2.8009572339888367 L7.559998579132397,2.8442748527931734 L7.459117378847836,2.886170625286847 L7.354356256660828,2.9265877730276086 L7.245857188073248,2.9654715214510503 L7.133767214367143,3.0027691741027818 L7.018238243329865,3.0384301840542935 L6.899426843383943,3.0724062224057107 L6.777494031400747,3.1046512437826035 L6.652605054485447,3.135121548738105 L6.52492916602905,3.1637758429757437 L6.394639396330987,3.190575293312749 L6.2619123181031116,3.215483580307976 L6.126927807172921,3.2384669474831353 L5.989868798710299,3.259494247070606 L5.850921039308129,3.278536982225856 L5.710272835252778,3.2955693456472446 L5.568114797325619,3.3105682545508683 L5.424639582481437,3.3235133819530653 L5.2800416327537665,3.334387184218169 L5.134516911741065,3.343174924834183 L4.988262639030805,3.3498646943841566 L4.841477022921399,3.3544474266861957 L4.694358991804212,3.3569169110802295 L4.547107924569683,3.3572698008448896 L4.399923380402889,3.3555056177330895 L4.2530048283348005,3.35162675262016 L4.106551376915697,3.345638462263662 L3.9607615043771185,3.3375488621792657 L3.81583278964805,3.3273689156423534 L3.671961644589877,3.3151124188302514 L3.529343047812967,3.3007959821252246 L3.388170280435647,3.2844390076035763 L3.2486346641436814,3.2660636627413546 L3.110925301905213,3.245694850372305 L2.975228821692603,3.223360174938783 L2.8417291235584505,3.199089905081366 L2.7106071304085693,3.172916932617854 L2.5820405428096884,3.144876727967267 L2.456203598164172,3.11500729207924 L2.33326683457811,3.0833491049339625 L2.213396859742828,3.0499450706824627 L2.096756125143015,3.014840459501581 L1.9835027058974526,2.9780828462424314 L1.8737900865307462,2.9397220459554916 L1.767766952966395,2.8998100463797285 " />
			<path d="M-6.081118318204309,0.5339332783810273 L-6.081118318204309,-69.42973768189155 " />
			<path d="M-6.081118318204309,-69.42973768189155 L-6.081118318204309,-71.27088691768819 " />
			<path d="M-10.323759005323595,0.7180482019606922 L-10.323759005323595,-72.92792122990517 " />
			<path d="M9.19238815542512,-5.431390245600108 L6.081118318204309,-4.216231749974321 " />
			<path d="M-9.192388155425121,1.7490917740068137 L-9.021628991565503,1.8145681183865685 L-8.847812971340893,1.8788057726280756 L-8.670998989947295,1.9417829706752938 L-8.491246958399104,2.003478373560628 L-8.308617783229089,2.063871076635353 L-8.123173345851026,2.122940616652867 L-7.934976481592023,2.1806669787023876 L-7.744090958401632,2.2370306029907305 L-7.550581455244935,2.2920123914698816 L-7.354513540186967,2.3455937143081065 L-6.954969058532265,2.448482822530258 L-6.545998988434335,2.545558489166346 L-6.128157578737973,2.6366891542807536 L-5.70201110100086,2.721751314787167 L-5.2681370820648645,2.8006296918237727 L-4.827123521373881,2.8732173869827187 L-4.37956809409886,2.9394160271821304 L-3.926077341149972,2.999135897984351 L-3.467265847173682,3.0522960651797084 L-3.0037554076487236,3.0988244844710437 L-2.5361741862096623,3.1386580991103767 L-2.06515586334019,3.171742925355342 L-1.5913387775898087,3.1980341256296305 L-1.115365060477724,3.217496069288248 L-0.6378797662564355,3.2301023809052682 L-0.1595299977143562,3.235835976018619 L0.3190359707978667,3.2346890842834743 L0.7971695719287226,3.2266632600028644 L1.2742228242842915,3.2117693800212366 L1.7495492105926365,3.1900276289838225 L2.222504553883916,3.1614674719817777 L2.6924478904988454,3.126127614620191 L3.1587423387424387,3.0840559505630503 L3.620755962005702,3.035309496626273 L4.0778626251855945,2.979954315506762 L4.529442843242648,2.918065426252198 L4.974884620746169,2.849726702592918 L5.413584281269289,2.7750307592736525 L5.8449472855098845,2.694078826539163 L6.268389037028588,2.606980612943897 L6.68333567451188,2.5138541566715706 L7.0892248494866035,2.4148256655661906 L7.28860049056537,2.3631397889251473 L7.485506488431992,2.3100293460912886 L7.679876124165369,2.2555123328163105 L7.871643538256238,2.199607221449184 L8.060743752922766,2.1423329546770553 L8.247112694127392,2.0837089391067707 L8.430687213287454,2.0237550386892065 L8.611405108672226,1.9624915679886432 L8.789205146479102,1.8999392852994603 L8.964027081581866,1.836119385612458 L9.135811677943927,1.7710534934332278 L9.304500728689643,1.7047636554549817 L9.470037075826928,1.6372723330883305 L9.632364629614472,1.56860239485054 L9.791428387566967,1.4987771086168458 L9.94717445309197,1.4278201337364451 L10.09955005375203,1.3557555130158558 L10.248503559145883,1.282607664572335 L10.39398449840276,1.2084013735601258 L10.535943577283728,1.1331617837723464 L10.674332694884358,1.0569143891213715 L10.809104959933086,0.97968502500055 L10.940214706679678,0.901499859530241 L11.067617510368446,0.8223853846910982 L11.191270202290976,0.7423684073476249 L11.311130884413245,0.6614760401650357 L11.427158943572227,0.5797356924224855 L11.539315065237096,0.49717506072581763 L11.647561246830401,0.4138221196229508 L11.751860810604759,0.3297051121250747 L11.852178416070585,0.24485254013689106 L11.948480071970748,0.1592931547991312 L12.040733147798045,0.07305594674662497 L12.128906384851605,-0.01382986371478534 L12.21296990682847,-0.10133483650914621 L12.292895229946778,-0.18942932176576233 L12.36865527259711,-0.27808346986565446 L12.440224364518713,-0.3672672415556899 L12.507578255497537,-0.45695041812699055 L12.570694123583074,-0.5471026116541213 L12.62955058282127,-0.637693275291618 L12.684127690500867,-0.7286917136243833 L12.734406953910725,-0.8200670930684071 L12.78037133660581,-0.9117884523183063 L12.822005264179781,-1.003824712838144 L12.859294629542152,-1.0961446893919664 L12.892226797698292,-1.1887171006104997 L12.920790610030627,-1.2815105795904136 L12.944976388079576,-1.374493684522572 L12.96477593682297,-1.4676349093456578 L12.980182547452829,-1.5609026944215865 L12.991190999648541,-1.6542654372290526 L12.997797563345703,-1.7476915030716047 L12.999999999999998,-1.8411492357966013 " />
			<path d="M12.999999999999998,-1.8411492357966477 L12.996084643050654,-1.9657540726022975 L12.984340930667239,-2.0902838521135303 L12.96477593682297,-2.2146635622476376 L12.937401446738559,-2.338818281318091 L12.902233949783227,-2.462673223164566 L12.859294629542152,-2.58615378220133 L12.808609351056234,-2.7091855783568537 L12.750208645241994,-2.8316945018775885 L12.684127690500869,-2.9536067579689096 L12.61040629152907,-3.07484891124634 L12.529088855340717,-3.195347929970282 L12.440224364518714,-3.315031230037604 L12.343866347709476,-3.433826718703593 L12.240072847379269,-3.5516628380079256 L12.128906384851605,-3.6684686078785096 L12.010433922646728,-3.784173668887224 L11.884726824145899,-3.8987083246318073 L11.751860810604763,-4.012003583718366 L11.611915915541699,-4.12399120131921 L11.464976436528616,-4.234603720280981 L11.311130884413249,-4.343774511758328 L11.150471930003537,-4.451437815348622 L10.983096348246193,-4.5575287787035705 L10.809104959933089,-4.6619834965938445 L10.628602570970589,-4.764739049403201 L10.441697909248385,-4.865733541028906 L10.248503559145883,-4.96490613616563 L10.049135893715581,-5.062197096950367 L9.8437150045843,-5.157547818946281 L9.63236462961447,-5.250900866443836 L9.415212078369072,-5.342200007057915 L9.192388155425132,-5.431390245600102 " />
			<path d="M-6.081118318204311,0.5339332783810278 L-9.192388155425116,1.7490917740068133 " />
			<path d="M3.464823227814083,0.39584708569627897 L3.5511175289865164,0.42715620564136375 L3.6430751905246668,0.45590109541737645 L3.740197885893204,0.48192598397608755 L3.8419592987909628,0.5050898401915331 L3.9478079753045763,0.5252671371199048 L4.057170312285008,0.5423485322409334 L4.169453665752722,0.5562414599944814 L4.284049562486755,0.5668706334013329 L4.400336997393814,0.5741784520498564 L4.5176857987886905,0.5781253142376273 L4.63546004334922,0.5786898315764833 L4.753021502239857,0.5758689448980542 L4.869733099729042,0.5696779408316592 L4.984962365557783,0.5601503689647389 L5.098084862350786,0.5473378600347342 L5.208487569496704,0.5313098461376458 L5.31557220515993,0.5121531844694912 L5.418758468421714,0.48997168663963375 L5.517487183981112,0.4648855561066758 L5.611223332374393,0.4370307367855045 L5.699458949291866,0.4065581763554353 L5.781715878280495,0.37363300826166074 L5.85754836191513,0.33843365684280474 L5.926545457396632,0.30115087043396965 L5.988333263486497,0.26198668768498323 L6.042576946710069,0.22115334269544956 L6.088982555848142,0.17887211489977448 L6.1272986148840936,0.13537212993474004 L6.157317485774206,0.09088911798782393 L6.178876493656209,0.04566413635489061 L6.1864452297163295,0.02284987294585096 L6.1918588083984645,-5.773687017908424e-05 L6.195109893053919,-0.023027647994289236 L6.19619407771256,-0.04602873089491062 " />
			<path d="M6.19619407771256,-0.046028730894916325 L6.194266807640836,-0.07669145290314808 L6.188489640388075,-0.10728030572832475 L6.178876493656209,-0.13772159814472343 L6.165450526357729,-0.16794199441257068 L6.14824408282383,-0.1978686909502632 L6.1272986148840936,-0.2274295917245726 L6.102664582005393,-0.25655348193630456 L6.074401329730619,-0.28517019958298745 L6.042576946710069,-0.31321080448528194 L6.007268100669927,-0.3406077443699116 L5.968559853712995,-0.3672950176090057 L5.926545457396632,-0.3932083322238023 L5.881326128081591,-0.41828526076965605 L5.833010803092939,-0.4424653907292205 L5.781715878280494,-0.4656904700514936 L5.727564927611036,-0.4879045474861116 L5.611223332374393,-0.5290881985753373 L5.485106450543923,-0.5656197229236342 L5.3504288566341565,-0.5971473019813658 L5.208487569496704,-0.6233673079274784 L5.0606495613197,-0.6440272277713976 L4.908338592938365,-0.6589280951911655 L4.753021502239857,-0.6679264066878868 L4.59619407771256,-0.670935503602871 L4.439366653185263,-0.6679264066878869 L4.2840495624867545,-0.6589280951911655 L4.13173859410542,-0.6440272277713976 L3.9839005859284162,-0.6233673079274784 L3.841959298790963,-0.5971473019813659 L3.7072817048811966,-0.5656197229236343 L3.581164823050727,-0.5290881985753373 L3.4648232278140836,-0.4879045474861117 L3.4106722771446254,-0.4656904700514938 L3.3593773523321806,-0.4424653907292205 L3.311062027343527,-0.41828526076965594 L3.2658426980284867,-0.3932083322238023 L3.2238283017121243,-0.36729501760900574 L3.185120054755192,-0.3406077443699117 L3.1498112087150503,-0.31321080448528216 L3.1179868256945005,-0.2851701995829875 L3.089723573419726,-0.25655348193630445 L3.0650895405410257,-0.22742959172457264 L3.044144072601289,-0.1978686909502633 L3.026937629067391,-0.1679419944125709 L3.01351166176891,-0.13772159814472373 L3.0038985150370445,-0.10728030572832489 L2.9981213477842834,-0.07669145290314805 L2.9961940777125595,-0.04602873089491918 " />
			<path d="M2.9961940777125595,-0.0460287308949164 L2.9981213477842834,-0.015366008886684754 L3.0038985150370445,0.015222843938492096 L3.01351166176891,0.04566413635489093 L3.026937629067391,0.07588453262273809 L3.044144072601289,0.10581122916043051 L3.0650895405410252,0.13537212993473982 L3.089723573419726,0.16449602014647166 L3.1179868256945005,0.19311273779315472 L3.1498112087150503,0.22115334269544934 L3.1851200547551914,0.24855028258007894 L3.223828301712124,0.275237555819173 L3.2658426980284867,0.3011508704339695 L3.311062027343527,0.3262277989798231 L3.35937735233218,0.35040792893938766 L3.410672277144625,0.373633008261661 L3.4648232278140783,0.3958470856962769 " />
			<path d="M6.081118318204309,-4.216231749974321 L6.081118318204309,-74.1799027102469 " />
			<path d="M6.081118318204309,-74.1799027102469 L6.081118318204309,-76.02105194604354 " />
			<path d="M6.081118318204309,-76.02105194604354 L3.096194077712559,-77.18686405473319 " />
			<path d="M1.8384776310850235,-4.032116826394656 L1.8384776310850235,-76.66478038691496 " />
			<path d="M-13.152186130069785,1.8227377434386804 L-13.152186130069785,-71.82323168842719 " />
			<path d="M10.323759005323597,-4.032116826394656 L10.323759005323597,-77.67808625826052 " />
			<path d="M8.838834764831844,-78.25804826753647 L7.495331880577405,-78.7827757997385 " />
			<path d="M7.495331880577405,-5.136806367872644 L7.495331880577405,-78.78277579973852 " />
			<path d="M4.666904755831213,-5.136806367872644 L4.666904755831213,-78.78277579973852 " />
			<path d="M7.495331880577403,-78.78277579973852 L4.6669047558312124,-78.78277579973852 " />
			<path d="M4.666904755831214,-78.7827757997385 L2.5927248643506937,-77.97267013598798 " />
			<path d="M0.635851893857776,5.696863887964577 L0.6185177627980099,5.642241438963197 L0.6061208493482524,5.587414407109971 L0.5986765409494481,5.5324508454503825 L0.5961940777125596,5.477418976495038 " />
			<path d="M0.5961940777125596,5.477418976495024 L0.5973988029277426,5.4390790267086695 L0.60101225289187,5.400762171474444 L0.6070322509977988,5.362491491433181 L0.6154551710237719,5.324290039411502 L0.6262759393177197,5.286180826535664 L0.639488037853436,5.248186808370506 L0.6550835081567947,5.210330871091883 L0.6730529560996379,5.172635817700888 L0.6933855575584453,5.135124354288173 L0.7160690649343837,5.097819076356656 L0.7410898145308003,5.060742455210828 L0.7684327347837243,5.0239168244208825 L0.8300178169804768,4.951107098891553 L0.9006759476674127,4.879565304774846 L0.9802369052187863,4.809463792519109 L1.0685090203191399,4.740971442807536 L1.1652796377114716,4.6742532597098 L1.2703156285023787,4.609469973172809 L1.3833639517899798,4.546777651808174 L1.504152264261612,4.486327326909263 L1.6323895762927236,4.42826462860358 L1.7677669529663698,4.372729435017035 L1.9099582583244863,4.319855535295288 L2.0586209410579777,4.269770307293971 L2.213396859742826,4.222594410714292 L2.3739131456341505,4.178441496423229 L2.539783100939673,4.137417932658649 L2.7106071304085684,4.0996225487789 L2.885973703991431,4.065146397174233 L3.0654603482522003,4.034072533913618 L3.2486346641436796,4.0064758186553995 L3.4350553686947105,3.9824227343038205 L3.6242733580995035,3.9619712268458853 L3.8158327896480464,3.9451705657544007 L4.009272179891113,3.9320612252935003 L4.204125516394317,3.9226747870125975 L4.399923380402887,3.917033863663665 L4.59619407771256,3.9151520447251373 L4.792464775022232,3.917033863663665 L4.988262639030802,3.922674787012597 L5.183115975534006,3.9320612252935003 L5.376555365777072,3.9451705657544007 L5.568114797325615,3.9619712268458853 L5.757332786730409,3.9824227343038205 L5.94375349128144,4.0064758186553995 L6.126927807172919,4.034072533913618 L6.306414451433689,4.065146397174233 L6.48178102501655,4.0996225487789 L6.652605054485447,4.137417932658649 L6.818475009790967,4.178441496423229 L6.978991295682292,4.222594410714292 L7.133767214367142,4.269770307293971 L7.282429897100633,4.319855535295288 L7.4246212024587495,4.372729435017035 L7.559998579132396,4.42826462860358 L7.688235891163508,4.486327326909263 L7.80902420363514,4.546777651808175 L7.922072526922741,4.609469973172809 L8.027108517713648,4.6742532597098005 L8.12387913510598,4.740971442807536 L8.212151250206333,4.809463792519109 L8.291712207757707,4.879565304774846 L8.362370338444643,4.951107098891553 L8.423955420641395,5.0239168244208825 L8.451298340894319,5.060742455210828 L8.476319090490735,5.097819076356656 L8.499002597866674,5.135124354288173 L8.519335199325482,5.172635817700887 L8.537304647268325,5.210330871091882 L8.552900117571683,5.248186808370505 L8.566112216107399,5.286180826535663 L8.576932984401347,5.324290039411502 L8.58535590442732,5.362491491433181 L8.59137590253325,5.400762171474445 L8.594989352497377,5.4390790267086695 L8.59619407771256,5.4774189764950165 " />
			<path d="M8.59619407771256,5.477418976495024 L8.59333754472756,5.536450271971709 L8.584772025662911,5.595397255027056 L8.57050975436248,5.654175733660332 L8.550571101150474,5.712701756540026 L8.524984543737183,5.770891732908721 L8.493786626545218,5.828662551972968 L8.457021908514339,5.885931701607654 L8.414742899459414,5.942617386205303 L8.367009985072416,5.998638643501997 L8.313891340675552,6.053915460213075 L8.255462833848739,6.1083688863134125 L8.191807916070488,6.161921147799112 L8.123017503526942,6.2144957577694955 L8.049189847259342,6.266017625670784 L7.970430392835356,6.316413164545425 L7.886851629744704,6.365610396133872 L7.7985729307341956,6.413539053678723 L7.705720381311626,6.460130682284376 L7.608426599662081,6.505318736688864 L7.506830547233817,6.549038676308218 L7.40107733026429,6.591228057417626 L7.291317992529769,6.6318266223377105 L7.1777092996145795,6.670776385498554 L7.060413515008072,6.70802171625854 L6.939598168349111,6.743509418359744 L6.815435816149103,6.777188805906359 L6.68810379533533,6.809011775757664 L6.557783969966545,6.838932876232128 L6.424662471482628,6.866909372024526 L6.288929432859291,6.892901305243338 L6.15077871704753,6.916871552481275 L6.010407640085687,6.9387858778373825 " />
			<path d="M-9.19238815542512,1.7490917740068141 L-9.19238815542512,-68.21457918626577 " />
			<path d="M-6.081118318204311,-69.42973768189155 L-9.192388155425116,-68.21457918626577 " />
			<path d="M6.081118318204309,-74.1799027102469 L-6.081118318204311,-69.42973768189155 " />
			<path d="M6.08111831820431,-76.02105194604354 L0.5961940777125587,-73.87882300499771 " />
			<path d="M0.5961940777125596,-71.85084892696413 L0.5973988029277426,-71.88918887675048 L0.60101225289187,-71.92750573198471 L0.6070322509977988,-71.96577641202597 L0.6154551710237719,-72.00397786404766 L0.6262759393177197,-72.0420870769235 L0.639488037853436,-72.08008109508864 L0.6550835081567947,-72.11793703236728 L0.6730529560996379,-72.15563208575827 L0.6933855575584453,-72.19314354917098 L0.7160690649343837,-72.2304488271025 L0.7410898145308003,-72.26752544824834 L0.7684327347837243,-72.30435107903827 L0.8300178169804768,-72.37716080456761 L0.9006759476674127,-72.4487025986843 L0.9802369052187863,-72.51880411094005 L1.0685090203191399,-72.58729646065161 L1.1652796377114716,-72.65401464374936 L1.2703156285023787,-72.71879793028634 L1.3833639517899798,-72.78149025165098 L1.504152264261612,-72.84194057654989 L1.6323895762927236,-72.90000327485558 L1.7677669529663698,-72.95553846844211 L1.9099582583244863,-73.00841236816387 L2.0586209410579777,-73.05849759616518 L2.213396859742826,-73.10567349274487 L2.3739131456341505,-73.14982640703593 L2.539783100939673,-73.19084997080051 L2.7106071304085684,-73.22864535468025 L2.885973703991431,-73.26312150628492 L3.0654603482522003,-73.29419536954553 L3.2486346641436796,-73.32179208480376 L3.4350553686947105,-73.34584516915534 L3.6242733580995035,-73.36629667661327 L3.8158327896480464,-73.38309733770475 L4.009272179891113,-73.39620667816565 L4.204125516394317,-73.40559311644655 L4.399923380402887,-73.41123403979549 L4.59619407771256,-73.41311585873402 L4.792464775022232,-73.41123403979549 L4.988262639030802,-73.40559311644655 L5.183115975534006,-73.39620667816565 L5.376555365777072,-73.38309733770475 L5.568114797325615,-73.36629667661327 L5.757332786730409,-73.34584516915534 L5.94375349128144,-73.32179208480376 L6.126927807172919,-73.29419536954553 L6.306414451433689,-73.26312150628492 L6.48178102501655,-73.22864535468025 L6.652605054485447,-73.19084997080051 L6.818475009790967,-73.14982640703593 L6.978991295682292,-73.10567349274487 L7.133767214367142,-73.05849759616518 L7.282429897100633,-73.00841236816387 L7.4246212024587495,-72.95553846844211 L7.559998579132396,-72.90000327485558 L7.688235891163508,-72.84194057654989 L7.80902420363514,-72.78149025165098 L7.922072526922741,-72.71879793028634 L8.027108517713648,-72.65401464374936 L8.12387913510598,-72.58729646065161 L8.212151250206333,-72.51880411094005 L8.291712207757707,-72.4487025986843 L8.362370338444643,-72.37716080456761 L8.423955420641395,-72.30435107903827 L8.451298340894319,-72.26752544824834 L8.476319090490735,-72.2304488271025 L8.499002597866674,-72.19314354917098 L8.519335199325482,-72.15563208575827 L8.537304647268325,-72.11793703236728 L8.552900117571683,-72.08008109508866 L8.566112216107399,-72.0420870769235 L8.576932984401347,-72.00397786404766 L8.58535590442732,-71.96577641202597 L8.59137590253325,-71.92750573198471 L8.594989352497377,-71.88918887675048 L8.59619407771256,-71.85084892696415 " />
			<path d="M9.19238815542512,-75.3950612058727 L6.081118318204309,-74.1799027102469 " />
			<path d="M9.192388155425121,-5.431390245600108 L9.192388155425121,-75.3950612058727 " />
			<path d="M-9.192388155425121,-68.21457918626577 L-9.021628991565503,-68.14910284188602 L-8.847812971340893,-68.08486518764451 L-8.670998989947295,-68.02188798959729 L-8.491246958399104,-67.96019258671195 L-8.308617783229089,-67.89979988363723 L-8.123173345851026,-67.84073034361971 L-7.934976481592023,-67.78300398157019 L-7.744090958401632,-67.72664035728185 L-7.550581455244935,-67.6716585688027 L-7.354513540186967,-67.61807724596447 L-6.954969058532265,-67.51518813774233 L-6.545998988434335,-67.41811247110624 L-6.128157578737973,-67.32698180599184 L-5.70201110100086,-67.24191964548541 L-5.2681370820648645,-67.16304126844881 L-4.827123521373881,-67.09045357328986 L-4.37956809409886,-67.02425493309045 L-3.926077341149972,-66.96453506228823 L-3.467265847173682,-66.91137489509288 L-3.0037554076487236,-66.86484647580154 L-2.5361741862096623,-66.82501286116221 L-2.06515586334019,-66.79192803491723 L-1.5913387775898087,-66.76563683464295 L-1.115365060477724,-66.74617489098434 L-0.6378797662564355,-66.73356857936732 L-0.1595299977143562,-66.72783498425396 L0.3190359707978667,-66.7289818759891 L0.7971695719287226,-66.73700770026971 L1.2742228242842915,-66.75190158025134 L1.7495492105926365,-66.77364333128875 L2.222504553883916,-66.8022034882908 L2.6924478904988454,-66.83754334565239 L3.1587423387424387,-66.87961500970954 L3.620755962005702,-66.92836146364631 L4.0778626251855945,-66.98371664476582 L4.529442843242648,-67.04560553402038 L4.974884620746169,-67.11394425767966 L5.413584281269289,-67.18864020099893 L5.8449472855098845,-67.26959213373343 L6.268389037028588,-67.35669034732868 L6.68333567451188,-67.44981680360101 L7.0892248494866035,-67.5488452947064 L7.28860049056537,-67.60053117134744 L7.485506488431992,-67.6536416141813 L7.679876124165369,-67.70815862745627 L7.871643538256238,-67.7640637388234 L8.060743752922766,-67.82133800559552 L8.247112694127392,-67.87996202116581 L8.430687213287454,-67.93991592158338 L8.611405108672226,-68.00117939228394 L8.789205146479102,-68.06373167497313 L8.964027081581866,-68.12755157466012 L9.135811677943927,-68.19261746683935 L9.304500728689643,-68.2589073048176 L9.470037075826928,-68.32639862718425 L9.632364629614472,-68.39506856542204 L9.791428387566967,-68.46489385165573 L9.94717445309197,-68.53585082653613 L10.09955005375203,-68.60791544725673 L10.248503559145883,-68.68106329570024 L10.39398449840276,-68.75526958671246 L10.535943577283728,-68.83050917650024 L10.674332694884358,-68.9067565711512 L10.809104959933086,-68.98398593527203 L10.940214706679678,-69.06217110074235 L11.067617510368446,-69.14128557558148 L11.191270202290976,-69.22130255292495 L11.311130884413245,-69.30219492010755 L11.427158943572227,-69.38393526785009 L11.539315065237096,-69.46649589954677 L11.647561246830401,-69.54984884064963 L11.751860810604759,-69.63396584814751 L11.852178416070585,-69.71881842013569 L11.948480071970748,-69.80437780547345 L12.040733147798045,-69.89061501352596 L12.128906384851605,-69.97750082398737 L12.21296990682847,-70.06500579678173 L12.292895229946778,-70.15310028203834 L12.36865527259711,-70.24175443013824 L12.440224364518713,-70.33093820182827 L12.507578255497537,-70.42062137839957 L12.570694123583074,-70.5107735719267 L12.62955058282127,-70.6013642355642 L12.684127690500867,-70.69236267389697 L12.734406953910725,-70.78373805334098 L12.78037133660581,-70.87545941259089 L12.822005264179781,-70.96749567311073 L12.859294629542152,-71.05981564966454 L12.892226797698292,-71.15238806088308 L12.920790610030627,-71.245181539863 L12.944976388079576,-71.33816464479516 L12.96477593682297,-71.43130586961824 L12.980182547452829,-71.52457365469417 L12.991190999648541,-71.61793639750164 L12.997797563345703,-71.71136246334419 L12.999999999999998,-71.80482019606919 " />
			<path d="M12.999999999999998,-71.80482019606923 L12.996084643050654,-71.92942503287487 L12.984340930667239,-72.05395481238611 L12.96477593682297,-72.17833452252022 L12.937401446738559,-72.30248924159068 L12.902233949783227,-72.42634418343715 L12.859294629542152,-72.54982474247392 L12.808609351056234,-72.67285653862943 L12.750208645241994,-72.79536546215017 L12.684127690500869,-72.9172777182415 L12.61040629152907,-73.03851987151893 L12.529088855340717,-73.15901889024286 L12.440224364518714,-73.27870219031018 L12.343866347709476,-73.39749767897618 L12.240072847379269,-73.51533379828051 L12.128906384851605,-73.63213956815109 L12.010433922646728,-73.7478446291598 L11.884726824145899,-73.86237928490439 L11.751860810604763,-73.97567454399095 L11.611915915541699,-74.0876621615918 L11.464976436528616,-74.19827468055357 L11.311130884413249,-74.3074454720309 L11.150471930003537,-74.4151087756212 L10.983096348246193,-74.52119973897615 L10.809104959933089,-74.62565445686643 L10.628602570970589,-74.72841000967578 L10.441697909248385,-74.82940450130148 L10.248503559145883,-74.92857709643822 L10.049135893715581,-75.02586805722295 L9.8437150045843,-75.12121877921886 L9.63236462961447,-75.21457182671642 L9.415212078369072,-75.30587096733049 L9.192388155425132,-75.39506120587268 " />
			<path d="M3.464823227814083,5.919294793086219 L3.5511175289865164,5.950603913031304 L3.6430751905246668,5.9793488028073165 L3.740197885893204,6.005373691366027 L3.8419592987909628,6.0285375475814735 L3.9478079753045763,6.048714844509845 L4.057170312285008,6.065796239630873 L4.169453665752722,6.079689167384421 L4.284049562486755,6.090318340791272 L4.400336997393814,6.0976261594397965 L4.5176857987886905,6.101573021627567 L4.63546004334922,6.102137538966423 L4.753021502239857,6.099316652287994 L4.869733099729042,6.0931256482216 L4.984962365557783,6.083598076354679 L5.098084862350786,6.070785567424674 L5.208487569496704,6.054757553527586 L5.31557220515993,6.035600891859431 L5.418758468421714,6.013419394029574 L5.517487183981112,5.9883332634966155 L5.611223332374393,5.960478444175444 L5.699458949291866,5.930005883745375 L5.781715878280495,5.897080715651601 L5.85754836191513,5.861881364232745 L5.926545457396632,5.8245985778239096 L5.988333263486497,5.785434395074923 L6.042576946710069,5.7446010500853895 L6.088982555848142,5.702319822289715 L6.1272986148840936,5.65881983732468 L6.157317485774206,5.614336825377764 L6.178876493656209,5.569111843744831 L6.1864452297163295,5.546297580335791 L6.1918588083984645,5.52338997051976 L6.195109893053919,5.500420059395651 L6.19619407771256,5.477418976495029 " />
			<path d="M6.19619407771256,5.477418976495024 L6.194266807640836,5.446756254486792 L6.188489640388075,5.416167401661615 L6.178876493656209,5.385726109245216 L6.165450526357729,5.3555057129773695 L6.14824408282383,5.325579016439677 L6.1272986148840936,5.296018115665367 L6.102664582005393,5.266894225453635 L6.074401329730619,5.238277507806952 L6.042576946710069,5.210236902904658 L6.007268100669927,5.182839963020029 L5.968559853712995,5.156152689780934 L5.926545457396632,5.130239375166138 L5.881326128081591,5.105162446620284 L5.833010803092939,5.0809823166607195 L5.781715878280494,5.057757237338446 L5.727564927611036,5.0355431599038285 L5.611223332374393,4.994359508814603 L5.485106450543923,4.957827984466306 L5.3504288566341565,4.926300405408574 L5.208487569496704,4.900080399462461 L5.0606495613197,4.879420479618542 L4.908338592938365,4.864519612198775 L4.753021502239857,4.855521300702053 L4.59619407771256,4.852512203787069 L4.439366653185263,4.855521300702053 L4.2840495624867545,4.864519612198775 L4.13173859410542,4.879420479618542 L3.9839005859284162,4.900080399462461 L3.841959298790963,4.926300405408574 L3.7072817048811966,4.957827984466306 L3.581164823050727,4.994359508814602 L3.4648232278140836,5.0355431599038285 L3.4106722771446254,5.057757237338446 L3.3593773523321806,5.0809823166607195 L3.311062027343527,5.105162446620284 L3.2658426980284867,5.130239375166138 L3.2238283017121243,5.156152689780934 L3.185120054755192,5.182839963020029 L3.1498112087150503,5.210236902904658 L3.1179868256945005,5.238277507806952 L3.089723573419726,5.266894225453635 L3.0650895405410257,5.296018115665367 L3.044144072601289,5.325579016439677 L3.026937629067391,5.355505712977369 L3.01351166176891,5.385726109245216 L3.0038985150370445,5.416167401661615 L2.9981213477842834,5.446756254486792 L2.9961940777125595,5.477418976495021 " />
			<path d="M2.9961940777125595,5.477418976495024 L2.9981213477842834,5.508081698503255 L3.0038985150370445,5.5386705513284324 L3.01351166176891,5.569111843744831 L3.026937629067391,5.599332240012678 L3.044144072601289,5.629258936550371 L3.0650895405410252,5.65881983732468 L3.089723573419726,5.687943727536411 L3.1179868256945005,5.716560445183094 L3.1498112087150503,5.7446010500853895 L3.1851200547551914,5.771997989970019 L3.223828301712124,5.798685263209113 L3.2658426980284867,5.8245985778239096 L3.311062027343527,5.849675506369763 L3.35937735233218,5.873855636329328 L3.410672277144625,5.897080715651601 L3.4648232278140783,5.919294793086217 " />
			<path d="M3.464823227814083,-69.5678238745763 L3.5511175289865164,-69.53651475463121 L3.6430751905246668,-69.5077698648552 L3.740197885893204,-69.4817449762965 L3.8419592987909628,-69.45858112008105 L3.9478079753045763,-69.43840382315268 L4.057170312285008,-69.42132242803164 L4.169453665752722,-69.4074295002781 L4.284049562486755,-69.39680032687124 L4.400336997393814,-69.38949250822273 L4.5176857987886905,-69.38554564603496 L4.63546004334922,-69.3849811286961 L4.753021502239857,-69.38780201537453 L4.869733099729042,-69.39399301944093 L4.984962365557783,-69.40352059130784 L5.098084862350786,-69.41633310023785 L5.208487569496704,-69.43236111413493 L5.31557220515993,-69.4515177758031 L5.418758468421714,-69.47369927363295 L5.517487183981112,-69.4987854041659 L5.611223332374393,-69.52664022348708 L5.699458949291866,-69.55711278391715 L5.781715878280495,-69.59003795201092 L5.85754836191513,-69.62523730342977 L5.926545457396632,-69.66252008983861 L5.988333263486497,-69.7016842725876 L6.042576946710069,-69.74251761757714 L6.088982555848142,-69.7847988453728 L6.1272986148840936,-69.82829883033784 L6.157317485774206,-69.87278184228475 L6.178876493656209,-69.9180068239177 L6.1864452297163295,-69.94082108732673 L6.1918588083984645,-69.96372869714276 L6.195109893053919,-69.98669860826688 L6.19619407771256,-70.0096996911675 " />
			<path d="M6.19619407771256,-70.0096996911675 L6.194266807640836,-70.04036241317573 L6.188489640388075,-70.0709512660009 L6.178876493656209,-70.1013925584173 L6.165450526357729,-70.13161295468515 L6.14824408282383,-70.16153965122284 L6.1272986148840936,-70.19110055199715 L6.102664582005393,-70.22022444220889 L6.074401329730619,-70.24884115985557 L6.042576946710069,-70.27688176475786 L6.007268100669927,-70.3042787046425 L5.968559853712995,-70.33096597788159 L5.926545457396632,-70.35687929249639 L5.881326128081591,-70.38195622104223 L5.833010803092939,-70.4061363510018 L5.781715878280494,-70.42936143032408 L5.727564927611036,-70.45157550775869 L5.611223332374393,-70.49275915884792 L5.485106450543923,-70.52929068319622 L5.3504288566341565,-70.56081826225395 L5.208487569496704,-70.58703826820006 L5.0606495613197,-70.60769818804398 L4.908338592938365,-70.62259905546375 L4.753021502239857,-70.63159736696046 L4.59619407771256,-70.63460646387546 L4.439366653185263,-70.63159736696046 L4.2840495624867545,-70.62259905546375 L4.13173859410542,-70.60769818804398 L3.9839005859284162,-70.58703826820006 L3.841959298790963,-70.56081826225395 L3.7072817048811966,-70.52929068319622 L3.581164823050727,-70.49275915884792 L3.4648232278140836,-70.45157550775869 L3.4106722771446254,-70.42936143032408 L3.3593773523321806,-70.4061363510018 L3.311062027343527,-70.38195622104223 L3.2658426980284867,-70.35687929249639 L3.2238283017121243,-70.33096597788159 L3.185120054755192,-70.3042787046425 L3.1498112087150503,-70.27688176475786 L3.1179868256945005,-70.24884115985557 L3.089723573419726,-70.22022444220889 L3.0650895405410257,-70.19110055199715 L3.044144072601289,-70.16153965122284 L3.026937629067391,-70.13161295468515 L3.01351166176891,-70.1013925584173 L3.0038985150370445,-70.0709512660009 L2.9981213477842834,-70.04036241317573 L2.9961940777125595,-70.0096996911675 " />
			<path d="M2.9961940777125595,-70.0096996911675 L2.9981213477842834,-69.97903696915927 L3.0038985150370445,-69.94844811633409 L3.01351166176891,-69.9180068239177 L3.026937629067391,-69.88778642764984 L3.044144072601289,-69.85785973111216 L3.0650895405410252,-69.82829883033784 L3.089723573419726,-69.79917494012611 L3.1179868256945005,-69.77055822247942 L3.1498112087150503,-69.74251761757714 L3.1851200547551914,-69.7151206776925 L3.223828301712124,-69.6884334044534 L3.2658426980284867,-69.66252008983861 L3.311062027343527,-69.63744316129277 L3.35937735233218,-69.61326303133319 L3.410672277144625,-69.59003795201092 L3.4648232278140783,-69.5678238745763 " />
			<path d="M3.09619407771256,-76.98140760553636 L3.3110882080180586,-77.01259144285984 L3.530203454679277,-77.03891583194638 L3.7528201019332714,-77.06029430652735 L3.978206933159733,-77.07665664590668 L4.205623632667877,-77.08794910561086 L4.434323217370554,-77.09413459392044 L4.663554490358388,-77.09519279370322 L4.892564508314826,-77.09112022914874 L5.1206010546675085,-77.08193027718514 L5.346915110352552,-77.06765312354064 L5.570763314076142,-77.0483356635942 L5.7914104039923755,-77.02404134834086 L6.008131632777275,-76.99484997597767 L6.220215148166346,-76.96085742979508 L6.426964331136445,-76.92217536323427 L6.627700084051826,-76.87893083314538 " />
			<path d="M6.096194077712559,-75.75060575225584 L6.049616005573697,-75.79443762282311 L5.994655625829516,-75.83676255655939 L5.9316299109986526,-75.87733645324359 L5.860902348736435,-75.9159253113953 L5.78288084549569,-75.95230657782953 L5.698015374011422,-75.98627043118579 L5.6067953781769795,-76.01762099202887 L5.509746950278562,-76.04617745254274 L5.407429796867767,-76.07177511930178 L5.300434010770872,-76.0942663631058 L5.189376667851636,-76.11352147040063 L5.074898268155045,-76.12942939137392 L4.95765904195699,-76.14189838041185 L4.838335142023966,-76.15085652522268 L4.717614744043107,-76.15625216157602 L4.596194077712559,-76.15805417126539 L4.47477341138201,-76.15625216157602 L4.354053013401151,-76.15085652522268 L4.234729113468126,-76.14189838041185 L4.117489887270072,-76.12942939137392 L4.00301148757348,-76.11352147040063 L3.8919541446542447,-76.0942663631058 L3.7849583585573505,-76.07177511930178 L3.6826412051465547,-76.04617745254274 L3.585592777248137,-76.01762099202887 L3.494372781413695,-75.98627043118579 L3.409507309929427,-75.95230657782953 L3.3314858066886828,-75.9159253113953 L3.260758244426465,-75.87733645324359 L3.1977325295956023,-75.83676255655939 L3.1427721498514205,-75.79443762282311 L3.0961940777125623,-75.75060575225584 " />
			<path d="M8.838834764831844,4.5385635747485 L8.838834764831844,-46.44298947297042 " />
			<path d="M8.838834764831844,-46.44298947297042 L3.181980515339464,-48.652368555926394 " />
			<path d="M8.838834764831844,8.791487600928988 L3.181980515339464,6.582108517973012 " />
			<path d="M3.181980515339464,6.582108517973013 L3.181980515339464,-48.652368555926394 " />
			<path d="M4.879036790187179,5.403773007063157 L4.881381975106947,5.3099006319238935 L4.888407807338388,5.218249329707186 L4.900085159604976,5.1291990629193265 L4.916365620635657,5.0431190108489465 L4.937181695865412,4.960366039045528 L4.962447087250194,4.881283219847477 L4.992057051036222,4.80619841009327 L5.025888832000397,4.735422891912113 L5.063802172361576,4.669250082229045 L5.105639893252935,4.607954316334533 L5.151228546344742,4.551789710561582 L5.200379132916102,4.500989108785381 L5.252887887394594,4.4557631171130465 L5.308537122115436,4.416299230765373 L5.36709612979803,4.382761056770324 L5.428322139998451,4.355287635690766 " />
			<path d="M5.428322139998455,4.355287635690765 L5.4766259237239625,4.3384908348928235 L5.526215634357942,4.3253249097012585 L5.576971805943931,4.315821577983052 L5.628772162418861,4.31000373409671 L5.681491912186811,4.307885393737736 L5.735004048752884,4.3094716601736 L5.789179656692983,4.3147587119495165 L5.843888222222359,4.323733812094668 L5.898997947614746,4.336375338806677 L5.954376068714632,4.352652837540428 L6.009889174777736,4.372527094375732 L6.0654035298691795,4.395950230487092 L6.120785395045063,4.422865817487992 L6.1759013505413,4.45320901337182 L6.230618617193513,4.486906718721941 L6.284805376313669,4.523877752814597 L6.338331087252849,4.564033049190378 L6.391066801885101,4.607275870223128 L6.442885475254774,4.653502040169352 L6.4936622716389385,4.702600196136718 L6.543274865287586,4.7544520563670085 L6.591603735117065,4.808932705187243 L6.638532452646848,4.8659108939424724 L6.683947962485935,4.925249357185285 L6.727740854693195,4.986805143360293 L6.769805628355497,5.0504299591869515 L6.810040945748649,5.115970526911059 L6.848349876468854,5.1832689535642915 L6.88464013094654,5.252163111342195 L6.918824282780019,5.322487028184268 L6.950819979353347,5.394071287615189 L6.980550140230987,5.466743436883949 L7.007943142851329,5.5403284024176305 L7.032932995071718,5.614648911588982 L7.055459494149302,5.689525919781702 L7.075468371774716,5.764779041724603 L7.092911424809188,5.84022698605553 L7.107746631410128,5.915687992068128 L7.119938252265423,5.99098026758931 L7.129456916692574,6.065922426932523 L7.136279693395238,6.140333927871748 L7.140390145706735,6.2140355065835475 L7.141778371187412,6.286849609509309 L7.140441025480492,6.35860082109732 L7.1363813303689225,6.429116286394203 L7.129609066013813,6.498226127467631 L7.120140547393175,6.5657638526571525 L7.107998584997711,6.63156675766718 L7.093212429878341,6.695476317535889 L7.075817703177863,6.75733856853574 L7.055856310316495,6.817004479085582 L7.0333763400380525,6.874330308780781 L7.0084319485599496,6.929177954676456 L6.981083229106126,6.981415283989555 L6.951396067137213,7.030916452418314 L6.91944198162668,7.077562207312197 L6.885297952765371,7.12124017496198 L6.8490462365094755,7.1618451313178575 L6.810774166418729,7.1992792554833915 L6.770573943262217,7.233452365374627 L6.7285424128986495,7.264282134976625 L6.684780832966198,7.291694292674045 L6.6393946289439825,7.315622800177972 L6.592493140172863,7.336010011617937 " />
			<path d="M6.592493140172854,7.33601001161794 L6.527267550881828,7.357747930158348 L6.459793007344498,7.372906422367999 L6.390363103933412,7.381419530809081 L6.319279943158041,7.383250213352815 L6.246852821160198,7.378390504356681 L6.1733968819086105,7.366861549324434 L6.099231745948509,7.348713512898045 L6.024680119672788,7.324025360581959 L5.950066391166071,7.292904515149397 L5.8757152187314166,7.255486389225759 L5.801950118241252,7.211933796082931 L5.729092055459244,7.162436241208264 L5.6574580494581586,7.107209097730705 L5.587359793210523,7.046492669292 L5.51910229735414,6.980551144440543 L5.452982563033695,6.909671447097548 L5.389288289593165,6.8341619880973346 L5.3282966227421085,6.754351323234052 L5.270272948642789,6.670586723653894 L5.215469739165291,6.583232664813327 L5.164125453335151,6.492669240578131 L5.116463499753477,6.3992905093638255 L5.072691264504307,6.303502779513719 L5.032999208778916,6.205722841375238 L4.9975600401435205,6.106376153767079 L4.966527961056318,6.005894992728234 L4.940037997903717,5.904716570604006 L4.918205413475253,5.803281133653232 L4.901125205433602,5.7020300464543805 L4.888871692961975,5.601403871445633 L4.881498193387424,5.501840451955229 L4.879036790187179,5.403773007063164 " />
			<path d="M6.0104076400856545,5.1966661411958 L6.0104076400856545,-45.33829993149243 " />
			<path d="M8.838834764831844,-46.44298947297042 L6.0104076400856545,-45.33829993149243 " />
			<path d="M3.181980515339464,-48.652368555926394 L0.3535533905932735,-47.547679014448406 " />
			<path d="M6.0104076400856545,-45.33829993149243 L0.35355339059327395,-47.547679014448406 " />
			<path d="M3.181980515339464,6.582108517973013 L0.3535533905932735,7.686798059451001 " />
			<path d="M0.35355339059327373,5.7006021091442305 L0.35355339059327373,-47.547679014448406 " />
			<path d="M2.050609665440988,6.5084625485411465 L4.879036790187179,5.403773007063158 " />
			<path d="M2.0506096654409887,6.508462548541146 L2.052580167386264,6.596126349997724 L2.0584848091988257,6.685024009415065 " />
			<path d="M4.281866785262543,7.034854859110243 L4.264460602174455,6.944805747114326 L4.243340083850458,6.854775619299553 L4.218577701540938,6.7650733978161774 L4.190258422895884,6.676006879663008 L4.158479420413714,6.587881680537496 L4.123349738011372,6.501000186170579 L4.0849899168597865,6.4156605147445696 L4.043531581768576,6.332155493954362 L3.9991169895392513,6.250771656222002 L3.9518985408366474,6.171788255512343 L3.9020382572535275,6.095476309123417 L3.849707225362694,6.022097667739445 L3.7950850096642683,5.951904116937427 L3.738359036442484,5.885136513230337 L3.6797239506461876,5.822023957611423 L3.619380947999792,5.762783009435462 L3.5575370846364267,5.70761694333438 L3.494404566622152,5.656715051717007 L3.4302000218091044,5.610251995246302 L3.365143756516084,5.568387203522788 L3.299458999587144,5.531264328030621 L3.233371136422062,5.499010749223423 L3.1671069356069834,5.471737139441226 L3.100893770798899,5.449537083158291 L3.0349588405339487,5.4324867558648595 L2.969528388636605,5.420644662684692 L2.904826927904783,5.4140514376252895 L2.841076469734659,5.4127297041496165 L2.778495762328594,5.416683997547774 L2.71729954010012,5.425900749374964 L2.657697786851519,5.440348334009166 L2.599895015252274,5.459977177168749 " />
			<path d="M2.5998950152522653,5.459977177168753 L2.53866900505184,5.487450598248312 L2.4801099973692464,5.520988772243361 L2.4244607626484043,5.560452658591035 L2.371952008169912,5.6056786502633695 L2.3228014215985517,5.656479252039571 L2.277212768506746,5.712643857812521 L2.235375047615386,5.773939623707032 L2.197461707254207,5.840112433390101 L2.1636299262900325,5.910887951571258 L2.1340199625040035,5.985972761325465 L2.108754571119222,6.065055580523516 L2.087938495889468,6.147808552326934 L2.0716580348587863,6.233888604397315 L2.0599806825921982,6.322938871185174 L2.0529548503607575,6.414590173401882 L2.050609665440988,6.508462548541142 " />
			<path d="M8.838834764831844,-77.74252648151341 L3.181980515339464,-79.95190556446939 " />
			<path d="M3.181980515339464,-79.95190556446939 L3.181980515339464,-135.1863826383688 " />
			<path d="M4.879036790187179,-81.13024107537925 L4.881381975106947,-81.22411345051852 L4.888407807338388,-81.31576475273522 L4.900085159604976,-81.40481501952308 L4.916365620635657,-81.49089507159346 L4.937181695865412,-81.57364804339687 L4.962447087250194,-81.65273086259494 L4.992057051036222,-81.72781567234914 L5.025888832000397,-81.79859119053029 L5.063802172361576,-81.86476400021336 L5.105639893252935,-81.92605976610787 L5.151228546344742,-81.98222437188082 L5.200379132916102,-82.03302497365702 L5.252887887394594,-82.07825096532936 L5.308537122115436,-82.11771485167704 L5.36709612979803,-82.15125302567208 L5.428322139998451,-82.17872644675164 " />
			<path d="M5.428322139998455,-82.17872644675164 L5.4766259237239625,-82.19552324754959 L5.526215634357942,-82.20868917274115 L5.576971805943931,-82.21819250445935 L5.628772162418861,-82.2240103483457 L5.681491912186811,-82.22612868870468 L5.735004048752884,-82.22454242226881 L5.789179656692983,-82.21925537049289 L5.843888222222359,-82.21028027034774 L5.898997947614746,-82.19763874363574 L5.954376068714632,-82.18136124490198 L6.009889174777736,-82.16148698806667 L6.0654035298691795,-82.13806385195531 L6.120785395045063,-82.11114826495441 L6.1759013505413,-82.08080506907059 L6.230618617193513,-82.04710736372047 L6.284805376313669,-82.01013632962781 L6.338331087252849,-81.96998103325203 L6.391066801885101,-81.92673821221928 L6.442885475254774,-81.88051204227305 L6.4936622716389385,-81.83141388630568 L6.543274865287586,-81.7795620260754 L6.591603735117065,-81.72508137725517 L6.638532452646848,-81.66810318849993 L6.683947962485935,-81.60876472525712 L6.727740854693195,-81.54720893908211 L6.769805628355497,-81.48358412325545 L6.810040945748649,-81.41804355553134 L6.848349876468854,-81.35074512887812 L6.88464013094654,-81.28185097110021 L6.918824282780019,-81.21152705425814 L6.950819979353347,-81.13994279482722 L6.980550140230987,-81.06727064555845 L7.007943142851329,-80.99368568002478 L7.032932995071718,-80.91936517085342 L7.055459494149302,-80.84448816266071 L7.075468371774716,-80.7692350407178 L7.092911424809188,-80.69378709638687 L7.107746631410128,-80.61832609037428 L7.119938252265423,-80.54303381485309 L7.129456916692574,-80.46809165550988 L7.136279693395238,-80.39368015457066 L7.140390145706735,-80.31997857585885 L7.141778371187412,-80.2471644729331 L7.140441025480492,-80.17541326134508 L7.1363813303689225,-80.1048977960482 L7.129609066013813,-80.03578795497478 L7.120140547393175,-79.96825022978526 L7.107998584997711,-79.90244732477522 L7.093212429878341,-79.83853776490652 L7.075817703177863,-79.77667551390667 L7.055856310316495,-79.71700960335683 L7.0333763400380525,-79.65968377366163 L7.0084319485599496,-79.60483612776595 L6.981083229106126,-79.55259879845285 L6.951396067137213,-79.50309763002409 L6.91944198162668,-79.45645187513021 L6.885297952765371,-79.41277390748043 L6.8490462365094755,-79.37216895112455 L6.810774166418729,-79.33473482695902 L6.770573943262217,-79.30056171706778 L6.7285424128986495,-79.26973194746579 L6.684780832966198,-79.24231978976836 L6.6393946289439825,-79.21839128226443 L6.592493140172863,-79.19800407082447 " />
			<path d="M6.592493140172854,-79.19800407082447 L6.527267550881828,-79.17626615228406 L6.459793007344498,-79.1611076600744 L6.390363103933412,-79.15259455163333 L6.319279943158041,-79.15076386908959 L6.246852821160198,-79.15562357808572 L6.1733968819086105,-79.16715253311797 L6.099231745948509,-79.18530056954437 L6.024680119672788,-79.20998872186044 L5.950066391166071,-79.24110956729301 L5.8757152187314166,-79.27852769321665 L5.801950118241252,-79.32208028635948 L5.729092055459244,-79.37157784123414 L5.6574580494581586,-79.4268049847117 L5.587359793210523,-79.4875214131504 L5.51910229735414,-79.55346293800186 L5.452982563033695,-79.62434263534486 L5.389288289593165,-79.69985209434508 L5.3282966227421085,-79.77966275920835 L5.270272948642789,-79.86342735878851 L5.215469739165291,-79.95078141762907 L5.164125453335151,-80.04134484186427 L5.116463499753477,-80.13472357307857 L5.072691264504307,-80.23051130292869 L5.032999208778916,-80.32829124106716 L4.9975600401435205,-80.42763792867532 L4.966527961056318,-80.52811908971417 L4.940037997903717,-80.6292975118384 L4.918205413475253,-80.73073294878917 L4.901125205433602,-80.83198403598803 L4.888871692961975,-80.93261021099677 L4.881498193387424,-81.03217363048718 L4.879036790187179,-81.13024107537925 " />
			<path d="M3.181980515339464,-79.95190556446939 L0.3535533905932735,-78.8472160229914 " />
			<path d="M3.7143903270563863,-80.67536891124125 L4.879036790187179,-81.13024107537925 " />
			<path d="M3.0961940777125596,10.08029206598664 L3.098000893404801,10.051545764103922 L3.1034169877042643,10.02286871458032 L3.1124293127653884,9.994330002939947 L3.125016157107714,9.965998381438839 L3.141147197920744,9.937942103434752 L3.1607835741142463,9.910228758958837 L3.1838779799380283,9.882925111885339 L3.2103747789456296,9.856096939091573 L3.2402101380273947,9.829808871995672 L3.273312181190027,9.804124240853833 L3.3096011627121515,9.77910492219218 L3.348989659258742,9.75481118974081 L3.3913827804915924,9.731301569229071 L3.4366783976684543,9.70863269739198 L3.5355339059327386,9.666033487932395 L3.6446041514670915,9.627423815036245 L3.762838728183156,9.593175510959718 L3.8890989724735627,9.563618405593093 L4.022168929164925,9.539037150018613 L4.160767061830866,9.51966847516494 L4.303558594688367,9.505698911958907 L4.449168367218219,9.49726299493073 L4.59619407771256,9.494441966572932 L4.7432197882069005,9.49726299493073 L4.888829560736752,9.505698911958907 L5.031621093594253,9.51966847516494 L5.170219226260194,9.539037150018613 L5.3032891829515565,9.563618405593093 L5.429549427241962,9.593175510959718 L5.547784003958028,9.627423815036245 L5.656854249492381,9.666033487932395 L5.755709757756665,9.70863269739198 L5.801005374933528,9.731301569229071 L5.843398496166378,9.75481118974081 L5.882786992712967,9.77910492219218 L5.919075974235092,9.804124240853833 L5.952178017397724,9.829808871995672 L5.98201337647949,9.856096939091573 L6.008510175487091,9.882925111885339 L6.031604581310873,9.910228758958837 L6.051240957504375,9.937942103434752 L6.067371998317405,9.965998381438839 L6.079958842659731,9.994330002939945 L6.088971167720855,10.02286871458032 L6.094387262020318,10.051545764103922 L6.09619407771256,10.080292065986637 " />
			<path d="M3.761194602626035,-80.62270736558973 L3.847191558519003,-80.64360628335483 L3.9366035371692343,-80.66219090043627 L4.029022871133646,-80.67837648161802 L4.124028181150338,-80.69208922991454 L4.2211862973868275,-80.70326662304282 L4.32005423444654,-80.71185769848813 L4.42018121112865,-80.717823285864 L4.521110705732332,-80.7211361855067 L4.6223825375344,-80.72178129249015 L4.723534964949997,-80.7197556654958 L4.824106790809923,-80.71506854022326 L4.923639465155731,-80.70774128728084 L5.021679175965071,-80.69780731474785 L5.11777891827474,-80.6853119158528 L5.211500532267456,-80.67031206246226 L5.3024167010298155,-80.65287614532177 L5.390112898872825,-80.63308366223313 L5.474189281331768,-80.61102485558999 L5.554262508228087,-80.58680030092412 L5.629967491481182,-80.56052044833866 L5.700959059701072,-80.53230511891873 L5.7669135319723654,-80.502282958416 L5.827530193653953,-80.47059085069763 L5.8825326674656395,-80.43737329363421 L5.9316701736103505,-80.40278174027215 L5.974718673186455,-80.36697390829453 L6.011481889676916,-80.3301130609187 L6.041792203857862,-80.29236726250949 L6.0655114180463015,-80.25390861230188 L6.082531386202452,-80.21491245972705 L6.092774507013778,-80.17555660491925 L6.09619407771256,-80.13602048804906 " />
			<path d="M6.09619407771256,-80.13602048804906 L6.093847306843282,-80.10326219307964 L6.086814337346801,-80.07060639972671 L6.075117175580366,-80.03815528887634 L6.058792422288628,-80.00601040095734 L6.037891158078884,-79.97427231821848 L6.012478783588438,-79.94304035000377 L5.9826348148441895,-79.91241222201081 L5.9484526344547675,-79.88248377050435 L5.910039199413753,-79.85334864244192 L5.867514706428271,-79.82509800244993 L5.821012215820147,-79.79782024756703 L5.770677235176459,-79.77160073064725 L5.716667264052247,-79.74652149328861 L5.659151301150023,-79.72266100912267 L5.598309315518131,-79.70009393826831 L5.534331683422584,-79.67889089371818 L5.467418592654431,-79.65911822038865 L5.397779416136592,-79.64083778752477 L5.3256320567901465,-79.62410679510965 L5.251202265710043,-79.60897759488408 L5.096433372962344,-79.58370876957608 L4.935408327267721,-79.56534733162839 L4.770140959454174,-79.55412291506862 L4.602698156189734,-79.55017589604753 L4.435174010835381,-79.55355563725 L4.269663634042355,-79.56421987054937 " />
			<path d="M8.59619407771256,1.79512050490173 L8.59619407771256,5.477418976495024 " />
			<path d="M0.5961940777125592,1.79512050490173 L0.5961940777125592,5.477418976495024 " />
			<path d="M13.0,-71.80482019606923 L13.0,-1.8411492357966472 " />
			<path d="M6.196194077712558,-0.04602873089491766 L6.196194077712558,5.477418976495024 " />
			<path d="M2.996194077712559,-0.04602873089491677 L2.996194077712559,5.477418976495024 " />
			<path d="M6.196194077712558,-75.53314739855745 L6.196194077712558,-70.0096996911675 " />
			<path d="M2.996194077712559,-75.53314739855745 L2.996194077712559,-70.0096996911675 " />
			<path d="M6.592493140172853,7.33601001161794 L3.764066015426663,8.440699553095929 " />
			<path d="M5.428322139998455,4.355287635690766 L2.5998950152522653,5.459977177168755 " />
			<path d="M6.592493140172853,-79.19800407082447 L3.764066015426663,-78.09331452934647 " />
			<path d="M5.428322139998455,-82.17872644675163 L2.5998950152522653,-81.07403690527363 " />
			<path d="M6.096194077712559,-80.13602048804906 L6.096194077712559,-76.67134226871013 " />
			<path d="M6.096194077712559,-75.31568904485903 L6.096194077712559,9.862671813732263 " />
			<path d="M3.0961940777125596,-78.14850200897175 L3.0961940777125596,-77.77603181018813 " />
			<path d="M3.0961940777125596,-75.31568904485903 L3.0961940777125596,6.925679183473951 " />
			<path d="M3.0961940777125596,8.38551207347065 L3.0961940777125596,8.757982272254276 " />

       </g>

       <!-- solid lines -->
       <g  stroke="rgb(40,40,40)" fill="none">
			<path d="M-10.323759005323595,4.032116826394656 L-13.152186130069785,2.927427284916668 " />
			<path d="M-10.323759005323598,4.032116826394655 L-10.131983328988952,4.105651797774995 L-9.93677456781362,4.177795624846226 L-9.738198865633116,4.2485238626531014 L-9.536323507125148,4.317812545893554 L-9.331216895011131,4.385638197039015 L-9.122948526878845,4.451977834289453 L-8.911588971634119,4.516808979360453 L-8.697209845589526,4.58010966509967 L-8.47988378819816,4.641858442930101 L-8.259684437440749,4.702034390117645 L-8.036686404874425,4.760617116860489 L-7.810965250351622,4.817586773197908 L-7.582597456417618,4.872924055736168 L-7.351660402395485,4.926610214189207 L-7.118232338167172,4.978627057731914 L-6.882392357659571,5.02895696116385 L-6.644220372044623,5.077582870881302 L-6.403797082662504,5.124488310655668 L-6.161203953677075,5.169657387216205 L-5.916523184472848,5.213074795635241 L-5.669837681802858,5.254725824514047 L-5.421231031696821,5.294596360967595 L-5.17078747113915,5.332672895406512 L-4.918591859526413,5.368942526114626 L-4.664729649913839,5.403392963620537 L-4.409286860060738,5.436012534861736 L-4.152350043284574,5.46679018713986 L-3.8940062591335205,5.495715491865752 L-3.3734483808977975,5.547970485839099 L-2.848318701435467,5.592706699203272 L-2.319328892674367,5.629863504063003 L-1.7871958579085543,5.65939054437105 L-1.2526407602288285,5.6812478041722665 L-0.7163880451803043,5.695405661834458 L-0.1791644589715076,5.701844930192529 L0.3583019364345274,5.7005568825515205 L0.895282750012258,5.691543264513297 L1.431050248811589,5.6748162916108535 L1.9648783442040383,5.65039863275345 L2.4960435759003983,5.618323379505 L3.023826092406396,5.578634001237372 L3.5475106265876626,5.531384286219352 L4.06638746502179,5.476638268721125 L4.323802968356925,5.446476937818985 L4.579753409823822,5.414470142233059 L4.834152064094193,5.380628727031001 L5.0869127316417435,5.344964158916395 L5.337949767949699,5.307488522343404 L5.587178112530314,5.268214515422127 L5.834513317746448,5.22715544561601 L6.07987157742551,5.184325225232797 L6.323169755256028,5.139738366710532 L6.564325412957256,5.093409977700217 L6.803256838212296,5.0453557559467885 L7.039883072355185,4.995591983970149 L7.274123937802609,4.944135523548063 L7.505900065221034,4.8910038100027675 L7.735132920419901,4.836214846293248 L7.961744830961878,4.779787196915186 L8.185659012481109,4.7217399816106305 L8.406799594700544,4.662092868889527 L8.625091647139568,4.6008660693653205 L8.84046120450316,4.538080328906856 L9.052835291744032,4.473756921608927 L9.262141948789225,4.407917642583838 L9.468310254922834,4.34058480057642 L9.671270352816503,4.271781210405019 L9.87095347219961,4.201530185231013 L10.067291953161176,4.129855528659457 L10.260219269075488,4.056781526673552 L10.449670049143753,3.982332939405675 L10.63558010054409,3.906534992747744 L10.817886430182407,3.8294133698037642 L10.996527266036749,3.750994202187461 L11.171442078087907,3.6713040611679344 L11.342571598829203,3.590369948666349 L11.509857843348453,3.508219288106703 L11.673244128975409,3.42487991512376 L11.83267509448788,3.340380068131331 L11.988096718870125,3.254748378754082 L12.13945633961716,3.1680138621260827 L12.286702670578716,3.080205907059428 L12.429785819336873,2.991354266086237 L12.568657304111406,2.901489045377413 L12.703270070187186,2.810640694541582 L12.833578505858041,2.718839996307641 L12.959538457881662,2.62611805609446 L13.081107246440299,2.5325062914712406 L13.19824367960227,2.4380364215120873 L13.310908067279273,2.3427404560484346 L13.419062234674842,2.246650684822951 L13.522669535219345,2.149799666548598 L13.621694862987189,2.052220217876552 L13.716104664591974,1.9539454022767317 L13.805866950555613,1.8550085188346859 L13.890951306147524,1.7554430909686531 L13.971328901690248,1.6552828550706133 L14.046972502328003,1.5545617490751527 L14.117856477254838,1.4533139009600673 L14.183956808399275,1.351573617182571 L14.245251098562514,1.2493753710550037 L14.301718579007431,1.146753791064023 L14.353340116495758,1.0437436491372132 L14.40009821977114,0.940379848861088 L14.441977045485803,0.8366974136544872 L14.478962403568852,0.7327314749013653 L14.511041762034399,0.6285172600470005 L14.538204251227834,0.5240900806616533 L14.560440667508876,0.4194853204757263 L14.577743476370102,0.3147384233904525 L14.590106814989902,0.2098848814682212 L14.597526494219021,0.10496022290658566 L14.6,5.111224948276881e-14 " />
			<path d="M-6.081118318204309,-71.27088691768819 L-10.323759005323595,-72.92792122990517 " />
			<path d="M3.096194077712559,-77.18686405473319 L1.8384776310850244,-77.67808625826052 " />
			<path d="M1.8384776310850235,-76.66478038691496 L1.8384776310850235,-77.67808625826052 " />
			<path d="M-10.323759005323595,-72.92792122990517 L-13.152186130069785,-71.82323168842719 " />
			<path d="M-13.152186130069785,2.927427284916668 L-13.152186130069785,-70.7185421469492 " />
			<path d="M-13.152186130069783,-70.71854214694919 L-13.152186130069783,-71.82323168842719 " />
			<path d="M-10.323759005323595,-69.61385260547121 L-13.152186130069785,-70.71854214694919 " />
			<path d="M-10.323759005323595,4.032116826394657 L-10.323759005323595,-69.61385260547121 " />
			<path d="M-10.323759005323598,-69.61385260547121 L-10.131983328988952,-69.54031763409087 L-9.93677456781362,-69.46817380701964 L-9.738198865633116,-69.39744556921276 L-9.536323507125148,-69.3281568859723 L-9.331216895011131,-69.26033123482685 L-9.122948526878845,-69.19399159757641 L-8.911588971634119,-69.12916045250542 L-8.697209845589526,-69.0658597667662 L-8.47988378819816,-69.00411098893576 L-8.259684437440749,-68.94393504174822 L-8.036686404874425,-68.88535231500538 L-7.810965250351622,-68.82838265866796 L-7.582597456417618,-68.7730453761297 L-7.351660402395485,-68.71935921767665 L-7.118232338167172,-68.66734237413395 L-6.882392357659571,-68.61701247070201 L-6.644220372044623,-68.56838656098456 L-6.403797082662504,-68.5214811212102 L-6.161203953677075,-68.47631204464966 L-5.916523184472848,-68.43289463623063 L-5.669837681802858,-68.39124360735181 L-5.421231031696821,-68.35137307089826 L-5.17078747113915,-68.31329653645935 L-4.918591859526413,-68.27702690575124 L-4.664729649913839,-68.24257646824533 L-4.409286860060738,-68.20995689700413 L-4.152350043284574,-68.179179244726 L-3.8940062591335205,-68.15025394000011 L-3.3734483808977975,-68.09799894602676 L-2.848318701435467,-68.05326273266259 L-2.319328892674367,-68.01610592780285 L-1.7871958579085543,-67.98657888749482 L-1.2526407602288285,-67.96472162769359 L-0.7163880451803043,-67.95056377003141 L-0.1791644589715076,-67.94412450167333 L0.3583019364345274,-67.94541254931434 L0.895282750012258,-67.95442616735257 L1.431050248811589,-67.97115314025501 L1.9648783442040383,-67.99557079911241 L2.4960435759003983,-68.02764605236086 L3.023826092406396,-68.06733543062849 L3.5475106265876626,-68.11458514564652 L4.06638746502179,-68.16933116314473 L4.323802968356925,-68.19949249404688 L4.579753409823822,-68.23149928963281 L4.834152064094193,-68.26534070483487 L5.0869127316417435,-68.30100527294947 L5.337949767949699,-68.33848090952246 L5.587178112530314,-68.37775491644373 L5.834513317746448,-68.41881398624986 L6.07987157742551,-68.46164420663307 L6.323169755256028,-68.50623106515533 L6.564325412957256,-68.55255945416565 L6.803256838212296,-68.60061367591908 L7.039883072355185,-68.65037744789572 L7.274123937802609,-68.7018339083178 L7.505900065221034,-68.7549656218631 L7.735132920419901,-68.80975458557262 L7.961744830961878,-68.86618223495068 L8.185659012481109,-68.92422945025524 L8.406799594700544,-68.98387656297633 L8.625091647139568,-69.04510336250054 L8.84046120450316,-69.107889102959 L9.052835291744032,-69.17221251025694 L9.262141948789225,-69.23805178928203 L9.468310254922834,-69.30538463128944 L9.671270352816503,-69.37418822146084 L9.87095347219961,-69.44443924663486 L10.067291953161176,-69.5161139032064 L10.260219269075488,-69.58918790519232 L10.449670049143753,-69.66363649246018 L10.63558010054409,-69.73943443911811 L10.817886430182407,-69.8165560620621 L10.996527266036749,-69.89497522967841 L11.171442078087907,-69.97466537069793 L11.342571598829203,-70.05559948319952 L11.509857843348453,-70.13775014375916 L11.673244128975409,-70.2210895167421 L11.83267509448788,-70.30558936373453 L11.988096718870125,-70.39122105311178 L12.13945633961716,-70.47795556973978 L12.286702670578716,-70.56576352480644 L12.429785819336873,-70.65461516577963 L12.568657304111406,-70.74448038648845 L12.703270070187186,-70.83532873732429 L12.833578505858041,-70.92712943555823 L12.959538457881662,-71.01985137577141 L13.081107246440299,-71.11346314039463 L13.19824367960227,-71.20793301035377 L13.310908067279273,-71.30322897581743 L13.419062234674842,-71.39931874704291 L13.522669535219345,-71.49616976531726 L13.621694862987189,-71.59374921398931 L13.716104664591974,-71.69202402958913 L13.805866950555613,-71.79096091303118 L13.890951306147524,-71.89052634089721 L13.971328901690248,-71.99068657679526 L14.046972502328003,-72.09140768279072 L14.117856477254838,-72.1926555309058 L14.183956808399275,-72.2943958146833 L14.245251098562514,-72.39659406081086 L14.301718579007431,-72.49921564080184 L14.353340116495758,-72.60222578272865 L14.40009821977114,-72.70558958300478 L14.441977045485803,-72.80927201821137 L14.478962403568852,-72.9132379569645 L14.511041762034399,-73.01745217181886 L14.538204251227834,-73.12187935120421 L14.560440667508876,-73.22648411139014 L14.577743476370102,-73.33123100847541 L14.590106814989902,-73.43608455039764 L14.597526494219021,-73.54100920895928 L14.6,-73.64596943186581 " />
			<path d="M14.6,-73.64596943186586 L14.59890064685151,-73.71594510926577 L14.59560275296458,-73.78591024858606 L14.590106814989904,-73.85585431333408 L14.582413660595517,-73.92576677019098 L14.572524448342177,-73.9956370905979 L14.560440667508876,-74.0654547523416 L14.546164137868558,-74.13520924113901 L14.529697009414075,-74.20489005222072 L14.511041762034399,-74.27448669191287 L14.490201205141165,-74.34398867921753 L14.467178477245588,-74.41338554739104 L14.441977045485803,-74.48266684552036 L14.414600705104732,-74.55182214009677 L14.38505357887854,-74.62084101658732 L14.353340116495758,-74.68971308100308 L14.319465093887164,-74.75842796146446 L14.245251098562516,-74.89534480292086 L14.162456296640341,-75.0315090673709 L14.071130560613422,-75.16683873455318 L13.97132890169025,-75.30125228693647 L13.863111436658336,-75.4346687588229 L13.746543351672104,-75.56700778511853 L13.621694862987189,-75.69818964974242 L13.488641174664787,-75.82813533364451 L13.347462433271549,-75.95676656240381 L13.198243679602275,-76.08400585337795 L13.041074797454526,-76.20977656237582 L12.876050459485985,-76.33400292982519 L12.70327007018719,-76.45661012640744 L12.522837706003974,-76.57752429813193 L12.334862052645725,-76.69667261082287 L12.139456339617164,-76.81398329399195 L11.936738272013125,-76.92938568407016 L11.726829959617419,-77.04281026697286 L11.509857843348453,-77.15418871997257 L11.285952619095962,-77.2634539528539 L11.055249158994677,-77.37054014832623 L10.817886430182405,-77.47538280166962 L10.57400741109142,-77.57791875959006 L10.32375900532361,-77.67808625826052 " />
			<path d="M10.323759005323595,-77.67808625826052 L8.838834764831844,-78.25804826753647 " />
			<path d="M2.5927248643506937,-77.97267013598798 L1.8384776310850244,-77.67808625826052 " />
			<path d="M1.7677669529663702,6.582108517973012 L1.6561652390275676,6.536728584165735 L1.5493328122700447,6.48963024825764 L1.4474429752535483,6.440889912727078 L1.3506610127151495,6.390586643688776 L1.2591439234458943,6.338802042633522 L1.1730401656088363,6.285620114054996 L1.092489415911602,6.2311271291784704 L1.0176223430241467,6.175411486012436 L0.9485603956092583,6.11856356595018 L0.8854156053096816,6.0606755871539395 L0.8282904050114421,6.001841454959472 L0.7772774626781764,5.942156609543691 L0.7324595310260298,5.881717871102511 L0.6939093132829788,5.820623282790034 L0.6616893452503394,5.75897195167387 L0.6358518938577813,5.69686388796459 " />
			<path d="M6.0104076400856545,6.938785877837388 L5.875440747037013,6.957637419096304 L5.738831158985763,6.97458819524343 L5.600754297836829,6.989616439596909 L5.461387469636987,7.0027028542195335 L5.3209096368941715,7.013830634699443 L5.179501188769722,7.022985491728858 L5.037343709438628,7.030155669453138 L4.894619744915265,7.035331960566612 L4.751512568643989,7.038507718135777 L4.608205946155663,7.039678864134703 L4.464883899092285,7.038843894681671 L4.321730468902713,7.036003881970324 L4.178929480512992,7.031162472892856 L4.036664306274693,7.024325884356985 L3.895117630494425,7.015502895302767 L3.7544712148468666,7.004704835429448 L3.6149056649725515,6.9919455706468785 L3.476600198560146,6.977241485270137 L3.33973241521101,6.960611460980253 L3.2044780683815466,6.942076852578023 L3.0710108396962186,6.921661460562076 L2.939502115921027,6.89939150056638 L2.8101207688838414,6.87529556969646 L2.6830329386241933,6.849404609807529 L2.5584018200509786,6.821751867771703 L2.436387453382049,6.792372852785324 L2.3171465186347806,6.761305290771203 L2.200832134431494,6.728589075934329 L2.087593661378117,6.69426621953329 L1.9775765102685559,6.658380795933128 L1.8709219553610605,6.62097888600896 L1.767766952966395,6.582108517973022 " />
			<path d="M0.5961940777125587,-73.87882300499771 L-6.081118318204307,-71.27088691768819 " />
			<path d="M1.7677669529663702,-70.74615938548615 L1.6323895762927219,-70.80169457907269 L1.5041522642616107,-70.85975727737838 L1.3833639517899794,-70.92020760227729 L1.2703156285023787,-70.98289992364192 L1.1652796377114716,-71.0476832101789 L1.0685090203191403,-71.11440139327665 L0.9802369052187871,-71.18289374298821 L0.9006759476674135,-71.25299525524396 L0.8300178169804777,-71.32453704936066 L0.7684327347837252,-71.39734677489 L0.7410898145308011,-71.43417240567993 L0.7160690649343846,-71.47124902682576 L0.6933855575584458,-71.50855430475728 L0.6730529560996383,-71.54606576817 L0.6550835081567952,-71.58376082156099 L0.6394880378534356,-71.62161675883962 L0.6262759393177197,-71.65961077700477 L0.6154551710237719,-71.69771998988061 L0.6070322509977988,-71.73592144190229 L0.60101225289187,-71.77419212194356 L0.5973988029277426,-71.81250897717779 L0.5961940777125596,-71.85084892696412 " />
			<path d="M8.59619407771256,-71.85084892696413 L8.593483616065958,-71.79334621971256 L8.58535590442732,-71.73592144190229 L8.571821957721983,-71.67865241736222 L8.552900117571683,-71.62161675883962 L8.528616027437426,-71.56489176281696 L8.499002597866674,-71.50855430475728 L8.464099961891968,-71.45268073492028 L8.423955420641395,-71.39734677489 L8.378623379234647,-71.34262741495463 L8.328165273051516,-71.28859681247741 L8.27264948447279,-71.2353281913962 L8.212151250206333,-71.18289374298821 L8.146752559323977,-71.13136452803414 L8.076542042147405,-71.08081038051438 L8.00161485013362,-71.0312998129679 L7.922072526922742,-70.98289992364192 L7.83802287072294,-70.93567630555829 L7.749579788218986,-70.88969295761983 L7.656863140202396,-70.84501219787703 L7.559998579132397,-70.80169457907269 L7.459117378847836,-70.75979880657901 L7.354356256660828,-70.71938165883826 L7.245857188073248,-70.68049791041481 L7.133767214367143,-70.64320025776308 L7.018238243329865,-70.60753924781157 L6.899426843383943,-70.57356320946015 L6.777494031400747,-70.54131818808327 L6.652605054485447,-70.51084788312775 L6.52492916602905,-70.48219358889013 L6.394639396330987,-70.45539413855312 L6.2619123181031116,-70.43048585155789 L6.126927807172921,-70.40750248438273 L5.989868798710299,-70.38647518479526 L5.850921039308129,-70.36743244964 L5.710272835252778,-70.35040008621861 L5.568114797325619,-70.33540117731499 L5.424639582481437,-70.3224560499128 L5.2800416327537665,-70.31158224764769 L5.134516911741065,-70.30279450703168 L4.988262639030805,-70.29610473748171 L4.841477022921399,-70.29152200517967 L4.694358991804212,-70.28905252078563 L4.547107924569683,-70.28869963102098 L4.399923380402889,-70.29046381413278 L4.2530048283348005,-70.2943426792457 L4.106551376915697,-70.3003309696022 L3.9607615043771185,-70.3084205696866 L3.81583278964805,-70.31860051622351 L3.671961644589877,-70.33085701303561 L3.529343047812967,-70.34517344974064 L3.388170280435647,-70.36153042426228 L3.2486346641436814,-70.3799057691245 L3.110925301905213,-70.40027458149356 L2.975228821692603,-70.42260925692707 L2.8417291235584505,-70.4468795267845 L2.7106071304085693,-70.47305249924801 L2.5820405428096884,-70.50109270389859 L2.456203598164172,-70.53096213978662 L2.33326683457811,-70.5626203269319 L2.213396859742828,-70.5960243611834 L2.096756125143015,-70.63112897236428 L1.9835027058974526,-70.66788658562344 L1.8737900865307462,-70.70624738591037 L1.767766952966395,-70.74615938548614 " />
			<path d="M1.7677669529663702,-74.42845785707945 L1.6323895762927219,-74.48399305066599 L1.5041522642616107,-74.54205574897168 L1.3833639517899794,-74.60250607387059 L1.2703156285023787,-74.66519839523522 L1.1652796377114716,-74.7299816817722 L1.0685090203191403,-74.79669986486995 L0.9802369052187871,-74.86519221458151 L0.9006759476674135,-74.93529372683726 L0.8300178169804777,-75.00683552095396 L0.7684327347837252,-75.0796452464833 L0.7410898145308011,-75.11647087727323 L0.7160690649343846,-75.15354749841906 L0.6933855575584458,-75.19085277635058 L0.6730529560996383,-75.2283642397633 L0.6550835081567952,-75.26605929315429 L0.6394880378534356,-75.30391523043292 L0.6262759393177197,-75.34190924859807 L0.6154551710237719,-75.38001846147391 L0.6070322509977988,-75.41821991349559 L0.60101225289187,-75.45649059353686 L0.5973988029277426,-75.49480744877108 L0.5961940777125596,-75.53314739855742 " />
			<path d="M0.5961940777125596,-75.53314739855743 L0.5989428720021226,-75.59105515483925 L0.6071854769357876,-75.64888332286618 L0.6209105639008685,-75.7065524237692 L0.6400992691770293,-75.76398319730066 L0.6647252198625253,-75.82109671076942 L0.6947545701210478,-75.87781446752564 L0.7301460476993409,-75.93405851484637 L0.7708510106516719,-75.98975155107355 L0.8168135141931807,-76.04481703185722 L0.8679703875902329,-76.09917927535781 L0.924251320982096,-76.15276356626309 L0.9855789620146096,-76.2054962584766 L1.051869022153043,-76.25730487633673 L1.1230303925280145,-76.30811821422705 L1.198965269155262,-76.35786643444101 L1.2795692873571602,-76.4064811631668 L1.364731665201234,-76.45389558446008 L1.454335355758531,-76.50004453207559 L1.548257207972589,-76.5448645790315 L1.6463681359178906,-76.58829412478323 L1.7485332962151974,-76.63027347988712 L1.8546122733599,-76.67074494803737 L1.9644592727086896,-76.70965290536368 L2.077923320859298,-76.74694387688064 L2.1948484731479123,-76.78256660998343 L2.315074027979074,-76.81647214488942 L2.4384347476934924,-76.84861388192822 L2.5647610856702148,-76.8789476455882 L2.6938794193510143,-76.90743174523124 L2.8256122888667417,-76.93402703239207 L2.959778640937661,-76.95869695458398 L3.0961940777125516,-76.98140760553636 " />
			<path d="M6.627700084051842,-76.87893083314536 L6.846827008584631,-76.82465724086767 L7.056483438107257,-76.76494907178741 L7.157482864526703,-76.73313467077003 L7.255787154048043,-76.7000575734135 L7.35129286518538,-76.66575258536179 L7.443899501279612,-76.63025580431677 L7.533509616246863,-76.5936045820542 L7.620028917116918,-76.55583748511994 L7.70336636325376,-76.516994254248 L7.783434262153821,-76.47711576254314 L7.860148361721128,-76.43624397247164 L7.933427938922257,-76.39442189170607 L8.003195884727798,-76.35169352787013 L8.069378785250954,-76.30810384223115 L8.131906998997904,-76.26369870238938 L8.190714730148624,-76.21852483401335 L8.24574009779108,-76.17262977167242 L8.29692520103591,-76.12606180881814 L8.34421617994311,-76.0788699469671 L8.387563272196594,-76.03110384413866 L8.426920865466993,-75.98281376260191 L8.462247545407592,-75.93405051598677 L8.493506139232926,-75.88486541581497 L8.520663754834132,-75.83531021750706 L8.543691815389945,-75.78543706592237 L8.562566089436885,-75.7352984404891 L8.577266716367014,-75.68494709998251 L8.587778227326424,-75.63443602700899 L8.59408956149246,-75.58381837225471 L8.59619407771256,-75.53314739855745 " />
			<path d="M8.59619407771256,-75.53314739855743 L8.593483616065958,-75.47564469130586 L8.58535590442732,-75.41821991349559 L8.571821957721983,-75.36095088895551 L8.552900117571683,-75.30391523043292 L8.528616027437426,-75.24719023441025 L8.499002597866674,-75.19085277635058 L8.464099961891968,-75.13497920651358 L8.423955420641395,-75.0796452464833 L8.378623379234647,-75.02492588654793 L8.328165273051516,-74.9708952840707 L8.27264948447279,-74.9176266629895 L8.212151250206333,-74.86519221458151 L8.146752559323977,-74.81366299962744 L8.076542042147405,-74.76310885210768 L8.00161485013362,-74.7135982845612 L7.922072526922742,-74.66519839523522 L7.83802287072294,-74.61797477715159 L7.749579788218986,-74.57199142921313 L7.656863140202396,-74.52731066947032 L7.559998579132397,-74.48399305066599 L7.459117378847836,-74.44209727817231 L7.354356256660828,-74.40168013043156 L7.245857188073248,-74.36279638200811 L7.133767214367143,-74.32549872935638 L7.018238243329865,-74.28983771940487 L6.899426843383943,-74.25586168105345 L6.777494031400747,-74.22361665967657 L6.652605054485447,-74.19314635472105 L6.52492916602905,-74.16449206048343 L6.394639396330987,-74.13769261014642 L6.2619123181031116,-74.11278432315119 L6.126927807172921,-74.08980095597603 L5.989868798710299,-74.06877365638856 L5.850921039308129,-74.0497309212333 L5.710272835252778,-74.03269855781191 L5.568114797325619,-74.01769964890829 L5.424639582481437,-74.0047545215061 L5.2800416327537665,-73.99388071924099 L5.134516911741065,-73.98509297862498 L4.988262639030805,-73.97840320907501 L4.841477022921399,-73.97382047677297 L4.694358991804212,-73.97135099237893 L4.547107924569683,-73.97099810261427 L4.399923380402889,-73.97276228572608 L4.2530048283348005,-73.976641150839 L4.106551376915697,-73.9826294411955 L3.9607615043771185,-73.9907190412799 L3.81583278964805,-74.00089898781681 L3.671961644589877,-74.01315548462891 L3.529343047812967,-74.02747192133394 L3.388170280435647,-74.04382889585558 L3.2486346641436814,-74.0622042407178 L3.110925301905213,-74.08257305308686 L2.975228821692603,-74.10490772852037 L2.8417291235584505,-74.1291779983778 L2.7106071304085693,-74.15535097084131 L2.5820405428096884,-74.18339117549189 L2.456203598164172,-74.21326061137992 L2.33326683457811,-74.2449187985252 L2.213396859742828,-74.2783228327767 L2.096756125143015,-74.31342744395758 L1.9835027058974526,-74.35018505721673 L1.8737900865307462,-74.38854585750367 L1.767766952966395,-74.42845785707944 " />
			<path d="M3.464823227814083,-75.09127158196624 L3.5511175289865164,-75.05996246202115 L3.6430751905246668,-75.03121757224514 L3.740197885893204,-75.00519268368643 L3.8419592987909628,-74.98202882747098 L3.9478079753045763,-74.96185153054262 L4.057170312285008,-74.94477013542158 L4.169453665752722,-74.93087720766803 L4.284049562486755,-74.92024803426118 L4.400336997393814,-74.91294021561266 L4.5176857987886905,-74.90899335342489 L4.63546004334922,-74.90842883608603 L4.753021502239857,-74.91124972276447 L4.869733099729042,-74.91744072683086 L4.984962365557783,-74.92696829869777 L5.098084862350786,-74.93978080762778 L5.208487569496704,-74.95580882152487 L5.31557220515993,-74.97496548319303 L5.418758468421714,-74.99714698102288 L5.517487183981112,-75.02223311155583 L5.611223332374393,-75.05008793087701 L5.699458949291866,-75.08056049130708 L5.781715878280495,-75.11348565940085 L5.85754836191513,-75.1486850108197 L5.926545457396632,-75.18596779722854 L5.988333263486497,-75.22513197997753 L6.042576946710069,-75.26596532496707 L6.088982555848142,-75.30824655276274 L6.1272986148840936,-75.35174653772778 L6.157317485774206,-75.39622954967469 L6.178876493656209,-75.44145453130763 L6.1864452297163295,-75.46426879471666 L6.1918588083984645,-75.48717640453269 L6.195109893053919,-75.51014631565681 L6.19619407771256,-75.53314739855743 " />
			<path d="M6.19619407771256,-75.53314739855743 L6.194615284542836,-75.5609014057493 L6.189882020768505,-75.58860064064496 L6.182003627445214,-75.61619043904078 L6.170995652514922,-75.64361635270524 L6.156879820122169,-75.67082425683184 L6.139683987741664,-75.6977604568541 L6.119442091201794,-75.72437179441125 L6.096194077712559,-75.75060575225584 " />
			<path d="M3.0961940777125596,-75.75060575225584 L3.0729460642233244,-75.72437179441125 L3.052704167683455,-75.6977604568541 L3.03550833530295,-75.67082425683184 L3.0213925029101976,-75.64361635270524 L3.0103845279799053,-75.61619043904078 L3.002506134656614,-75.58860064064496 L2.9977728708822835,-75.5609014057493 L2.9961940777125595,-75.53314739855743 " />
			<path d="M2.9961940777125595,-75.53314739855743 L2.9981213477842834,-75.5024846765492 L3.0038985150370445,-75.47189582372403 L3.01351166176891,-75.44145453130763 L3.026937629067391,-75.41123413503978 L3.044144072601289,-75.38130743850209 L3.0650895405410252,-75.35174653772778 L3.089723573419726,-75.32262264751604 L3.1179868256945005,-75.29400592986936 L3.1498112087150503,-75.26596532496707 L3.1851200547551914,-75.23856838508243 L3.223828301712124,-75.21188111184334 L3.2658426980284867,-75.18596779722854 L3.311062027343527,-75.1608908686827 L3.35937735233218,-75.13671073872312 L3.410672277144625,-75.11348565940085 L3.4648232278140783,-75.09127158196624 " />
			<path d="M8.838834764831844,8.791487600928988 L8.838834764831844,4.5385635747485 " />
			<path d="M8.838834764831844,8.791487600928988 L6.0104076400856545,9.896177142406977 " />
			<path d="M6.0104076400856545,9.896177142406977 L6.0104076400856545,5.1966661411958 " />
			<path d="M6.0104076400856545,9.896177142406977 L0.35355339059327395,7.686798059451 " />
			<path d="M0.35355339059327373,7.686798059451001 L0.35355339059327373,5.7006021091442305 " />
			<path d="M2.058484809198826,6.685024009415068 L2.068958143524238,6.779823183283987 L2.0837481302144747,6.875283668894343 L2.102797409028951,6.971035240326702 L2.1260321008467047,7.0667065427388565 L2.1533620941929605,7.161926532597215 L2.1846813947198993,7.256325916700841 L2.219868536286222,7.34953858441715 L2.258787052041217,7.441203027574591 L2.301286003686316,7.530963742505541 L2.347200566861501,7.618472608801835 L2.3963526703862366,7.7033902394356755 L2.4485516868757653,7.785387297009744 L2.5035951720543244,7.864145771031666 L2.561269649897997,7.939360211259158 L2.621351440562175,8.010738912332565 L2.6836075278826543,8.078005045100387 L2.7477964630859315,8.140897730250192 L2.813669301203822,8.199173050080987 L2.8809705665606873,8.252604994493133 L2.9494392435888135,8.300986337526895 L3.0188097891292363,8.344129441050185 L3.088813162291997,8.381866982478511 L3.1591778678817075,8.41405260370482 L3.2296310093416807,8.440561478722461 L3.2998993471329863,8.461290797739894 L3.3697103584437036,8.476160165909514 L3.4387932941184727,8.485111915124286 L3.5068802287092513,8.488111327672868 L3.5737070995748406,8.48514677088588 L3.6390147309992265,8.47622974225105 L3.7025498393568776,8.461394824822339 L3.7640660154266596,8.44069955309593 " />
			<path d="M3.764066015426664,8.440699553095929 L3.8020067955565557,8.424535257908431 L3.838975945967643,8.406060780784955 L3.874915533107165,8.385305072677397 L3.909769236828605,8.362300659405184 L3.943482438649768,8.337083590684777 L3.9760023073442192,8.309693383636935 L4.0072778817319525,8.280172960860298 L4.037260150539547,8.248568583168314 L4.065902129204669,8.214929777094921 L4.093158933504563,8.179309257282593 L4.118987849893138,8.141762843874368 L4.143348402436441,8.102349375039312 L4.16620241624161,8.061130614768507 L4.1875140772799275,8.018171156086039 L4.207249988510197,7.9735383198266705 L4.22537922221453,7.927302049138826 L4.2418733684644945,7.8795347998782015 L4.256706579641701,7.830311427063767 L4.281299856807119,7.727807019267809 L4.299004955743095,7.620431103752956 L4.309710938824463,7.508856482693897 L4.313350723887921,7.393782266755519 L4.309901504559298,7.275929494565177 L4.299384893155047,7.156036614787477 L4.281866785262546,7.034854859110256 " />
			<path d="M8.838834764831844,-77.74252648151341 L8.838834764831844,-132.9770035554128 " />
			<path d="M8.838834764831844,-132.9770035554128 L3.181980515339464,-135.18638263836877 " />
			<path d="M8.838834764831844,-77.74252648151341 L6.0104076400856545,-76.63783694003543 " />
			<path d="M6.0104076400856545,-76.63783694003543 L6.0104076400856545,-131.87231401393484 " />
			<path d="M8.838834764831844,-132.9770035554128 L6.0104076400856545,-131.8723140139348 " />
			<path d="M3.181980515339464,-135.1863826383688 L0.3535533905932735,-134.0816930968908 " />
			<path d="M6.0104076400856545,-131.8723140139348 L0.35355339059327395,-134.08169309689077 " />
			<path d="M6.0104076400856545,-76.63783694003543 L0.35355339059327395,-78.8472160229914 " />
			<path d="M0.35355339059327373,-78.8472160229914 L0.35355339059327373,-134.0816930968908 " />
			<path d="M2.050609665440988,-80.02555153390126 L3.7143903270563863,-80.67536891124125 " />
			<path d="M2.0506096654409887,-80.02555153390125 L2.053071068641234,-79.92748408900918 L2.060444568215785,-79.82792066951878 L2.0726980806874122,-79.72729449451003 L2.0897782887290623,-79.62604340731117 L2.1116108731575274,-79.5246079703604 L2.138100836310128,-79.42342954823617 L2.1691329153973307,-79.32294838719733 L2.204572084032726,-79.22360169958917 L2.244264139758117,-79.1258217614507 L2.288036375007288,-79.03003403160058 L2.3356983285889608,-78.93665530038628 L2.3870426144191015,-78.84609187615108 L2.4418458238965988,-78.75873781731052 L2.4998694979959186,-78.67497321773035 L2.5608611648469752,-78.59516255286708 L2.624555438287505,-78.51965309386686 L2.6906751726079503,-78.44877339652386 L2.758932668464333,-78.38283187167241 L2.8290309247119687,-78.3221154432337 L2.900664930713054,-78.26688829975615 L2.9735229934950627,-78.21739074488148 L3.0472880939852267,-78.17383815173865 L3.1216392664198813,-78.13642002581501 L3.1962529949265983,-78.10529918038245 L3.2708046212023194,-78.08061102806637 L3.3449697571624215,-78.06246299163998 L3.4184256964140087,-78.05093403660773 L3.4908528184118515,-78.04607432761159 L3.561935979187222,-78.04790501015533 L3.6313658825983084,-78.05641811859641 L3.6988404261356385,-78.07157661080606 L3.7640660154266596,-78.09331452934647 " />
			<path d="M3.764066015426664,-78.09331452934647 L3.8109675041977935,-78.11370174078644 L3.8563537082200092,-78.13763024829036 L3.90011528815246,-78.16504240598779 L3.9421468185160276,-78.19587217558978 L3.982347041672538,-78.23004528548101 L4.020619111763285,-78.26747940964655 L4.05687082801918,-78.30808436600243 L4.0910148568804905,-78.35176233365222 L4.122968942391023,-78.39840808854609 L4.152656104359936,-78.44790925697485 L4.180004823813759,-78.50014658628795 L4.2049492152918635,-78.55499423218363 L4.227429185570305,-78.61232006187883 L4.2473905784316734,-78.67198597242867 L4.264785305132152,-78.73384822342852 L4.279571460251521,-78.79775778329723 L4.2917134226469855,-78.86356068830726 L4.3011819412676235,-78.93109841349678 L4.307954205622733,-79.00020825457021 L4.312013900734303,-79.07072371986709 L4.313351246441222,-79.1424749314551 L4.311963020960545,-79.21528903438086 L4.307852568649048,-79.28899061309266 L4.301029791946384,-79.36340211403189 L4.291511127519234,-79.4383442733751 L4.2793195066639385,-79.51363654889629 L4.264484300062999,-79.58909755490888 L4.247041247028526,-79.66454549923981 L4.227032369403112,-79.73979862118271 L4.204505870325528,-79.81467562937543 L4.179516018105139,-79.88899613854677 L4.152123015484797,-79.96258110408046 L4.122392854607157,-80.03525325334923 L4.090397158033829,-80.10683751278015 L4.05621300620035,-80.17716142962222 L4.019922751722664,-80.24605558740012 L3.9816138210024596,-80.31335401405335 L3.941378503609308,-80.37889458177746 L3.8993137299470058,-80.44251939760412 L3.8555208377397454,-80.50407518377912 L3.8101053279006587,-80.56341364702193 L3.7631766103708753,-80.62039183577717 L3.7148477405413964,-80.6748724845974 L3.6652351468927495,-80.72672434482769 L3.614458350508584,-80.77582250079506 L3.5626396771389115,-80.82204867074128 L3.5099039625066597,-80.86529149177403 L3.4563782515674792,-80.90544678814982 L3.402191492447322,-80.94241782224248 L3.3474742257951102,-80.9761155275926 L3.292358270298873,-81.00645872347641 L3.2369764051229897,-81.03337431047731 L3.1814620500315463,-81.05679744658867 L3.1259489439684423,-81.07667170342398 L3.070570822868557,-81.09294920215774 L3.0154610974761704,-81.10559072886974 L2.9607525319467953,-81.1145658290149 L2.9065769240066954,-81.11985288079082 L2.8530647874406223,-81.12143914722668 L2.8003450376726717,-81.1193208068677 L2.74854468119774,-81.11350296298136 L2.697788509611752,-81.10399963126315 L2.648198798977773,-81.09083370607159 L2.599895015252274,-81.07403690527364 " />
			<path d="M2.5998950152522653,-81.07403690527364 L2.53866900505184,-81.04656348419408 L2.4801099973692464,-81.01302531019904 L2.4244607626484043,-80.97356142385136 L2.371952008169912,-80.92833543217903 L2.3228014215985517,-80.87753483040282 L2.277212768506746,-80.82137022462987 L2.235375047615386,-80.76007445873536 L2.197461707254207,-80.6939016490523 L2.1636299262900325,-80.62312613087114 L2.1340199625040035,-80.54804132111694 L2.108754571119222,-80.46895850191888 L2.087938495889468,-80.38620553011546 L2.0716580348587863,-80.30012547804509 L2.0599806825921982,-80.21107521125722 L2.0529548503607575,-80.11942390904052 L2.050609665440988,-80.02555153390125 " />
			<path d="M3.5355339059327386,10.494550644040887 L3.436678397668454,10.4519514345813 L3.391382780491592,10.42928256274421 L3.348989659258742,10.40577294223247 L3.3096011627121515,10.3814792097811 L3.273312181190027,10.356459891119448 L3.240210138027395,10.330775259977608 L3.2103747789456296,10.304487192881707 L3.183877979938029,10.277659020087942 L3.1607835741142467,10.250355373014443 L3.141147197920744,10.222642028538528 L3.125016157107714,10.194585750534442 L3.1124293127653884,10.166254129033334 L3.1034169877042643,10.137715417392961 L3.098000893404801,10.109038367869358 L3.0961940777125596,10.080292065986646 " />
			<path d="M6.09619407771256,10.08029206598664 L6.0951776545950835,10.101855581205978 L6.092129762730595,10.12338987288483 L6.079958842659731,10.166254129033334 L6.059747272770353,10.208652549314209 L6.031604581310873,10.250355373014443 L5.995683275964668,10.291136608919162 L5.952178017397725,10.330775259977608 L5.901324564375627,10.369056520905296 L5.843398496166378,10.40577294223247 L5.77871371915247,10.440725554490754 L5.707620765744998,10.47372494644593 L5.63050489481816,10.504592291533845 L5.547784003958029,10.533160316937035 L5.459906364839329,10.559274210050633 L5.367348194002393,10.582792457425281 L5.27061107219447,10.603587611640773 L5.170219226260195,10.621546981954667 L5.066716688310898,10.636573244983188 L4.960664347567457,10.648584972105066 L4.852636910853012,10.657517070730304 L4.743219788206901,10.66332113704255 L4.633005920496929,10.665965718303577 L4.522592566221433,10.6654364832984 L4.4125780649137365,10.661736299997365 L4.3035585946883685,10.654885220014373 L4.196124941500212,10.644920369945451 L4.09085929762423,10.631895750176499 L3.9883321067050757,10.615881942250535 L3.889098972473563,10.596965726380187 L3.793697647881914,10.575249611178206 L3.7026451209739104,10.550851278154415 L3.616434813281894,10.523902943989404 L3.535533905932748,10.49455064404089 " />
			<path d="M3.5355339059327386,-79.72176190999481 L3.436678397668454,-79.76436111945439 L3.391382780491592,-79.78702999129149 L3.348989659258742,-79.81053961180322 L3.3096011627121515,-79.83483334425459 L3.273312181190027,-79.85985266291625 L3.240210138027395,-79.88553729405808 L3.2103747789456296,-79.91182536115399 L3.183877979938029,-79.93865353394776 L3.1607835741142467,-79.96595718102125 L3.141147197920744,-79.99367052549717 L3.125016157107714,-80.02172680350125 L3.1124293127653884,-80.05005842500236 L3.1034169877042643,-80.07859713664274 L3.098000893404801,-80.10727418616634 L3.0961940777125596,-80.13602048804906 " />
			<path d="M3.0961940777125596,-80.13602048804906 L3.0990093317326455,-80.17189704846407 L3.10744452625264,-80.20763894003785 L3.121467998318832,-80.24311199943179 L3.1410271084164085,-80.27818307241515 L3.166048438060929,-80.31272051368231 L3.196438065387232,-80.34659468100612 L3.2320819177013194,-80.37967842187228 L3.272846199671833,-80.41184755076814 L3.3185778955538483,-80.44298131533444 L3.369105343559796,-80.47296284963004 L3.424238880221511,-80.50167961280833 L3.483771552324689,-80.52902381155869 L3.5474798937433762,-80.55489280472715 L3.6151247642585176,-80.57918948859769 L3.686452247211905,-80.60182266138774 L3.7611946026260337,-80.62270736558973 " />
			<path d="M4.269663634042342,-79.56421987054937 L4.16699517019948,-79.57466476409556 L4.066473844862534,-79.58791793247497 L3.968602532583412,-79.60391307452129 L3.873870850785507,-79.6225701718915 L3.7827527103715677,-79.64379588937095 L3.695703944906045,-79.6674840417981 L3.61316003023231,-79.69351612527345 L3.535533905932748,-79.72176190999481 " />
			<path d="M14.600000000000001,-73.64596943186586 L14.600000000000001,-8.881784197001252e-16 " />
			<path d="M8.59619407771256,-75.53314739855743 L8.59619407771256,-71.85084892696413 " />
			<path d="M0.5961940777125592,-75.53314739855743 L0.5961940777125592,-71.85084892696413 " />
			<path d="M6.096194077712559,-76.67134226871013 L6.096194077712559,-75.31568904485903 " />
			<path d="M6.096194077712559,9.862671813732263 L6.096194077712559,10.08029206598664 " />
			<path d="M3.0961940777125596,-80.13602048804906 L3.0961940777125596,-78.14850200897175 " />
			<path d="M3.0961940777125596,-77.77603181018813 L3.0961940777125596,-75.31568904485903 " />
			<path d="M3.0961940777125596,6.925679183473951 L3.0961940777125596,8.38551207347065 " />
			<path d="M3.0961940777125596,8.757982272254276 L3.0961940777125596,10.08029206598664 " />

       </g>
    </g>
    
</svg>
