<?xml version="1.0" encoding="UTF-8" standalone="no"?>
<svg
   xmlns:svg="http://www.w3.org/2000/svg"
   xmlns="http://www.w3.org/2000/svg"
   width="900.0"
   height="600.0"

>
    <g transform="scale(6.607929515418503, -6.607929515418503)   translate(17.62666666666667,-56.526666666666664)" stroke-width="0.4"  fill="none">
       <!-- hidden lines -->
       <g  stroke="rgb(180,180,180)" fill="none" stroke-dasharray="0.4,0.4" >
			<path d="M4.0,0.0 L-4.000000000000002,0.0 " />
			<path d="M8.6,0.0 L-8.600000000000001,0.0 " />
			<path d="M-4.0,-6.5 L-3.9960291851288026,-6.321812594163231 L-3.9841246242005814,-6.143978962926941 L-3.9643099526191206,-5.966852178504885 L-3.9366245105807116,-5.790783909731898 L-3.9011232649678362,-5.616123723857976 L-3.8578767002175063,-5.443218392514856 L-3.806970678380942,-5.272411203233041 L-3.748506268652414,-5.104041277876184 L-3.682599546705715,-4.938442899346021 L-3.6093813642366546,-4.775944847894608 L-3.528997089169127,-4.616869748361568 L-3.4416063170405575,-4.461533429632331 L-3.3473825541397324,-4.31024429758912 L-3.246512873026125,-4.163302722799623 L-3.1391975411146444,-4.0210004441590215 L-3.025649623063222,-3.883619989669432 L-2.9060945577526534,-3.751434115506705 L-2.78076971069857,-3.624705264488284 L-2.6499239027841783,-3.503685045017285 L-2.513816916249428,-3.3886137315373044 L-2.3727189789174226,-3.2797197874897495 L-2.2269102276820885,-3.1772194117208237 L-2.0766801523223033,-3.0813161092387302 L-1.9223270207467376,-2.9922002871733153 L-1.7641572868105289,-2.9100488767403374 L-1.6024849818795213,-2.835024981960915 L-1.4376310913500545,-2.7672775558335907 L-1.2699229173621738,-2.706941104601941 L-1.099693428971525,-2.6541354207048773 L-0.9272806010701171,-2.608965344939852 L-0.7530267433684582,-2.5715205583111556 L-0.577277820771311,-2.5418754039765843 L-0.4003827664963982,-2.5200887396459843 L-0.22269278929979788,-2.5062038207247137 L-0.04456067618346754,-2.5002482144340417 L0.13365990803069278,-2.5022337450789816 L0.3116151228696075,-2.5121564705722266 L0.4889516547265319,-2.529996690260802 L0.665317418332514,-2.555718984039885 L0.8403622557891054,-2.5892722826761454 L1.0137386317744568,-2.6305899692009826 L1.1851023235425293,-2.679590011172348 L1.3541131043454955,-2.7361751235425675 L1.5204354189224523,-2.800232961808797 L1.683739049713333,-2.8716363450626337 L1.843699772475306,-2.95024350849604 L1.9999999999999947,-3.0358983848622425 L2.152329412653486,-3.128430914332809 L2.3003855744872372,-3.2276573821356935 L2.443874533696658,-3.3333807833039124 L2.582511406235207,-3.4453912138106695 L2.716020941425298,-3.563466287314372 L2.8441380684430415,-3.6873715766861266 L2.966608422591829,-3.816861079443105 L3.083188850319893,-3.951677706163701 L3.193647891979177,-4.091553790914782 L3.2977662413670417,-4.23621162267762 L3.3953371811384296,-4.385363996717415 L3.4861669932240207,-4.538714784801713 L3.570075343439526,-4.695959523135595 L3.646895639522519,-4.856786016846364 L3.716475361885952,-5.020874959817567 L3.7786763664316765,-5.187900568641727 L3.833375158822767,-5.357531229433152 L3.8804631396700917,-5.529430156216599 L3.9198468201463483,-5.703256059584662 L3.951448007599479,-5.878663824296293 L3.97520396079694,-6.055305194471173 L3.991067514492613,-6.232829465019522 L3.9990071730690366,-6.410884177934594 L3.999007173069036,-6.589115822065424 L3.9910675144926118,-6.7671705349804965 L3.9752039607969376,-6.9446948055288455 L3.9514480075994762,-7.121336175703725 L3.919846820146345,-7.2967439404153565 L3.8804631396700873,-7.4705698437834185 L3.833375158822762,-7.6424687705668655 L3.7786763664316707,-7.812099431358289 L3.7164753618859447,-7.979125040182451 L3.6468956395225116,-8.143213983153652 L3.5700753434395174,-8.304040476864422 L3.4861669932240114,-8.461285215198304 L3.39533718113842,-8.6146360032826 L3.297766241367031,-8.763788377322395 L3.193647891979166,-8.908446209085234 L3.0831888503198814,-9.048322293836314 L2.9666084225918166,-9.183138920556909 L2.8441380684430286,-9.312628423313885 L2.7160209414252843,-9.436533712685641 L2.582511406235194,-9.554608786189341 L2.443874533696646,-9.666619216696096 L2.3003855744872266,-9.772342617864314 L2.152329412653476,-9.871569085667197 L1.9999999999999862,-9.964101615137762 L1.8436997724752988,-10.049756491503963 L1.6837390497133276,-10.128363654937369 L1.5204354189224474,-10.199767038191204 L1.3541131043454913,-10.263824876457434 L1.185102323542526,-10.320409988827652 L1.0137386317744541,-10.369410030799017 L0.8403622557891037,-10.410727717323855 L0.6653174183325132,-10.444281015960115 L0.488951654726532,-10.470003309739198 L0.31161512286960846,-10.487843529427773 L0.13365990803069464,-10.497766254921018 L-0.044560676183464785,-10.499751785565959 L-0.22269278929979425,-10.493796179275286 L-0.4003827664963937,-10.479911260354015 L-0.5772778207713056,-10.458124596023417 L-0.7530267433684521,-10.428479441688845 L-0.9272806010701101,-10.39103465506015 L-1.0996934289715172,-10.345864579295124 L-1.2699229173621653,-10.293058895398062 L-1.4376310913500454,-10.232722444166413 L-1.6024849818795113,-10.16497501803909 L-1.7641572868105184,-10.089951123259668 L-1.9223270207467267,-10.00779971282669 L-2.0766801523222918,-9.918683890761276 L-2.2269102276820765,-9.822780588279183 L-2.37271897891741,-9.720280212510259 L-2.5138169162494157,-9.611386268462706 L-2.6499239027841655,-9.496314954982726 L-2.780769710698557,-9.375294735511728 L-2.9060945577526405,-9.248565884493308 L-3.025649623063209,-9.116380010330584 L-3.1391975411146316,-8.978999555840995 L-3.2465128730261124,-8.836697277200395 L-3.34738255413972,-8.689755702410897 L-3.4416063170405455,-8.538466570367689 L-3.5289970891691156,-8.383130251638454 L-3.6093813642366435,-8.224055152105414 L-3.682599546705705,-8.061557100654003 L-3.748506268652404,-7.895958722123842 L-3.806970678380933,-7.7275887967669865 L-3.8578767002174983,-7.556781607485172 L-3.901123264967829,-7.383876276142054 L-3.936624510580706,-7.209216090268133 L-3.964309952619116,-7.033147821495148 L-3.9841246242005783,-6.856021037073093 L-3.9960291851288012,-6.6781874058368045 L-4.0,-6.500000000000036 " />
			<path d="M-8.6,0.0 L-8.6,6.0 " />
			<path d="M13.0,0.0 L8.6,0.0 " />
			<path d="M-13.0,0.0 L-12.99602274429008,-0.32154755463993434 L-12.984093410785396,-0.6428983589956069 L-12.964219298872072,-0.9638557831714003 L-12.936412569230885,-1.2842234379753237 L-12.90069023639634,-1.6038052950867085 L-12.8570741583457,-1.9224058070030963 L-12.805591023124423,-2.2398300266929168 L-12.74627233251613,-2.555883726880751 L-12.679154382767114,-2.8703735188921806 L-12.604278242377205,-3.1831069709855155 L-12.521689726970543,-3.4938927260979837 L-12.431439371261657,-3.8025406189343416 L-12.333582398134025,-4.108861792326259 L-12.22817868484997,-4.412668812791285 L-12.11529272641265,-4.713775785220671 L-11.994993596102487,-5.011998466625896 L-11.86735490321224,-5.307154378874275 L-11.73245474800654,-5.599062920344686 L-11.590375673933476,-5.887545476435074 L-11.44120461711745,-6.172425528854146 L-11.285032853164223,-6.4535287636303424 L-11.121955941310706,-6.7306831777720335 L-10.952073665953646,-7.003719184513655 L-10.77548997559299,-7.272469717083389 L-10.592312919227316,-7.536770330928894 L-10.402654580240222,-7.796459304338546 L-10.206631007818116,-8.05137773739661 L-10.004362145941409,-8.301369649211784 L-9.795971759992543,-8.546282073359652 L-9.581587361025733,-8.785965151480621 L-9.36134012774481,-9.020272224976072 L-9.135364826236875,-9.249059924746627 L-8.903799727510888,-9.47218825891763 L-8.666786522891636,-9.68952069849814 L-8.424470237320872,-9.900924260921038 L-8.176999140618658,-10.10626959141313 L-7.924524656759209,-10.305431042145463 L-7.6672012712167605,-10.498286749115403 L-7.405186436438152,-10.684718706713454 L-7.138640475499951,-10.86461283992917 L-6.867726484009096,-11.037859074152017 L-6.5926102303070575,-11.20435140252441 L-6.313460054038595,-11.363987950805779 L-6.030446763147168,-11.51667103970795 L-5.743743529360033,-11.662307244663669 L-5.453525782226983,-11.800807452991746 L-5.159971101777539,-11.93208691842381 L-4.863259109862316,-12.05606531295933 L-4.563571360245013,-12.172666776017136 L-4.261091227512301,-12.281819960853428 L-3.9560037948695723,-12.38345807821779 L-3.648495740891212,-12.477518937220598 L-3.3387552252946846,-12.563944983386683 L-3.0269717738083393,-12.642683333872107 L-2.713336162203356,-12.713685809822401 L-2.398040299560826,-12.776908965852508 L-2.0812771108453654,-12.832314116630371 L-1.763240418857131,-12.879867360547953 L-1.444124825634456,-12.91953960046511 L-1.1241255933796905,-12.951306561513734 L-0.8034385249810885,-12.975148805951173 L-0.4822598442038635,-12.991051745053916 L-0.16078607562371153,-12.999005648044218 L0.16078607562372502,-12.999005648044218 L0.4822598442038769,-12.991051745053916 L0.803438524981102,-12.975148805951173 L1.1241255933797039,-12.951306561513734 L1.4441248256344696,-12.919539600465109 L1.7632404188571442,-12.879867360547951 L2.0812771108453787,-12.83231411663037 L2.3980402995608388,-12.776908965852504 L2.713336162203369,-12.713685809822401 L3.026971773808352,-12.642683333872105 L3.3387552252946984,-12.56394498338668 L3.648495740891225,-12.477518937220596 L3.956003794869585,-12.383458078217789 L4.261091227512314,-12.281819960853422 L4.563571360245025,-12.172666776017133 L4.863259109862328,-12.056065312959326 L5.159971101777551,-11.932086918423808 L5.4535257822269925,-11.800807452991743 L5.743743529360044,-11.662307244663664 L6.030446763147178,-11.516671039707946 L6.313460054038606,-11.363987950805775 L6.592610230307067,-11.204351402524402 L6.867726484009105,-11.03785907415201 L7.138640475499961,-10.864612839929164 L7.4051864364381625,-10.684718706713443 L7.667201271216773,-10.498286749115394 L7.924524656759222,-10.305431042145452 L8.176999140618673,-10.106269591413117 L8.424470237320888,-9.900924260921023 L8.666786522891652,-9.689520698498127 L8.903799727510904,-9.472188258917614 L9.135364826236891,-9.24905992474661 L9.361340127744826,-9.020272224976054 L9.58158736102575,-8.785965151480603 L9.795971759992561,-8.546282073359633 L10.004362145941428,-8.301369649211761 L10.206631007818133,-8.051377737396585 L10.402654580240242,-7.796459304338521 L10.592312919227338,-7.536770330928867 L10.775489975593011,-7.272469717083361 L10.952073665953666,-7.003719184513626 L11.121955941310727,-6.730683177772002 L11.285032853164239,-6.453528763630309 L11.441204617117466,-6.172425528854111 L11.590375673933494,-5.887545476435038 L11.732454748006557,-5.5990629203446485 L11.867354903212256,-5.3071543788742375 L11.994993596102502,-5.011998466625857 L12.115292726412664,-4.713775785220632 L12.228178684849984,-4.412668812791244 L12.333582398134038,-4.108861792326217 L12.43143937126167,-3.802540618934298 L12.521689726970552,-3.4938927260979398 L12.604278242377216,-3.1831069709854707 L12.679154382767123,-2.8703735188921344 L12.746272332516138,-2.5558837268807038 L12.805591023124432,-2.239830026692869 L12.857074158345707,-1.9224058070030472 L12.900690236396345,-1.6038052950866588 L12.93641256923089,-1.2842234379752733 L12.964219298872074,-0.9638557831713491 L12.9840934107854,-0.6428983589955546 L12.996022744290082,-0.3215475546398813 L13.0,5.391911039236627e-14 " />
			<path d="M-8.600000000000001,0.0 L-13.0,0.0 " />
			<path d="M-1.6,-6.5 L-1.5960144402412222,-6.612862334467698 L-1.584077616823127,-6.725162394462225 L-1.5642489983995431,-6.836340706733553 L-1.5366273701500468,-6.945843386522387 L-1.5013503416371672,-7.05312489698617 L-1.458593661242467,-7.157650767036195 L-1.4085703405969463,-7.258900254045684 L-1.3515295933678113,-7.356368938163359 L-1.2877555936885212,-7.44957123530777 L-1.2175660604175487,-7.538042816322761 L-1.1413106742790085,-7.621342920241973 L-1.0593693357708809,-7.6990565501378 L-0.9721502725198388,-7.770796540615217 L-0.8800880055117466,-7.836205486650297 L-0.7836411843299658,-7.894957524164061 L-0.683290302186202,-7.946759953460936 L-0.5795353021274926,-7.991354697443903 L-0.472893086345095,-8.028519587341625 L-0.36389494099377084,-8.05806946954208 L-0.25308388935088716,-8.079857128018553 L-0.14101198650176364,-8.093774017752462 L-0.028237569029006638,-8.099750805499198 L0.08467752659226001,-8.097757715202846 L0.19717076303545295,-8.087804676339006 L0.3086817046551939,-8.069941274446649 L0.4186548095495039,-8.04425650409544 L0.5265421972416148,-8.01087832551929 L0.6318063781929448,-7.96997302712489 L0.733922931548944,-7.921744397051244 L0.8323831177774109,-7.866432707907403 L0.9266964131832531,-7.80431351974642 L1.0163929536728618,-7.735696307239023 L1.1010258755933902,-7.6609229178863725 L1.180173541984996,-7.580365868953009 L1.2534416431549644,-7.494426491604575 L1.3204651611087646,-7.403532931496138 L1.3809101880513355,-7.308138015772075 L1.4344755898989263,-7.208716997104012 L1.4808945065139545,-7.105765186005923 L1.519935681188786,-6.999795483222068 L1.5514046127550216,-6.891335824481278 L1.5751445245785338,-6.7809265503477105 L1.5910371456127717,-6.669117714271346 L1.5990032996191654,-6.556466342249361 L1.5990032996191652,-6.443533657750632 L1.5910371456127708,-6.330882285728648 L1.5751445245785327,-6.219073449652283 L1.55140461275502,-6.108664175518716 L1.5199356811887839,-6.000204516777925 L1.4808945065139518,-5.89423481399407 L1.4344755898989234,-5.791283002895982 L1.380910188051332,-5.69186198422792 L1.3204651611087606,-5.5964670685038564 L1.2534416431549604,-5.50557350839542 L1.1801735419849915,-5.419634131046987 L1.1010258755933853,-5.339077082113623 L1.016392953672857,-5.264303692760974 L0.9266964131832482,-5.195686480253577 L0.8323831177774057,-5.133567292092594 L0.7339229315489386,-5.0782556029487536 L0.6318063781929393,-5.030026972875107 L0.5265421972416088,-4.9891216744807085 L0.4186548095494974,-4.955743495904558 L0.3086817046551869,-4.9300587255533515 L0.1971707630354456,-4.912195323660993 L0.08467752659225224,-4.902242284797154 L-0.02823756902901477,-4.900249194500802 L-0.14101198650177207,-4.9062259822475385 L-0.25308388935089593,-4.920142871981449 L-0.36389494099377984,-4.941930530457921 L-0.4728930863451042,-4.971480412658378 L-0.5795353021275018,-5.008645302556101 L-0.6832903021862112,-5.053240046539068 L-0.7836411843299751,-5.105042475835943 L-0.8800880055117555,-5.163794513349709 L-0.9721502725198475,-5.22920345938479 L-1.0593693357708895,-5.300943449862207 L-1.141310674279017,-5.378657079758035 L-1.2175660604175567,-5.461957183677248 L-1.2877555936885288,-5.55042876469224 L-1.3515295933678182,-5.643631061836652 L-1.4085703405969525,-5.741099745954328 L-1.4585936612424728,-5.842349232963818 L-1.501350341637172,-5.946875103013843 L-1.5366273701500508,-6.054156613477626 L-1.5642489983995462,-6.16365929326646 L-1.5840776168231292,-6.2748376055377895 L-1.5960144402412233,-6.387137665532317 L-1.6,-6.500000000000015 " />
			<path d="M8.6,0.0 L8.6,6.0 " />
			<path d="M-8.6,6.0 L-12.6,6.0 " />
			<path d="M-14.599999999999998,3.999999999999999 L-12.599999999999998,5.999999999999999 " />
			<path d="M-14.6,0.0 L-14.6,4.0 " />
			<path d="M-14.600000000000001,0.0 L-14.596046921220143,-0.3397267630612223 L-14.58418982554246,-0.6792695580871011 L-14.564435133793435,-1.0184445166642293 L-14.536793543487146,-1.3570679695691261 L-14.50128002303237,-1.6949565462283613 L-14.457913803626928,-2.0319272740169554 L-14.406718368843658,-2.3677976773412843 L-14.347721441913636,-2.702385876452833 L-14.280954970713564,-3.0355106859392853 L-14.206455110465429,-3.3669917128396256 L-14.124262204157814,-3.696649454330105 L-14.034420760699458,-4.024305394928187 L-13.936979430816887,-4.349782103161837 L-13.83199098070921,-4.672903327651785 L-13.719512263474265,-4.993494092554764 L-13.59960418832168,-5.311380792316013 L-13.47233168758946,-5.6263912856797464 L-13.337763681581974,-5.938354988906684 L-13.1959730412484,-6.247102968148154 L-13.04703654872182,-6.552468030926749 L-12.891034855740333,-6.8542848166740065 L-12.72805243997273,-7.152389886276072 L-12.558177559272334,-7.44662181057886 L-12.381502203883818,-7.736821257804793 L-12.198122046628873,-8.022831079833768 L-12.008136391097668,-8.304496397301635 L-11.811648117874233,-8.581664683470107 L-11.608763628824779,-8.854185846822675 L-11.399592789479227,-9.121912312341816 L-11.18424886953708,-9.384699101423472 L-10.96284848152989,-9.64240391038551 L-10.735511517673501,-9.894887187527688 L-10.50236108494431,-10.142012208701358 L-10.263523438414664,-10.383645151347999 L-10.019127912883514,-10.619655166966508 L-9.769306852839334,-10.849914451969951 L-9.514195540793251,-11.074298316893481 L-9.253932124021174,-11.29268525391587 L-8.988657539754616,-11.504957002658136 L-8.718515438860685,-11.710998614223636 L-8.44365210805261,-11.910698513444906 L-8.164216390672912,-12.103948559303603 L-7.880359606092095,-12.290644103490754 L-7.592235467766553,-12.470684047075668 L-7.300000000000009,-12.6439708952528 L-7.003811453453604,-12.81041081013689 L-6.70383021945038,-12.969913661577854 L-6.400218743120541,-13.122393075967832 L-6.0931414354345526,-13.26776648301403 L-5.7827645841717015,-13.405955160451995 L-5.469256263872329,-13.536884276675089 L-5.152786244822499,-13.660482931257153 L-4.833525901120402,-13.776684193346314 L-4.5116481178742465,-13.885425137909236 L-4.187327197581934,-13.986646879806132 L-3.860738765743169,-14.080294605678104 L-3.5320596757551654,-14.166317603629544 L-3.201467913143406,-14.244669290689524 L-2.869142499179338,-14.315307238037294 L-2.535263393937202,-14.378193193978234 L-2.2000113988424728,-14.433293104657828 L-1.8635680587647014,-14.480577132502416 L-1.5261155637077612,-14.520019672376788 L-1.1878366501507522,-14.551599365449787 L-0.848914502092969,-14.575299110760513 L-0.5095326518565367,-14.591106074478796 L-0.16987488070041956,-14.599011696854928 L0.16987488070037268,-14.59901169685493 L0.50953265185649,-14.591106074478798 L0.8489145020929222,-14.575299110760517 L1.1878366501507056,-14.551599365449789 L1.5261155637077148,-14.520019672376792 L1.8635680587646546,-14.480577132502424 L2.2000113988424266,-14.433293104657833 L2.535263393937156,-14.378193193978243 L2.869142499179292,-14.315307238037304 L3.20146791314336,-14.244669290689535 L3.53205967575512,-14.166317603629556 L3.8607387657431236,-14.080294605678118 L4.187327197581888,-13.986646879806147 L4.511648117874203,-13.885425137909252 L4.833525901120358,-13.77668419334633 L5.152786244822456,-13.660482931257171 L5.4692562638722855,-13.536884276675108 L5.782764584171659,-13.405955160452015 L6.0931414354345135,-13.267766483014052 L6.400218743120505,-13.122393075967851 L6.703830219450348,-12.969913661577873 L7.003811453453575,-12.810410810136908 L7.299999999999983,-12.643970895252814 L7.592235467766531,-12.47068404707568 L7.880359606092076,-12.290644103490767 L8.164216390672895,-12.103948559303616 L8.443652108052596,-11.910698513444917 L8.718515438860672,-11.710998614223643 L8.988657539754607,-11.504957002658141 L9.25393212402117,-11.292685253915874 L9.514195540793247,-11.074298316893485 L9.769306852839334,-10.849914451969953 L10.019127912883516,-10.619655166966506 L10.263523438414667,-10.383645151347995 L10.502361084944315,-10.14201220870135 L10.735511517673508,-9.89488718752768 L10.962848481529901,-9.6424039103855 L11.184248869537093,-9.38469910142346 L11.39959278947924,-9.1219123123418 L11.608763628824793,-8.854185846822656 L11.81164811787425,-8.581664683470086 L12.008136391097688,-8.30449639730161 L12.19812204662889,-8.022831079833741 L12.381502203883839,-7.736821257804762 L12.558177559272355,-7.446621810578826 L12.72805243997275,-7.152389886276034 L12.891034855740353,-6.854284816673967 L13.04703654872184,-6.552468030926707 L13.19597304124842,-6.247102968148108 L13.337763681581993,-5.938354988906636 L13.47233168758948,-5.626391285679696 L13.599604188321699,-5.311380792315959 L13.719512263474282,-4.993494092554707 L13.831990980709229,-4.672903327651726 L13.936979430816907,-4.349782103161776 L14.034420760699476,-4.024305394928124 L14.124262204157832,-3.6966494543300374 L14.206455110465445,-3.366991712839556 L14.280954970713578,-3.0355106859392125 L14.347721441913649,-2.7023858764527566 L14.40671836884367,-2.3677976773412053 L14.457913803626939,-2.0319272740168732 L14.501280023032379,-1.694956546228276 L14.536793543487153,-1.3570679695690382 L14.564435133793442,-1.0184445166641387 L14.584189825542463,-0.6792695580870075 L14.596046921220145,-0.339726763061126 L14.600000000000001,9.90202663092091e-14 " />
			<path d="M14.6,0.0 L14.6,4.0 " />
			<path d="M14.6,3.9999999999999996 L12.6,6.0 " />
			<path d="M12.6,6.0 L8.6,6.0 " />
			<path d="M-4.0,-6.5 L-3.9960849060798944,-6.323066613098485 L-3.9843472882997792,-6.14647958161063 L-3.9648101235976583,-5.97058458294311 L-3.9375116568909023,-5.795725939815855 L-3.902505326210027,-5.622245946234158 L-3.85985965809124,-5.4504841974320835 L-3.8096581334325257,-5.280776925098854 L-3.75199902407587,-5.113456339189523 L-3.6869952004355135,-4.948849977608392 L-3.6147739105488155,-4.787280065038179 L-3.5354765309822445,-4.629062882170073 L-3.4492582900801114,-4.474508146569425 L-3.356287964097795,-4.323918406389071 L-3.2567475468142972,-4.177588448117118 L-3.1508318932708734,-4.035804719518543 L-3.03874833833314,-3.8988447689002528 L-2.9207162908233375,-3.7669767017972267 L-2.7969668040172566,-3.6404586561433505 L-2.6677421233466037,-3.5195382969542863 L-2.5332952121921886,-3.4044523315115733 L-2.39388925669623,-3.295426045997008 L-2.2497971505631233,-3.192672864484366 L-2.101300960857196,-3.096393931151752 L-1.9486913758431865,-3.0067777165324294 L-1.7922671359503142,-2.923999648574897 L-1.6323344489738596,-2.848221769234445 L-1.4692063906590267,-2.779592417268415 L-1.303202291840469,-2.7182459378561186 L-1.1346471133371856,-2.6643024196118392 L-0.963870809826456,-2.6178674595057303 L-0.791207683942067,-2.579031956152788 L-0.6169957318612068,-2.5478719318745435 L-0.4415759816610762,-2.524448383881797 L-0.2652918257404126,-2.5088071648697157 L-0.08848834861274403,-2.500978893259028 L0.08848834861275154,-2.500978893259028 L0.2652918257404201,-2.508807164869716 L0.4415759816610837,-2.5244483838817975 L0.6169957318612143,-2.5478719318745444 L0.7912076839420744,-2.57903195615279 L0.9638708098264632,-2.617867459505732 L1.1346471133371927,-2.6643024196118414 L1.3032022918404762,-2.718245937856121 L1.4692063906590338,-2.7795924172684177 L1.6323344489738665,-2.8482217692344483 L1.79226713595032,-2.9239996485749002 L1.9486913758431916,-3.006777716532432 L2.1013009608572,-3.0963939311517548 L2.249797150563127,-3.192672864484368 L2.3938892566962333,-3.2954260459970106 L2.5332952121921912,-3.4044523315115756 L2.667742123346606,-3.5195382969542885 L2.796966804017259,-3.6404586561433523 L2.920716290823339,-3.766976701797228 L3.0387483383331415,-3.898844768900254 L3.1508318932708743,-4.035804719518545 L3.2567475468142977,-4.177588448117119 L3.356287964097795,-4.323918406389072 L3.4492582900801114,-4.474508146569425 L3.5354765309822445,-4.629062882170072 L3.614773910548815,-4.787280065038178 L3.686995200435513,-4.94884997760839 L3.7519990240758694,-5.113456339189521 L3.809658133432525,-5.280776925098851 L3.859859658091239,-5.450484197432081 L3.9025053262100267,-5.6222459462341545 L3.937511656890902,-5.795725939815852 L3.964810123597658,-5.970584582943106 L3.984347288299779,-6.146479581610626 L3.996084906079894,-6.323066613098479 L4.0,-6.499999999999994 " />
			<path d="M-8.600000000000001,0.0 L-13.0,0.0 " />
			<path d="M8.6,0.0 L-8.600000000000001,0.0 " />
			<path d="M8.6,0.0 L-8.6,0.0 " />
			<path d="M-4.0,-6.5 L-3.9960291851288026,-6.321812594163231 L-3.9841246242005814,-6.143978962926941 L-3.9643099526191206,-5.966852178504885 L-3.9366245105807116,-5.790783909731898 L-3.9011232649678362,-5.616123723857976 L-3.8578767002175063,-5.443218392514856 L-3.806970678380942,-5.272411203233041 L-3.748506268652414,-5.104041277876184 L-3.682599546705715,-4.938442899346021 L-3.6093813642366546,-4.775944847894608 L-3.528997089169127,-4.616869748361568 L-3.4416063170405575,-4.461533429632331 L-3.3473825541397324,-4.31024429758912 L-3.246512873026125,-4.163302722799623 L-3.1391975411146444,-4.0210004441590215 L-3.025649623063222,-3.883619989669432 L-2.9060945577526534,-3.751434115506705 L-2.78076971069857,-3.624705264488284 L-2.6499239027841783,-3.503685045017285 L-2.513816916249428,-3.3886137315373044 L-2.3727189789174226,-3.2797197874897495 L-2.2269102276820885,-3.1772194117208237 L-2.0766801523223033,-3.0813161092387302 L-1.9223270207467376,-2.9922002871733153 L-1.7641572868105289,-2.9100488767403374 L-1.6024849818795213,-2.835024981960915 L-1.4376310913500545,-2.7672775558335907 L-1.2699229173621738,-2.706941104601941 L-1.099693428971525,-2.6541354207048773 L-0.9272806010701171,-2.608965344939852 L-0.7530267433684582,-2.5715205583111556 L-0.577277820771311,-2.5418754039765843 L-0.4003827664963982,-2.5200887396459843 L-0.22269278929979788,-2.5062038207247137 L-0.04456067618346754,-2.5002482144340417 L0.13365990803069278,-2.5022337450789816 L0.3116151228696075,-2.5121564705722266 L0.4889516547265319,-2.529996690260802 L0.665317418332514,-2.555718984039885 L0.8403622557891054,-2.5892722826761454 L1.0137386317744568,-2.6305899692009826 L1.1851023235425293,-2.679590011172348 L1.3541131043454955,-2.7361751235425675 L1.5204354189224523,-2.800232961808797 L1.683739049713333,-2.8716363450626337 L1.843699772475306,-2.95024350849604 L1.9999999999999947,-3.0358983848622425 L2.152329412653486,-3.128430914332809 L2.3003855744872372,-3.2276573821356935 L2.443874533696658,-3.3333807833039124 L2.582511406235207,-3.4453912138106695 L2.716020941425298,-3.563466287314372 L2.8441380684430415,-3.6873715766861266 L2.966608422591829,-3.816861079443105 L3.083188850319893,-3.951677706163701 L3.193647891979177,-4.091553790914782 L3.2977662413670417,-4.23621162267762 L3.3953371811384296,-4.385363996717415 L3.4861669932240207,-4.538714784801713 L3.570075343439526,-4.695959523135595 L3.646895639522519,-4.856786016846364 L3.716475361885952,-5.020874959817567 L3.7786763664316765,-5.187900568641727 L3.833375158822767,-5.357531229433152 L3.8804631396700917,-5.529430156216599 L3.9198468201463483,-5.703256059584662 L3.951448007599479,-5.878663824296293 L3.97520396079694,-6.055305194471173 L3.991067514492613,-6.232829465019522 L3.9990071730690366,-6.410884177934594 L3.999007173069036,-6.589115822065424 L3.9910675144926118,-6.7671705349804965 L3.9752039607969376,-6.9446948055288455 L3.9514480075994762,-7.121336175703725 L3.919846820146345,-7.2967439404153565 L3.8804631396700873,-7.4705698437834185 L3.833375158822762,-7.6424687705668655 L3.7786763664316707,-7.812099431358289 L3.7164753618859447,-7.979125040182451 L3.6468956395225116,-8.143213983153652 L3.5700753434395174,-8.304040476864422 L3.4861669932240114,-8.461285215198304 L3.39533718113842,-8.6146360032826 L3.297766241367031,-8.763788377322395 L3.193647891979166,-8.908446209085234 L3.0831888503198814,-9.048322293836314 L2.9666084225918166,-9.183138920556909 L2.8441380684430286,-9.312628423313885 L2.7160209414252843,-9.436533712685641 L2.582511406235194,-9.554608786189341 L2.443874533696646,-9.666619216696096 L2.3003855744872266,-9.772342617864314 L2.152329412653476,-9.871569085667197 L1.9999999999999862,-9.964101615137762 L1.8436997724752988,-10.049756491503963 L1.6837390497133276,-10.128363654937369 L1.5204354189224474,-10.199767038191204 L1.3541131043454913,-10.263824876457434 L1.185102323542526,-10.320409988827652 L1.0137386317744541,-10.369410030799017 L0.8403622557891037,-10.410727717323855 L0.6653174183325132,-10.444281015960115 L0.488951654726532,-10.470003309739198 L0.31161512286960846,-10.487843529427773 L0.13365990803069464,-10.497766254921018 L-0.044560676183464785,-10.499751785565959 L-0.22269278929979425,-10.493796179275286 L-0.4003827664963937,-10.479911260354015 L-0.5772778207713056,-10.458124596023417 L-0.7530267433684521,-10.428479441688845 L-0.9272806010701101,-10.39103465506015 L-1.0996934289715172,-10.345864579295124 L-1.2699229173621653,-10.293058895398062 L-1.4376310913500454,-10.232722444166413 L-1.6024849818795113,-10.16497501803909 L-1.7641572868105184,-10.089951123259668 L-1.9223270207467267,-10.00779971282669 L-2.0766801523222918,-9.918683890761276 L-2.2269102276820765,-9.822780588279183 L-2.37271897891741,-9.720280212510259 L-2.5138169162494157,-9.611386268462706 L-2.6499239027841655,-9.496314954982726 L-2.780769710698557,-9.375294735511728 L-2.9060945577526405,-9.248565884493308 L-3.025649623063209,-9.116380010330584 L-3.1391975411146316,-8.978999555840995 L-3.2465128730261124,-8.836697277200395 L-3.34738255413972,-8.689755702410897 L-3.4416063170405455,-8.538466570367689 L-3.5289970891691156,-8.383130251638454 L-3.6093813642366435,-8.224055152105414 L-3.682599546705705,-8.061557100654003 L-3.748506268652404,-7.895958722123842 L-3.806970678380933,-7.7275887967669865 L-3.8578767002174983,-7.556781607485172 L-3.901123264967829,-7.383876276142054 L-3.936624510580706,-7.209216090268133 L-3.964309952619116,-7.033147821495148 L-3.9841246242005783,-6.856021037073093 L-3.9960291851288012,-6.6781874058368045 L-4.0,-6.500000000000036 " />
			<path d="M13.0,0.0 L8.6,0.0 " />
			<path d="M-13.0,0.0 L-12.99602274429008,-0.32154755463993434 L-12.984093410785396,-0.6428983589956069 L-12.964219298872072,-0.9638557831714003 L-12.936412569230885,-1.2842234379753237 L-12.90069023639634,-1.6038052950867085 L-12.8570741583457,-1.9224058070030963 L-12.805591023124423,-2.2398300266929168 L-12.74627233251613,-2.555883726880751 L-12.679154382767114,-2.8703735188921806 L-12.604278242377205,-3.1831069709855155 L-12.521689726970543,-3.4938927260979837 L-12.431439371261657,-3.8025406189343416 L-12.333582398134025,-4.108861792326259 L-12.22817868484997,-4.412668812791285 L-12.11529272641265,-4.713775785220671 L-11.994993596102487,-5.011998466625896 L-11.86735490321224,-5.307154378874275 L-11.73245474800654,-5.599062920344686 L-11.590375673933476,-5.887545476435074 L-11.44120461711745,-6.172425528854146 L-11.285032853164223,-6.4535287636303424 L-11.121955941310706,-6.7306831777720335 L-10.952073665953646,-7.003719184513655 L-10.77548997559299,-7.272469717083389 L-10.592312919227316,-7.536770330928894 L-10.402654580240222,-7.796459304338546 L-10.206631007818116,-8.05137773739661 L-10.004362145941409,-8.301369649211784 L-9.795971759992543,-8.546282073359652 L-9.581587361025733,-8.785965151480621 L-9.36134012774481,-9.020272224976072 L-9.135364826236875,-9.249059924746627 L-8.903799727510888,-9.47218825891763 L-8.666786522891636,-9.68952069849814 L-8.424470237320872,-9.900924260921038 L-8.176999140618658,-10.10626959141313 L-7.924524656759209,-10.305431042145463 L-7.6672012712167605,-10.498286749115403 L-7.405186436438152,-10.684718706713454 L-7.138640475499951,-10.86461283992917 L-6.867726484009096,-11.037859074152017 L-6.5926102303070575,-11.20435140252441 L-6.313460054038595,-11.363987950805779 L-6.030446763147168,-11.51667103970795 L-5.743743529360033,-11.662307244663669 L-5.453525782226983,-11.800807452991746 L-5.159971101777539,-11.93208691842381 L-4.863259109862316,-12.05606531295933 L-4.563571360245013,-12.172666776017136 L-4.261091227512301,-12.281819960853428 L-3.9560037948695723,-12.38345807821779 L-3.648495740891212,-12.477518937220598 L-3.3387552252946846,-12.563944983386683 L-3.0269717738083393,-12.642683333872107 L-2.713336162203356,-12.713685809822401 L-2.398040299560826,-12.776908965852508 L-2.0812771108453654,-12.832314116630371 L-1.763240418857131,-12.879867360547953 L-1.444124825634456,-12.91953960046511 L-1.1241255933796905,-12.951306561513734 L-0.8034385249810885,-12.975148805951173 L-0.4822598442038635,-12.991051745053916 L-0.16078607562371153,-12.999005648044218 L0.16078607562372502,-12.999005648044218 L0.4822598442038769,-12.991051745053916 L0.803438524981102,-12.975148805951173 L1.1241255933797039,-12.951306561513734 L1.4441248256344696,-12.919539600465109 L1.7632404188571442,-12.879867360547951 L2.0812771108453787,-12.83231411663037 L2.3980402995608388,-12.776908965852504 L2.713336162203369,-12.713685809822401 L3.026971773808352,-12.642683333872105 L3.3387552252946984,-12.56394498338668 L3.648495740891225,-12.477518937220596 L3.956003794869585,-12.383458078217789 L4.261091227512314,-12.281819960853422 L4.563571360245025,-12.172666776017133 L4.863259109862328,-12.056065312959326 L5.159971101777551,-11.932086918423808 L5.4535257822269925,-11.800807452991743 L5.743743529360044,-11.662307244663664 L6.030446763147178,-11.516671039707946 L6.313460054038606,-11.363987950805775 L6.592610230307067,-11.204351402524402 L6.867726484009105,-11.03785907415201 L7.138640475499961,-10.864612839929164 L7.4051864364381625,-10.684718706713443 L7.667201271216773,-10.498286749115394 L7.924524656759222,-10.305431042145452 L8.176999140618673,-10.106269591413117 L8.424470237320888,-9.900924260921023 L8.666786522891652,-9.689520698498127 L8.903799727510904,-9.472188258917614 L9.135364826236891,-9.24905992474661 L9.361340127744826,-9.020272224976054 L9.58158736102575,-8.785965151480603 L9.795971759992561,-8.546282073359633 L10.004362145941428,-8.301369649211761 L10.206631007818133,-8.051377737396585 L10.402654580240242,-7.796459304338521 L10.592312919227338,-7.536770330928867 L10.775489975593011,-7.272469717083361 L10.952073665953666,-7.003719184513626 L11.121955941310727,-6.730683177772002 L11.285032853164239,-6.453528763630309 L11.441204617117466,-6.172425528854111 L11.590375673933494,-5.887545476435038 L11.732454748006557,-5.5990629203446485 L11.867354903212256,-5.3071543788742375 L11.994993596102502,-5.011998466625857 L12.115292726412664,-4.713775785220632 L12.228178684849984,-4.412668812791244 L12.333582398134038,-4.108861792326217 L12.43143937126167,-3.802540618934298 L12.521689726970552,-3.4938927260979398 L12.604278242377216,-3.1831069709854707 L12.679154382767123,-2.8703735188921344 L12.746272332516138,-2.5558837268807038 L12.805591023124432,-2.239830026692869 L12.857074158345707,-1.9224058070030472 L12.900690236396345,-1.6038052950866588 L12.93641256923089,-1.2842234379752733 L12.964219298872074,-0.9638557831713491 L12.9840934107854,-0.6428983589955546 L12.996022744290082,-0.3215475546398813 L13.0,5.391911039236627e-14 " />
			<path d="M1.6,-6.5 L1.596102480415719,-6.3883896420093995 L1.5844289099865125,-6.277323038463895 L1.565036161174089,-6.167341294691584 L1.5380187135013101,-6.058980230692801 L1.5035081932574534,-5.952767770678929 L1.4616727322281613,-5.849221371078719 L1.4127161485742827,-5.748845499542574 L1.3568769538502812,-5.652129177226871 L1.2944271909999152,-5.559543596332042 L1.225671108990364,-5.471539824501536 L1.150943680541841,-5.388546607265603 L1.070608970174172,-5.310968279236168 L0.9850583605210519,-5.239182794229244 L0.8947086455531933,-5.173539883911932 L0.7999999999999982,-5.114359353944897 L0.7013938348625218,-5.0619295259213315 L0.599370549465457,-5.016505832693139 L0.49442719099991345,-4.978309573927754 L0.3870750329594657,-4.947526837958405 L0.27783708426708575,-4.9243075951804665 L0.16724554122824253,-4.908764967410763 L0.05583919472399838,-4.900974676769446 L-0.05583919472400489,-4.900974676769447 L-0.16724554122824903,-4.908764967410763 L-0.27783708426709214,-4.924307595180467 L-0.3870750329594721,-4.9475268379584065 L-0.49442719099991966,-4.978309573927755 L-0.5993705494654631,-5.0165058326931415 L-0.7013938348625277,-5.061929525921334 L-0.8000000000000039,-5.1143593539449 L-0.8947086455531988,-5.1735398839119355 L-0.985058360521057,-5.239182794229247 L-1.0706089701741768,-5.310968279236173 L-1.1509436805418454,-5.388546607265608 L-1.2256711089903682,-5.471539824501541 L-1.294427190999919,-5.559543596332047 L-1.3568769538502845,-5.652129177226877 L-1.4127161485742858,-5.74884549954258 L-1.461672732228164,-5.849221371078725 L-1.5035081932574554,-5.9527677706789355 L-1.538018713501312,-6.058980230692807 L-1.5650361611740904,-6.1673412946915915 L-1.5844289099865136,-6.277323038463901 L-1.5961024804157193,-6.388389642009406 L-1.6,-6.500000000000007 " />
			<path d="M-1.6,-6.5 L-1.5960144402412222,-6.612862334467698 L-1.584077616823127,-6.725162394462225 L-1.5642489983995431,-6.836340706733553 L-1.5366273701500468,-6.945843386522387 L-1.5013503416371672,-7.05312489698617 L-1.458593661242467,-7.157650767036195 L-1.4085703405969463,-7.258900254045684 L-1.3515295933678113,-7.356368938163359 L-1.2877555936885212,-7.44957123530777 L-1.2175660604175487,-7.538042816322761 L-1.1413106742790085,-7.621342920241973 L-1.0593693357708809,-7.6990565501378 L-0.9721502725198388,-7.770796540615217 L-0.8800880055117466,-7.836205486650297 L-0.7836411843299658,-7.894957524164061 L-0.683290302186202,-7.946759953460936 L-0.5795353021274926,-7.991354697443903 L-0.472893086345095,-8.028519587341625 L-0.36389494099377084,-8.05806946954208 L-0.25308388935088716,-8.079857128018553 L-0.14101198650176364,-8.093774017752462 L-0.028237569029006638,-8.099750805499198 L0.08467752659226001,-8.097757715202846 L0.19717076303545295,-8.087804676339006 L0.3086817046551939,-8.069941274446649 L0.4186548095495039,-8.04425650409544 L0.5265421972416148,-8.01087832551929 L0.6318063781929448,-7.96997302712489 L0.733922931548944,-7.921744397051244 L0.8323831177774109,-7.866432707907403 L0.9266964131832531,-7.80431351974642 L1.0163929536728618,-7.735696307239023 L1.1010258755933902,-7.6609229178863725 L1.180173541984996,-7.580365868953009 L1.2534416431549644,-7.494426491604575 L1.3204651611087646,-7.403532931496138 L1.3809101880513355,-7.308138015772075 L1.4344755898989263,-7.208716997104012 L1.4808945065139545,-7.105765186005923 L1.519935681188786,-6.999795483222068 L1.5514046127550216,-6.891335824481278 L1.5751445245785338,-6.7809265503477105 L1.5910371456127717,-6.669117714271346 L1.5990032996191654,-6.556466342249361 L1.5990032996191652,-6.443533657750632 L1.5910371456127708,-6.330882285728648 L1.5751445245785327,-6.219073449652283 L1.55140461275502,-6.108664175518716 L1.5199356811887839,-6.000204516777925 L1.4808945065139518,-5.89423481399407 L1.4344755898989234,-5.791283002895982 L1.380910188051332,-5.69186198422792 L1.3204651611087606,-5.5964670685038564 L1.2534416431549604,-5.50557350839542 L1.1801735419849915,-5.419634131046987 L1.1010258755933853,-5.339077082113623 L1.016392953672857,-5.264303692760974 L0.9266964131832482,-5.195686480253577 L0.8323831177774057,-5.133567292092594 L0.7339229315489386,-5.0782556029487536 L0.6318063781929393,-5.030026972875107 L0.5265421972416088,-4.9891216744807085 L0.4186548095494974,-4.955743495904558 L0.3086817046551869,-4.9300587255533515 L0.1971707630354456,-4.912195323660993 L0.08467752659225224,-4.902242284797154 L-0.02823756902901477,-4.900249194500802 L-0.14101198650177207,-4.9062259822475385 L-0.25308388935089593,-4.920142871981449 L-0.36389494099377984,-4.941930530457921 L-0.4728930863451042,-4.971480412658378 L-0.5795353021275018,-5.008645302556101 L-0.6832903021862112,-5.053240046539068 L-0.7836411843299751,-5.105042475835943 L-0.8800880055117555,-5.163794513349709 L-0.9721502725198475,-5.22920345938479 L-1.0593693357708895,-5.300943449862207 L-1.141310674279017,-5.378657079758035 L-1.2175660604175567,-5.461957183677248 L-1.2877555936885288,-5.55042876469224 L-1.3515295933678182,-5.643631061836652 L-1.4085703405969525,-5.741099745954328 L-1.4585936612424728,-5.842349232963818 L-1.501350341637172,-5.946875103013843 L-1.5366273701500508,-6.054156613477626 L-1.5642489983995462,-6.16365929326646 L-1.5840776168231292,-6.2748376055377895 L-1.5960144402412233,-6.387137665532317 L-1.6,-6.500000000000015 " />
			<path d="M-4.0,-6.5 L-3.9960291851288026,-6.321812594163231 L-3.9841246242005814,-6.143978962926941 L-3.9643099526191206,-5.966852178504885 L-3.9366245105807116,-5.790783909731898 L-3.9011232649678362,-5.616123723857976 L-3.8578767002175063,-5.443218392514856 L-3.806970678380942,-5.272411203233041 L-3.748506268652414,-5.104041277876184 L-3.682599546705715,-4.938442899346021 L-3.6093813642366546,-4.775944847894608 L-3.528997089169127,-4.616869748361568 L-3.4416063170405575,-4.461533429632331 L-3.3473825541397324,-4.31024429758912 L-3.246512873026125,-4.163302722799623 L-3.1391975411146444,-4.0210004441590215 L-3.025649623063222,-3.883619989669432 L-2.9060945577526534,-3.751434115506705 L-2.78076971069857,-3.624705264488284 L-2.6499239027841783,-3.503685045017285 L-2.513816916249428,-3.3886137315373044 L-2.3727189789174226,-3.2797197874897495 L-2.2269102276820885,-3.1772194117208237 L-2.0766801523223033,-3.0813161092387302 L-1.9223270207467376,-2.9922002871733153 L-1.7641572868105289,-2.9100488767403374 L-1.6024849818795213,-2.835024981960915 L-1.4376310913500545,-2.7672775558335907 L-1.2699229173621738,-2.706941104601941 L-1.099693428971525,-2.6541354207048773 L-0.9272806010701171,-2.608965344939852 L-0.7530267433684582,-2.5715205583111556 L-0.577277820771311,-2.5418754039765843 L-0.4003827664963982,-2.5200887396459843 L-0.22269278929979788,-2.5062038207247137 L-0.04456067618346754,-2.5002482144340417 L0.13365990803069278,-2.5022337450789816 L0.3116151228696075,-2.5121564705722266 L0.4889516547265319,-2.529996690260802 L0.665317418332514,-2.555718984039885 L0.8403622557891054,-2.5892722826761454 L1.0137386317744568,-2.6305899692009826 L1.1851023235425293,-2.679590011172348 L1.3541131043454955,-2.7361751235425675 L1.5204354189224523,-2.800232961808797 L1.683739049713333,-2.8716363450626337 L1.843699772475306,-2.95024350849604 L1.9999999999999947,-3.0358983848622425 L2.152329412653486,-3.128430914332809 L2.3003855744872372,-3.2276573821356935 L2.443874533696658,-3.3333807833039124 L2.582511406235207,-3.4453912138106695 L2.716020941425298,-3.563466287314372 L2.8441380684430415,-3.6873715766861266 L2.966608422591829,-3.816861079443105 L3.083188850319893,-3.951677706163701 L3.193647891979177,-4.091553790914782 L3.2977662413670417,-4.23621162267762 L3.3953371811384296,-4.385363996717415 L3.4861669932240207,-4.538714784801713 L3.570075343439526,-4.695959523135595 L3.646895639522519,-4.856786016846364 L3.716475361885952,-5.020874959817567 L3.7786763664316765,-5.187900568641727 L3.833375158822767,-5.357531229433152 L3.8804631396700917,-5.529430156216599 L3.9198468201463483,-5.703256059584662 L3.951448007599479,-5.878663824296293 L3.97520396079694,-6.055305194471173 L3.991067514492613,-6.232829465019522 L3.9990071730690366,-6.410884177934594 L3.999007173069036,-6.589115822065424 L3.9910675144926118,-6.7671705349804965 L3.9752039607969376,-6.9446948055288455 L3.9514480075994762,-7.121336175703725 L3.919846820146345,-7.2967439404153565 L3.8804631396700873,-7.4705698437834185 L3.833375158822762,-7.6424687705668655 L3.7786763664316707,-7.812099431358289 L3.7164753618859447,-7.979125040182451 L3.6468956395225116,-8.143213983153652 L3.5700753434395174,-8.304040476864422 L3.4861669932240114,-8.461285215198304 L3.39533718113842,-8.6146360032826 L3.297766241367031,-8.763788377322395 L3.193647891979166,-8.908446209085234 L3.0831888503198814,-9.048322293836314 L2.9666084225918166,-9.183138920556909 L2.8441380684430286,-9.312628423313885 L2.7160209414252843,-9.436533712685641 L2.582511406235194,-9.554608786189341 L2.443874533696646,-9.666619216696096 L2.3003855744872266,-9.772342617864314 L2.152329412653476,-9.871569085667197 L1.9999999999999862,-9.964101615137762 L1.8436997724752988,-10.049756491503963 L1.6837390497133276,-10.128363654937369 L1.5204354189224474,-10.199767038191204 L1.3541131043454913,-10.263824876457434 L1.185102323542526,-10.320409988827652 L1.0137386317744541,-10.369410030799017 L0.8403622557891037,-10.410727717323855 L0.6653174183325132,-10.444281015960115 L0.488951654726532,-10.470003309739198 L0.31161512286960846,-10.487843529427773 L0.13365990803069464,-10.497766254921018 L-0.044560676183464785,-10.499751785565959 L-0.22269278929979425,-10.493796179275286 L-0.4003827664963937,-10.479911260354015 L-0.5772778207713056,-10.458124596023417 L-0.7530267433684521,-10.428479441688845 L-0.9272806010701101,-10.39103465506015 L-1.0996934289715172,-10.345864579295124 L-1.2699229173621653,-10.293058895398062 L-1.4376310913500454,-10.232722444166413 L-1.6024849818795113,-10.16497501803909 L-1.7641572868105184,-10.089951123259668 L-1.9223270207467267,-10.00779971282669 L-2.0766801523222918,-9.918683890761276 L-2.2269102276820765,-9.822780588279183 L-2.37271897891741,-9.720280212510259 L-2.5138169162494157,-9.611386268462706 L-2.6499239027841655,-9.496314954982726 L-2.780769710698557,-9.375294735511728 L-2.9060945577526405,-9.248565884493308 L-3.025649623063209,-9.116380010330584 L-3.1391975411146316,-8.978999555840995 L-3.2465128730261124,-8.836697277200395 L-3.34738255413972,-8.689755702410897 L-3.4416063170405455,-8.538466570367689 L-3.5289970891691156,-8.383130251638454 L-3.6093813642366435,-8.224055152105414 L-3.682599546705705,-8.061557100654003 L-3.748506268652404,-7.895958722123842 L-3.806970678380933,-7.7275887967669865 L-3.8578767002174983,-7.556781607485172 L-3.901123264967829,-7.383876276142054 L-3.936624510580706,-7.209216090268133 L-3.964309952619116,-7.033147821495148 L-3.9841246242005783,-6.856021037073093 L-3.9960291851288012,-6.6781874058368045 L-4.0,-6.500000000000036 " />
			<path d="M-1.6,-6.5 L-1.5960144402412222,-6.612862334467698 L-1.584077616823127,-6.725162394462225 L-1.5642489983995431,-6.836340706733553 L-1.5366273701500468,-6.945843386522387 L-1.5013503416371672,-7.05312489698617 L-1.458593661242467,-7.157650767036195 L-1.4085703405969463,-7.258900254045684 L-1.3515295933678113,-7.356368938163359 L-1.2877555936885212,-7.44957123530777 L-1.2175660604175487,-7.538042816322761 L-1.1413106742790085,-7.621342920241973 L-1.0593693357708809,-7.6990565501378 L-0.9721502725198388,-7.770796540615217 L-0.8800880055117466,-7.836205486650297 L-0.7836411843299658,-7.894957524164061 L-0.683290302186202,-7.946759953460936 L-0.5795353021274926,-7.991354697443903 L-0.472893086345095,-8.028519587341625 L-0.36389494099377084,-8.05806946954208 L-0.25308388935088716,-8.079857128018553 L-0.14101198650176364,-8.093774017752462 L-0.028237569029006638,-8.099750805499198 L0.08467752659226001,-8.097757715202846 L0.19717076303545295,-8.087804676339006 L0.3086817046551939,-8.069941274446649 L0.4186548095495039,-8.04425650409544 L0.5265421972416148,-8.01087832551929 L0.6318063781929448,-7.96997302712489 L0.733922931548944,-7.921744397051244 L0.8323831177774109,-7.866432707907403 L0.9266964131832531,-7.80431351974642 L1.0163929536728618,-7.735696307239023 L1.1010258755933902,-7.6609229178863725 L1.180173541984996,-7.580365868953009 L1.2534416431549644,-7.494426491604575 L1.3204651611087646,-7.403532931496138 L1.3809101880513355,-7.308138015772075 L1.4344755898989263,-7.208716997104012 L1.4808945065139545,-7.105765186005923 L1.519935681188786,-6.999795483222068 L1.5514046127550216,-6.891335824481278 L1.5751445245785338,-6.7809265503477105 L1.5910371456127717,-6.669117714271346 L1.5990032996191654,-6.556466342249361 L1.5990032996191652,-6.443533657750632 L1.5910371456127708,-6.330882285728648 L1.5751445245785327,-6.219073449652283 L1.55140461275502,-6.108664175518716 L1.5199356811887839,-6.000204516777925 L1.4808945065139518,-5.89423481399407 L1.4344755898989234,-5.791283002895982 L1.380910188051332,-5.69186198422792 L1.3204651611087606,-5.5964670685038564 L1.2534416431549604,-5.50557350839542 L1.1801735419849915,-5.419634131046987 L1.1010258755933853,-5.339077082113623 L1.016392953672857,-5.264303692760974 L0.9266964131832482,-5.195686480253577 L0.8323831177774057,-5.133567292092594 L0.7339229315489386,-5.0782556029487536 L0.6318063781929393,-5.030026972875107 L0.5265421972416088,-4.9891216744807085 L0.4186548095494974,-4.955743495904558 L0.3086817046551869,-4.9300587255533515 L0.1971707630354456,-4.912195323660993 L0.08467752659225224,-4.902242284797154 L-0.02823756902901477,-4.900249194500802 L-0.14101198650177207,-4.9062259822475385 L-0.25308388935089593,-4.920142871981449 L-0.36389494099377984,-4.941930530457921 L-0.4728930863451042,-4.971480412658378 L-0.5795353021275018,-5.008645302556101 L-0.6832903021862112,-5.053240046539068 L-0.7836411843299751,-5.105042475835943 L-0.8800880055117555,-5.163794513349709 L-0.9721502725198475,-5.22920345938479 L-1.0593693357708895,-5.300943449862207 L-1.141310674279017,-5.378657079758035 L-1.2175660604175567,-5.461957183677248 L-1.2877555936885288,-5.55042876469224 L-1.3515295933678182,-5.643631061836652 L-1.4085703405969525,-5.741099745954328 L-1.4585936612424728,-5.842349232963818 L-1.501350341637172,-5.946875103013843 L-1.5366273701500508,-6.054156613477626 L-1.5642489983995462,-6.16365929326646 L-1.5840776168231292,-6.2748376055377895 L-1.5960144402412233,-6.387137665532317 L-1.6,-6.500000000000015 " />
			<path d="M4.0,-6.5 L4.0,53.5 " />
			<path d="M4.0,-6.5 L1.6,-6.5 " />
			<path d="M4.0,53.5 L-4.0,53.5 " />
			<path d="M-4.0,-6.5 L-4.0,53.5 " />
			<path d="M-1.5999999999999996,-6.5 L-4.0,-6.5 " />
			<path d="M1.6,-6.5 L1.596102480415719,-6.3883896420093995 L1.5844289099865125,-6.277323038463895 L1.565036161174089,-6.167341294691584 L1.5380187135013101,-6.058980230692801 L1.5035081932574534,-5.952767770678929 L1.4616727322281613,-5.849221371078719 L1.4127161485742827,-5.748845499542574 L1.3568769538502812,-5.652129177226871 L1.2944271909999152,-5.559543596332042 L1.225671108990364,-5.471539824501536 L1.150943680541841,-5.388546607265603 L1.070608970174172,-5.310968279236168 L0.9850583605210519,-5.239182794229244 L0.8947086455531933,-5.173539883911932 L0.7999999999999982,-5.114359353944897 L0.7013938348625218,-5.0619295259213315 L0.599370549465457,-5.016505832693139 L0.49442719099991345,-4.978309573927754 L0.3870750329594657,-4.947526837958405 L0.27783708426708575,-4.9243075951804665 L0.16724554122824253,-4.908764967410763 L0.05583919472399838,-4.900974676769446 L-0.05583919472400489,-4.900974676769447 L-0.16724554122824903,-4.908764967410763 L-0.27783708426709214,-4.924307595180467 L-0.3870750329594721,-4.9475268379584065 L-0.49442719099991966,-4.978309573927755 L-0.5993705494654631,-5.0165058326931415 L-0.7013938348625277,-5.061929525921334 L-0.8000000000000039,-5.1143593539449 L-0.8947086455531988,-5.1735398839119355 L-0.985058360521057,-5.239182794229247 L-1.0706089701741768,-5.310968279236173 L-1.1509436805418454,-5.388546607265608 L-1.2256711089903682,-5.471539824501541 L-1.294427190999919,-5.559543596332047 L-1.3568769538502845,-5.652129177226877 L-1.4127161485742858,-5.74884549954258 L-1.461672732228164,-5.849221371078725 L-1.5035081932574554,-5.9527677706789355 L-1.538018713501312,-6.058980230692807 L-1.5650361611740904,-6.1673412946915915 L-1.5844289099865136,-6.277323038463901 L-1.5961024804157193,-6.388389642009406 L-1.6,-6.500000000000007 " />
			<path d="M-1.6,-6.5 L-1.596102480415719,-6.3883896420093995 L-1.5844289099865128,-6.277323038463895 L-1.5650361611740893,-6.167341294691585 L-1.5380187135013104,-6.058980230692802 L-1.5035081932574537,-5.95276777067893 L-1.4616727322281615,-5.84922137107872 L-1.4127161485742832,-5.748845499542575 L-1.3568769538502816,-5.652129177226872 L-1.294427190999916,-5.559543596332043 L-1.225671108990365,-5.471539824501537 L-1.150943680541842,-5.388546607265605 L-1.0706089701741732,-5.310968279236169 L-0.9850583605210533,-5.239182794229245 L-0.8947086455531951,-5.173539883911934 L-0.8000000000000003,-5.114359353944899 L-0.7013938348625239,-5.061929525921332 L-0.5993705494654592,-5.01650583269314 L-0.49442719099991567,-4.9783095739277545 L-0.38707503295946794,-4.947526837958406 L-0.27783708426708803,-4.924307595180467 L-0.16724554122824484,-4.908764967410763 L-0.05583919472400067,-4.900974676769446 L0.055839194724002596,-4.900974676769446 L0.16724554122824675,-4.908764967410763 L0.2778370842670899,-4.924307595180467 L0.3870750329594699,-4.947526837958406 L0.49442719099991744,-4.9783095739277545 L0.599370549465461,-5.016505832693141 L0.7013938348625254,-5.061929525921333 L0.8000000000000016,-5.114359353944899 L0.8947086455531965,-5.173539883911934 L0.9850583605210549,-5.239182794229246 L1.0706089701741748,-5.310968279236171 L1.1509436805418436,-5.388546607265606 L1.2256711089903665,-5.471539824501539 L1.2944271909999177,-5.559543596332045 L1.3568769538502832,-5.6521291772268745 L1.4127161485742845,-5.748845499542577 L1.4616727322281626,-5.849221371078722 L1.5035081932574546,-5.952767770678933 L1.5380187135013113,-6.0589802306928044 L1.56503616117409,-6.167341294691589 L1.5844289099865132,-6.277323038463899 L1.5961024804157191,-6.388389642009403 L1.6,-6.500000000000004 " />
			<path d="M4.0,-6.5 L4.0,53.5 " />
			<path d="M4.0,-6.5 L4.0,53.5 " />
			<path d="M4.0,-6.5 L1.6,-6.5 " />
			<path d="M4.0,-6.5 L1.6,-6.5 " />
			<path d="M4.0,53.5 L-4.0,53.5 " />
			<path d="M-4.0,-6.5 L-4.0,53.5 " />
			<path d="M-1.5999999999999996,-6.5 L-4.0,-6.5 " />
			<path d="M1.6,-6.5 L1.596102480415719,-6.3883896420093995 L1.5844289099865125,-6.277323038463895 L1.565036161174089,-6.167341294691584 L1.5380187135013101,-6.058980230692801 L1.5035081932574534,-5.952767770678929 L1.4616727322281613,-5.849221371078719 L1.4127161485742827,-5.748845499542574 L1.3568769538502812,-5.652129177226871 L1.2944271909999152,-5.559543596332042 L1.225671108990364,-5.471539824501536 L1.150943680541841,-5.388546607265603 L1.070608970174172,-5.310968279236168 L0.9850583605210519,-5.239182794229244 L0.8947086455531933,-5.173539883911932 L0.7999999999999982,-5.114359353944897 L0.7013938348625218,-5.0619295259213315 L0.599370549465457,-5.016505832693139 L0.49442719099991345,-4.978309573927754 L0.3870750329594657,-4.947526837958405 L0.27783708426708575,-4.9243075951804665 L0.16724554122824253,-4.908764967410763 L0.05583919472399838,-4.900974676769446 L-0.05583919472400489,-4.900974676769447 L-0.16724554122824903,-4.908764967410763 L-0.27783708426709214,-4.924307595180467 L-0.3870750329594721,-4.9475268379584065 L-0.49442719099991966,-4.978309573927755 L-0.5993705494654631,-5.0165058326931415 L-0.7013938348625277,-5.061929525921334 L-0.8000000000000039,-5.1143593539449 L-0.8947086455531988,-5.1735398839119355 L-0.985058360521057,-5.239182794229247 L-1.0706089701741768,-5.310968279236173 L-1.1509436805418454,-5.388546607265608 L-1.2256711089903682,-5.471539824501541 L-1.294427190999919,-5.559543596332047 L-1.3568769538502845,-5.652129177226877 L-1.4127161485742858,-5.74884549954258 L-1.461672732228164,-5.849221371078725 L-1.5035081932574554,-5.9527677706789355 L-1.538018713501312,-6.058980230692807 L-1.5650361611740904,-6.1673412946915915 L-1.5844289099865136,-6.277323038463901 L-1.5961024804157193,-6.388389642009406 L-1.6,-6.500000000000007 " />
			<path d="M4.0,53.5 L-4.0,53.5 " />
			<path d="M-4.0,-6.5 L-4.0,53.5 " />
			<path d="M-1.5999999999999996,-6.5 L-4.0,-6.5 " />
			<path d="M-1.6,-6.5 L-1.596102480415719,-6.3883896420093995 L-1.5844289099865128,-6.277323038463895 L-1.5650361611740893,-6.167341294691585 L-1.5380187135013104,-6.058980230692802 L-1.5035081932574537,-5.95276777067893 L-1.4616727322281615,-5.84922137107872 L-1.4127161485742832,-5.748845499542575 L-1.3568769538502816,-5.652129177226872 L-1.294427190999916,-5.559543596332043 L-1.225671108990365,-5.471539824501537 L-1.150943680541842,-5.388546607265605 L-1.0706089701741732,-5.310968279236169 L-0.9850583605210533,-5.239182794229245 L-0.8947086455531951,-5.173539883911934 L-0.8000000000000003,-5.114359353944899 L-0.7013938348625239,-5.061929525921332 L-0.5993705494654592,-5.01650583269314 L-0.49442719099991567,-4.9783095739277545 L-0.38707503295946794,-4.947526837958406 L-0.27783708426708803,-4.924307595180467 L-0.16724554122824484,-4.908764967410763 L-0.05583919472400067,-4.900974676769446 L0.055839194724002596,-4.900974676769446 L0.16724554122824675,-4.908764967410763 L0.2778370842670899,-4.924307595180467 L0.3870750329594699,-4.947526837958406 L0.49442719099991744,-4.9783095739277545 L0.599370549465461,-5.016505832693141 L0.7013938348625254,-5.061929525921333 L0.8000000000000016,-5.114359353944899 L0.8947086455531965,-5.173539883911934 L0.9850583605210549,-5.239182794229246 L1.0706089701741748,-5.310968279236171 L1.1509436805418436,-5.388546607265606 L1.2256711089903665,-5.471539824501539 L1.2944271909999177,-5.559543596332045 L1.3568769538502832,-5.6521291772268745 L1.4127161485742845,-5.748845499542577 L1.4616727322281626,-5.849221371078722 L1.5035081932574546,-5.952767770678933 L1.5380187135013113,-6.0589802306928044 L1.56503616117409,-6.167341294691589 L1.5844289099865132,-6.277323038463899 L1.5961024804157191,-6.388389642009403 L1.6,-6.500000000000004 " />
			<path d="M-1.6,-6.5 L-1.596102480415719,-6.3883896420093995 L-1.5844289099865128,-6.277323038463895 L-1.5650361611740893,-6.167341294691585 L-1.5380187135013104,-6.058980230692802 L-1.5035081932574537,-5.95276777067893 L-1.4616727322281615,-5.84922137107872 L-1.4127161485742832,-5.748845499542575 L-1.3568769538502816,-5.652129177226872 L-1.294427190999916,-5.559543596332043 L-1.225671108990365,-5.471539824501537 L-1.150943680541842,-5.388546607265605 L-1.0706089701741732,-5.310968279236169 L-0.9850583605210533,-5.239182794229245 L-0.8947086455531951,-5.173539883911934 L-0.8000000000000003,-5.114359353944899 L-0.7013938348625239,-5.061929525921332 L-0.5993705494654592,-5.01650583269314 L-0.49442719099991567,-4.9783095739277545 L-0.38707503295946794,-4.947526837958406 L-0.27783708426708803,-4.924307595180467 L-0.16724554122824484,-4.908764967410763 L-0.05583919472400067,-4.900974676769446 L0.055839194724002596,-4.900974676769446 L0.16724554122824675,-4.908764967410763 L0.2778370842670899,-4.924307595180467 L0.3870750329594699,-4.947526837958406 L0.49442719099991744,-4.9783095739277545 L0.599370549465461,-5.016505832693141 L0.7013938348625254,-5.061929525921333 L0.8000000000000016,-5.114359353944899 L0.8947086455531965,-5.173539883911934 L0.9850583605210549,-5.239182794229246 L1.0706089701741748,-5.310968279236171 L1.1509436805418436,-5.388546607265606 L1.2256711089903665,-5.471539824501539 L1.2944271909999177,-5.559543596332045 L1.3568769538502832,-5.6521291772268745 L1.4127161485742845,-5.748845499542577 L1.4616727322281626,-5.849221371078722 L1.5035081932574546,-5.952767770678933 L1.5380187135013113,-6.0589802306928044 L1.56503616117409,-6.167341294691589 L1.5844289099865132,-6.277323038463899 L1.5961024804157191,-6.388389642009403 L1.6,-6.500000000000004 " />
			<path d="M-1.5,-6.5 L-1.4960898472769246,-6.391763366299076 L-1.484379774833456,-6.284091028288821 L-1.46493083356513,-6.177544339683464 L-1.437844421246162,-6.0726787855824504 L-1.4032617538884016,-5.970041086428346 L-1.3613631295064355,-5.8701663476596035 L-1.3123669881272244,-5.77357526991857 L-1.256528772944947,-5.680771434359455 L-1.1941395985584657,-5.592238677209353 L-1.1255247332346037,-5.5084385672702 L-1.051041903110014,-5.429807999512761 L-0.9710794271727416,-5.356756917308545 L-0.8860541927468271,-5.289666175174895 L-0.7964094820348305,-5.2288855531758704 L-0.7026126610496856,-5.174731933330966 L-0.6051527429847131,-5.127487647538982 L-0.5045378387252633,-5.087399005630238 L-0.4012925077938318,-5.054675011221166 L-0.29595502353960074,-5.0294862720662294 L-0.18907456683043478,-5.011964110588093 L-0.08120836287812708,-5.002199879223314 L0.027081223875839805,-5.000244484153038 L0.13522962166809693,-5.006108119901744 L0.24267299482914612,-5.019760216187711 L0.3488511833614646,-5.041129597302315 L0.453210623354358,-5.070104853187216 L0.5552072330098704,-5.106534920274813 L0.65430924923335,-5.15022986906374 L0.7499999999999991,-5.200961894323342 L0.8417805980435729,-5.258466502764664 L0.929172541823584,-5.322443891985991 L1.0117202102107707,-5.392560513503752 L1.0889932378846963,-5.468450811719865 L1.1605887590592545,-5.549719129759365 L1.226133507838338,-5.635941772242141 L1.2852857642513842,-5.726669214234468 L1.3377371358230739,-5.8214284448638605 L1.3832141653889003,-5.919725433378742 L1.4214797567742041,-6.021047704796032 L1.4523344109038454,-6.124867011708408 L1.4756172658980045,-6.230642088321694 L1.4912069357315398,-6.33782147236409 L1.4990221430845156,-6.445846380155098 L1.4990221430845154,-6.554153619844907 L1.491206935731539,-6.662178527635916 L1.4756172658980036,-6.769357911678311 L1.4523344109038439,-6.875132988291599 L1.4214797567742024,-6.978952295203974 L1.383214165388898,-7.080274566621263 L1.3377371358230714,-7.178571555136145 L1.2852857642513813,-7.273330785765537 L1.2261335078383349,-7.364058227757864 L1.160588759059251,-7.45028087024064 L1.0889932378846925,-7.531549188280139 L1.0117202102107665,-7.607439486496252 L0.9291725418235801,-7.677556108014012 L0.8417805980435694,-7.741533497235339 L0.749999999999996,-7.79903810567666 L0.6543092492333473,-7.849770130936262 L0.555207233009868,-7.893465079725189 L0.45321062335435575,-7.929895146812785 L0.3488511833614627,-7.958870402697686 L0.24267299482914448,-7.98023978381229 L0.13522962166809563,-7.993891880098257 L0.02708122387583884,-7.999755515846962 L-0.0812083628781277,-7.997800120776686 L-0.18907456683043505,-7.988035889411906 L-0.2959550235396007,-7.9705137279337706 L-0.40129250779383147,-7.945324988778834 L-0.5045378387252626,-7.912600994369762 L-0.6051527429847121,-7.872512352461019 L-0.7026126610496843,-7.825268066669035 L-0.7964094820348291,-7.77111444682413 L-0.8860541927468253,-7.710333824825106 L-0.9710794271727397,-7.643243082691456 L-1.0510419031100118,-7.570192000487242 L-1.1255247332346017,-7.491561432729803 L-1.1941395985584635,-7.40776132279065 L-1.2565287729449452,-7.3192285656405485 L-1.3123669881272224,-7.226424730081433 L-1.3613631295064337,-7.129833652340401 L-1.4032617538883998,-7.029958913571658 L-1.4378444212461605,-6.927321214417555 L-1.4649308335651288,-6.822455660316542 L-1.484379774833455,-6.715908971711185 L-1.4960898472769242,-6.608236633700931 L-1.5,-6.500000000000007 " />

       </g>

       <!-- solid lines -->
       <g  stroke="rgb(40,40,40)" fill="none">
			<path d="M8.6,0.0 L4.0,0.0 " />
			<path d="M-4.000000000000002,0.0 L-8.6,0.0 " />
			<path d="M-8.6,0.0 L-8.6,6.0 " />
			<path d="M-8.6,6.0 L-12.6,6.0 " />
			<path d="M-14.599999999999998,3.999999999999999 L-12.599999999999998,5.999999999999999 " />
			<path d="M-14.6,0.0 L-14.6,4.0 " />
			<path d="M-14.600000000000001,0.0 L-14.596046921220143,-0.3397267630612223 L-14.58418982554246,-0.6792695580871011 L-14.564435133793435,-1.0184445166642293 L-14.536793543487146,-1.3570679695691261 L-14.50128002303237,-1.6949565462283613 L-14.457913803626928,-2.0319272740169554 L-14.406718368843658,-2.3677976773412843 L-14.347721441913636,-2.702385876452833 L-14.280954970713564,-3.0355106859392853 L-14.206455110465429,-3.3669917128396256 L-14.124262204157814,-3.696649454330105 L-14.034420760699458,-4.024305394928187 L-13.936979430816887,-4.349782103161837 L-13.83199098070921,-4.672903327651785 L-13.719512263474265,-4.993494092554764 L-13.59960418832168,-5.311380792316013 L-13.47233168758946,-5.6263912856797464 L-13.337763681581974,-5.938354988906684 L-13.1959730412484,-6.247102968148154 L-13.04703654872182,-6.552468030926749 L-12.891034855740333,-6.8542848166740065 L-12.72805243997273,-7.152389886276072 L-12.558177559272334,-7.44662181057886 L-12.381502203883818,-7.736821257804793 L-12.198122046628873,-8.022831079833768 L-12.008136391097668,-8.304496397301635 L-11.811648117874233,-8.581664683470107 L-11.608763628824779,-8.854185846822675 L-11.399592789479227,-9.121912312341816 L-11.18424886953708,-9.384699101423472 L-10.96284848152989,-9.64240391038551 L-10.735511517673501,-9.894887187527688 L-10.50236108494431,-10.142012208701358 L-10.263523438414664,-10.383645151347999 L-10.019127912883514,-10.619655166966508 L-9.769306852839334,-10.849914451969951 L-9.514195540793251,-11.074298316893481 L-9.253932124021174,-11.29268525391587 L-8.988657539754616,-11.504957002658136 L-8.718515438860685,-11.710998614223636 L-8.44365210805261,-11.910698513444906 L-8.164216390672912,-12.103948559303603 L-7.880359606092095,-12.290644103490754 L-7.592235467766553,-12.470684047075668 L-7.300000000000009,-12.6439708952528 L-7.003811453453604,-12.81041081013689 L-6.70383021945038,-12.969913661577854 L-6.400218743120541,-13.122393075967832 L-6.0931414354345526,-13.26776648301403 L-5.7827645841717015,-13.405955160451995 L-5.469256263872329,-13.536884276675089 L-5.152786244822499,-13.660482931257153 L-4.833525901120402,-13.776684193346314 L-4.5116481178742465,-13.885425137909236 L-4.187327197581934,-13.986646879806132 L-3.860738765743169,-14.080294605678104 L-3.5320596757551654,-14.166317603629544 L-3.201467913143406,-14.244669290689524 L-2.869142499179338,-14.315307238037294 L-2.535263393937202,-14.378193193978234 L-2.2000113988424728,-14.433293104657828 L-1.8635680587647014,-14.480577132502416 L-1.5261155637077612,-14.520019672376788 L-1.1878366501507522,-14.551599365449787 L-0.848914502092969,-14.575299110760513 L-0.5095326518565367,-14.591106074478796 L-0.16987488070041956,-14.599011696854928 L0.16987488070037268,-14.59901169685493 L0.50953265185649,-14.591106074478798 L0.8489145020929222,-14.575299110760517 L1.1878366501507056,-14.551599365449789 L1.5261155637077148,-14.520019672376792 L1.8635680587646546,-14.480577132502424 L2.2000113988424266,-14.433293104657833 L2.535263393937156,-14.378193193978243 L2.869142499179292,-14.315307238037304 L3.20146791314336,-14.244669290689535 L3.53205967575512,-14.166317603629556 L3.8607387657431236,-14.080294605678118 L4.187327197581888,-13.986646879806147 L4.511648117874203,-13.885425137909252 L4.833525901120358,-13.77668419334633 L5.152786244822456,-13.660482931257171 L5.4692562638722855,-13.536884276675108 L5.782764584171659,-13.405955160452015 L6.0931414354345135,-13.267766483014052 L6.400218743120505,-13.122393075967851 L6.703830219450348,-12.969913661577873 L7.003811453453575,-12.810410810136908 L7.299999999999983,-12.643970895252814 L7.592235467766531,-12.47068404707568 L7.880359606092076,-12.290644103490767 L8.164216390672895,-12.103948559303616 L8.443652108052596,-11.910698513444917 L8.718515438860672,-11.710998614223643 L8.988657539754607,-11.504957002658141 L9.25393212402117,-11.292685253915874 L9.514195540793247,-11.074298316893485 L9.769306852839334,-10.849914451969953 L10.019127912883516,-10.619655166966506 L10.263523438414667,-10.383645151347995 L10.502361084944315,-10.14201220870135 L10.735511517673508,-9.89488718752768 L10.962848481529901,-9.6424039103855 L11.184248869537093,-9.38469910142346 L11.39959278947924,-9.1219123123418 L11.608763628824793,-8.854185846822656 L11.81164811787425,-8.581664683470086 L12.008136391097688,-8.30449639730161 L12.19812204662889,-8.022831079833741 L12.381502203883839,-7.736821257804762 L12.558177559272355,-7.446621810578826 L12.72805243997275,-7.152389886276034 L12.891034855740353,-6.854284816673967 L13.04703654872184,-6.552468030926707 L13.19597304124842,-6.247102968148108 L13.337763681581993,-5.938354988906636 L13.47233168758948,-5.626391285679696 L13.599604188321699,-5.311380792315959 L13.719512263474282,-4.993494092554707 L13.831990980709229,-4.672903327651726 L13.936979430816907,-4.349782103161776 L14.034420760699476,-4.024305394928124 L14.124262204157832,-3.6966494543300374 L14.206455110465445,-3.366991712839556 L14.280954970713578,-3.0355106859392125 L14.347721441913649,-2.7023858764527566 L14.40671836884367,-2.3677976773412053 L14.457913803626939,-2.0319272740168732 L14.501280023032379,-1.694956546228276 L14.536793543487153,-1.3570679695690382 L14.564435133793442,-1.0184445166641387 L14.584189825542463,-0.6792695580870075 L14.596046921220145,-0.339726763061126 L14.600000000000001,9.90202663092091e-14 " />
			<path d="M14.6,0.0 L14.6,4.0 " />
			<path d="M14.6,3.9999999999999996 L12.6,6.0 " />
			<path d="M12.6,6.0 L8.6,6.0 " />
			<path d="M8.6,0.0 L8.6,6.0 " />
			<path d="M4.0,-6.499999999999999 L3.9960849060798944,-6.676933386901514 L3.9843472882997792,-6.853520418389368 L3.9648101235976587,-7.029415417056888 L3.9375116568909028,-7.204274060184142 L3.902505326210028,-7.377754053765839 L3.8598596580912408,-7.549515802567913 L3.8096581334325266,-7.719223074901143 L3.7519990240758716,-7.886543660810473 L3.6869952004355153,-8.051150022391603 L3.6147739105488177,-8.212719934961816 L3.535476530982247,-8.370937117829921 L3.4492582900801145,-8.52549185343057 L3.3562879640977985,-8.676081593610924 L3.2567475468143012,-8.822411551882876 L3.1508318932708783,-8.96419528048145 L3.0387483383331455,-9.10115523109974 L2.9207162908233433,-9.233023298202767 L2.7969668040172633,-9.359541343856643 L2.6677421233466108,-9.480461703045707 L2.533295212192196,-9.59554766848842 L2.3938892566962386,-9.704573954002985 L2.2497971505631322,-9.807327135515628 L2.1013009608572055,-9.903606068848243 L1.9486913758431972,-9.993222283467565 L1.7922671359503257,-10.076000351425098 L1.632334448973872,-10.151778230765549 L1.4692063906590405,-10.22040758273158 L1.303202291840484,-10.281754062143877 L1.1346471133372014,-10.335697580388157 L0.9638708098264728,-10.382132540494265 L0.7912076839420848,-10.420968043847209 L0.6169957318612258,-10.452128068125454 L0.44157598166109613,-10.475551616118201 L0.2652918257404335,-10.491192835130283 L0.08848834861276583,-10.499021106740972 L-0.08848834861272885,-10.499021106740972 L-0.26529182574039656,-10.491192835130285 L-0.4415759816610593,-10.475551616118205 L-0.6169957318611892,-10.45212806812546 L-0.7912076839420487,-10.420968043847216 L-0.9638708098264369,-10.382132540494274 L-1.1346471133371658,-10.335697580388167 L-1.303202291840449,-10.28175406214389 L-1.469206390659006,-10.220407582731593 L-1.6323344489738383,-10.151778230765565 L-1.7922671359502926,-10.076000351425114 L-1.9486913758431648,-9.993222283467583 L-2.101300960857174,-9.903606068848262 L-2.2497971505631016,-9.80732713551565 L-2.393889256696209,-9.704573954003008 L-2.5332952121921672,-9.595547668488443 L-2.667742123346583,-9.480461703045732 L-2.7969668040172366,-9.35954134385667 L-2.920716290823318,-9.233023298202795 L-3.0387483383331215,-9.101155231099769 L-3.150831893270855,-8.96419528048148 L-3.2567475468142795,-8.822411551882906 L-3.3562879640977785,-8.676081593610954 L-3.449258290080096,-8.525491853430601 L-3.53547653098223,-8.370937117829955 L-3.614773910548802,-8.21271993496185 L-3.686995200435501,-8.051150022391639 L-3.7519990240758587,-7.886543660810508 L-3.8096581334325155,-7.719223074901178 L-3.859859658091231,-7.5495158025679485 L-3.9025053262100196,-7.377754053765876 L-3.9375116568908965,-7.204274060184178 L-3.964810123597654,-7.029415417056924 L-3.984347288299776,-6.853520418389405 L-3.9960849060798926,-6.676933386901552 L-4.0,-6.500000000000036 " />
			<path d="M-1.6,-6.5 L-1.596102480415719,-6.6116103579906005 L-1.5844289099865128,-6.722676961536105 L-1.5650361611740893,-6.832658705308415 L-1.5380187135013104,-6.941019769307198 L-1.5035081932574537,-7.04723222932107 L-1.4616727322281615,-7.15077862892128 L-1.4127161485742832,-7.251154500457425 L-1.3568769538502816,-7.347870822773128 L-1.294427190999916,-7.440456403667957 L-1.225671108990365,-7.528460175498463 L-1.150943680541842,-7.611453392734395 L-1.0706089701741732,-7.689031720763831 L-0.9850583605210533,-7.760817205770755 L-0.8947086455531951,-7.826460116088066 L-0.8000000000000003,-7.885640646055101 L-0.7013938348625239,-7.938070474078668 L-0.5993705494654592,-7.98349416730686 L-0.49442719099991567,-8.021690426072245 L-0.38707503295946794,-8.052473162041595 L-0.27783708426708803,-8.075692404819533 L-0.16724554122824484,-8.091235032589237 L-0.05583919472400067,-8.099025323230553 L0.055839194724002596,-8.099025323230553 L0.16724554122824675,-8.091235032589237 L0.2778370842670899,-8.075692404819533 L0.3870750329594699,-8.052473162041593 L0.49442719099991744,-8.021690426072245 L0.599370549465461,-7.983494167306859 L0.7013938348625254,-7.938070474078667 L0.8000000000000016,-7.885640646055101 L0.8947086455531965,-7.826460116088066 L0.9850583605210549,-7.760817205770754 L1.0706089701741748,-7.689031720763829 L1.1509436805418436,-7.611453392734394 L1.2256711089903665,-7.528460175498461 L1.2944271909999177,-7.440456403667955 L1.3568769538502832,-7.3478708227731255 L1.4127161485742845,-7.251154500457423 L1.4616727322281626,-7.150778628921278 L1.5035081932574546,-7.047232229321067 L1.5380187135013113,-6.9410197693071956 L1.56503616117409,-6.832658705308411 L1.5844289099865132,-6.722676961536101 L1.5961024804157191,-6.611610357990597 L1.6,-6.499999999999996 " />
			<path d="M4.0,-6.5 L4.0,53.5 " />
			<path d="M4.0,-6.5 L1.6,-6.5 " />
			<path d="M4.0,53.5 L-4.0,53.5 " />
			<path d="M-4.0,-6.5 L-4.0,53.5 " />
			<path d="M-1.5999999999999996,-6.5 L-4.0,-6.5 " />
			<path d="M-1.6,-6.5 L-1.596102480415719,-6.3883896420093995 L-1.5844289099865128,-6.277323038463895 L-1.5650361611740893,-6.167341294691585 L-1.5380187135013104,-6.058980230692802 L-1.5035081932574537,-5.95276777067893 L-1.4616727322281615,-5.84922137107872 L-1.4127161485742832,-5.748845499542575 L-1.3568769538502816,-5.652129177226872 L-1.294427190999916,-5.559543596332043 L-1.225671108990365,-5.471539824501537 L-1.150943680541842,-5.388546607265605 L-1.0706089701741732,-5.310968279236169 L-0.9850583605210533,-5.239182794229245 L-0.8947086455531951,-5.173539883911934 L-0.8000000000000003,-5.114359353944899 L-0.7013938348625239,-5.061929525921332 L-0.5993705494654592,-5.01650583269314 L-0.49442719099991567,-4.9783095739277545 L-0.38707503295946794,-4.947526837958406 L-0.27783708426708803,-4.924307595180467 L-0.16724554122824484,-4.908764967410763 L-0.05583919472400067,-4.900974676769446 L0.055839194724002596,-4.900974676769446 L0.16724554122824675,-4.908764967410763 L0.2778370842670899,-4.924307595180467 L0.3870750329594699,-4.947526837958406 L0.49442719099991744,-4.9783095739277545 L0.599370549465461,-5.016505832693141 L0.7013938348625254,-5.061929525921333 L0.8000000000000016,-5.114359353944899 L0.8947086455531965,-5.173539883911934 L0.9850583605210549,-5.239182794229246 L1.0706089701741748,-5.310968279236171 L1.1509436805418436,-5.388546607265606 L1.2256711089903665,-5.471539824501539 L1.2944271909999177,-5.559543596332045 L1.3568769538502832,-5.6521291772268745 L1.4127161485742845,-5.748845499542577 L1.4616727322281626,-5.849221371078722 L1.5035081932574546,-5.952767770678933 L1.5380187135013113,-6.0589802306928044 L1.56503616117409,-6.167341294691589 L1.5844289099865132,-6.277323038463899 L1.5961024804157191,-6.388389642009403 L1.6,-6.500000000000004 " />
			<path d="M-1.5,-6.5 L-1.4960898472769246,-6.391763366299076 L-1.484379774833456,-6.284091028288821 L-1.46493083356513,-6.177544339683464 L-1.437844421246162,-6.0726787855824504 L-1.4032617538884016,-5.970041086428346 L-1.3613631295064355,-5.8701663476596035 L-1.3123669881272244,-5.77357526991857 L-1.256528772944947,-5.680771434359455 L-1.1941395985584657,-5.592238677209353 L-1.1255247332346037,-5.5084385672702 L-1.051041903110014,-5.429807999512761 L-0.9710794271727416,-5.356756917308545 L-0.8860541927468271,-5.289666175174895 L-0.7964094820348305,-5.2288855531758704 L-0.7026126610496856,-5.174731933330966 L-0.6051527429847131,-5.127487647538982 L-0.5045378387252633,-5.087399005630238 L-0.4012925077938318,-5.054675011221166 L-0.29595502353960074,-5.0294862720662294 L-0.18907456683043478,-5.011964110588093 L-0.08120836287812708,-5.002199879223314 L0.027081223875839805,-5.000244484153038 L0.13522962166809693,-5.006108119901744 L0.24267299482914612,-5.019760216187711 L0.3488511833614646,-5.041129597302315 L0.453210623354358,-5.070104853187216 L0.5552072330098704,-5.106534920274813 L0.65430924923335,-5.15022986906374 L0.7499999999999991,-5.200961894323342 L0.8417805980435729,-5.258466502764664 L0.929172541823584,-5.322443891985991 L1.0117202102107707,-5.392560513503752 L1.0889932378846963,-5.468450811719865 L1.1605887590592545,-5.549719129759365 L1.226133507838338,-5.635941772242141 L1.2852857642513842,-5.726669214234468 L1.3377371358230739,-5.8214284448638605 L1.3832141653889003,-5.919725433378742 L1.4214797567742041,-6.021047704796032 L1.4523344109038454,-6.124867011708408 L1.4756172658980045,-6.230642088321694 L1.4912069357315398,-6.33782147236409 L1.4990221430845156,-6.445846380155098 L1.4990221430845154,-6.554153619844907 L1.491206935731539,-6.662178527635916 L1.4756172658980036,-6.769357911678311 L1.4523344109038439,-6.875132988291599 L1.4214797567742024,-6.978952295203974 L1.383214165388898,-7.080274566621263 L1.3377371358230714,-7.178571555136145 L1.2852857642513813,-7.273330785765537 L1.2261335078383349,-7.364058227757864 L1.160588759059251,-7.45028087024064 L1.0889932378846925,-7.531549188280139 L1.0117202102107665,-7.607439486496252 L0.9291725418235801,-7.677556108014012 L0.8417805980435694,-7.741533497235339 L0.749999999999996,-7.79903810567666 L0.6543092492333473,-7.849770130936262 L0.555207233009868,-7.893465079725189 L0.45321062335435575,-7.929895146812785 L0.3488511833614627,-7.958870402697686 L0.24267299482914448,-7.98023978381229 L0.13522962166809563,-7.993891880098257 L0.02708122387583884,-7.999755515846962 L-0.0812083628781277,-7.997800120776686 L-0.18907456683043505,-7.988035889411906 L-0.2959550235396007,-7.9705137279337706 L-0.40129250779383147,-7.945324988778834 L-0.5045378387252626,-7.912600994369762 L-0.6051527429847121,-7.872512352461019 L-0.7026126610496843,-7.825268066669035 L-0.7964094820348291,-7.77111444682413 L-0.8860541927468253,-7.710333824825106 L-0.9710794271727397,-7.643243082691456 L-1.0510419031100118,-7.570192000487242 L-1.1255247332346017,-7.491561432729803 L-1.1941395985584635,-7.40776132279065 L-1.2565287729449452,-7.3192285656405485 L-1.3123669881272224,-7.226424730081433 L-1.3613631295064337,-7.129833652340401 L-1.4032617538883998,-7.029958913571658 L-1.4378444212461605,-6.927321214417555 L-1.4649308335651288,-6.822455660316542 L-1.484379774833455,-6.715908971711185 L-1.4960898472769242,-6.608236633700931 L-1.5,-6.500000000000007 " />

       </g>
    </g>
    
</svg>
