<?xml version="1.0" encoding="UTF-8" standalone="no"?>
<svg
   xmlns:svg="http://www.w3.org/2000/svg"
   xmlns="http://www.w3.org/2000/svg"
   width="900.0"
   height="600.0"

>
    <g transform="scale(6.607929505715228, -6.607929505715228)   translate(12.02666677111111,-17.62666677111111)" stroke-width="0.4"  fill="none">
       <!-- hidden lines -->
       <g  stroke="rgb(180,180,180)" fill="none" stroke-dasharray="0.4,0.4" >
			<path d="M0.0,0.0 L2.0,0.0 " />
			<path d="M0.0,0.0 L2.0,0.0 " />
			<path d="M0.0,0.0 L0.0,-6.0 " />
			<path d="M0.0,14.6 L0.0,14.508198264441342 L0.0,14.233947517854624 L0.0,13.780696622502166 L0.0,13.154145471375319 L0.0,12.362173308732947 L0.0,11.414739644033235 L0.0,10.323759005323591 L0.0,9.102951107137509 L0.0,7.7676683171239125 L0.0,6.334702591116347 L0.0,4.822074304545438 L0.0,3.2488056357621886 L0.0,1.6346813511082932 L0.0,6.972200594645983e-14 " />
			<path d="M0.0,0.0 L0.0,-4.0 " />
			<path d="M0.0,-3.9999999999999996 L0.0,-6.0 " />
			<path d="M0.0,0.0 L0.0,-6.0 " />
			<path d="M0.0,6.5 L0.0,6.052142095586769 L0.0,5.609916264174743 L0.0,5.178883752179331 L0.0,4.764465043529768 L0.0,4.371871693938654 L0.0,4.0060407925650665 L0.0,3.67157287525381 L0.0,3.372674070127881 L0.0,3.1131032030868635 L0.0,2.8961245283903234 L0.0,2.7244666787665297 L0.0,2.6002883512727055 L0.0,2.5251511604270296 L0.0,2.5000000000000004 " />
			<path d="M0.0,2.5 L0.0,2.6002883512727055 L0.0,2.8961245283903234 L0.0,3.3726740701278803 L0.0,4.006040792565066 L0.0,4.764465043529767 L0.0,5.609916264174742 L0.0,6.499999999999999 L0.0,7.390083735825257 L0.0,8.235534956470232 L0.0,8.993959207434933 L0.0,9.627325929872118 L0.0,10.103875471609676 L0.0,10.399711648727294 L0.0,10.499999999999996 " />
			<path d="M0.0,10.5 L0.0,10.47484883957297 L0.0,10.399711648727294 L0.0,10.275533321233471 L0.0,10.103875471609676 L0.0,9.886896796913136 L0.0,9.62732592987212 L0.0,9.328427124746192 L0.0,8.993959207434935 L0.0,8.628128306061347 L0.0,8.235534956470234 L0.0,7.821116247820669 L0.0,7.390083735825258 L0.0,6.947857904413232 L0.0,6.500000000000036 " />
			<path d="M2.0,0.0 L78.0,0.0 " />
			<path d="M78.0,0.0 L80.0,0.0 " />
			<path d="M80.0,0.0 L80.0,-6.0 " />
			<path d="M0.0,-6.0 L80.0,-6.0 " />
			<path d="M2.0,0.0 L2.0,1.4555381893430022 L2.0,2.8927721414320873 L2.0,4.293627805417172 L2.0,5.640488608528256 L2.0,6.916416994699375 L2.0,8.105367424163536 L2.0,9.192388155425117 L2.0,10.163809272084388 L2.0,11.007414589967693 L2.0,11.712595282731447 L2.0,12.270483294008777 L2.0,12.674062858363705 L2.0,12.918258728612152 L2.0,12.999999999999996 " />
			<path d="M2.0,12.999999999999998 L2.0,12.918258728612152 L2.0,12.674062858363705 L2.0,12.270483294008777 L2.0,11.712595282731447 L2.0,11.007414589967691 L2.0,10.163809272084386 L2.0,9.192388155425116 L2.0,8.105367424163534 L2.0,6.916416994699373 L2.0,5.640488608528253 L2.0,4.29362780541717 L2.0,2.892772141432085 L2.0,1.4555381893430002 L2.0,6.17284001691587e-14 " />
			<path d="M2.0,6.5 L2.0,6.6791431617652925 L2.0,6.856033494330103 L2.0,7.028446499128267 L2.0,7.194213982588093 L2.0,7.351251322424538 L2.0,7.497583682973974 L2.0,7.631370849898476 L2.0,7.750930371948848 L2.0,7.854758718765255 L2.0,7.941550188643871 L2.0,8.01021332849339 L2.0,8.059884659490917 L2.0,8.089939535829188 L2.0,8.1 " />
			<path d="M2.0,8.1 L2.0,8.059884659490917 L2.0,7.941550188643871 L2.0,7.750930371948848 L2.0,7.497583682973974 L2.0,7.194213982588093 L2.0,6.856033494330103 L2.0,6.5 L2.0,6.143966505669897 L2.0,5.805786017411907 L2.0,5.502416317026027 L2.0,5.249069628051153 L2.0,5.058449811356129 L2.0,4.940115340509082 L2.0,4.900000000000002 " />
			<path d="M2.0,4.9 L2.0,4.910060464170812 L2.0,4.940115340509082 L2.0,4.989786671506612 L2.0,5.058449811356129 L2.0,5.145241281234745 L2.0,5.249069628051152 L2.0,5.3686291501015235 L2.0,5.502416317026026 L2.0,5.648748677575461 L2.0,5.805786017411907 L2.0,5.971553500871733 L2.0,6.143966505669897 L2.0,6.3208568382347075 L2.0,6.499999999999986 " />
			<path d="M2.0,0.0 L78.0,0.0 " />
			<path d="M78.0,0.0 L80.0,0.0 " />
			<path d="M80.0,0.0 L80.0,-6.0 " />
			<path d="M0.0,-6.0 L80.0,-6.0 " />
			<path d="M0.0,2.3594865558827754e-15 L80.0,2.3594865558827754e-15 " />
			<path d="M80.0,14.6 L80.0,14.508198264441342 L80.0,14.233947517854624 L80.0,13.780696622502166 L80.0,13.154145471375319 L80.0,12.362173308732947 L80.0,11.414739644033235 L80.0,10.323759005323591 L80.0,9.102951107137509 L80.0,7.7676683171239125 L80.0,6.334702591116347 L80.0,4.822074304545438 L80.0,3.2488056357621886 L80.0,1.6346813511082932 L80.0,6.972200594645983e-14 " />
			<path d="M80.0,0.0 L80.0,-4.0 " />
			<path d="M0.0,-4.0 L80.0,-4.0 " />
			<path d="M0.0,-6.0 L80.0,-6.0 " />
			<path d="M80.0,-3.9999999999999996 L80.0,-6.0 " />
			<path d="M-4.0,2.5 L-4.0,2.6002883512727055 L-4.0,2.8961245283903234 L-4.0,3.3726740701278803 L-4.0,4.006040792565066 L-4.0,4.764465043529767 L-4.0,5.609916264174742 L-4.0,6.499999999999999 L-4.0,7.390083735825257 L-4.0,8.235534956470232 L-4.0,8.993959207434933 L-4.0,9.627325929872118 L-4.0,10.103875471609676 L-4.0,10.399711648727294 L-4.0,10.499999999999996 " />
			<path d="M2.0,0.0 L78.0,0.0 " />
			<path d="M80.0,6.5 L80.0,6.052142095586769 L80.0,5.609916264174743 L80.0,5.178883752179331 L80.0,4.764465043529768 L80.0,4.371871693938654 L80.0,4.0060407925650665 L80.0,3.67157287525381 L80.0,3.372674070127881 L80.0,3.1131032030868635 L80.0,2.8961245283903234 L80.0,2.7244666787665297 L80.0,2.6002883512727055 L80.0,2.5251511604270296 L80.0,2.5000000000000004 " />
			<path d="M80.0,2.5 L80.0,2.6002883512727055 L80.0,2.8961245283903234 L80.0,3.3726740701278803 L80.0,4.006040792565066 L80.0,4.764465043529767 L80.0,5.609916264174742 L80.0,6.499999999999999 L80.0,7.390083735825257 L80.0,8.235534956470232 L80.0,8.993959207434933 L80.0,9.627325929872118 L80.0,10.103875471609676 L80.0,10.399711648727294 L80.0,10.499999999999996 " />
			<path d="M80.0,10.5 L80.0,10.47484883957297 L80.0,10.399711648727294 L80.0,10.275533321233471 L80.0,10.103875471609676 L80.0,9.886896796913136 L80.0,9.62732592987212 L80.0,9.328427124746192 L80.0,8.993959207434935 L80.0,8.628128306061347 L80.0,8.235534956470234 L80.0,7.821116247820669 L80.0,7.390083735825258 L80.0,6.947857904413232 L80.0,6.500000000000036 " />
			<path d="M2.0,1.9062434440709366e-15 L78.0,1.9062434440709366e-15 " />
			<path d="M78.0,0.0 L78.0,1.4555381893430022 L78.0,2.8927721414320873 L78.0,4.293627805417172 L78.0,5.640488608528256 L78.0,6.916416994699375 L78.0,8.105367424163536 L78.0,9.192388155425117 L78.0,10.163809272084388 L78.0,11.007414589967693 L78.0,11.712595282731447 L78.0,12.270483294008777 L78.0,12.674062858363705 L78.0,12.918258728612152 L78.0,12.999999999999996 " />
			<path d="M78.0,12.999999999999998 L78.0,12.918258728612152 L78.0,12.674062858363705 L78.0,12.270483294008777 L78.0,11.712595282731447 L78.0,11.007414589967691 L78.0,10.163809272084386 L78.0,9.192388155425116 L78.0,8.105367424163534 L78.0,6.916416994699373 L78.0,5.640488608528253 L78.0,4.29362780541717 L78.0,2.892772141432085 L78.0,1.4555381893430002 L78.0,6.17284001691587e-14 " />
			<path d="M-4.0,6.5 L-4.0,6.6791431617652925 L-4.0,6.856033494330103 L-4.0,7.028446499128267 L-4.0,7.194213982588093 L-4.0,7.351251322424538 L-4.0,7.497583682973974 L-4.0,7.631370849898476 L-4.0,7.750930371948848 L-4.0,7.854758718765255 L-4.0,7.941550188643871 L-4.0,8.01021332849339 L-4.0,8.059884659490917 L-4.0,8.089939535829188 L-4.0,8.1 " />
			<path d="M-4.0,8.1 L-4.0,8.059884659490917 L-4.0,7.941550188643871 L-4.0,7.750930371948848 L-4.0,7.497583682973974 L-4.0,7.194213982588093 L-4.0,6.856033494330103 L-4.0,6.5 L-4.0,6.143966505669897 L-4.0,5.805786017411907 L-4.0,5.502416317026027 L-4.0,5.249069628051153 L-4.0,5.058449811356129 L-4.0,4.940115340509082 L-4.0,4.900000000000002 " />
			<path d="M-4.0,4.9 L-4.0,4.910060464170812 L-4.0,4.940115340509082 L-4.0,4.989786671506612 L-4.0,5.058449811356129 L-4.0,5.145241281234745 L-4.0,5.249069628051152 L-4.0,5.3686291501015235 L-4.0,5.502416317026026 L-4.0,5.648748677575461 L-4.0,5.805786017411907 L-4.0,5.971553500871733 L-4.0,6.143966505669897 L-4.0,6.3208568382347075 L-4.0,6.499999999999986 " />
			<path d="M78.0,6.5 L78.0,6.6791431617652925 L78.0,6.856033494330103 L78.0,7.028446499128267 L78.0,7.194213982588093 L78.0,7.351251322424538 L78.0,7.497583682973974 L78.0,7.631370849898476 L78.0,7.750930371948848 L78.0,7.854758718765255 L78.0,7.941550188643871 L78.0,8.01021332849339 L78.0,8.059884659490917 L78.0,8.089939535829188 L78.0,8.1 " />
			<path d="M78.0,8.1 L78.0,8.059884659490917 L78.0,7.941550188643871 L78.0,7.750930371948848 L78.0,7.497583682973974 L78.0,7.194213982588093 L78.0,6.856033494330103 L78.0,6.5 L78.0,6.143966505669897 L78.0,5.805786017411907 L78.0,5.502416317026027 L78.0,5.249069628051153 L78.0,5.058449811356129 L78.0,4.940115340509082 L78.0,4.900000000000002 " />
			<path d="M78.0,4.9 L78.0,4.910060464170812 L78.0,4.940115340509082 L78.0,4.989786671506612 L78.0,5.058449811356129 L78.0,5.145241281234745 L78.0,5.249069628051152 L78.0,5.3686291501015235 L78.0,5.502416317026026 L78.0,5.648748677575461 L78.0,5.805786017411907 L78.0,5.971553500871733 L78.0,6.143966505669897 L78.0,6.3208568382347075 L78.0,6.499999999999986 " />
			<path d="M84.0,2.5 L84.0,2.6002883512727055 L84.0,2.8961245283903234 L84.0,3.3726740701278803 L84.0,4.006040792565066 L84.0,4.764465043529767 L84.0,5.609916264174742 L84.0,6.499999999999999 L84.0,7.390083735825257 L84.0,8.235534956470232 L84.0,8.993959207434933 L84.0,9.627325929872118 L84.0,10.103875471609676 L84.0,10.399711648727294 L84.0,10.499999999999996 " />
			<path d="M84.0,6.5 L84.0,6.6791431617652925 L84.0,6.856033494330103 L84.0,7.028446499128267 L84.0,7.194213982588093 L84.0,7.351251322424538 L84.0,7.497583682973974 L84.0,7.631370849898476 L84.0,7.750930371948848 L84.0,7.854758718765255 L84.0,7.941550188643871 L84.0,8.01021332849339 L84.0,8.059884659490917 L84.0,8.089939535829188 L84.0,8.1 " />
			<path d="M84.0,8.1 L84.0,8.059884659490917 L84.0,7.941550188643871 L84.0,7.750930371948848 L84.0,7.497583682973974 L84.0,7.194213982588093 L84.0,6.856033494330103 L84.0,6.5 L84.0,6.143966505669897 L84.0,5.805786017411907 L84.0,5.502416317026027 L84.0,5.249069628051153 L84.0,5.058449811356129 L84.0,4.940115340509082 L84.0,4.900000000000002 " />
			<path d="M84.0,4.9 L84.0,4.910060464170812 L84.0,4.940115340509082 L84.0,4.989786671506612 L84.0,5.058449811356129 L84.0,5.145241281234745 L84.0,5.249069628051152 L84.0,5.3686291501015235 L84.0,5.502416317026026 L84.0,5.648748677575461 L84.0,5.805786017411907 L84.0,5.971553500871733 L84.0,6.143966505669897 L84.0,6.3208568382347075 L84.0,6.499999999999986 " />
			<path d="M-9.0,6.5 L-5.0,6.5 " />
			<path d="M-5.0,6.5 L-5.0,-53.5 " />
			<path d="M-9.0,-53.5 L-5.0,-53.5 " />
			<path d="M-9.0,6.5 L-9.0,-53.5 " />
			<path d="M-9.0,6.5 L-7.0,6.5 " />
			<path d="M-5.0,6.5 L-7.0,6.5 " />
			<path d="M-5.0,6.5 L-5.0,6.3208568382347075 L-5.0,6.143966505669897 L-5.0,5.971553500871733 L-5.0,5.805786017411907 L-5.0,5.648748677575462 L-5.0,5.502416317026027 L-5.0,5.368629150101524 L-5.0,5.249069628051153 L-5.0,5.145241281234745 L-5.0,5.058449811356129 L-5.0,4.989786671506612 L-5.0,4.940115340509082 L-5.0,4.910060464170812 L-5.0,4.900000000000001 " />
			<path d="M-5.0,4.9 L-5.0,4.910060464170812 L-5.0,4.940115340509082 L-5.0,4.989786671506612 L-5.0,5.058449811356129 L-5.0,5.145241281234745 L-5.0,5.249069628051152 L-5.0,5.3686291501015235 L-5.0,5.502416317026026 L-5.0,5.648748677575461 L-5.0,5.805786017411907 L-5.0,5.971553500871733 L-5.0,6.143966505669897 L-5.0,6.3208568382347075 L-5.0,6.499999999999986 " />
			<path d="M-9.0,6.5 L-9.0,6.3208568382347075 L-9.0,6.143966505669897 L-9.0,5.971553500871733 L-9.0,5.805786017411907 L-9.0,5.648748677575462 L-9.0,5.502416317026026 L-9.0,5.368629150101524 L-9.0,5.249069628051152 L-9.0,5.145241281234745 L-9.0,5.058449811356129 L-9.0,4.989786671506612 L-9.0,4.940115340509082 L-9.0,4.910060464170812 L-9.0,4.9 " />
			<path d="M-9.0,4.9 L-9.0,4.910060464170812 L-9.0,4.940115340509082 L-9.0,4.989786671506612 L-9.0,5.058449811356129 L-9.0,5.145241281234745 L-9.0,5.249069628051152 L-9.0,5.3686291501015235 L-9.0,5.502416317026026 L-9.0,5.648748677575461 L-9.0,5.805786017411907 L-9.0,5.971553500871733 L-9.0,6.143966505669897 L-9.0,6.3208568382347075 L-9.0,6.499999999999993 " />
			<path d="M-7.0,6.5 L-7.0,6.3208568382347075 L-7.0,6.143966505669897 L-7.0,5.971553500871733 L-7.0,5.805786017411907 L-7.0,5.648748677575462 L-7.0,5.502416317026026 L-7.0,5.368629150101524 L-7.0,5.249069628051152 L-7.0,5.145241281234745 L-7.0,5.058449811356129 L-7.0,4.989786671506612 L-7.0,4.940115340509082 L-7.0,4.910060464170812 L-7.0,4.9 " />
			<path d="M-7.0,4.9 L-7.0,4.910060464170812 L-7.0,4.940115340509082 L-7.0,4.989786671506612 L-7.0,5.058449811356129 L-7.0,5.145241281234745 L-7.0,5.249069628051152 L-7.0,5.3686291501015235 L-7.0,5.502416317026026 L-7.0,5.648748677575461 L-7.0,5.805786017411907 L-7.0,5.971553500871733 L-7.0,6.143966505669897 L-7.0,6.3208568382347075 L-7.0,6.499999999999993 " />
			<path d="M-7.0,6.5 L-9.0,6.5 " />
			<path d="M-7.0,6.5 L-5.0,6.5 " />
			<path d="M85.0,6.5 L89.0,6.5 " />
			<path d="M89.0,6.5 L89.0,-53.5 " />
			<path d="M85.0,-53.5 L89.0,-53.5 " />
			<path d="M85.0,6.5 L85.0,-53.5 " />
			<path d="M85.0,6.5 L87.0,6.5 " />
			<path d="M89.0,6.5 L87.0,6.5 " />
			<path d="M89.0,6.5 L89.0,6.3208568382347075 L89.0,6.143966505669897 L89.0,5.971553500871733 L89.0,5.805786017411907 L89.0,5.648748677575462 L89.0,5.502416317026027 L89.0,5.368629150101524 L89.0,5.249069628051153 L89.0,5.145241281234745 L89.0,5.058449811356129 L89.0,4.989786671506612 L89.0,4.940115340509082 L89.0,4.910060464170812 L89.0,4.900000000000001 " />
			<path d="M89.0,4.9 L89.0,4.910060464170812 L89.0,4.940115340509082 L89.0,4.989786671506612 L89.0,5.058449811356129 L89.0,5.145241281234745 L89.0,5.249069628051152 L89.0,5.3686291501015235 L89.0,5.502416317026026 L89.0,5.648748677575461 L89.0,5.805786017411907 L89.0,5.971553500871733 L89.0,6.143966505669897 L89.0,6.3208568382347075 L89.0,6.499999999999986 " />
			<path d="M85.0,6.5 L85.0,6.3208568382347075 L85.0,6.143966505669897 L85.0,5.971553500871733 L85.0,5.805786017411907 L85.0,5.648748677575462 L85.0,5.502416317026026 L85.0,5.368629150101524 L85.0,5.249069628051152 L85.0,5.145241281234745 L85.0,5.058449811356129 L85.0,4.989786671506612 L85.0,4.940115340509082 L85.0,4.910060464170812 L85.0,4.9 " />
			<path d="M85.0,4.9 L85.0,4.910060464170812 L85.0,4.940115340509082 L85.0,4.989786671506612 L85.0,5.058449811356129 L85.0,5.145241281234745 L85.0,5.249069628051152 L85.0,5.3686291501015235 L85.0,5.502416317026026 L85.0,5.648748677575461 L85.0,5.805786017411907 L85.0,5.971553500871733 L85.0,6.143966505669897 L85.0,6.3208568382347075 L85.0,6.499999999999993 " />
			<path d="M87.0,6.5 L87.0,6.3208568382347075 L87.0,6.143966505669897 L87.0,5.971553500871733 L87.0,5.805786017411907 L87.0,5.648748677575462 L87.0,5.502416317026026 L87.0,5.368629150101524 L87.0,5.249069628051152 L87.0,5.145241281234745 L87.0,5.058449811356129 L87.0,4.989786671506612 L87.0,4.940115340509082 L87.0,4.910060464170812 L87.0,4.9 " />
			<path d="M87.0,4.9 L87.0,4.910060464170812 L87.0,4.940115340509082 L87.0,4.989786671506612 L87.0,5.058449811356129 L87.0,5.145241281234745 L87.0,5.249069628051152 L87.0,5.3686291501015235 L87.0,5.502416317026026 L87.0,5.648748677575461 L87.0,5.805786017411907 L87.0,5.971553500871733 L87.0,6.143966505669897 L87.0,6.3208568382347075 L87.0,6.499999999999993 " />
			<path d="M87.0,6.5 L85.0,6.5 " />
			<path d="M87.0,6.5 L89.0,6.5 " />
			<path d="M-9.0,6.5 L-9.0,6.3320532858450385 L-9.0,6.1662185990655285 L-9.0,6.004581407067249 L-9.0,5.849174391323663 L-9.0,5.701951885226995 L-9.0,5.5647652972119 L-9.0,5.439339828220179 L-9.0,5.327252776297955 L-9.0,5.229913701157574 L-9.0,5.1485466981463714 L-9.0,5.084175004537449 L-9.0,5.037608131727264 L-9.0,5.009431685160136 L-9.0,5.0 " />
			<path d="M-9.0,5.0 L-9.0,5.037608131727264 L-9.0,5.1485466981463714 L-9.0,5.327252776297955 L-9.0,5.5647652972119 L-9.0,5.849174391323663 L-9.0,6.1662185990655285 L-9.0,6.5 L-9.0,6.8337814009344715 L-9.0,7.150825608676337 L-9.0,7.4352347027881 L-9.0,7.672747223702045 L-9.0,7.8514533018536286 L-9.0,7.962391868272736 L-9.0,7.999999999999998 " />
			<path d="M89.0,6.5 L89.0,6.3320532858450385 L89.0,6.1662185990655285 L89.0,6.004581407067249 L89.0,5.849174391323663 L89.0,5.701951885226995 L89.0,5.5647652972119 L89.0,5.439339828220179 L89.0,5.327252776297955 L89.0,5.229913701157574 L89.0,5.1485466981463714 L89.0,5.084175004537449 L89.0,5.037608131727264 L89.0,5.009431685160136 L89.0,5.0 " />
			<path d="M89.0,5.0 L89.0,5.037608131727264 L89.0,5.1485466981463714 L89.0,5.327252776297955 L89.0,5.5647652972119 L89.0,5.849174391323663 L89.0,6.1662185990655285 L89.0,6.5 L89.0,6.8337814009344715 L89.0,7.150825608676337 L89.0,7.4352347027881 L89.0,7.672747223702045 L89.0,7.8514533018536286 L89.0,7.962391868272736 L89.0,7.999999999999998 " />
			<path d="M78.0,12.999999999999998 L2.0,12.999999999999998 " />
			<path d="M2.0,8.1 L-4.0,8.1 " />
			<path d="M2.0,4.9 L-4.0,4.9 " />
			<path d="M84.0,8.1 L78.0,8.1 " />
			<path d="M84.0,4.9 L78.0,4.9 " />
			<path d="M-9.0,4.9 L-7.0,4.9 " />
			<path d="M-5.0,4.9 L-7.0,4.9 " />
			<path d="M85.0,4.9 L87.0,4.9 " />
			<path d="M89.0,4.9 L87.0,4.9 " />
			<path d="M84.0,8.0 L-4.0,8.0 " />
			<path d="M89.0,5.0 L85.0,5.0 " />
			<path d="M84.0,5.0 L-4.0,5.0 " />
			<path d="M-5.0,5.0 L-9.0,5.0 " />

       </g>

       <!-- solid lines -->
       <g  stroke="rgb(40,40,40)" fill="none">
			<path d="M0.0,-3.999999999999999 L0.0,-5.999999999999999 " />
			<path d="M0.0,0.0 L0.0,-4.0 " />
			<path d="M0.0,0.0 L0.0,1.634681351108295 L0.0,3.2488056357621904 L0.0,4.82207430454544 L0.0,6.334702591116349 L0.0,7.767668317123915 L0.0,9.10295110713751 L0.0,10.323759005323595 L0.0,11.414739644033236 L0.0,12.362173308732949 L0.0,13.154145471375319 L0.0,13.780696622502166 L0.0,14.233947517854624 L0.0,14.508198264441342 L0.0,14.599999999999998 " />
			<path d="M0.0,-6.0 L80.0,-6.0 " />
			<path d="M0.0,-4.0 L80.0,-4.0 " />
			<path d="M80.0,-3.999999999999999 L80.0,-5.999999999999999 " />
			<path d="M80.0,0.0 L80.0,-4.0 " />
			<path d="M0.0,0.0 L80.0,0.0 " />
			<path d="M80.0,0.0 L80.0,1.634681351108295 L80.0,3.2488056357621904 L80.0,4.82207430454544 L80.0,6.334702591116349 L80.0,7.767668317123915 L80.0,9.10295110713751 L80.0,10.323759005323595 L80.0,11.414739644033236 L80.0,12.362173308732949 L80.0,13.154145471375319 L80.0,13.780696622502166 L80.0,14.233947517854624 L80.0,14.508198264441342 L80.0,14.599999999999998 " />
			<path d="M-4.0,6.5 L-4.0,6.052142095586769 L-4.0,5.609916264174743 L-4.0,5.178883752179331 L-4.0,4.764465043529768 L-4.0,4.371871693938654 L-4.0,4.0060407925650665 L-4.0,3.67157287525381 L-4.0,3.372674070127881 L-4.0,3.1131032030868635 L-4.0,2.8961245283903234 L-4.0,2.7244666787665297 L-4.0,2.6002883512727055 L-4.0,2.5251511604270296 L-4.0,2.5000000000000004 " />
			<path d="M-4.0,10.5 L-4.0,10.47484883957297 L-4.0,10.399711648727294 L-4.0,10.275533321233471 L-4.0,10.103875471609676 L-4.0,9.886896796913136 L-4.0,9.62732592987212 L-4.0,9.328427124746192 L-4.0,8.993959207434935 L-4.0,8.628128306061347 L-4.0,8.235534956470234 L-4.0,7.821116247820669 L-4.0,7.390083735825258 L-4.0,6.947857904413232 L-4.0,6.500000000000036 " />
			<path d="M84.0,6.5 L84.0,6.052142095586769 L84.0,5.609916264174743 L84.0,5.178883752179331 L84.0,4.764465043529768 L84.0,4.371871693938654 L84.0,4.0060407925650665 L84.0,3.67157287525381 L84.0,3.372674070127881 L84.0,3.1131032030868635 L84.0,2.8961245283903234 L84.0,2.7244666787665297 L84.0,2.6002883512727055 L84.0,2.5251511604270296 L84.0,2.5000000000000004 " />
			<path d="M84.0,10.5 L84.0,10.47484883957297 L84.0,10.399711648727294 L84.0,10.275533321233471 L84.0,10.103875471609676 L84.0,9.886896796913136 L84.0,9.62732592987212 L84.0,9.328427124746192 L84.0,8.993959207434935 L84.0,8.628128306061347 L84.0,8.235534956470234 L84.0,7.821116247820669 L84.0,7.390083735825258 L84.0,6.947857904413232 L84.0,6.500000000000036 " />
			<path d="M-5.0,6.5 L-5.0,-53.5 " />
			<path d="M-9.0,-53.5 L-5.0,-53.5 " />
			<path d="M-9.0,6.5 L-9.0,-53.5 " />
			<path d="M-9.0,6.5 L-5.0,6.5 " />
			<path d="M89.0,6.5 L89.0,-53.5 " />
			<path d="M85.0,-53.5 L89.0,-53.5 " />
			<path d="M85.0,6.5 L85.0,-53.5 " />
			<path d="M85.0,6.5 L89.0,6.5 " />
			<path d="M-9.0,8.0 L-9.0,7.990568314839864 L-9.0,7.962391868272736 L-9.0,7.915824995462551 L-9.0,7.851453301853629 L-9.0,7.770086298842426 L-9.0,7.672747223702045 L-9.0,7.560660171779821 L-9.0,7.435234702788101 L-9.0,7.298048114773005 L-9.0,7.150825608676337 L-9.0,6.995418592932751 L-9.0,6.8337814009344715 L-9.0,6.667946714154962 L-9.0,6.500000000000013 " />
			<path d="M89.0,8.0 L89.0,7.990568314839864 L89.0,7.962391868272736 L89.0,7.915824995462551 L89.0,7.851453301853629 L89.0,7.770086298842426 L89.0,7.672747223702045 L89.0,7.560660171779821 L89.0,7.435234702788101 L89.0,7.298048114773005 L89.0,7.150825608676337 L89.0,6.995418592932751 L89.0,6.8337814009344715 L89.0,6.667946714154962 L89.0,6.500000000000013 " />
			<path d="M80.0,14.6 L0.0,14.6 " />
			<path d="M0.0,10.5 L-4.0,10.5 " />
			<path d="M0.0,2.5 L-4.0,2.5 " />
			<path d="M84.0,10.5 L80.0,10.5 " />
			<path d="M84.0,2.5 L80.0,2.5 " />
			<path d="M89.0,8.0 L84.0,8.0 " />
			<path d="M-4.0,8.0 L-9.0,8.0 " />
			<path d="M85.0,5.0 L84.0,5.0 " />
			<path d="M-4.0,5.0 L-5.0,5.0 " />

       </g>
    </g>
    
</svg>
