<?xml version="1.0" encoding="UTF-8" standalone="no"?>
<svg
   xmlns:svg="http://www.w3.org/2000/svg"
   xmlns="http://www.w3.org/2000/svg"
   width="900.0"
   height="600.0"

>
    <g transform="scale(6.373937677053824, -6.373937677053824)   translate(17.73777777777778,-59.13777777777778)" stroke-width="0.4"  fill="none">
       <!-- hidden lines -->
       <g  stroke="rgb(180,180,180)" fill="none" stroke-dasharray="0.4,0.4" >
			<path d="M4.0,0.0 L-2.1316282072803006e-14,0.0 " />
			<path d="M-2.1316282072803006e-14,0.0 L-4.000000000000002,0.0 " />
			<path d="M12.6,0.0 L-12.600000000000001,0.0 " />
			<path d="M-4.0,-4.0 L-3.996192886327431,-3.8255224505386565 L-3.984778792366982,-3.6513770290093683 L-3.965779445495242,-3.4778952311197955 L-3.9392310120488325,-3.305407289332281 L-3.9051840284797343,-3.1342415442475913 L-3.863703305156274,-2.9647238195899206 L-3.814867802992909,-2.7971768019829115 L-3.758770483143635,-2.63191942669733 L-3.695518130045149,-2.469266270539646 L-3.6252311481466024,-2.3095269530372082 L-3.54804333271289,-2.1530055470598706 L-3.4641016151377584,-2.000000000000006 L-3.373565783251547,-1.8508015666127116 L-3.276608177155972,-1.7056942545958225 L-3.1734133611649464,-1.564954283965125 L-3.0641777724759187,-1.42884956125385 L-2.9491093472405034,-1.297639169537367 L-2.828427124746198,-1.1715728752538177 L-2.70236083046265,-1.0508906527595117 L-2.5711504387461668,-0.9358222275240959 L-2.435045716034893,-0.8265866388350673 L-2.2943057454041957,-0.7233918228440408 L-2.1491984333873075,-0.6264342167484651 L-2.000000000000013,-0.5358983848622527 L-1.846994452940149,-0.45195666728712025 L-1.6904730469628113,-0.37476885185340647 L-1.5307337294603731,-0.3044818699548588 L-1.3680805733026895,-0.24122951685637162 L-1.2028231980171074,-0.18513219700709715 L-1.0352761804100985,-0.13629669484373075 L-0.8657584557524273,-0.0948159715202701 L-0.6945927106677374,-0.06076898795117058 L-0.5221047688802227,-0.03422055450476069 L-0.3486229709906493,-0.015221207633019151 L-0.1744775494613609,-0.0038071136725696952 L-1.712031933413185e-14,0.0 " />
			<path d="M-2.1561211432632476e-14,0.0 L0.17776742974531912,-0.003952109781247604 L0.35518358129171784,-0.015800629539130195 L0.5318978705852356,-0.03552214594823466 L0.7075611004902709,-0.06307768820960913 L0.8818261508222669,-0.09841280505920436 L1.0543486642762503,-0.1414576723665597 L1.2247877268957674,-0.19212723111111574 L1.3928065417375755,-0.2503213554635093 L1.5580730944008898,-0.31592505063970844 L1.7202608091060632,-0.38880868013701697 L1.879049194026254,-0.46882822190292117 L2.0341244745968656,-0.5558255529305685 L2.1851802135513116,-0.6496287617185104 L2.3319179164578747,-0.750052487977265 L2.4740476215610863,-0.8568982889114243 L2.6112884727620753,-0.9699550313535097 L2.7433692746056315,-1.0889993089747008 L2.8700290281773153,-1.2137958837480025 L2.991017446851636,-1.3440981507915017 L3.1060954508721625,-1.4796486256731471 L3.215035639786248,-1.6201794532141225 L3.317622741800802,-1.7654129367853826 L3.4136540391711745,-1.9150620870514334 L3.502939768782544,-2.068831189077014 L3.585303497132248,-2.22641638667604 L3.6605824689720716,-2.387506282848106 L3.72862792892155,-2.551782555116051 L3.7893054154167642,-2.718920584548646 L3.8424950264137756,-2.888590097225422 L3.8880916563216426,-3.060455816876064 L3.9260052036968403,-3.234178127404725 L3.956160749288656,-3.4094137439900756 L3.9784987040837443,-3.5858163914349497 L3.992974927057286,-3.7630374884251454 L3.9995608123980757,-3.940726836345233 L3.9982433460351774,-4.118533311290244 L3.98902513135444,-4.2961055579057765 L3.9719243840540672,-4.473092683685469 L3.9469748961493942,-4.649144952353847 L3.9142259691980144,-4.823914474964401 L3.873742316877192,-4.997055897347247 L3.8256039371060866,-5.168227082547913 L3.7699059539654716,-5.33708978690875 L3.706758429727329,-5.503310328456964 L3.6362861473657615,-5.666560246278504 L3.5586283639789826,-5.826516949574865 L3.473938535609649,-5.98286435512021 L3.382384014007296,-6.135293511859176 L3.284145715932094,-6.283503211411114 L3.1794177656534024,-6.427200583274388 L3.0684071113495532,-6.566101673554556 L2.9513331161668956,-6.699932006072856 L2.8284271247461756,-6.828427124746205 L2.6999320060728262,-6.951333116166923 L2.5661016735545235,-7.06840711134958 L2.427200583274356,-7.179417765653426 L2.2835032114110834,-7.284145715932116 L2.1352935118591456,-7.3823840140073145 L1.9828643551201806,-7.4739385356096655 L1.8265169495748357,-7.558628363978998 L1.6665602462784757,-7.636286147365775 L1.503310328456937,-7.706758429727341 L1.337089786908725,-7.7699059539654804 L1.1682270825478887,-7.825603937106094 L0.9970558973472237,-7.873742316877198 L0.8239144749643801,-7.914225969198019 L0.6491449523538271,-7.946974896149397 L0.4730926836854512,-7.97192438405407 L0.2961055579057602,-7.989025131354442 L0.1185333112902285,-7.998243346035178 L-0.05927316365478014,-7.999560812398076 L-0.23696251157486597,-7.9929749270572845 L-0.4141836085650597,-7.978498704083743 L-0.5905862560099321,-7.956160749288655 L-0.7658218725952806,-7.926005203696839 L-0.9395441831239402,-7.888091656321642 L-1.11140990277458,-7.842495026413776 L-1.2810794154513543,-7.789305415416765 L-1.4482174448839478,-7.728627928921551 L-1.612493717151891,-7.660582468972073 L-1.7735836133239555,-7.58530349713225 L-1.93116881092298,-7.5029397687825465 L-2.0849379129485595,-7.413654039171179 L-2.234587063214609,-7.3176227418008075 L-2.3798205467858677,-7.2150356397862545 L-2.520351374326842,-7.106095450872171 L-2.6559018492084867,-6.991017446851647 L-2.786204116251985,-6.870029028177328 L-2.9110006910252864,-6.743369274605645 L-3.0300449686464765,-6.611288472762091 L-3.1431017110885615,-6.474047621561104 L-3.249947512022721,-6.331917916457894 L-3.3503712382814754,-6.185180213551334 L-3.4441744470694173,-6.03412447459689 L-3.531171778097065,-5.87904919402628 L-3.6111913198629697,-5.720260809106091 L-3.684074949360279,-5.558073094400919 L-3.749678644536479,-5.392806541737606 L-3.807872768888874,-5.2247877268958 L-3.858542327633431,-5.054348664276284 L-3.9015871949407877,-4.8818261508223015 L-3.9369223117903847,-4.707561100490307 L-3.9644778540517605,-4.531897870585273 L-3.9841993704608663,-4.355183581291756 L-3.9960478902187506,-4.177767429745359 L-4.0,-4.000000000000019 " />
			<path d="M-12.6,0.0 L-12.6,2.0 " />
			<path d="M13.0,0.0 L12.6,0.0 " />
			<path d="M-13.0,0.0 L-12.99602274429008,-0.32154755463993434 L-12.984093410785396,-0.6428983589956069 L-12.964219298872072,-0.9638557831714003 L-12.936412569230885,-1.2842234379753237 L-12.90069023639634,-1.6038052950867085 L-12.8570741583457,-1.9224058070030963 L-12.805591023124423,-2.2398300266929168 L-12.74627233251613,-2.555883726880751 L-12.679154382767114,-2.8703735188921806 L-12.604278242377205,-3.1831069709855155 L-12.521689726970543,-3.4938927260979837 L-12.431439371261657,-3.8025406189343416 L-12.333582398134025,-4.108861792326259 L-12.22817868484997,-4.412668812791285 L-12.11529272641265,-4.713775785220671 L-11.994993596102487,-5.011998466625896 L-11.86735490321224,-5.307154378874275 L-11.73245474800654,-5.599062920344686 L-11.590375673933476,-5.887545476435074 L-11.44120461711745,-6.172425528854146 L-11.285032853164223,-6.4535287636303424 L-11.121955941310706,-6.7306831777720335 L-10.952073665953646,-7.003719184513655 L-10.77548997559299,-7.272469717083389 L-10.592312919227316,-7.536770330928894 L-10.402654580240222,-7.796459304338546 L-10.206631007818116,-8.05137773739661 L-10.004362145941409,-8.301369649211784 L-9.795971759992543,-8.546282073359652 L-9.581587361025733,-8.785965151480621 L-9.36134012774481,-9.020272224976072 L-9.135364826236875,-9.249059924746627 L-8.903799727510888,-9.47218825891763 L-8.666786522891636,-9.68952069849814 L-8.424470237320872,-9.900924260921038 L-8.176999140618658,-10.10626959141313 L-7.924524656759209,-10.305431042145463 L-7.6672012712167605,-10.498286749115403 L-7.405186436438152,-10.684718706713454 L-7.138640475499951,-10.86461283992917 L-6.867726484009096,-11.037859074152017 L-6.5926102303070575,-11.20435140252441 L-6.313460054038595,-11.363987950805779 L-6.030446763147168,-11.51667103970795 L-5.743743529360033,-11.662307244663669 L-5.453525782226983,-11.800807452991746 L-5.159971101777539,-11.93208691842381 L-4.863259109862316,-12.05606531295933 L-4.563571360245013,-12.172666776017136 L-4.261091227512301,-12.281819960853428 L-3.9560037948695723,-12.38345807821779 L-3.648495740891212,-12.477518937220598 L-3.3387552252946846,-12.563944983386683 L-3.0269717738083393,-12.642683333872107 L-2.713336162203356,-12.713685809822401 L-2.398040299560826,-12.776908965852508 L-2.0812771108453654,-12.832314116630371 L-1.763240418857131,-12.879867360547953 L-1.444124825634456,-12.91953960046511 L-1.1241255933796905,-12.951306561513734 L-0.8034385249810885,-12.975148805951173 L-0.4822598442038635,-12.991051745053916 L-0.16078607562371153,-12.999005648044218 L0.16078607562372502,-12.999005648044218 L0.4822598442038769,-12.991051745053916 L0.803438524981102,-12.975148805951173 L1.1241255933797039,-12.951306561513734 L1.4441248256344696,-12.919539600465109 L1.7632404188571442,-12.879867360547951 L2.0812771108453787,-12.83231411663037 L2.3980402995608388,-12.776908965852504 L2.713336162203369,-12.713685809822401 L3.026971773808352,-12.642683333872105 L3.3387552252946984,-12.56394498338668 L3.648495740891225,-12.477518937220596 L3.956003794869585,-12.383458078217789 L4.261091227512314,-12.281819960853422 L4.563571360245025,-12.172666776017133 L4.863259109862328,-12.056065312959326 L5.159971101777551,-11.932086918423808 L5.4535257822269925,-11.800807452991743 L5.743743529360044,-11.662307244663664 L6.030446763147178,-11.516671039707946 L6.313460054038606,-11.363987950805775 L6.592610230307067,-11.204351402524402 L6.867726484009105,-11.03785907415201 L7.138640475499961,-10.864612839929164 L7.4051864364381625,-10.684718706713443 L7.667201271216773,-10.498286749115394 L7.924524656759222,-10.305431042145452 L8.176999140618673,-10.106269591413117 L8.424470237320888,-9.900924260921023 L8.666786522891652,-9.689520698498127 L8.903799727510904,-9.472188258917614 L9.135364826236891,-9.24905992474661 L9.361340127744826,-9.020272224976054 L9.58158736102575,-8.785965151480603 L9.795971759992561,-8.546282073359633 L10.004362145941428,-8.301369649211761 L10.206631007818133,-8.051377737396585 L10.402654580240242,-7.796459304338521 L10.592312919227338,-7.536770330928867 L10.775489975593011,-7.272469717083361 L10.952073665953666,-7.003719184513626 L11.121955941310727,-6.730683177772002 L11.285032853164239,-6.453528763630309 L11.441204617117466,-6.172425528854111 L11.590375673933494,-5.887545476435038 L11.732454748006557,-5.5990629203446485 L11.867354903212256,-5.3071543788742375 L11.994993596102502,-5.011998466625857 L12.115292726412664,-4.713775785220632 L12.228178684849984,-4.412668812791244 L12.333582398134038,-4.108861792326217 L12.43143937126167,-3.802540618934298 L12.521689726970552,-3.4938927260979398 L12.604278242377216,-3.1831069709854707 L12.679154382767123,-2.8703735188921344 L12.746272332516138,-2.5558837268807038 L12.805591023124432,-2.239830026692869 L12.857074158345707,-1.9224058070030472 L12.900690236396345,-1.6038052950866588 L12.93641256923089,-1.2842234379752733 L12.964219298872074,-0.9638557831713491 L12.9840934107854,-0.6428983589955546 L12.996022744290082,-0.3215475546398813 L13.0,5.391911039236627e-14 " />
			<path d="M-12.600000000000001,0.0 L-13.0,0.0 " />
			<path d="M-1.65,-4.0 L-1.6460684992970585,-4.113835388267136 L-1.6342927325794792,-4.227128299068828 L-1.6147288167383262,-4.339338840091795 L-1.587469982741941,-4.449932277007664 L-1.552646131347921,-4.558381581725556 L-1.5104232140668543,-4.664169943920946 L-1.4610024423277963,-4.766793233872218 L-1.4046193286141795,-4.865762404868363 L-1.3415425641395786,-4.960605823739272 L-1.2720727384117165,-5.050871518402567 L-1.1965409067865713,-5.136129331716407 L-1.115307012838845,-5.215972971374155 L-1.0287581730669106,-5.290021946072249 L-0.9373068321064074,-5.357923378724532 L-0.8413887972437247,-5.419353688082276 L-0.7414611615958165,-5.474020130746179 L-0.6380001258533414,-5.521662196221987 L-0.5314987289675097,-5.562052848371629 L-0.4224644985949529,-5.594999607343812 L-0.31141703249731256,-5.62034546682816 L-0.19888552242128296,-5.637969642261789 L-0.0854062322589453,-5.647788146422752 L0.028480057493891313,-5.6497541896674015 L0.1422306268030224,-5.6438584029043435 L0.25530340240396454,-5.630128882242431 L0.36715954102791937,-5.608631055100009 L0.47726599723533725,-5.579467368413466 L0.5850980636201846,-5.542776800430934 L0.6901418712796834,-5.498734198417644 L0.7918968386336483,-5.447549445429079 L0.8898780569236795,-5.389466460122638 L0.9836186010242227,-5.324762034374155 L1.072671754553429,-5.253744514238554 L1.1566131386801475,-5.176752330540483 L1.2350427344823178,-5.094152386097311 L1.3075867892193,-5.006338307260119 L1.3738995974338915,-4.913728568104878 L1.4336651483962617,-4.816764496212907 L1.4865986320389923,-4.715908169543969 L1.5324477962067495,-4.61164021442436 L1.5709941487526788,-4.50445751514359 L1.6020539987529863,-4.394870846074468 L1.625479331877842,-4.2834024376006035 L1.641158515747068,-4.170583487450808 L1.6490168319092662,-4.056951629300015 L1.6490168319092662,-3.943048370699979 L1.6411585157470676,-3.8294165125491864 L1.625479331877841,-3.7165975623993917 L1.602053998752985,-3.605129153925527 L1.5709941487526773,-3.4955424848564047 L1.5324477962067475,-3.3883597855756356 L1.4865986320389901,-3.284091830456026 L1.433665148396259,-3.1832355037870874 L1.3738995974338883,-3.0862714318951174 L1.3075867892192967,-2.993661692739877 L1.235042734482314,-2.9058476139026848 L1.1566131386801437,-2.8232476694595134 L1.0726717545534254,-2.7462554857614427 L0.983618601024219,-2.6752379656258416 L0.8898780569236757,-2.610533539877359 L0.7918968386336441,-2.5524505545709193 L0.6901418712796791,-2.5012658015823543 L0.5850980636201801,-2.4572231995690643 L0.47726599723533275,-2.420532631586533 L0.36715954102791476,-2.39136894489999 L0.2553034024039599,-2.369871117757568 L0.1422306268030177,-2.356141597095656 L0.028480057493886587,-2.3502458103325985 L-0.08540623225895001,-2.3522118535772476 L-0.19888552242128765,-2.3620303577382114 L-0.31141703249731717,-2.379654533171841 L-0.42246449859495744,-2.405000392656189 L-0.5314987289675142,-2.437947151628372 L-0.6380001258533458,-2.478337803778015 L-0.7414611615958208,-2.525979869253823 L-0.8413887972437287,-2.5806463119177265 L-0.9373068321064114,-2.64207662127547 L-1.0287581730669146,-2.7099780539277543 L-1.1153070128388487,-2.7840270286258484 L-1.196540906786575,-2.863870668283597 L-1.2720727384117199,-2.9491284815974375 L-1.3415425641395822,-3.0393941762607333 L-1.4046193286141826,-3.134237595131642 L-1.4610024423277992,-3.2332067661277875 L-1.510423214066857,-3.3358300560790592 L-1.5526461313479232,-3.44161841827445 L-1.5874699827419425,-3.5500677229923414 L-1.6147288167383274,-3.6606611599082113 L-1.63429273257948,-3.772871700931179 L-1.646068499297059,-3.8861646117328705 L-1.65,-4.000000000000007 " />
			<path d="M12.6,0.0 L12.6,2.0 " />
			<path d="M-12.6,2.0 L-13.6,2.0 " />
			<path d="M-14.6,0.9999999999999999 L-13.6,2.0 " />
			<path d="M-14.6,0.0 L-14.6,1.0 " />
			<path d="M-14.600000000000001,0.0 L-14.596046921220143,-0.3397267630612223 L-14.58418982554246,-0.6792695580871011 L-14.564435133793435,-1.0184445166642293 L-14.536793543487146,-1.3570679695691261 L-14.50128002303237,-1.6949565462283613 L-14.457913803626928,-2.0319272740169554 L-14.406718368843658,-2.3677976773412843 L-14.347721441913636,-2.702385876452833 L-14.280954970713564,-3.0355106859392853 L-14.206455110465429,-3.3669917128396256 L-14.124262204157814,-3.696649454330105 L-14.034420760699458,-4.024305394928187 L-13.936979430816887,-4.349782103161837 L-13.83199098070921,-4.672903327651785 L-13.719512263474265,-4.993494092554764 L-13.59960418832168,-5.311380792316013 L-13.47233168758946,-5.6263912856797464 L-13.337763681581974,-5.938354988906684 L-13.1959730412484,-6.247102968148154 L-13.04703654872182,-6.552468030926749 L-12.891034855740333,-6.8542848166740065 L-12.72805243997273,-7.152389886276072 L-12.558177559272334,-7.44662181057886 L-12.381502203883818,-7.736821257804793 L-12.198122046628873,-8.022831079833768 L-12.008136391097668,-8.304496397301635 L-11.811648117874233,-8.581664683470107 L-11.608763628824779,-8.854185846822675 L-11.399592789479227,-9.121912312341816 L-11.18424886953708,-9.384699101423472 L-10.96284848152989,-9.64240391038551 L-10.735511517673501,-9.894887187527688 L-10.50236108494431,-10.142012208701358 L-10.263523438414664,-10.383645151347999 L-10.019127912883514,-10.619655166966508 L-9.769306852839334,-10.849914451969951 L-9.514195540793251,-11.074298316893481 L-9.253932124021174,-11.29268525391587 L-8.988657539754616,-11.504957002658136 L-8.718515438860685,-11.710998614223636 L-8.44365210805261,-11.910698513444906 L-8.164216390672912,-12.103948559303603 L-7.880359606092095,-12.290644103490754 L-7.592235467766553,-12.470684047075668 L-7.300000000000009,-12.6439708952528 L-7.003811453453604,-12.81041081013689 L-6.70383021945038,-12.969913661577854 L-6.400218743120541,-13.122393075967832 L-6.0931414354345526,-13.26776648301403 L-5.7827645841717015,-13.405955160451995 L-5.469256263872329,-13.536884276675089 L-5.152786244822499,-13.660482931257153 L-4.833525901120402,-13.776684193346314 L-4.5116481178742465,-13.885425137909236 L-4.187327197581934,-13.986646879806132 L-3.860738765743169,-14.080294605678104 L-3.5320596757551654,-14.166317603629544 L-3.201467913143406,-14.244669290689524 L-2.869142499179338,-14.315307238037294 L-2.535263393937202,-14.378193193978234 L-2.2000113988424728,-14.433293104657828 L-1.8635680587647014,-14.480577132502416 L-1.5261155637077612,-14.520019672376788 L-1.1878366501507522,-14.551599365449787 L-0.848914502092969,-14.575299110760513 L-0.5095326518565367,-14.591106074478796 L-0.16987488070041956,-14.599011696854928 L0.16987488070037268,-14.59901169685493 L0.50953265185649,-14.591106074478798 L0.8489145020929222,-14.575299110760517 L1.1878366501507056,-14.551599365449789 L1.5261155637077148,-14.520019672376792 L1.8635680587646546,-14.480577132502424 L2.2000113988424266,-14.433293104657833 L2.535263393937156,-14.378193193978243 L2.869142499179292,-14.315307238037304 L3.20146791314336,-14.244669290689535 L3.53205967575512,-14.166317603629556 L3.8607387657431236,-14.080294605678118 L4.187327197581888,-13.986646879806147 L4.511648117874203,-13.885425137909252 L4.833525901120358,-13.77668419334633 L5.152786244822456,-13.660482931257171 L5.4692562638722855,-13.536884276675108 L5.782764584171659,-13.405955160452015 L6.0931414354345135,-13.267766483014052 L6.400218743120505,-13.122393075967851 L6.703830219450348,-12.969913661577873 L7.003811453453575,-12.810410810136908 L7.299999999999983,-12.643970895252814 L7.592235467766531,-12.47068404707568 L7.880359606092076,-12.290644103490767 L8.164216390672895,-12.103948559303616 L8.443652108052596,-11.910698513444917 L8.718515438860672,-11.710998614223643 L8.988657539754607,-11.504957002658141 L9.25393212402117,-11.292685253915874 L9.514195540793247,-11.074298316893485 L9.769306852839334,-10.849914451969953 L10.019127912883516,-10.619655166966506 L10.263523438414667,-10.383645151347995 L10.502361084944315,-10.14201220870135 L10.735511517673508,-9.89488718752768 L10.962848481529901,-9.6424039103855 L11.184248869537093,-9.38469910142346 L11.39959278947924,-9.1219123123418 L11.608763628824793,-8.854185846822656 L11.81164811787425,-8.581664683470086 L12.008136391097688,-8.30449639730161 L12.19812204662889,-8.022831079833741 L12.381502203883839,-7.736821257804762 L12.558177559272355,-7.446621810578826 L12.72805243997275,-7.152389886276034 L12.891034855740353,-6.854284816673967 L13.04703654872184,-6.552468030926707 L13.19597304124842,-6.247102968148108 L13.337763681581993,-5.938354988906636 L13.47233168758948,-5.626391285679696 L13.599604188321699,-5.311380792315959 L13.719512263474282,-4.993494092554707 L13.831990980709229,-4.672903327651726 L13.936979430816907,-4.349782103161776 L14.034420760699476,-4.024305394928124 L14.124262204157832,-3.6966494543300374 L14.206455110465445,-3.366991712839556 L14.280954970713578,-3.0355106859392125 L14.347721441913649,-2.7023858764527566 L14.40671836884367,-2.3677976773412053 L14.457913803626939,-2.0319272740168732 L14.501280023032379,-1.694956546228276 L14.536793543487153,-1.3570679695690382 L14.564435133793442,-1.0184445166641387 L14.584189825542463,-0.6792695580870075 L14.596046921220145,-0.339726763061126 L14.600000000000001,9.90202663092091e-14 " />
			<path d="M14.6,0.0 L14.6,1.0 " />
			<path d="M14.6,1.0 L13.6,2.0 " />
			<path d="M13.6,2.0 L12.6,2.0 " />
			<path d="M-4.0,-4.0 L-3.9960849060798944,-3.8230666130984847 L-3.9843472882997792,-3.64647958161063 L-3.9648101235976583,-3.4705845829431103 L-3.9375116568909023,-3.2957259398158554 L-3.902505326210027,-3.122245946234158 L-3.85985965809124,-2.9504841974320835 L-3.8096581334325257,-2.780776925098854 L-3.75199902407587,-2.613456339189523 L-3.6869952004355135,-2.4488499776083916 L-3.6147739105488155,-2.2872800650381793 L-3.5354765309822445,-2.1290628821700732 L-3.4492582900801114,-1.9745081465694247 L-3.356287964097795,-1.8239184063890712 L-3.2567475468142972,-1.6775884481171177 L-3.1508318932708734,-1.5358047195185436 L-3.03874833833314,-1.3988447689002528 L-2.9207162908233375,-1.2669767017972267 L-2.7969668040172566,-1.1404586561433505 L-2.6677421233466037,-1.0195382969542863 L-2.5332952121921886,-0.9044523315115733 L-2.39388925669623,-0.795426045997008 L-2.2497971505631233,-0.6926728644843658 L-2.101300960857196,-0.5963939311517521 L-1.9486913758431865,-0.5067777165324294 L-1.7922671359503142,-0.42399964857489714 L-1.6323344489738596,-0.34822176923444514 L-1.4692063906590267,-0.279592417268415 L-1.303202291840469,-0.21824593785611857 L-1.1346471133371856,-0.16430241961183922 L-0.963870809826456,-0.1178674595057303 L-0.791207683942067,-0.07903195615278813 L-0.6169957318612068,-0.04787193187454353 L-0.4415759816610762,-0.024448383881797042 L-0.2652918257404126,-0.008807164869715667 L-0.08848834861274403,-0.000978893259028002 L0.08848834861275154,-0.000978893259028002 L0.2652918257404201,-0.008807164869716111 L0.4415759816610837,-0.024448383881797486 L0.6169957318612143,-0.047871931874544416 L0.7912076839420744,-0.0790319561527899 L0.9638708098264632,-0.11786745950573208 L1.1346471133371927,-0.16430241961184144 L1.3032022918404762,-0.2182459378561208 L1.4692063906590338,-0.27959241726841766 L1.6323344489738665,-0.34822176923444825 L1.79226713595032,-0.42399964857490025 L1.9486913758431916,-0.5067777165324321 L2.1013009608572,-0.5963939311517548 L2.249797150563127,-0.692672864484368 L2.3938892566962333,-0.7954260459970106 L2.5332952121921912,-0.9044523315115756 L2.667742123346606,-1.0195382969542885 L2.796966804017259,-1.1404586561433523 L2.920716290823339,-1.266976701797228 L3.0387483383331415,-1.398844768900254 L3.1508318932708743,-1.535804719518545 L3.2567475468142977,-1.6775884481171182 L3.356287964097795,-1.8239184063890717 L3.4492582900801114,-1.9745081465694247 L3.5354765309822445,-2.1290628821700723 L3.614773910548815,-2.2872800650381784 L3.686995200435513,-2.4488499776083903 L3.7519990240758694,-2.613456339189521 L3.809658133432525,-2.780776925098851 L3.859859658091239,-2.950484197432081 L3.9025053262100267,-3.1222459462341545 L3.937511656890902,-3.2957259398158514 L3.964810123597658,-3.470584582943106 L3.984347288299779,-3.6464795816106252 L3.996084906079894,-3.8230666130984794 L4.0,-3.9999999999999942 " />
			<path d="M-12.600000000000001,0.0 L-13.0,0.0 " />
			<path d="M12.6,0.0 L-12.600000000000001,0.0 " />
			<path d="M-2.1316282072803006e-14,0.0 L-12.6,0.0 " />
			<path d="M12.6,0.0 L-2.1316282072803006e-14,0.0 " />
			<path d="M-4.0,-4.0 L-3.996192886327431,-3.8255224505386565 L-3.984778792366982,-3.6513770290093683 L-3.965779445495242,-3.4778952311197955 L-3.9392310120488325,-3.305407289332281 L-3.9051840284797343,-3.1342415442475913 L-3.863703305156274,-2.9647238195899206 L-3.814867802992909,-2.7971768019829115 L-3.758770483143635,-2.63191942669733 L-3.695518130045149,-2.469266270539646 L-3.6252311481466024,-2.3095269530372082 L-3.54804333271289,-2.1530055470598706 L-3.4641016151377584,-2.000000000000006 L-3.373565783251547,-1.8508015666127116 L-3.276608177155972,-1.7056942545958225 L-3.1734133611649464,-1.564954283965125 L-3.0641777724759187,-1.42884956125385 L-2.9491093472405034,-1.297639169537367 L-2.828427124746198,-1.1715728752538177 L-2.70236083046265,-1.0508906527595117 L-2.5711504387461668,-0.9358222275240959 L-2.435045716034893,-0.8265866388350673 L-2.2943057454041957,-0.7233918228440408 L-2.1491984333873075,-0.6264342167484651 L-2.000000000000013,-0.5358983848622527 L-1.846994452940149,-0.45195666728712025 L-1.6904730469628113,-0.37476885185340647 L-1.5307337294603731,-0.3044818699548588 L-1.3680805733026895,-0.24122951685637162 L-1.2028231980171074,-0.18513219700709715 L-1.0352761804100985,-0.13629669484373075 L-0.8657584557524273,-0.0948159715202701 L-0.6945927106677374,-0.06076898795117058 L-0.5221047688802227,-0.03422055450476069 L-0.3486229709906493,-0.015221207633019151 L-0.1744775494613609,-0.0038071136725696952 L-1.712031933413185e-14,0.0 " />
			<path d="M-2.1561211432632476e-14,0.0 L0.17776742974531912,-0.003952109781247604 L0.35518358129171784,-0.015800629539130195 L0.5318978705852356,-0.03552214594823466 L0.7075611004902709,-0.06307768820960913 L0.8818261508222669,-0.09841280505920436 L1.0543486642762503,-0.1414576723665597 L1.2247877268957674,-0.19212723111111574 L1.3928065417375755,-0.2503213554635093 L1.5580730944008898,-0.31592505063970844 L1.7202608091060632,-0.38880868013701697 L1.879049194026254,-0.46882822190292117 L2.0341244745968656,-0.5558255529305685 L2.1851802135513116,-0.6496287617185104 L2.3319179164578747,-0.750052487977265 L2.4740476215610863,-0.8568982889114243 L2.6112884727620753,-0.9699550313535097 L2.7433692746056315,-1.0889993089747008 L2.8700290281773153,-1.2137958837480025 L2.991017446851636,-1.3440981507915017 L3.1060954508721625,-1.4796486256731471 L3.215035639786248,-1.6201794532141225 L3.317622741800802,-1.7654129367853826 L3.4136540391711745,-1.9150620870514334 L3.502939768782544,-2.068831189077014 L3.585303497132248,-2.22641638667604 L3.6605824689720716,-2.387506282848106 L3.72862792892155,-2.551782555116051 L3.7893054154167642,-2.718920584548646 L3.8424950264137756,-2.888590097225422 L3.8880916563216426,-3.060455816876064 L3.9260052036968403,-3.234178127404725 L3.956160749288656,-3.4094137439900756 L3.9784987040837443,-3.5858163914349497 L3.992974927057286,-3.7630374884251454 L3.9995608123980757,-3.940726836345233 L3.9982433460351774,-4.118533311290244 L3.98902513135444,-4.2961055579057765 L3.9719243840540672,-4.473092683685469 L3.9469748961493942,-4.649144952353847 L3.9142259691980144,-4.823914474964401 L3.873742316877192,-4.997055897347247 L3.8256039371060866,-5.168227082547913 L3.7699059539654716,-5.33708978690875 L3.706758429727329,-5.503310328456964 L3.6362861473657615,-5.666560246278504 L3.5586283639789826,-5.826516949574865 L3.473938535609649,-5.98286435512021 L3.382384014007296,-6.135293511859176 L3.284145715932094,-6.283503211411114 L3.1794177656534024,-6.427200583274388 L3.0684071113495532,-6.566101673554556 L2.9513331161668956,-6.699932006072856 L2.8284271247461756,-6.828427124746205 L2.6999320060728262,-6.951333116166923 L2.5661016735545235,-7.06840711134958 L2.427200583274356,-7.179417765653426 L2.2835032114110834,-7.284145715932116 L2.1352935118591456,-7.3823840140073145 L1.9828643551201806,-7.4739385356096655 L1.8265169495748357,-7.558628363978998 L1.6665602462784757,-7.636286147365775 L1.503310328456937,-7.706758429727341 L1.337089786908725,-7.7699059539654804 L1.1682270825478887,-7.825603937106094 L0.9970558973472237,-7.873742316877198 L0.8239144749643801,-7.914225969198019 L0.6491449523538271,-7.946974896149397 L0.4730926836854512,-7.97192438405407 L0.2961055579057602,-7.989025131354442 L0.1185333112902285,-7.998243346035178 L-0.05927316365478014,-7.999560812398076 L-0.23696251157486597,-7.9929749270572845 L-0.4141836085650597,-7.978498704083743 L-0.5905862560099321,-7.956160749288655 L-0.7658218725952806,-7.926005203696839 L-0.9395441831239402,-7.888091656321642 L-1.11140990277458,-7.842495026413776 L-1.2810794154513543,-7.789305415416765 L-1.4482174448839478,-7.728627928921551 L-1.612493717151891,-7.660582468972073 L-1.7735836133239555,-7.58530349713225 L-1.93116881092298,-7.5029397687825465 L-2.0849379129485595,-7.413654039171179 L-2.234587063214609,-7.3176227418008075 L-2.3798205467858677,-7.2150356397862545 L-2.520351374326842,-7.106095450872171 L-2.6559018492084867,-6.991017446851647 L-2.786204116251985,-6.870029028177328 L-2.9110006910252864,-6.743369274605645 L-3.0300449686464765,-6.611288472762091 L-3.1431017110885615,-6.474047621561104 L-3.249947512022721,-6.331917916457894 L-3.3503712382814754,-6.185180213551334 L-3.4441744470694173,-6.03412447459689 L-3.531171778097065,-5.87904919402628 L-3.6111913198629697,-5.720260809106091 L-3.684074949360279,-5.558073094400919 L-3.749678644536479,-5.392806541737606 L-3.807872768888874,-5.2247877268958 L-3.858542327633431,-5.054348664276284 L-3.9015871949407877,-4.8818261508223015 L-3.9369223117903847,-4.707561100490307 L-3.9644778540517605,-4.531897870585273 L-3.9841993704608663,-4.355183581291756 L-3.9960478902187506,-4.177767429745359 L-4.0,-4.000000000000019 " />
			<path d="M13.0,0.0 L12.6,0.0 " />
			<path d="M-13.0,0.0 L-12.99602274429008,-0.32154755463993434 L-12.984093410785396,-0.6428983589956069 L-12.964219298872072,-0.9638557831714003 L-12.936412569230885,-1.2842234379753237 L-12.90069023639634,-1.6038052950867085 L-12.8570741583457,-1.9224058070030963 L-12.805591023124423,-2.2398300266929168 L-12.74627233251613,-2.555883726880751 L-12.679154382767114,-2.8703735188921806 L-12.604278242377205,-3.1831069709855155 L-12.521689726970543,-3.4938927260979837 L-12.431439371261657,-3.8025406189343416 L-12.333582398134025,-4.108861792326259 L-12.22817868484997,-4.412668812791285 L-12.11529272641265,-4.713775785220671 L-11.994993596102487,-5.011998466625896 L-11.86735490321224,-5.307154378874275 L-11.73245474800654,-5.599062920344686 L-11.590375673933476,-5.887545476435074 L-11.44120461711745,-6.172425528854146 L-11.285032853164223,-6.4535287636303424 L-11.121955941310706,-6.7306831777720335 L-10.952073665953646,-7.003719184513655 L-10.77548997559299,-7.272469717083389 L-10.592312919227316,-7.536770330928894 L-10.402654580240222,-7.796459304338546 L-10.206631007818116,-8.05137773739661 L-10.004362145941409,-8.301369649211784 L-9.795971759992543,-8.546282073359652 L-9.581587361025733,-8.785965151480621 L-9.36134012774481,-9.020272224976072 L-9.135364826236875,-9.249059924746627 L-8.903799727510888,-9.47218825891763 L-8.666786522891636,-9.68952069849814 L-8.424470237320872,-9.900924260921038 L-8.176999140618658,-10.10626959141313 L-7.924524656759209,-10.305431042145463 L-7.6672012712167605,-10.498286749115403 L-7.405186436438152,-10.684718706713454 L-7.138640475499951,-10.86461283992917 L-6.867726484009096,-11.037859074152017 L-6.5926102303070575,-11.20435140252441 L-6.313460054038595,-11.363987950805779 L-6.030446763147168,-11.51667103970795 L-5.743743529360033,-11.662307244663669 L-5.453525782226983,-11.800807452991746 L-5.159971101777539,-11.93208691842381 L-4.863259109862316,-12.05606531295933 L-4.563571360245013,-12.172666776017136 L-4.261091227512301,-12.281819960853428 L-3.9560037948695723,-12.38345807821779 L-3.648495740891212,-12.477518937220598 L-3.3387552252946846,-12.563944983386683 L-3.0269717738083393,-12.642683333872107 L-2.713336162203356,-12.713685809822401 L-2.398040299560826,-12.776908965852508 L-2.0812771108453654,-12.832314116630371 L-1.763240418857131,-12.879867360547953 L-1.444124825634456,-12.91953960046511 L-1.1241255933796905,-12.951306561513734 L-0.8034385249810885,-12.975148805951173 L-0.4822598442038635,-12.991051745053916 L-0.16078607562371153,-12.999005648044218 L0.16078607562372502,-12.999005648044218 L0.4822598442038769,-12.991051745053916 L0.803438524981102,-12.975148805951173 L1.1241255933797039,-12.951306561513734 L1.4441248256344696,-12.919539600465109 L1.7632404188571442,-12.879867360547951 L2.0812771108453787,-12.83231411663037 L2.3980402995608388,-12.776908965852504 L2.713336162203369,-12.713685809822401 L3.026971773808352,-12.642683333872105 L3.3387552252946984,-12.56394498338668 L3.648495740891225,-12.477518937220596 L3.956003794869585,-12.383458078217789 L4.261091227512314,-12.281819960853422 L4.563571360245025,-12.172666776017133 L4.863259109862328,-12.056065312959326 L5.159971101777551,-11.932086918423808 L5.4535257822269925,-11.800807452991743 L5.743743529360044,-11.662307244663664 L6.030446763147178,-11.516671039707946 L6.313460054038606,-11.363987950805775 L6.592610230307067,-11.204351402524402 L6.867726484009105,-11.03785907415201 L7.138640475499961,-10.864612839929164 L7.4051864364381625,-10.684718706713443 L7.667201271216773,-10.498286749115394 L7.924524656759222,-10.305431042145452 L8.176999140618673,-10.106269591413117 L8.424470237320888,-9.900924260921023 L8.666786522891652,-9.689520698498127 L8.903799727510904,-9.472188258917614 L9.135364826236891,-9.24905992474661 L9.361340127744826,-9.020272224976054 L9.58158736102575,-8.785965151480603 L9.795971759992561,-8.546282073359633 L10.004362145941428,-8.301369649211761 L10.206631007818133,-8.051377737396585 L10.402654580240242,-7.796459304338521 L10.592312919227338,-7.536770330928867 L10.775489975593011,-7.272469717083361 L10.952073665953666,-7.003719184513626 L11.121955941310727,-6.730683177772002 L11.285032853164239,-6.453528763630309 L11.441204617117466,-6.172425528854111 L11.590375673933494,-5.887545476435038 L11.732454748006557,-5.5990629203446485 L11.867354903212256,-5.3071543788742375 L11.994993596102502,-5.011998466625857 L12.115292726412664,-4.713775785220632 L12.228178684849984,-4.412668812791244 L12.333582398134038,-4.108861792326217 L12.43143937126167,-3.802540618934298 L12.521689726970552,-3.4938927260979398 L12.604278242377216,-3.1831069709854707 L12.679154382767123,-2.8703735188921344 L12.746272332516138,-2.5558837268807038 L12.805591023124432,-2.239830026692869 L12.857074158345707,-1.9224058070030472 L12.900690236396345,-1.6038052950866588 L12.93641256923089,-1.2842234379752733 L12.964219298872074,-0.9638557831713491 L12.9840934107854,-0.6428983589955546 L12.996022744290082,-0.3215475546398813 L13.0,5.391911039236627e-14 " />
			<path d="M1.65,-4.0 L1.6461534691643895,-3.8874000179482926 L1.6346318109599456,-3.7753250289911926 L1.6154887446758326,-3.6642975784631537 L1.5888135241238686,-3.554835327590909 L1.5547305214960532,-3.4474486399178716 L1.5133986474839967,-3.3426382017537 L1.4650106103639182,-3.2408926877435973 L1.4097920175017047,-3.142686482441533 L1.3480003234672278,-3.048477468510467 L1.2799236296622907,-2.958704891862011 L1.2058793410589026,-2.8737873136892187 L1.1262126863107764,-2.794120658941093 L1.041295108137984,-2.720076370337705 L0.9515225314895274,-2.6519996765327685 L0.8573135175584615,-2.5902079824982915 L0.7591073122563967,-2.5349893896360784 L0.6573617982462937,-2.4866013525160007 L0.552551360082122,-2.4452694785039446 L0.4451646724090844,-2.4111864758761294 L0.33570242153683977,-2.384511255324166 L0.22467497100880054,-2.3653681890400535 L0.11259998205170042,-2.35384653083561 L-7.024371879737063e-15,-2.35 L-0.11259998205171443,-2.353846530835611 L-0.22467497100881442,-2.3653681890400557 L-0.33570242153685353,-2.3845112553241687 L-0.445164672409098,-2.4111864758761334 L-0.5525513600821352,-2.445269478503949 L-0.6573617982463065,-2.486601352516006 L-0.7591073122564092,-2.534989389636085 L-0.8573135175584736,-2.590207982498299 L-0.9515225314895387,-2.6519996765327765 L-1.0412951081379949,-2.720076370337714 L-1.1262126863107869,-2.794120658941102 L-1.2058793410589121,-2.8737873136892285 L-1.2799236296622996,-2.9587048918620216 L-1.3480003234672358,-3.0484774685104785 L-1.409792017501712,-3.142686482441545 L-1.4650106103639244,-3.2408926877436097 L-1.5133986474840024,-3.342638201753713 L-1.554730521496058,-3.447448639917885 L-1.5888135241238723,-3.5548353275909226 L-1.6154887446758353,-3.6642975784631675 L-1.6346318109599476,-3.775325028991207 L-1.6461534691643906,-3.887400017948307 L-1.65,-4.000000000000014 " />
			<path d="M-1.65,-4.0 L-1.6460684992970585,-4.113835388267136 L-1.6342927325794792,-4.227128299068828 L-1.6147288167383262,-4.339338840091795 L-1.587469982741941,-4.449932277007664 L-1.552646131347921,-4.558381581725556 L-1.5104232140668543,-4.664169943920946 L-1.4610024423277963,-4.766793233872218 L-1.4046193286141795,-4.865762404868363 L-1.3415425641395786,-4.960605823739272 L-1.2720727384117165,-5.050871518402567 L-1.1965409067865713,-5.136129331716407 L-1.115307012838845,-5.215972971374155 L-1.0287581730669106,-5.290021946072249 L-0.9373068321064074,-5.357923378724532 L-0.8413887972437247,-5.419353688082276 L-0.7414611615958165,-5.474020130746179 L-0.6380001258533414,-5.521662196221987 L-0.5314987289675097,-5.562052848371629 L-0.4224644985949529,-5.594999607343812 L-0.31141703249731256,-5.62034546682816 L-0.19888552242128296,-5.637969642261789 L-0.0854062322589453,-5.647788146422752 L0.028480057493891313,-5.6497541896674015 L0.1422306268030224,-5.6438584029043435 L0.25530340240396454,-5.630128882242431 L0.36715954102791937,-5.608631055100009 L0.47726599723533725,-5.579467368413466 L0.5850980636201846,-5.542776800430934 L0.6901418712796834,-5.498734198417644 L0.7918968386336483,-5.447549445429079 L0.8898780569236795,-5.389466460122638 L0.9836186010242227,-5.324762034374155 L1.072671754553429,-5.253744514238554 L1.1566131386801475,-5.176752330540483 L1.2350427344823178,-5.094152386097311 L1.3075867892193,-5.006338307260119 L1.3738995974338915,-4.913728568104878 L1.4336651483962617,-4.816764496212907 L1.4865986320389923,-4.715908169543969 L1.5324477962067495,-4.61164021442436 L1.5709941487526788,-4.50445751514359 L1.6020539987529863,-4.394870846074468 L1.625479331877842,-4.2834024376006035 L1.641158515747068,-4.170583487450808 L1.6490168319092662,-4.056951629300015 L1.6490168319092662,-3.943048370699979 L1.6411585157470676,-3.8294165125491864 L1.625479331877841,-3.7165975623993917 L1.602053998752985,-3.605129153925527 L1.5709941487526773,-3.4955424848564047 L1.5324477962067475,-3.3883597855756356 L1.4865986320389901,-3.284091830456026 L1.433665148396259,-3.1832355037870874 L1.3738995974338883,-3.0862714318951174 L1.3075867892192967,-2.993661692739877 L1.235042734482314,-2.9058476139026848 L1.1566131386801437,-2.8232476694595134 L1.0726717545534254,-2.7462554857614427 L0.983618601024219,-2.6752379656258416 L0.8898780569236757,-2.610533539877359 L0.7918968386336441,-2.5524505545709193 L0.6901418712796791,-2.5012658015823543 L0.5850980636201801,-2.4572231995690643 L0.47726599723533275,-2.420532631586533 L0.36715954102791476,-2.39136894489999 L0.2553034024039599,-2.369871117757568 L0.1422306268030177,-2.356141597095656 L0.028480057493886587,-2.3502458103325985 L-0.08540623225895001,-2.3522118535772476 L-0.19888552242128765,-2.3620303577382114 L-0.31141703249731717,-2.379654533171841 L-0.42246449859495744,-2.405000392656189 L-0.5314987289675142,-2.437947151628372 L-0.6380001258533458,-2.478337803778015 L-0.7414611615958208,-2.525979869253823 L-0.8413887972437287,-2.5806463119177265 L-0.9373068321064114,-2.64207662127547 L-1.0287581730669146,-2.7099780539277543 L-1.1153070128388487,-2.7840270286258484 L-1.196540906786575,-2.863870668283597 L-1.2720727384117199,-2.9491284815974375 L-1.3415425641395822,-3.0393941762607333 L-1.4046193286141826,-3.134237595131642 L-1.4610024423277992,-3.2332067661277875 L-1.510423214066857,-3.3358300560790592 L-1.5526461313479232,-3.44161841827445 L-1.5874699827419425,-3.5500677229923414 L-1.6147288167383274,-3.6606611599082113 L-1.63429273257948,-3.772871700931179 L-1.646068499297059,-3.8861646117328705 L-1.65,-4.000000000000007 " />
			<path d="M-4.0,-4.0 L-3.9960291851288026,-3.821812594163231 L-3.9841246242005814,-3.6439789629269406 L-3.9643099526191206,-3.466852178504885 L-3.9366245105807116,-3.290783909731898 L-3.9011232649678362,-3.116123723857976 L-3.8578767002175063,-2.943218392514856 L-3.806970678380942,-2.7724112032330406 L-3.748506268652414,-2.604041277876184 L-3.682599546705715,-2.438442899346021 L-3.6093813642366546,-2.275944847894608 L-3.528997089169127,-2.1168697483615673 L-3.4416063170405575,-1.9615334296323303 L-3.3473825541397324,-1.8102442975891209 L-3.246512873026125,-1.6633027227996227 L-3.1391975411146444,-1.521000444159021 L-3.025649623063222,-1.3836199896694321 L-2.9060945577526534,-1.2514341155067048 L-2.78076971069857,-1.1247052644882838 L-2.6499239027841783,-1.003685045017285 L-2.513816916249428,-0.8886137315373044 L-2.3727189789174226,-0.7797197874897495 L-2.2269102276820885,-0.6772194117208237 L-2.0766801523223033,-0.5813161092387302 L-1.9223270207467376,-0.4922002871733153 L-1.7641572868105289,-0.4100488767403374 L-1.6024849818795213,-0.335024981960915 L-1.4376310913500545,-0.2672775558335907 L-1.2699229173621738,-0.20694110460194093 L-1.099693428971525,-0.1541354207048773 L-0.9272806010701171,-0.10896534493985222 L-0.7530267433684582,-0.07152055831115556 L-0.577277820771311,-0.04187540397658429 L-0.4003827664963982,-0.020088739645984344 L-0.22269278929979788,-0.0062038207247137045 L-0.04456067618346754,-0.0002482144340416603 L0.13365990803069278,-0.0022337450789815527 L0.3116151228696075,-0.012156470572226574 L0.4889516547265319,-0.029996690260801984 L0.665317418332514,-0.055718984039884845 L0.8403622557891054,-0.0892722826761454 L1.0137386317744568,-0.13058996920098265 L1.1851023235425293,-0.17959001117234807 L1.3541131043454955,-0.23617512354256753 L1.5204354189224523,-0.3002329618087969 L1.683739049713333,-0.37163634506263366 L1.843699772475306,-0.4502435084960399 L1.9999999999999947,-0.5358983848622425 L2.152329412653486,-0.6284309143328088 L2.3003855744872372,-0.7276573821356935 L2.443874533696658,-0.8333807833039124 L2.582511406235207,-0.9453912138106695 L2.716020941425298,-1.0634662873143719 L2.8441380684430415,-1.1873715766861266 L2.966608422591829,-1.3168610794431048 L3.083188850319893,-1.451677706163701 L3.193647891979177,-1.5915537909147819 L3.2977662413670417,-1.7362116226776196 L3.3953371811384296,-1.8853639967174152 L3.4861669932240207,-2.038714784801713 L3.570075343439526,-2.1959595231355946 L3.646895639522519,-2.3567860168463644 L3.716475361885952,-2.520874959817567 L3.7786763664316765,-2.6879005686417274 L3.833375158822767,-2.8575312294331523 L3.8804631396700917,-3.0294301562165993 L3.9198468201463483,-3.2032560595846618 L3.951448007599479,-3.378663824296293 L3.97520396079694,-3.555305194471173 L3.991067514492613,-3.732829465019522 L3.9990071730690366,-3.910884177934594 L3.999007173069036,-4.089115822065424 L3.9910675144926118,-4.2671705349804965 L3.9752039607969376,-4.4446948055288455 L3.9514480075994762,-4.621336175703725 L3.919846820146345,-4.7967439404153565 L3.8804631396700873,-4.9705698437834185 L3.833375158822762,-5.1424687705668655 L3.7786763664316707,-5.312099431358289 L3.7164753618859447,-5.479125040182451 L3.6468956395225116,-5.643213983153653 L3.5700753434395174,-5.804040476864422 L3.4861669932240114,-5.961285215198304 L3.39533718113842,-6.1146360032826 L3.297766241367031,-6.2637883773223955 L3.193647891979166,-6.408446209085233 L3.0831888503198814,-6.548322293836313 L2.9666084225918166,-6.6831389205569085 L2.8441380684430286,-6.812628423313886 L2.7160209414252843,-6.936533712685641 L2.582511406235194,-7.054608786189341 L2.443874533696646,-7.1666192166960965 L2.3003855744872266,-7.2723426178643145 L2.152329412653476,-7.371569085667197 L1.9999999999999862,-7.464101615137762 L1.8436997724752988,-7.549756491503964 L1.6837390497133276,-7.628363654937369 L1.5204354189224474,-7.6997670381912044 L1.3541131043454913,-7.763824876457434 L1.185102323542526,-7.820409988827652 L1.0137386317744541,-7.869410030799018 L0.8403622557891037,-7.910727717323855 L0.6653174183325132,-7.944281015960115 L0.488951654726532,-7.970003309739198 L0.31161512286960846,-7.9878435294277725 L0.13365990803069464,-7.997766254921018 L-0.044560676183464785,-7.999751785565959 L-0.22269278929979425,-7.993796179275287 L-0.4003827664963937,-7.979911260354016 L-0.5772778207713056,-7.958124596023416 L-0.7530267433684521,-7.928479441688845 L-0.9272806010701101,-7.89103465506015 L-1.0996934289715172,-7.8458645792951245 L-1.2699229173621653,-7.793058895398062 L-1.4376310913500454,-7.732722444166413 L-1.6024849818795113,-7.664975018039089 L-1.7641572868105184,-7.589951123259668 L-1.9223270207467267,-7.5077997128266905 L-2.0766801523222918,-7.418683890761277 L-2.2269102276820765,-7.322780588279184 L-2.37271897891741,-7.220280212510259 L-2.5138169162494157,-7.111386268462706 L-2.6499239027841655,-6.996314954982726 L-2.780769710698557,-6.875294735511728 L-2.9060945577526405,-6.748565884493308 L-3.025649623063209,-6.616380010330583 L-3.1391975411146316,-6.4789995558409945 L-3.2465128730261124,-6.336697277200395 L-3.34738255413972,-6.189755702410897 L-3.4416063170405455,-6.03846657036769 L-3.5289970891691156,-5.8831302516384545 L-3.6093813642366435,-5.724055152105415 L-3.682599546705705,-5.561557100654004 L-3.748506268652404,-5.395958722123842 L-3.806970678380933,-5.2275887967669865 L-3.8578767002174983,-5.056781607485172 L-3.901123264967829,-4.883876276142054 L-3.936624510580706,-4.709216090268133 L-3.964309952619116,-4.533147821495148 L-3.9841246242005783,-4.356021037073093 L-3.9960291851288012,-4.1781874058368045 L-4.0,-4.000000000000036 " />
			<path d="M-1.65,-4.0 L-1.6460684992970585,-4.113835388267136 L-1.6342927325794792,-4.227128299068828 L-1.6147288167383262,-4.339338840091795 L-1.587469982741941,-4.449932277007664 L-1.552646131347921,-4.558381581725556 L-1.5104232140668543,-4.664169943920946 L-1.4610024423277963,-4.766793233872218 L-1.4046193286141795,-4.865762404868363 L-1.3415425641395786,-4.960605823739272 L-1.2720727384117165,-5.050871518402567 L-1.1965409067865713,-5.136129331716407 L-1.115307012838845,-5.215972971374155 L-1.0287581730669106,-5.290021946072249 L-0.9373068321064074,-5.357923378724532 L-0.8413887972437247,-5.419353688082276 L-0.7414611615958165,-5.474020130746179 L-0.6380001258533414,-5.521662196221987 L-0.5314987289675097,-5.562052848371629 L-0.4224644985949529,-5.594999607343812 L-0.31141703249731256,-5.62034546682816 L-0.19888552242128296,-5.637969642261789 L-0.0854062322589453,-5.647788146422752 L0.028480057493891313,-5.6497541896674015 L0.1422306268030224,-5.6438584029043435 L0.25530340240396454,-5.630128882242431 L0.36715954102791937,-5.608631055100009 L0.47726599723533725,-5.579467368413466 L0.5850980636201846,-5.542776800430934 L0.6901418712796834,-5.498734198417644 L0.7918968386336483,-5.447549445429079 L0.8898780569236795,-5.389466460122638 L0.9836186010242227,-5.324762034374155 L1.072671754553429,-5.253744514238554 L1.1566131386801475,-5.176752330540483 L1.2350427344823178,-5.094152386097311 L1.3075867892193,-5.006338307260119 L1.3738995974338915,-4.913728568104878 L1.4336651483962617,-4.816764496212907 L1.4865986320389923,-4.715908169543969 L1.5324477962067495,-4.61164021442436 L1.5709941487526788,-4.50445751514359 L1.6020539987529863,-4.394870846074468 L1.625479331877842,-4.2834024376006035 L1.641158515747068,-4.170583487450808 L1.6490168319092662,-4.056951629300015 L1.6490168319092662,-3.943048370699979 L1.6411585157470676,-3.8294165125491864 L1.625479331877841,-3.7165975623993917 L1.602053998752985,-3.605129153925527 L1.5709941487526773,-3.4955424848564047 L1.5324477962067475,-3.3883597855756356 L1.4865986320389901,-3.284091830456026 L1.433665148396259,-3.1832355037870874 L1.3738995974338883,-3.0862714318951174 L1.3075867892192967,-2.993661692739877 L1.235042734482314,-2.9058476139026848 L1.1566131386801437,-2.8232476694595134 L1.0726717545534254,-2.7462554857614427 L0.983618601024219,-2.6752379656258416 L0.8898780569236757,-2.610533539877359 L0.7918968386336441,-2.5524505545709193 L0.6901418712796791,-2.5012658015823543 L0.5850980636201801,-2.4572231995690643 L0.47726599723533275,-2.420532631586533 L0.36715954102791476,-2.39136894489999 L0.2553034024039599,-2.369871117757568 L0.1422306268030177,-2.356141597095656 L0.028480057493886587,-2.3502458103325985 L-0.08540623225895001,-2.3522118535772476 L-0.19888552242128765,-2.3620303577382114 L-0.31141703249731717,-2.379654533171841 L-0.42246449859495744,-2.405000392656189 L-0.5314987289675142,-2.437947151628372 L-0.6380001258533458,-2.478337803778015 L-0.7414611615958208,-2.525979869253823 L-0.8413887972437287,-2.5806463119177265 L-0.9373068321064114,-2.64207662127547 L-1.0287581730669146,-2.7099780539277543 L-1.1153070128388487,-2.7840270286258484 L-1.196540906786575,-2.863870668283597 L-1.2720727384117199,-2.9491284815974375 L-1.3415425641395822,-3.0393941762607333 L-1.4046193286141826,-3.134237595131642 L-1.4610024423277992,-3.2332067661277875 L-1.510423214066857,-3.3358300560790592 L-1.5526461313479232,-3.44161841827445 L-1.5874699827419425,-3.5500677229923414 L-1.6147288167383274,-3.6606611599082113 L-1.63429273257948,-3.772871700931179 L-1.646068499297059,-3.8861646117328705 L-1.65,-4.000000000000007 " />
			<path d="M4.0,-4.0 L4.0,56.0 " />
			<path d="M4.0,-4.0 L1.65,-4.0 " />
			<path d="M4.0,56.0 L-4.0,56.0 " />
			<path d="M-4.0,-4.0 L-4.0,56.0 " />
			<path d="M-1.6500000000000004,-4.0 L-4.0,-4.0 " />
			<path d="M1.65,-4.0 L1.6461534691643895,-3.8874000179482926 L1.6346318109599456,-3.7753250289911926 L1.6154887446758326,-3.6642975784631537 L1.5888135241238686,-3.554835327590909 L1.5547305214960532,-3.4474486399178716 L1.5133986474839967,-3.3426382017537 L1.4650106103639182,-3.2408926877435973 L1.4097920175017047,-3.142686482441533 L1.3480003234672278,-3.048477468510467 L1.2799236296622907,-2.958704891862011 L1.2058793410589026,-2.8737873136892187 L1.1262126863107764,-2.794120658941093 L1.041295108137984,-2.720076370337705 L0.9515225314895274,-2.6519996765327685 L0.8573135175584615,-2.5902079824982915 L0.7591073122563967,-2.5349893896360784 L0.6573617982462937,-2.4866013525160007 L0.552551360082122,-2.4452694785039446 L0.4451646724090844,-2.4111864758761294 L0.33570242153683977,-2.384511255324166 L0.22467497100880054,-2.3653681890400535 L0.11259998205170042,-2.35384653083561 L-7.024371879737063e-15,-2.35 L-0.11259998205171443,-2.353846530835611 L-0.22467497100881442,-2.3653681890400557 L-0.33570242153685353,-2.3845112553241687 L-0.445164672409098,-2.4111864758761334 L-0.5525513600821352,-2.445269478503949 L-0.6573617982463065,-2.486601352516006 L-0.7591073122564092,-2.534989389636085 L-0.8573135175584736,-2.590207982498299 L-0.9515225314895387,-2.6519996765327765 L-1.0412951081379949,-2.720076370337714 L-1.1262126863107869,-2.794120658941102 L-1.2058793410589121,-2.8737873136892285 L-1.2799236296622996,-2.9587048918620216 L-1.3480003234672358,-3.0484774685104785 L-1.409792017501712,-3.142686482441545 L-1.4650106103639244,-3.2408926877436097 L-1.5133986474840024,-3.342638201753713 L-1.554730521496058,-3.447448639917885 L-1.5888135241238723,-3.5548353275909226 L-1.6154887446758353,-3.6642975784631675 L-1.6346318109599476,-3.775325028991207 L-1.6461534691643906,-3.887400017948307 L-1.65,-4.000000000000014 " />
			<path d="M-1.65,-4.0 L-1.6461534691643895,-3.887400017948293 L-1.6346318109599456,-3.775325028991193 L-1.6154887446758328,-3.664297578463154 L-1.5888135241238686,-3.55483532759091 L-1.5547305214960538,-3.447448639917873 L-1.5133986474839976,-3.3426382017537017 L-1.465010610363919,-3.240892687743599 L-1.4097920175017062,-3.142686482441535 L-1.3480003234672293,-3.0484774685104696 L-1.2799236296622927,-2.958704891862013 L-1.205879341058905,-2.8737873136892214 L-1.1262126863107795,-2.794120658941096 L-1.0412951081379873,-2.7200763703377078 L-0.9515225314895311,-2.651999676532771 L-0.8573135175584657,-2.590207982498294 L-0.7591073122564014,-2.534989389636081 L-0.6573617982462988,-2.4866013525160024 L-0.5525513600821277,-2.4452694785039464 L-0.4451646724090907,-2.411186475876131 L-0.3357024215368464,-2.3845112553241674 L-0.2246749710088076,-2.3653681890400544 L-0.11259998205170789,-2.3538465308356105 L-8.3378055718226e-16,-2.35 L0.11259998205170621,-2.35384653083561 L0.22467497100880596,-2.365368189040054 L0.33570242153684476,-2.384511255324167 L0.445164672409089,-2.411186475876131 L0.5525513600821261,-2.445269478503946 L0.6573617982462974,-2.4866013525160024 L0.7591073122564003,-2.5349893896360807 L0.857313517558465,-2.5902079824982938 L0.9515225314895306,-2.6519996765327707 L1.041295108137987,-2.7200763703377073 L1.1262126863107795,-2.794120658941096 L1.205879341058905,-2.8737873136892214 L1.2799236296622933,-2.9587048918620136 L1.3480003234672302,-3.0484774685104705 L1.409792017501707,-3.142686482441536 L1.46501061036392,-3.240892687743601 L1.5133986474839984,-3.3426382017537035 L1.5547305214960547,-3.447448639917875 L1.5888135241238697,-3.554835327590913 L1.6154887446758333,-3.6642975784631573 L1.6346318109599463,-3.7753250289911966 L1.64615346916439,-3.8874000179482966 L1.65,-4.000000000000004 " />
			<path d="M4.0,-4.0 L4.0,56.0 " />
			<path d="M4.0,-4.0 L4.0,56.0 " />
			<path d="M4.0,-4.0 L1.65,-4.0 " />
			<path d="M4.0,-4.0 L1.65,-4.0 " />
			<path d="M4.0,56.0 L-4.0,56.0 " />
			<path d="M-4.0,-4.0 L-4.0,56.0 " />
			<path d="M-1.6500000000000004,-4.0 L-4.0,-4.0 " />
			<path d="M1.65,-4.0 L1.6461534691643895,-3.8874000179482926 L1.6346318109599456,-3.7753250289911926 L1.6154887446758326,-3.6642975784631537 L1.5888135241238686,-3.554835327590909 L1.5547305214960532,-3.4474486399178716 L1.5133986474839967,-3.3426382017537 L1.4650106103639182,-3.2408926877435973 L1.4097920175017047,-3.142686482441533 L1.3480003234672278,-3.048477468510467 L1.2799236296622907,-2.958704891862011 L1.2058793410589026,-2.8737873136892187 L1.1262126863107764,-2.794120658941093 L1.041295108137984,-2.720076370337705 L0.9515225314895274,-2.6519996765327685 L0.8573135175584615,-2.5902079824982915 L0.7591073122563967,-2.5349893896360784 L0.6573617982462937,-2.4866013525160007 L0.552551360082122,-2.4452694785039446 L0.4451646724090844,-2.4111864758761294 L0.33570242153683977,-2.384511255324166 L0.22467497100880054,-2.3653681890400535 L0.11259998205170042,-2.35384653083561 L-7.024371879737063e-15,-2.35 L-0.11259998205171443,-2.353846530835611 L-0.22467497100881442,-2.3653681890400557 L-0.33570242153685353,-2.3845112553241687 L-0.445164672409098,-2.4111864758761334 L-0.5525513600821352,-2.445269478503949 L-0.6573617982463065,-2.486601352516006 L-0.7591073122564092,-2.534989389636085 L-0.8573135175584736,-2.590207982498299 L-0.9515225314895387,-2.6519996765327765 L-1.0412951081379949,-2.720076370337714 L-1.1262126863107869,-2.794120658941102 L-1.2058793410589121,-2.8737873136892285 L-1.2799236296622996,-2.9587048918620216 L-1.3480003234672358,-3.0484774685104785 L-1.409792017501712,-3.142686482441545 L-1.4650106103639244,-3.2408926877436097 L-1.5133986474840024,-3.342638201753713 L-1.554730521496058,-3.447448639917885 L-1.5888135241238723,-3.5548353275909226 L-1.6154887446758353,-3.6642975784631675 L-1.6346318109599476,-3.775325028991207 L-1.6461534691643906,-3.887400017948307 L-1.65,-4.000000000000014 " />
			<path d="M4.0,56.0 L-4.0,56.0 " />
			<path d="M-4.0,-4.0 L-4.0,56.0 " />
			<path d="M-1.6500000000000004,-4.0 L-4.0,-4.0 " />
			<path d="M-1.65,-4.0 L-1.6461534691643895,-3.887400017948293 L-1.6346318109599456,-3.775325028991193 L-1.6154887446758328,-3.664297578463154 L-1.5888135241238686,-3.55483532759091 L-1.5547305214960538,-3.447448639917873 L-1.5133986474839976,-3.3426382017537017 L-1.465010610363919,-3.240892687743599 L-1.4097920175017062,-3.142686482441535 L-1.3480003234672293,-3.0484774685104696 L-1.2799236296622927,-2.958704891862013 L-1.205879341058905,-2.8737873136892214 L-1.1262126863107795,-2.794120658941096 L-1.0412951081379873,-2.7200763703377078 L-0.9515225314895311,-2.651999676532771 L-0.8573135175584657,-2.590207982498294 L-0.7591073122564014,-2.534989389636081 L-0.6573617982462988,-2.4866013525160024 L-0.5525513600821277,-2.4452694785039464 L-0.4451646724090907,-2.411186475876131 L-0.3357024215368464,-2.3845112553241674 L-0.2246749710088076,-2.3653681890400544 L-0.11259998205170789,-2.3538465308356105 L-8.3378055718226e-16,-2.35 L0.11259998205170621,-2.35384653083561 L0.22467497100880596,-2.365368189040054 L0.33570242153684476,-2.384511255324167 L0.445164672409089,-2.411186475876131 L0.5525513600821261,-2.445269478503946 L0.6573617982462974,-2.4866013525160024 L0.7591073122564003,-2.5349893896360807 L0.857313517558465,-2.5902079824982938 L0.9515225314895306,-2.6519996765327707 L1.041295108137987,-2.7200763703377073 L1.1262126863107795,-2.794120658941096 L1.205879341058905,-2.8737873136892214 L1.2799236296622933,-2.9587048918620136 L1.3480003234672302,-3.0484774685104705 L1.409792017501707,-3.142686482441536 L1.46501061036392,-3.240892687743601 L1.5133986474839984,-3.3426382017537035 L1.5547305214960547,-3.447448639917875 L1.5888135241238697,-3.554835327590913 L1.6154887446758333,-3.6642975784631573 L1.6346318109599463,-3.7753250289911966 L1.64615346916439,-3.8874000179482966 L1.65,-4.000000000000004 " />
			<path d="M-1.65,-4.0 L-1.6461534691643895,-3.887400017948293 L-1.6346318109599456,-3.775325028991193 L-1.6154887446758328,-3.664297578463154 L-1.5888135241238686,-3.55483532759091 L-1.5547305214960538,-3.447448639917873 L-1.5133986474839976,-3.3426382017537017 L-1.465010610363919,-3.240892687743599 L-1.4097920175017062,-3.142686482441535 L-1.3480003234672293,-3.0484774685104696 L-1.2799236296622927,-2.958704891862013 L-1.205879341058905,-2.8737873136892214 L-1.1262126863107795,-2.794120658941096 L-1.0412951081379873,-2.7200763703377078 L-0.9515225314895311,-2.651999676532771 L-0.8573135175584657,-2.590207982498294 L-0.7591073122564014,-2.534989389636081 L-0.6573617982462988,-2.4866013525160024 L-0.5525513600821277,-2.4452694785039464 L-0.4451646724090907,-2.411186475876131 L-0.3357024215368464,-2.3845112553241674 L-0.2246749710088076,-2.3653681890400544 L-0.11259998205170789,-2.3538465308356105 L-8.3378055718226e-16,-2.35 L0.11259998205170621,-2.35384653083561 L0.22467497100880596,-2.365368189040054 L0.33570242153684476,-2.384511255324167 L0.445164672409089,-2.411186475876131 L0.5525513600821261,-2.445269478503946 L0.6573617982462974,-2.4866013525160024 L0.7591073122564003,-2.5349893896360807 L0.857313517558465,-2.5902079824982938 L0.9515225314895306,-2.6519996765327707 L1.041295108137987,-2.7200763703377073 L1.1262126863107795,-2.794120658941096 L1.205879341058905,-2.8737873136892214 L1.2799236296622933,-2.9587048918620136 L1.3480003234672302,-3.0484774685104705 L1.409792017501707,-3.142686482441536 L1.46501061036392,-3.240892687743601 L1.5133986474839984,-3.3426382017537035 L1.5547305214960547,-3.447448639917875 L1.5888135241238697,-3.554835327590913 L1.6154887446758333,-3.6642975784631573 L1.6346318109599463,-3.7753250289911966 L1.64615346916439,-3.8874000179482966 L1.65,-4.000000000000004 " />
			<path d="M-1.5,-4.0 L-1.4960898472769246,-3.891763366299076 L-1.484379774833456,-3.784091028288821 L-1.46493083356513,-3.6775443396834637 L-1.437844421246162,-3.57267878558245 L-1.4032617538884016,-3.4700410864283464 L-1.3613631295064355,-3.370166347659603 L-1.3123669881272244,-3.2735752699185707 L-1.256528772944947,-3.1807714343594546 L-1.1941395985584657,-3.092238677209352 L-1.1255247332346037,-3.0084385672701996 L-1.051041903110014,-2.9298079995127604 L-0.9710794271727416,-2.8567569173085454 L-0.8860541927468271,-2.7896661751748946 L-0.7964094820348305,-2.7288855531758704 L-0.7026126610496856,-2.674731933330966 L-0.6051527429847131,-2.627487647538982 L-0.5045378387252633,-2.587399005630238 L-0.4012925077938318,-2.554675011221166 L-0.29595502353960074,-2.52948627206623 L-0.18907456683043478,-2.511964110588093 L-0.08120836287812708,-2.502199879223314 L0.027081223875839805,-2.500244484153038 L0.13522962166809693,-2.506108119901744 L0.24267299482914612,-2.5197602161877106 L0.3488511833614646,-2.541129597302315 L0.453210623354358,-2.5701048531872157 L0.5552072330098704,-2.6065349202748123 L0.65430924923335,-2.6502298690637396 L0.7499999999999991,-2.7009618943233416 L0.8417805980435729,-2.758466502764664 L0.929172541823584,-2.822443891985991 L1.0117202102107707,-2.892560513503752 L1.0889932378846963,-2.968450811719865 L1.1605887590592545,-3.0497191297593647 L1.226133507838338,-3.135941772242141 L1.2852857642513842,-3.226669214234468 L1.3377371358230739,-3.3214284448638605 L1.3832141653889003,-3.4197254333787424 L1.4214797567742041,-3.5210477047960316 L1.4523344109038454,-3.624867011708407 L1.4756172658980045,-3.7306420883216944 L1.4912069357315398,-3.83782147236409 L1.4990221430845156,-3.945846380155098 L1.4990221430845154,-4.054153619844907 L1.491206935731539,-4.162178527635916 L1.4756172658980036,-4.269357911678311 L1.4523344109038439,-4.375132988291599 L1.4214797567742024,-4.478952295203974 L1.383214165388898,-4.580274566621263 L1.3377371358230714,-4.678571555136145 L1.2852857642513813,-4.773330785765537 L1.2261335078383349,-4.864058227757864 L1.160588759059251,-4.95028087024064 L1.0889932378846925,-5.031549188280139 L1.0117202102107665,-5.107439486496252 L0.9291725418235801,-5.177556108014012 L0.8417805980435694,-5.241533497235339 L0.749999999999996,-5.29903810567666 L0.6543092492333473,-5.349770130936262 L0.555207233009868,-5.393465079725189 L0.45321062335435575,-5.429895146812785 L0.3488511833614627,-5.458870402697686 L0.24267299482914448,-5.48023978381229 L0.13522962166809563,-5.493891880098257 L0.02708122387583884,-5.499755515846962 L-0.0812083628781277,-5.497800120776686 L-0.18907456683043505,-5.488035889411906 L-0.2959550235396007,-5.4705137279337706 L-0.40129250779383147,-5.445324988778834 L-0.5045378387252626,-5.412600994369762 L-0.6051527429847121,-5.372512352461019 L-0.7026126610496843,-5.325268066669035 L-0.7964094820348291,-5.27111444682413 L-0.8860541927468253,-5.210333824825106 L-0.9710794271727397,-5.143243082691456 L-1.0510419031100118,-5.070192000487242 L-1.1255247332346017,-4.991561432729803 L-1.1941395985584635,-4.90776132279065 L-1.2565287729449452,-4.8192285656405485 L-1.3123669881272224,-4.726424730081433 L-1.3613631295064337,-4.629833652340401 L-1.4032617538883998,-4.529958913571658 L-1.4378444212461605,-4.427321214417555 L-1.4649308335651288,-4.322455660316542 L-1.484379774833455,-4.215908971711185 L-1.4960898472769242,-4.108236633700931 L-1.5,-4.000000000000007 " />

       </g>

       <!-- solid lines -->
       <g  stroke="rgb(40,40,40)" fill="none">
			<path d="M12.6,0.0 L4.0,0.0 " />
			<path d="M-4.000000000000002,0.0 L-12.6,0.0 " />
			<path d="M-12.6,0.0 L-12.6,2.0 " />
			<path d="M-12.6,2.0 L-13.6,2.0 " />
			<path d="M-14.6,0.9999999999999999 L-13.6,2.0 " />
			<path d="M-14.6,0.0 L-14.6,1.0 " />
			<path d="M-14.600000000000001,0.0 L-14.596046921220143,-0.3397267630612223 L-14.58418982554246,-0.6792695580871011 L-14.564435133793435,-1.0184445166642293 L-14.536793543487146,-1.3570679695691261 L-14.50128002303237,-1.6949565462283613 L-14.457913803626928,-2.0319272740169554 L-14.406718368843658,-2.3677976773412843 L-14.347721441913636,-2.702385876452833 L-14.280954970713564,-3.0355106859392853 L-14.206455110465429,-3.3669917128396256 L-14.124262204157814,-3.696649454330105 L-14.034420760699458,-4.024305394928187 L-13.936979430816887,-4.349782103161837 L-13.83199098070921,-4.672903327651785 L-13.719512263474265,-4.993494092554764 L-13.59960418832168,-5.311380792316013 L-13.47233168758946,-5.6263912856797464 L-13.337763681581974,-5.938354988906684 L-13.1959730412484,-6.247102968148154 L-13.04703654872182,-6.552468030926749 L-12.891034855740333,-6.8542848166740065 L-12.72805243997273,-7.152389886276072 L-12.558177559272334,-7.44662181057886 L-12.381502203883818,-7.736821257804793 L-12.198122046628873,-8.022831079833768 L-12.008136391097668,-8.304496397301635 L-11.811648117874233,-8.581664683470107 L-11.608763628824779,-8.854185846822675 L-11.399592789479227,-9.121912312341816 L-11.18424886953708,-9.384699101423472 L-10.96284848152989,-9.64240391038551 L-10.735511517673501,-9.894887187527688 L-10.50236108494431,-10.142012208701358 L-10.263523438414664,-10.383645151347999 L-10.019127912883514,-10.619655166966508 L-9.769306852839334,-10.849914451969951 L-9.514195540793251,-11.074298316893481 L-9.253932124021174,-11.29268525391587 L-8.988657539754616,-11.504957002658136 L-8.718515438860685,-11.710998614223636 L-8.44365210805261,-11.910698513444906 L-8.164216390672912,-12.103948559303603 L-7.880359606092095,-12.290644103490754 L-7.592235467766553,-12.470684047075668 L-7.300000000000009,-12.6439708952528 L-7.003811453453604,-12.81041081013689 L-6.70383021945038,-12.969913661577854 L-6.400218743120541,-13.122393075967832 L-6.0931414354345526,-13.26776648301403 L-5.7827645841717015,-13.405955160451995 L-5.469256263872329,-13.536884276675089 L-5.152786244822499,-13.660482931257153 L-4.833525901120402,-13.776684193346314 L-4.5116481178742465,-13.885425137909236 L-4.187327197581934,-13.986646879806132 L-3.860738765743169,-14.080294605678104 L-3.5320596757551654,-14.166317603629544 L-3.201467913143406,-14.244669290689524 L-2.869142499179338,-14.315307238037294 L-2.535263393937202,-14.378193193978234 L-2.2000113988424728,-14.433293104657828 L-1.8635680587647014,-14.480577132502416 L-1.5261155637077612,-14.520019672376788 L-1.1878366501507522,-14.551599365449787 L-0.848914502092969,-14.575299110760513 L-0.5095326518565367,-14.591106074478796 L-0.16987488070041956,-14.599011696854928 L0.16987488070037268,-14.59901169685493 L0.50953265185649,-14.591106074478798 L0.8489145020929222,-14.575299110760517 L1.1878366501507056,-14.551599365449789 L1.5261155637077148,-14.520019672376792 L1.8635680587646546,-14.480577132502424 L2.2000113988424266,-14.433293104657833 L2.535263393937156,-14.378193193978243 L2.869142499179292,-14.315307238037304 L3.20146791314336,-14.244669290689535 L3.53205967575512,-14.166317603629556 L3.8607387657431236,-14.080294605678118 L4.187327197581888,-13.986646879806147 L4.511648117874203,-13.885425137909252 L4.833525901120358,-13.77668419334633 L5.152786244822456,-13.660482931257171 L5.4692562638722855,-13.536884276675108 L5.782764584171659,-13.405955160452015 L6.0931414354345135,-13.267766483014052 L6.400218743120505,-13.122393075967851 L6.703830219450348,-12.969913661577873 L7.003811453453575,-12.810410810136908 L7.299999999999983,-12.643970895252814 L7.592235467766531,-12.47068404707568 L7.880359606092076,-12.290644103490767 L8.164216390672895,-12.103948559303616 L8.443652108052596,-11.910698513444917 L8.718515438860672,-11.710998614223643 L8.988657539754607,-11.504957002658141 L9.25393212402117,-11.292685253915874 L9.514195540793247,-11.074298316893485 L9.769306852839334,-10.849914451969953 L10.019127912883516,-10.619655166966506 L10.263523438414667,-10.383645151347995 L10.502361084944315,-10.14201220870135 L10.735511517673508,-9.89488718752768 L10.962848481529901,-9.6424039103855 L11.184248869537093,-9.38469910142346 L11.39959278947924,-9.1219123123418 L11.608763628824793,-8.854185846822656 L11.81164811787425,-8.581664683470086 L12.008136391097688,-8.30449639730161 L12.19812204662889,-8.022831079833741 L12.381502203883839,-7.736821257804762 L12.558177559272355,-7.446621810578826 L12.72805243997275,-7.152389886276034 L12.891034855740353,-6.854284816673967 L13.04703654872184,-6.552468030926707 L13.19597304124842,-6.247102968148108 L13.337763681581993,-5.938354988906636 L13.47233168758948,-5.626391285679696 L13.599604188321699,-5.311380792315959 L13.719512263474282,-4.993494092554707 L13.831990980709229,-4.672903327651726 L13.936979430816907,-4.349782103161776 L14.034420760699476,-4.024305394928124 L14.124262204157832,-3.6966494543300374 L14.206455110465445,-3.366991712839556 L14.280954970713578,-3.0355106859392125 L14.347721441913649,-2.7023858764527566 L14.40671836884367,-2.3677976773412053 L14.457913803626939,-2.0319272740168732 L14.501280023032379,-1.694956546228276 L14.536793543487153,-1.3570679695690382 L14.564435133793442,-1.0184445166641387 L14.584189825542463,-0.6792695580870075 L14.596046921220145,-0.339726763061126 L14.600000000000001,9.90202663092091e-14 " />
			<path d="M14.6,0.0 L14.6,1.0 " />
			<path d="M14.6,1.0 L13.6,2.0 " />
			<path d="M13.6,2.0 L12.6,2.0 " />
			<path d="M12.6,0.0 L12.6,2.0 " />
			<path d="M4.0,-3.9999999999999996 L3.9960849060798944,-4.176933386901514 L3.9843472882997792,-4.353520418389368 L3.9648101235976587,-4.529415417056888 L3.9375116568909028,-4.704274060184142 L3.902505326210028,-4.877754053765839 L3.8598596580912408,-5.049515802567913 L3.8096581334325266,-5.219223074901143 L3.7519990240758716,-5.386543660810473 L3.6869952004355153,-5.551150022391604 L3.6147739105488177,-5.712719934961816 L3.535476530982247,-5.8709371178299214 L3.4492582900801145,-6.0254918534305695 L3.3562879640977985,-6.176081593610923 L3.2567475468143012,-6.322411551882876 L3.1508318932708783,-6.46419528048145 L3.0387483383331455,-6.601155231099741 L2.9207162908233433,-6.733023298202767 L2.7969668040172633,-6.859541343856643 L2.6677421233466108,-6.980461703045707 L2.533295212192196,-7.09554766848842 L2.3938892566962386,-7.204573954002986 L2.2497971505631322,-7.307327135515628 L2.1013009608572055,-7.403606068848243 L1.9486913758431972,-7.493222283467565 L1.7922671359503257,-7.5760003514250975 L1.632334448973872,-7.651778230765549 L1.4692063906590405,-7.72040758273158 L1.303202291840484,-7.781754062143877 L1.1346471133372014,-7.835697580388157 L0.9638708098264728,-7.882132540494265 L0.7912076839420848,-7.920968043847209 L0.6169957318612258,-7.952128068125454 L0.44157598166109613,-7.975551616118201 L0.2652918257404335,-7.991192835130283 L0.08848834861276583,-7.9990211067409716 L-0.08848834861272885,-7.999021106740972 L-0.26529182574039656,-7.991192835130286 L-0.4415759816610593,-7.975551616118205 L-0.6169957318611892,-7.952128068125459 L-0.7912076839420487,-7.920968043847216 L-0.9638708098264369,-7.882132540494274 L-1.1346471133371658,-7.8356975803881665 L-1.303202291840449,-7.7817540621438885 L-1.469206390659006,-7.7204075827315926 L-1.6323344489738383,-7.651778230765564 L-1.7922671359502926,-7.5760003514251135 L-1.9486913758431648,-7.493222283467583 L-2.101300960857174,-7.403606068848262 L-2.2497971505631016,-7.307327135515649 L-2.393889256696209,-7.204573954003008 L-2.5332952121921672,-7.095547668488444 L-2.667742123346583,-6.980461703045732 L-2.7969668040172366,-6.8595413438566695 L-2.920716290823318,-6.733023298202794 L-3.0387483383331215,-6.601155231099769 L-3.150831893270855,-6.46419528048148 L-3.2567475468142795,-6.322411551882906 L-3.3562879640977785,-6.176081593610954 L-3.449258290080096,-6.0254918534306015 L-3.53547653098223,-5.870937117829954 L-3.614773910548802,-5.712719934961849 L-3.686995200435501,-5.551150022391638 L-3.7519990240758587,-5.386543660810508 L-3.8096581334325155,-5.219223074901178 L-3.859859658091231,-5.0495158025679485 L-3.9025053262100196,-4.877754053765876 L-3.9375116568908965,-4.704274060184178 L-3.964810123597654,-4.529415417056924 L-3.984347288299776,-4.353520418389405 L-3.9960849060798926,-4.176933386901552 L-4.0,-4.000000000000036 " />
			<path d="M-1.65,-4.0 L-1.6461534691643895,-4.112599982051707 L-1.6346318109599456,-4.224674971008807 L-1.6154887446758328,-4.335702421536846 L-1.5888135241238686,-4.44516467240909 L-1.5547305214960538,-4.552551360082127 L-1.5133986474839976,-4.657361798246298 L-1.465010610363919,-4.7591073122564005 L-1.4097920175017062,-4.857313517558465 L-1.3480003234672293,-4.95152253148953 L-1.2799236296622927,-5.041295108137987 L-1.205879341058905,-5.126212686310779 L-1.1262126863107795,-5.205879341058904 L-1.0412951081379873,-5.279923629662292 L-0.9515225314895311,-5.348000323467229 L-0.8573135175584657,-5.409792017501706 L-0.7591073122564014,-5.465010610363919 L-0.6573617982462988,-5.5133986474839976 L-0.5525513600821277,-5.554730521496054 L-0.4451646724090907,-5.588813524123869 L-0.3357024215368464,-5.615488744675833 L-0.2246749710088076,-5.634631810959945 L-0.11259998205170789,-5.646153469164389 L-8.3378055718226e-16,-5.65 L0.11259998205170621,-5.64615346916439 L0.22467497100880596,-5.634631810959946 L0.33570242153684476,-5.615488744675833 L0.445164672409089,-5.588813524123869 L0.5525513600821261,-5.5547305214960545 L0.6573617982462974,-5.5133986474839976 L0.7591073122564003,-5.465010610363919 L0.857313517558465,-5.409792017501706 L0.9515225314895306,-5.348000323467229 L1.041295108137987,-5.279923629662292 L1.1262126863107795,-5.205879341058904 L1.205879341058905,-5.126212686310779 L1.2799236296622933,-5.041295108137986 L1.3480003234672302,-4.9515225314895295 L1.409792017501707,-4.857313517558464 L1.46501061036392,-4.759107312256399 L1.5133986474839984,-4.6573617982462965 L1.5547305214960547,-4.552551360082124 L1.5888135241238697,-4.445164672409087 L1.6154887446758333,-4.335702421536842 L1.6346318109599463,-4.224674971008803 L1.64615346916439,-4.112599982051703 L1.65,-3.999999999999996 " />
			<path d="M4.0,-4.0 L4.0,56.0 " />
			<path d="M4.0,-4.0 L1.65,-4.0 " />
			<path d="M4.0,56.0 L-4.0,56.0 " />
			<path d="M-4.0,-4.0 L-4.0,56.0 " />
			<path d="M-1.6500000000000004,-4.0 L-4.0,-4.0 " />
			<path d="M-1.65,-4.0 L-1.6461534691643895,-3.887400017948293 L-1.6346318109599456,-3.775325028991193 L-1.6154887446758328,-3.664297578463154 L-1.5888135241238686,-3.55483532759091 L-1.5547305214960538,-3.447448639917873 L-1.5133986474839976,-3.3426382017537017 L-1.465010610363919,-3.240892687743599 L-1.4097920175017062,-3.142686482441535 L-1.3480003234672293,-3.0484774685104696 L-1.2799236296622927,-2.958704891862013 L-1.205879341058905,-2.8737873136892214 L-1.1262126863107795,-2.794120658941096 L-1.0412951081379873,-2.7200763703377078 L-0.9515225314895311,-2.651999676532771 L-0.8573135175584657,-2.590207982498294 L-0.7591073122564014,-2.534989389636081 L-0.6573617982462988,-2.4866013525160024 L-0.5525513600821277,-2.4452694785039464 L-0.4451646724090907,-2.411186475876131 L-0.3357024215368464,-2.3845112553241674 L-0.2246749710088076,-2.3653681890400544 L-0.11259998205170789,-2.3538465308356105 L-8.3378055718226e-16,-2.35 L0.11259998205170621,-2.35384653083561 L0.22467497100880596,-2.365368189040054 L0.33570242153684476,-2.384511255324167 L0.445164672409089,-2.411186475876131 L0.5525513600821261,-2.445269478503946 L0.6573617982462974,-2.4866013525160024 L0.7591073122564003,-2.5349893896360807 L0.857313517558465,-2.5902079824982938 L0.9515225314895306,-2.6519996765327707 L1.041295108137987,-2.7200763703377073 L1.1262126863107795,-2.794120658941096 L1.205879341058905,-2.8737873136892214 L1.2799236296622933,-2.9587048918620136 L1.3480003234672302,-3.0484774685104705 L1.409792017501707,-3.142686482441536 L1.46501061036392,-3.240892687743601 L1.5133986474839984,-3.3426382017537035 L1.5547305214960547,-3.447448639917875 L1.5888135241238697,-3.554835327590913 L1.6154887446758333,-3.6642975784631573 L1.6346318109599463,-3.7753250289911966 L1.64615346916439,-3.8874000179482966 L1.65,-4.000000000000004 " />
			<path d="M-1.5,-4.0 L-1.4960898472769246,-3.891763366299076 L-1.484379774833456,-3.784091028288821 L-1.46493083356513,-3.6775443396834637 L-1.437844421246162,-3.57267878558245 L-1.4032617538884016,-3.4700410864283464 L-1.3613631295064355,-3.370166347659603 L-1.3123669881272244,-3.2735752699185707 L-1.256528772944947,-3.1807714343594546 L-1.1941395985584657,-3.092238677209352 L-1.1255247332346037,-3.0084385672701996 L-1.051041903110014,-2.9298079995127604 L-0.9710794271727416,-2.8567569173085454 L-0.8860541927468271,-2.7896661751748946 L-0.7964094820348305,-2.7288855531758704 L-0.7026126610496856,-2.674731933330966 L-0.6051527429847131,-2.627487647538982 L-0.5045378387252633,-2.587399005630238 L-0.4012925077938318,-2.554675011221166 L-0.29595502353960074,-2.52948627206623 L-0.18907456683043478,-2.511964110588093 L-0.08120836287812708,-2.502199879223314 L0.027081223875839805,-2.500244484153038 L0.13522962166809693,-2.506108119901744 L0.24267299482914612,-2.5197602161877106 L0.3488511833614646,-2.541129597302315 L0.453210623354358,-2.5701048531872157 L0.5552072330098704,-2.6065349202748123 L0.65430924923335,-2.6502298690637396 L0.7499999999999991,-2.7009618943233416 L0.8417805980435729,-2.758466502764664 L0.929172541823584,-2.822443891985991 L1.0117202102107707,-2.892560513503752 L1.0889932378846963,-2.968450811719865 L1.1605887590592545,-3.0497191297593647 L1.226133507838338,-3.135941772242141 L1.2852857642513842,-3.226669214234468 L1.3377371358230739,-3.3214284448638605 L1.3832141653889003,-3.4197254333787424 L1.4214797567742041,-3.5210477047960316 L1.4523344109038454,-3.624867011708407 L1.4756172658980045,-3.7306420883216944 L1.4912069357315398,-3.83782147236409 L1.4990221430845156,-3.945846380155098 L1.4990221430845154,-4.054153619844907 L1.491206935731539,-4.162178527635916 L1.4756172658980036,-4.269357911678311 L1.4523344109038439,-4.375132988291599 L1.4214797567742024,-4.478952295203974 L1.383214165388898,-4.580274566621263 L1.3377371358230714,-4.678571555136145 L1.2852857642513813,-4.773330785765537 L1.2261335078383349,-4.864058227757864 L1.160588759059251,-4.95028087024064 L1.0889932378846925,-5.031549188280139 L1.0117202102107665,-5.107439486496252 L0.9291725418235801,-5.177556108014012 L0.8417805980435694,-5.241533497235339 L0.749999999999996,-5.29903810567666 L0.6543092492333473,-5.349770130936262 L0.555207233009868,-5.393465079725189 L0.45321062335435575,-5.429895146812785 L0.3488511833614627,-5.458870402697686 L0.24267299482914448,-5.48023978381229 L0.13522962166809563,-5.493891880098257 L0.02708122387583884,-5.499755515846962 L-0.0812083628781277,-5.497800120776686 L-0.18907456683043505,-5.488035889411906 L-0.2959550235396007,-5.4705137279337706 L-0.40129250779383147,-5.445324988778834 L-0.5045378387252626,-5.412600994369762 L-0.6051527429847121,-5.372512352461019 L-0.7026126610496843,-5.325268066669035 L-0.7964094820348291,-5.27111444682413 L-0.8860541927468253,-5.210333824825106 L-0.9710794271727397,-5.143243082691456 L-1.0510419031100118,-5.070192000487242 L-1.1255247332346017,-4.991561432729803 L-1.1941395985584635,-4.90776132279065 L-1.2565287729449452,-4.8192285656405485 L-1.3123669881272224,-4.726424730081433 L-1.3613631295064337,-4.629833652340401 L-1.4032617538883998,-4.529958913571658 L-1.4378444212461605,-4.427321214417555 L-1.4649308335651288,-4.322455660316542 L-1.484379774833455,-4.215908971711185 L-1.4960898472769242,-4.108236633700931 L-1.5,-4.000000000000007 " />

       </g>
    </g>
    
</svg>
