<?xml version="1.0" encoding="UTF-8" standalone="no"?>
<svg
   xmlns:svg="http://www.w3.org/2000/svg"
   xmlns="http://www.w3.org/2000/svg"
   width="900.0"
   height="600.0"

>
    <g transform="scale(4.030218890888361, -4.030218890888361)   translate(19.562509615846576,-34.28904617265052)" stroke-width="0.4"  fill="none">
       <!-- hidden lines -->
       <g  stroke="rgb(180,180,180)" fill="none" stroke-dasharray="0.4,0.4" >
			<path d="M1.7061506225466871,-0.5268424917801267 L-1.7763568394002505e-14,5.329070518200751e-15 " />
			<path d="M-1.7763568394002505e-14,5.329070518200751e-15 L-6.293849377453313,1.9434786384550677 " />
			<path d="M-10.322322198539908,3.187431330018618 L-10.322322198539908,1.3925436952008776 " />
			<path d="M10.32232219853991,-4.982318964836358 L-10.32232219853991,1.3925436952008772 " />
			<path d="M10.322322198539908,-3.187431330018618 L10.322322198539908,-4.982318964836358 " />
			<path d="M-5.570777059529474,-0.4336641265331447 L-5.454276002414901,-0.3639533501152974 L-5.330161200740118,-0.29684822774950637 L-5.19873165793353,-0.23251042155326518 L-5.060303999275629,-0.17109492693702677 L-4.915211709120951,-0.11274969920668321 L-4.7638043275050626,-0.05761529712627622 L-4.606446608071997,-0.0058245442996198715 L-4.443517639350778,0.04249779081339189 L-4.275409931497945,0.08723529547493514 L-4.102528470706213,0.12828019311773753 L-3.925289743557257,0.16553360298826902 L-3.7441207336690576,0.19890577835913859 L-3.559457893054966,0.22831632273682012 L-3.371746090672577,0.25369438354384855 L-3.1814375406954407,0.2749788228088841 L-2.9889907130895135,0.29211836445344064 L-2.7948692291188486,0.3050717178204496 L-2.599540744441365,0.31380767714707036 L-2.4034758224854063,0.31830519674210533 L-2.2071468008212225,0.31855344168691424 L-2.0110266532583942,0.3145518139376806 L-1.8155878504104965,0.30630995376615444 L-1.6213012214720073,0.2938477165353899 L-1.4286348199495378,0.27719512486643927 L-1.2380527960799401,0.25639229631122795 L-1.050014278651729,0.2314893467058574 L-0.8649722689236186,0.20254626943716847 L-0.6833725493048093,0.16963279091341543 L-0.5056526094261198,0.13282820258724182 L-0.33224059218914626,0.09222116993562679 L-0.16355426233251125,0.047909518856984246 L-3.108624468950438e-14,9.547918011776346e-15 " />
			<path d="M-1.687538997430238e-14,4.884981308350689e-15 L0.19238380234804042,-0.06328258384711405 L0.37581853876742466,-0.1315405562792602 L0.4639723507588691,-0.16745921058195212 L0.5496439455454794,-0.2045282263047692 L0.6327562131732773,-0.24271423894570288 L0.7132343472475875,-0.2819828786335623 L0.7910059122636186,-0.3222988010630776 L0.8660009088030787,-0.3636257193070489 L0.9381518365381587,-0.40592643647691706 L1.0073937549861824,-0.4491628792023621 L1.07366434196022,-0.49329613189978805 L1.1369039496630688,-0.5382864717988526 L1.1970556583741172,-0.5840934046955233 L1.2540653276807592,-0.6306757013994683 L1.3078816452082496,-0.6779914348429807 L1.3584561728041504,-0.7259980178180434 L1.4057433901357879,-0.7746522413075593 L1.4497007356614828,-0.82391031337625 L1.4902886449386803,-0.8737278985862165 L1.5274705862344953,-0.9240601579016903 L1.561213093406629,-0.9748617890470568 L1.5914857960250504,-1.0260870672818179 L1.6182614467073382,-1.077689886555805 L1.6415159456430817,-1.1296238010075932 L1.6612283622852644,-1.1818420667687717 L1.6773809541891023,-1.2342976840364341 L1.689959182981386,-1.2869434393760264 L1.6989517274459565,-1.3397319482164844 L1.7043504937135272,-1.3926156974993973 L1.7061506225466867,-1.4455470884438104 " />
			<path d="M-6.293849377453313,-1.4455470884438157 L-6.2909357765178395,-1.3782112434905034 L-6.282199218246623,-1.3109734934276145 L-6.267652430061841,-1.2439317902408902 L-6.247316603731324,-1.177183800314891 L-6.221221364496383,-1.1108267621525612 L-6.189404727913741,-1.0449573447181337 L-6.151913044474454,-0.9796715066097363 L-6.108800932080491,-0.9150643562668621 L-6.060131196477354,-0.8512300134163495 L-6.005974739758632,-0.788261471958721 L-5.946410457075807,-0.7262504644946248 L-5.881525121703751,-0.6652873286887394 L-5.811413258629381,-0.6054608756658213 L-5.73617700684762,-0.5468582606306176 L-5.655925970565253,-0.4895648559001222 L-5.570777059529477,-0.43366412653314623 " />
			<path d="M-10.322322198539908,1.3925436952008776 L-10.32232219853991,-66.81318642787326 " />
			<path d="M-10.32232219853991,-66.81318642787326 L-10.32232219853991,-68.608074062691 " />
			<path d="M-10.32232219853991,-68.608074062691 L-9.175397509813253,-67.8853005184691 " />
			<path d="M-9.175397509813251,2.833272293349882 L-9.175397509813253,-67.8853005184691 " />
			<path d="M10.650014966747525,-5.0835072610274255 L10.32232219853991,-4.982318964836358 " />
			<path d="M-10.650014966747525,1.4937319913919456 L-10.790347048948027,1.4034757813749097 L-10.926748927613808,1.3120546209492676 L-11.059170920640735,1.219501808744459 L-11.187564795531497,1.1258510555751589 L-11.311883786963474,1.0311364721626852 L-11.432082613822221,0.935392556710746 L-11.548117495694374,0.8386541823400291 L-11.659946168813923,0.7409565843862616 L-11.76752790145607,0.6423353475663307 L-11.870823508773105,0.5428263930171353 L-11.969795367066817,0.44246596521191583 L-12.064407427492288,0.3412906187588216 L-12.154625229188103,0.23933720508648748 L-12.240415911828132,0.13664285902152784 L-12.321748227590344,0.03324498526280206 L-12.398592552538325,-0.07081875524263626 L-12.470920897411295,-0.17551045901690188 L-12.538706917818706,-0.2807919938569787 L-12.601925923835784,-0.38662501272375205 L-12.660554888996392,-0.4929709677092706 L-12.714572458680045,-0.5997911240771681 L-12.763958957889978,-0.7070465743711585 L-12.808696398419427,-0.8146982525864216 L-12.848768485403536,-0.922706948398731 L-12.884160623254491,-1.031033321446178 L-12.914859920977715,-1.13963791565823 L-12.940855196867199,-1.2484811736269392 L-12.962136982578256,-1.3575234510150822 L-12.978697526576198,-1.4667250309959379 L-12.990530796959709,-1.576046138719472 L-12.997632483657862,-1.6854469557996754 L-12.999999999999998,-1.7948876348177127 " />
			<path d="M-12.999999999999998,-1.794887634817738 L-12.997458923101599,-1.908268493164945 L-12.989836685802064,-2.0216050269767876 L-12.977136267900026,-2.1348529290459104 L-12.959362634432182,-2.247967926814199 L-12.936522733732287,-2.3609057996804705 L-12.908625494714807,-2.4736223962878485 L-12.875681823384294,-2.586073651784071 L-12.837704598571856,-2.6982156050479755 L-12.794708666900354,-2.810004415875445 L-12.746710836980357,-2.9213963821180666 L-12.693729872839066,-3.032347956767826 L-12.635786486584792,-3.1428157649811554 L-12.572903330309876,-3.252756621035675 L-12.505104987235196,-3.362127545213 L-12.43241796209973,-3.4708857806010087 L-12.354870670798922,-3.5789888098090152 L-12.272493429275917,-3.6863943715893033 L-12.185318441670006,-3.793060477358517 L-12.0933797877269,-3.898945427612471 L-11.99671340947577,-4.004007828227936 L-11.895357097178254,-4.108206606645052 L-11.78935047455491,-4.211501027924028 L-11.678734983294948,-4.313850710669835 L-11.563553866855205,-4.415215642818725 L-11.443852153554777,-4.515556197280328 L-11.319676638971872,-4.614833147429275 L-11.191075867649793,-4.713007682440245 L-11.058100114119172,-4.810041422460482 L-10.920801363243909,-4.905896433613811 L-10.77923328989847,-5.000535242830319 L-10.633451237984508,-5.093920852495884 L-10.483512198794992,-5.186016754915833 L-10.329474788734332,-5.276786946587079 L-10.171399226403171,-5.366195942273144 L-10.009347309056837,-5.4542087888765725 L-9.843382388446644,-5.5407910791033235 L-9.673569346053467,-5.625908964913782 L-9.499974567723317,-5.709529170755134 L-9.322665917714797,-5.7916190065699515 L-9.141712712168584,-5.872146380575866 L-8.95718569200934,-5.951079811811375 L-8.769156995290619,-6.028388442442839 L-8.577700128993564,-6.104042049827904 L-8.382889940290477,-6.178011058330567 L-8.184802587284453,-6.250266550883334 L-7.983515509236505,-6.320780280291913 L-7.779107396291859,-6.389524680278023 L-7.571658158717232,-6.456472876256017 L-7.361248895661114,-6.521598695839098 L-7.147961863449282,-6.584876679071016 L-6.931880443427937,-6.64628208837925 L-6.713089109367012,-6.705790918245797 L-6.49167339443644,-6.76337990459176 L-6.2677198577682445,-6.819026533872093 L-6.041316050617555,-6.87270905187693 L-5.812550482135764,-6.924406472236059 L-5.581512584769216,-6.974098584623241 L-5.348292679296931,-7.021765962657116 L-5.112981939521071,-7.067389971495667 L-4.8756723566239115,-7.110952775121219 L-4.636456703205278,-7.15243734331317 L-4.3954284970145,-7.191827458305692 L-4.152681964391055,-7.229107721127828 L-3.9083120034282204,-7.264263557623479 L-3.6624141468740548,-7.297281224148961 L-3.415084524784341,-7.3281478129458675 L-3.16641982694201,-7.356851257187162 L-2.9165172650576987,-7.383380335694529 L-2.665474534766307,-7.407724677325115 L-2.413389777434367,-7.429874765025978 L-2.1603615417931543,-7.449821939554636 L-1.9064887454125505,-7.467558402864256 L-1.6518706360307125,-7.483077221152199 L-1.3966067527546648,-7.496372327570673 L-1.1407968871469905,-7.507438524598481 L-0.8845410442138246,-7.516271486072911 L-0.6279394033094069,-7.522867758880987 L-0.37109227897247477,-7.527224764309412 L-0.11410008170980857,-7.529340799052668 L0.14293672125774048,-7.52921503587891 L0.399917645271394,-7.5268475239533545 L0.6567422275174073,-7.5222391888190545 L0.9133100663014903,-7.515391832035081 L1.1695208602993339,-7.506308130472222 L1.4252744477679002,-7.494991635266511 L1.6804708457021433,-7.481446770430951 L1.9350102889218563,-7.4656788311260245 L2.188793269073351,-7.447693981589623 L2.4417205735307825,-7.4274992527272365 L2.6936933241818024,-7.405102539363323 L2.944613016082446,-7.380512597154949 L3.1943815559661823,-7.353739039168895 L3.44290130059199,-7.324792332123575 L3.690075094916506,-7.2936837922972275 L3.935806310075321,-7.260425581103992 L4.179998881158582,-7.225030700339583 L4.422557344766112,-7.187512987098435 L4.663386876327391,-7.147887108364301 L4.902393327171788,-7.10616855527642 L5.139483261334564,-7.0623736370734775 L5.37456399208425,-7.0165194747177715 L5.607543618157126,-6.968623994202016 L5.83833105968464,-6.918705919541455 L6.066836093799696,-6.866784765453985 L6.292969389907933,-6.812880829731173 L6.516642544610165,-6.757015185303145 L6.7377681162623615,-6.699209672000431 L6.956259659159634,-6.639486888016027 L7.172031757330884,-6.577870181070959 L7.38500005793088,-6.514383639286858 L7.595081304216739,-6.449052081769056 L7.802193368095882,-6.38190104890395 L8.006255282232793,-6.312956792374355 L8.207187271701963,-6.242246264896813 L8.404910785174678,-6.169797109684842 L8.5993485256275,-6.095637649642228 L8.79042448056036,-6.019796876290621 L8.9780639517125,-5.94230443843573 L9.162193584264633,-5.863190630576578 L9.3427413955159,-5.7824863810623155 L9.519636803024415,-5.700223240001258 L9.692810652200423,-5.6164333669268425 L9.86219524334122,-5.531149518225345 L10.02772435809735,-5.444405034330264 L10.18933328535965,-5.35623382668838 L10.346958846557103,-5.266670364502596 L10.500539420355528,-5.175749661256709 L10.650014966747458,-5.083507261027469 " />
			<path d="M-10.32232219853991,1.3925436952008772 L-10.650014966747525,1.493731991391945 " />
			<path d="M-3.6455820463097295,-2.823033001473405 L-3.7138095245784646,-2.8697255817886127 L-3.7737656219566182,-2.918577572362588 L-3.8251010894042574,-2.9693044064614553 L-3.867516893737024,-3.0216105962385638 L-3.885300640099534,-3.0482610457549995 L-3.90076595951824,-3.075191453974713 L-3.9138903221085797,-3.1023625886664146 L-3.924654608292993,-3.1297348669083758 L-3.933043136654331,-3.1572684127528503 L-3.9390436867805536,-3.184923115317374 L-3.94264751706743,-3.212658687218316 L-3.943849377453313,-3.240434723261554 " />
			<path d="M-3.943849377453313,-3.240434723261557 L-3.9418618801918477,-3.276149242182835 L-3.9359041764624383,-3.3117777216998094 L-3.925990618895202,-3.3472343296846376 L-3.912145090118644,-3.3824336480630515 L-3.8944009452243114,-3.417290878593982 L-3.872800931411458,-3.451722047155947 L-3.847397085005298,-3.485644206048067 L-3.818250606096937,-3.5189756338183393 L-3.7854317111069955,-3.5516360321377785 L-3.749019463628099,-3.5835467192461197 L-3.709101583953762,-3.6146308195030725 L-3.6657742377525135,-3.6448134485884722 L-3.619141804396378,-3.6740218939051665 L-3.56931662550183,-3.702185789750029 L-3.5164187342889965,-3.7292372868311046 L-3.4605755664111175,-3.7551112157224935 L-3.401921652950894,-3.779745243863207 L-3.340598296323329,-3.8030800257217683 L-3.2767532298658293,-3.8250593457647954 L-3.210540261935658,-3.845630253885143 L-3.0716539932162097,-3.882352118255083 L-2.925277040855712,-3.912891967203492 L-2.772819094923178,-3.936955685290218 L-2.6157484087799254,-3.9543115257555197 L-2.455577658997088,-3.964792342368048 L-2.2938493774533137,-3.9682971991344274 L-2.132121095909539,-3.964792342368048 L-1.9719503461267016,-3.9543115257555197 L-1.8148796599834496,-3.936955685290218 L-1.662421714050915,-3.912891967203492 L-1.5160447616904174,-3.882352118255083 L-1.3771584929709704,-3.8456302538851435 L-1.310945525040799,-3.8250593457647963 L-1.2471004585832992,-3.803080025721769 L-1.1857771019557342,-3.779745243863208 L-1.1271231884955102,-3.755111215722494 L-1.0712800206176303,-3.729237286831105 L-1.018382129404797,-3.7021857897500294 L-0.9685569505102489,-3.6740218939051665 L-0.9219245171541137,-3.6448134485884727 L-0.8785971709528646,-3.614630819503073 L-0.8386792912785279,-3.58354671924612 L-0.8022670437996322,-3.5516360321377793 L-0.7694481488096907,-3.51897563381834 L-0.7403016699013296,-3.4856442060480677 L-0.7148978234951693,-3.4517220471559487 L-0.6932978096823161,-3.4172908785939837 L-0.6755536647879834,-3.382433648063053 L-0.6617081360114248,-3.347234329684638 L-0.6517945784441885,-3.3117777216998103 L-0.6458368747147789,-3.276149242182836 L-0.6438493774533134,-3.2404347232615645 " />
			<path d="M-0.6438493774533134,-3.240434723261558 L-0.6451393365630511,-3.2116590542567556 L-0.6490071969292286,-3.1829283785081612 L-0.6554469108164338,-3.154287618921121 L-0.6644484091730394,-3.1257815578092587 L-0.675997617375037,-3.0974547668734393 L-0.690076477232936,-3.0693515375100473 L-0.7066629752273075,-3.041515811557544 L-0.7257311769288346,-3.013991112589588 L-0.7472512675490433,-2.9868204778621514 L-0.7711895985583115,-2.9600463910210326 L-0.8261675405063065,-2.9078546299383556 L-0.8903212860458798,-2.8577421271376715 L-0.9632497522216412,-2.8100221810952615 L-1.0444969973812395,-2.7649931322560795 L-1.13355507167807,-2.722936497838411 L-1.229867192724138,-2.6841152118156986 L-1.3328312265392035,-2.6487719810790074 L-1.4418034520336542,-2.6171277680572276 L-1.5561025854899273,-2.5893804092815405 L-1.675014039881816,-2.5657033785307317 L-1.7977943924028086,-2.54624470229006 L-1.9236760322729143,-2.531126034304119 L-2.0518719597663364,-2.5204418950095 L-2.1815807064569435,-2.5142590806022476 L-2.311991345920642,-2.512616245434563 L-2.442288563568228,-2.515523660351566 L-2.5716577539126235,-2.5229631484789725 L-2.6992901134028684,-2.534888198863142 L-2.82438769698498,-2.5512242572530166 L-2.946168406776547,-2.571869192206022 L-3.0638708816663516,-2.5966939336038806 L-3.176759257269728,-2.6255432795863904 L-3.2841277664808675,-2.6582368668583083 L-3.385305151859882,-2.6945702983030655 L-3.479658862268793,-2.7343164208535926 L-3.5665990075195153,-2.7772267456311224 L-3.6455820463097255,-2.8230330014734024 " />
			<path d="M10.322322198539908,-4.982318964836358 L10.322322198539906,-73.18804908791049 " />
			<path d="M10.322322198539906,-73.18804908791049 L10.322322198539906,-74.98293672272823 " />
			<path d="M10.322322198539906,-74.98293672272823 L11.469246887266562,-74.26016317850632 " />
			<path d="M11.469246887266564,-2.4646577857967094 L11.469246887266562,-74.26016317850632 " />
			<path d="M-9.994629430332292,4.163175614718194 L-9.994629430332294,-67.63232977799142 " />
			<path d="M-9.175397509813253,-67.8853005184691 L-9.994629430332294,-67.63232977799143 " />
			<path d="M-11.387323695214661,4.054759583084909 L-11.387323695214663,-67.74074580962471 " />
			<path d="M-11.387323695214663,-67.7407458096247 L-9.994629430332294,-67.63232977799142 " />
			<path d="M-11.960786039577991,-68.10213258173566 L-11.387323695214663,-67.7407458096247 " />
			<path d="M-11.960786039577991,3.6933728109739548 L-11.960786039577993,-68.10213258173566 " />
			<path d="M-11.960786039577995,-68.10213258173566 L-12.11838976266471,-68.20349724837018 L-12.27157956485859,-68.30617024392512 L-12.420299649334984,-68.41011417147823 L-12.564495847289225,-68.51529117119144 L-12.704115637666675,-68.62166293410083 L-12.839108166292654,-68.72919071606994 L-12.969424264395226,-68.83783535190166 L-13.095016466514101,-68.94755726960358 L-13.21583902778913,-69.05831650480135 L-13.331847940622108,-69.17007271529506 L-13.443000950705814,-69.28278519575323 L-13.54925757241442,-69.39641289253902 L-13.65057910354972,-69.51091441866333 L-13.746928639437751,-69.62624806885935 L-13.8382710863707,-69.74237183477301 L-13.924573174389202,-69.85924342026372 L-14.005803469400382,-69.97682025681021 L-14.081932384627168,-70.09505951901522 L-14.15293219138481,-70.21391814020406 L-14.218777029180568,-70.33335282811088 L-14.27944291513298,-70.45332008064713 L-14.334907752707212,-70.57377620174653 L-14.385151339763363,-70.6946773172806 L-14.430155375914746,-70.81597939103904 L-14.46990346919351,-70.93763824076925 L-14.504381142021131,-71.05960955426893 L-14.53357583648163,-71.1818489055261 L-14.557476918895585,-71.30431177090047 L-14.576075683693274,-71.42695354534051 L-14.589365356585525,-71.54972955863002 L-14.597341097031142,-71.67259509165856 L-14.600000000000003,-71.79550539270959 " />
			<path d="M12.288478807785605,-2.7176285262743773 L12.288478807785603,-74.513133918984 " />
			<path d="M12.534248383941316,-75.12749143157261 L12.288478807785603,-74.51313391898398 " />
			<path d="M12.288478807785603,-74.513133918984 L11.469246887266564,-74.26016317850632 " />
			<path d="M-4.317000528868546,3.666401128475622 L-4.105537460624087,3.7173818504517406 L-3.887498782587298,3.7626527348633676 L-3.663675876718308,3.802049468839205 L-3.4348811191127897,3.835429060021946 L-3.201944931443501,3.8626703555659736 L-2.9657127669045407,3.8836744818674935 L-2.727042041597961,3.898365203431074 L-2.486799022500427,3.906689199570077 L-2.245855683305198,3.908616257936674 L-2.0050865395513044,3.9041393841790337 L-1.7653654745269718,3.8932748273276543 L-1.527562567467828,3.8760620208187255 L-1.292540935562107,3.852563439368554 L-1.0611536012249387,3.822864372218553 L-0.8342403960121099,3.7870726135738 L-0.6126249124106862,3.745318071358741 L-0.3971115145701254,3.6977522957100772 L-0.18848241882357186,3.6445479289181906 L0.012505145404274387,3.5858980788135737 L0.20512168399809028,3.522015617872592 L0.3886680858862137,3.4531324105865036 L0.47683044808290953,3.416892972108305 L0.5624781604981965,3.379498471898038 L0.6455334898626717,3.3409828489445803 L0.7259210557357982,3.3013810597600313 L0.8035678989206736,3.260729046653421 L0.8784035476812853,3.2190637051097237 L0.9503600817021689,3.176422850303772 L1.0193721937324178,3.1328451827794637 L1.0853772488580913,3.0883702533254196 L1.1483153413492269,3.04303842707896 L1.2081293490298632,2.996890846890988 L1.2647649851217317,2.9499693959850233 L1.3181708475145615,2.902316659944277 L1.368298465418278,2.853975888061274 L1.415102343354751,2.8049909540850955 L1.4585400024491793,2.755406316401869 L1.4985720189836225,2.7052669776846416 L1.5351620601776927,2.6546184440492704 L1.5682769171639328,2.6035066837533893 L1.5978865351279556,2.551978085475931 L1.6239640405859865,2.5000794162150877 L1.6464857657750422,2.447857778842918 " />
			<path d="M-10.650014966747525,1.493731991391945 L-10.650014966747527,-66.7119981316822 " />
			<path d="M-10.322322198539911,-66.81318642787325 L-10.650014966747527,-66.71199813168218 " />
			<path d="M10.322322198539908,-73.18804908791049 L-10.322322198539911,-66.81318642787325 " />
			<path d="M-1.9539925233402755e-14,-71.79550539270961 L-10.32232219853991,-68.608074062691 " />
			<path d="M10.322322198539908,-74.98293672272823 L-1.9539925233402755e-14,-71.79550539270961 " />
			<path d="M-5.570777059529476,-72.22916951924276 L-5.454276002414904,-72.15945874282491 L-5.33016120074012,-72.09235362045912 L-5.198731657933532,-72.02801581426289 L-5.0603039992756305,-71.96660031964664 L-4.915211709120953,-71.9082550919163 L-4.763804327505065,-71.85312068983589 L-4.606446608072,-71.80132993700923 L-4.44351763935078,-71.75300760189623 L-4.275409931497947,-71.70827009723467 L-4.102528470706216,-71.66722519959188 L-3.9252897435572596,-71.62997178972134 L-3.74412073366906,-71.59659961435048 L-3.5594578930549683,-71.5671890699728 L-3.371746090672579,-71.54181100916577 L-3.181437540695443,-71.52052656990072 L-2.9889907130895157,-71.50338702825617 L-2.794869229118851,-71.49043367488916 L-2.5995407444413674,-71.48169771556255 L-2.4034758224854085,-71.47720019596751 L-2.2071468008212247,-71.4769519510227 L-2.0110266532583965,-71.48095357877193 L-1.8155878504104987,-71.48919543894345 L-1.6213012214720095,-71.50165767617422 L-1.42863481994954,-71.51831026784318 L-1.2380527960799423,-71.53911309639838 L-1.0500142786517312,-71.56401604600376 L-0.8649722689236208,-71.59295912327245 L-0.6833725493048115,-71.6258726017962 L-0.505652609426122,-71.66267719012237 L-0.3322405921891485,-71.70328422277399 L-0.16355426233251347,-71.74759587385263 L-3.3306690738754696e-14,-71.7955053927096 " />
			<path d="M-1.9095836023552692e-14,-71.79550539270961 L0.1923838023480382,-71.85878797655673 L0.37581853876742244,-71.92704594898888 L0.4639723507588669,-71.96296460329157 L0.5496439455454771,-72.00003361901439 L0.6327562131732751,-72.03821963165532 L0.7132343472475853,-72.07748827134317 L0.7910059122636164,-72.11780419377268 L0.8660009088030765,-72.15913111201667 L0.9381518365381565,-72.20143182918653 L1.0073937549861802,-72.24466827191198 L1.0736643419602179,-72.2888015246094 L1.1369039496630666,-72.33379186450847 L1.197055658374115,-72.37959879740514 L1.254065327680757,-72.42618109410908 L1.3078816452082473,-72.4734968275526 L1.3584561728041482,-72.52150341052766 L1.4057433901357856,-72.57015763401718 L1.4497007356614806,-72.61941570608586 L1.490288644938678,-72.66923329129582 L1.527470586234493,-72.7195655506113 L1.5612130934066268,-72.77036718175667 L1.5914857960250481,-72.82159245999144 L1.618261446707336,-72.87319527926542 L1.6415159456430795,-72.92512919371721 L1.6612283622852622,-72.97734745947838 L1.6773809541891,-73.02980307674605 L1.6899591829813838,-73.08244883208565 L1.6989517274459542,-73.1352373409261 L1.704350493713525,-73.18812109020901 L1.7061506225466845,-73.24105248115343 " />
			<path d="M1.7061506225466845,-73.24105248115343 L1.7049458973315015,-73.28435584928349 L1.701332447367374,-73.32763313308381 L1.6953124492614453,-73.37085826393685 L1.6868895292354718,-73.4140052046401 L1.6760687609415243,-73.45704796508984 L1.662856662405808,-73.49996061793665 L1.6472611921024494,-73.54271731420307 L1.6292917441596062,-73.58529229885403 L1.6089591427007988,-73.62765992631076 L1.5862756353248604,-73.6697946758987 L1.5612548857284443,-73.71167116722025 L1.5339119654755198,-73.75326417544287 L1.5042633449188303,-73.79454864649367 L1.4723268832787668,-73.83549971215103 L1.401668752591831,-73.9163031734123 L1.3221077950404574,-73.99547989661093 L1.2338356799401038,-74.0728391380857 L1.1370650625477712,-74.14819453264802 L1.032029071756864,-74.22136454255201 L0.9189807484692634,-74.2921728948349 L0.7981924359976307,-74.36044900597398 L0.6699551239665182,-74.42602839283718 L0.5345777472928726,-74.48875306893753 L0.39238644193475647,-74.54847192503622 L0.2437237592012651,-74.60504109317819 L0.08894784051641702,-74.65832429328249 L-0.07156844537490992,-74.70819316145304 L-0.2374384006804342,-74.75452755921839 L-0.4082624301493303,-74.79721586295592 L-0.5836290037321921,-74.83615523280288 L-0.7631156479929608,-74.8712518604066 L-0.9462899638844391,-74.90242119491711 L-1.1327106684354693,-74.92958814667746 L-1.3219286578402625,-74.9526872681213 L-1.5134880893888045,-74.97166291144183 L-1.7069274796318699,-74.98646936265222 L-1.9017808161350738,-74.99707095171462 L-2.0975786801436436,-75.0034421384724 L-2.2938493774533186,-75.00556757417857 L-2.4901200747629932,-75.00344213847238 L-2.685917938771563,-74.99707095171462 L-2.8807712752747667,-74.98646936265222 L-3.0742106655178323,-74.97166291144183 L-3.2657700970663743,-74.9526872681213 L-3.4549880864711673,-74.92958814667746 L-3.6414087910221973,-74.90242119491711 L-3.8245831069136758,-74.8712518604066 L-4.004069751174444,-74.83615523280287 L-4.179436324757306,-74.79721586295592 L-4.350260354226202,-74.75452755921839 L-4.516130309531726,-74.70819316145304 L-4.676646595423053,-74.65832429328249 L-4.831422514107901,-74.60504109317819 L-4.980085196841392,-74.54847192503621 L-5.122276502199508,-74.48875306893751 L-5.257653878873153,-74.42602839283718 L-5.385891190904264,-74.36044900597398 L-5.506679503375896,-74.2921728948349 L-5.619727826663498,-74.22136454255201 L-5.7247638174544075,-74.148194532648 L-5.821534434846738,-74.0728391380857 L-5.909806549947091,-73.99547989661093 L-5.989367507498464,-73.91630317341229 L-6.0600256381854,-73.83549971215103 L-6.091962099825463,-73.79454864649367 L-6.121610720382152,-73.75326417544287 L-6.148953640635076,-73.71167116722025 L-6.173974390231492,-73.6697946758987 L-6.19665789760743,-73.62765992631076 L-6.216990499066238,-73.58529229885403 L-6.234959947009081,-73.54271731420307 L-6.250555417312439,-73.49996061793665 L-6.263767515848155,-73.45704796508984 L-6.274588284142103,-73.4140052046401 L-6.283011204168076,-73.37085826393685 L-6.289031202274005,-73.32763313308381 L-6.292644652238133,-73.28435584928349 L-6.2938493774533155,-73.24105248115345 " />
			<path d="M-6.2938493774533155,-73.24105248115343 L-6.290935776517841,-73.17371663620011 L-6.2821992182466255,-73.10647888613723 L-6.267652430061844,-73.03943718295051 L-6.247316603731327,-72.97268919302451 L-6.221221364496386,-72.90633215486217 L-6.189404727913744,-72.84046273742774 L-6.1519130444744565,-72.77517689931935 L-6.108800932080493,-72.71056974897648 L-6.060131196477355,-72.64673540612597 L-6.005974739758635,-72.58376686466833 L-5.946410457075809,-72.52175585720424 L-5.881525121703753,-72.46079272139835 L-5.811413258629383,-72.40096626837544 L-5.7361770068476226,-72.34236365334023 L-5.655925970565256,-72.28507024860974 L-5.57077705952948,-72.22916951924276 " />
			<path d="M10.650014966747523,-73.28923738410155 L10.322322198539908,-73.18804908791049 " />
			<path d="M10.650014966747523,-5.083507261027426 L10.650014966747522,-73.28923738410155 " />
			<path d="M-10.650014966747529,-66.7119981316822 L-10.79034704894803,-66.80225434169922 L-10.926748927613811,-66.89367550212486 L-11.059170920640739,-66.98622831432968 L-11.1875647955315,-67.07987906749898 L-11.311883786963477,-67.17459365091145 L-11.432082613822224,-67.2703375663634 L-11.548117495694378,-67.36707594073411 L-11.659946168813926,-67.46477353868788 L-11.767527901456074,-67.5633947755078 L-11.870823508773109,-67.662903730057 L-11.969795367066821,-67.76326415786222 L-12.064407427492291,-67.86443950431531 L-12.154625229188106,-67.96639291798765 L-12.240415911828135,-68.06908726405261 L-12.321748227590348,-68.17248513781134 L-12.398592552538329,-68.27654887831677 L-12.470920897411299,-68.38124058209104 L-12.53870691781871,-68.48652211693111 L-12.601925923835788,-68.59235513579789 L-12.660554888996396,-68.6987010907834 L-12.714572458680049,-68.8055212471513 L-12.763958957889981,-68.9127766974453 L-12.80869639841943,-69.02042837566056 L-12.84876848540354,-69.12843707147286 L-12.884160623254495,-69.2367634445203 L-12.914859920977719,-69.34536803873236 L-12.940855196867203,-69.45421129670108 L-12.96213698257826,-69.56325357408922 L-12.978697526576202,-69.67245515407008 L-12.990530796959712,-69.78177626179361 L-12.997632483657865,-69.89117707887381 L-13.000000000000002,-70.00061775789185 " />
			<path d="M-13.000000000000002,-70.00061775789187 L-12.997458923101602,-70.11399861623907 L-12.989836685802068,-70.22733515005092 L-12.977136267900029,-70.34058305212004 L-12.959362634432186,-70.45369804988833 L-12.936522733732291,-70.5666359227546 L-12.90862549471481,-70.67935251936198 L-12.875681823384298,-70.79180377485821 L-12.83770459857186,-70.90394572812211 L-12.794708666900357,-71.01573453894957 L-12.74671083698036,-71.1271265051922 L-12.69372987283907,-71.23807807984196 L-12.635786486584795,-71.34854588805528 L-12.57290333030988,-71.4584867441098 L-12.5051049872352,-71.56785766828713 L-12.432417962099734,-71.67661590367514 L-12.354870670798926,-71.78471893288315 L-12.27249342927592,-71.89212449466343 L-12.18531844167001,-71.99879060043266 L-12.093379787726903,-72.10467555068661 L-11.996713409475774,-72.20973795130207 L-11.895357097178257,-72.31393672971919 L-11.789350474554913,-72.41723115099816 L-11.678734983294952,-72.51958083374397 L-11.563553866855209,-72.62094576589286 L-11.443852153554781,-72.72128632035447 L-11.319676638971876,-72.82056327050341 L-11.191075867649797,-72.91873780551438 L-11.058100114119176,-73.01577154553462 L-10.920801363243912,-73.11162655668795 L-10.779233289898473,-73.20626536590446 L-10.633451237984511,-73.29965097557002 L-10.483512198794996,-73.39174687798997 L-10.329474788734336,-73.48251706966121 L-10.171399226403175,-73.57192606534728 L-10.00934730905684,-73.6599389119507 L-9.843382388446647,-73.74652120217746 L-9.67356934605347,-73.83163908798791 L-9.49997456772332,-73.91525929382927 L-9.3226659177148,-73.99734912964409 L-9.141712712168587,-74.07787650365 L-8.957185692009343,-74.1568099348855 L-8.769156995290622,-74.23411856551698 L-8.577700128993568,-74.30977217290204 L-8.38288994029048,-74.3837411814047 L-8.184802587284457,-74.45599667395747 L-7.983515509236507,-74.52651040336605 L-7.77910739629186,-74.59525480335216 L-7.571658158717233,-74.66220299933015 L-7.361248895661116,-74.72732881891324 L-7.147961863449284,-74.79060680214515 L-6.931880443427938,-74.85201221145338 L-6.713089109367014,-74.91152104131993 L-6.491673394436442,-74.96911002766589 L-6.267719857768246,-75.02475665694622 L-6.0413160506175565,-75.07843917495106 L-5.812550482135766,-75.13013659531019 L-5.581512584769218,-75.17982870769737 L-5.348292679296933,-75.22749608573125 L-5.112981939521073,-75.2731200945698 L-4.875672356623913,-75.31668289819535 L-4.63645670320528,-75.3581674663873 L-4.3954284970145014,-75.39755758137983 L-4.152681964391057,-75.43483784420197 L-3.9083120034282226,-75.46999368069761 L-3.662414146874057,-75.5030113472231 L-3.4150845247843433,-75.53387793602 L-3.166419826942012,-75.56258138026129 L-2.916517265057701,-75.58911045876866 L-2.665474534766309,-75.61345480039925 L-2.4133897774343693,-75.63560488810012 L-2.1603615417931565,-75.65555206262877 L-1.9064887454125525,-75.67328852593839 L-1.6518706360307145,-75.68880734422633 L-1.3966067527546668,-75.7021024506448 L-1.1407968871469925,-75.71316864767262 L-0.8845410442138267,-75.72200160914704 L-0.627939403309409,-75.72859788195512 L-0.3710922789724769,-75.73295488738354 L-0.11410008170981067,-75.7350709221268 L0.14293672125773838,-75.73494515895304 L0.3999176452713919,-75.73257764702748 L0.6567422275174052,-75.72796931189319 L0.9133100663014881,-75.72112195510921 L1.1695208602993319,-75.71203825354635 L1.4252744477678982,-75.70072175834065 L1.6804708457021413,-75.68717689350508 L1.9350102889218543,-75.67140895420016 L2.188793269073349,-75.65342410466376 L2.4417205735307803,-75.63322937580136 L2.6936933241818,-75.61083266243746 L2.9446130160824437,-75.58624272022908 L3.19438155596618,-75.55946916224303 L3.4429013005919877,-75.53052245519771 L3.6900750949165038,-75.49941391537136 L3.9358063100753187,-75.46615570417812 L4.17999888115858,-75.43076082341372 L4.42255734476611,-75.39324311017256 L4.663386876327389,-75.35361723143843 L4.9023933271717866,-75.31189867835056 L5.139483261334562,-75.26810376014761 L5.374563992084248,-75.2222495977919 L5.607543618157124,-75.17435411727615 L5.838331059684638,-75.12443604261559 L6.066836093799695,-75.07251488852812 L6.292969389907931,-75.0186109528053 L6.516642544610163,-74.96274530837728 L6.73776811626236,-74.90493979507457 L6.956259659159632,-74.84521701109016 L7.172031757330882,-74.7836003041451 L7.3850000579308785,-74.720113762361 L7.5950813042167375,-74.65478220484319 L7.80219336809588,-74.58763117197809 L8.00625528223279,-74.51868691544848 L8.20718727170196,-74.44797638797095 L8.404910785174675,-74.37552723275897 L8.599348525627496,-74.30136777271636 L8.790424480560356,-74.22552699936476 L8.978063951712496,-74.14803456150986 L9.16219358426463,-74.06892075365072 L9.342741395515896,-73.98821650413645 L9.519636803024412,-73.9059533630754 L9.69281065220042,-73.82216349000097 L9.862195243341217,-73.73687964129948 L10.027724358097347,-73.65013515740439 L10.189333285359647,-73.56196394976251 L10.346958846557099,-73.47240048757673 L10.500539420355524,-73.38147978433085 L10.650014966747454,-73.2892373841016 " />
			<path d="M-3.6455820463097295,2.5616299029798157 L-3.687005738727623,2.53422577445848 L-3.725576514423694,2.5060230057512842 L-3.761215387855461,2.4770793507132023 L-3.7938493774533097,2.447454080392157 " />
			<path d="M-0.7938493774533135,2.4474540803921534 L-0.8421841598018829,2.490217178446785 L-0.8967754446916156,2.5314891055246513 L-0.9573879502486442,2.5710919845825457 L-1.0237604438620105,2.608855131973544 L-1.0956068680648094,2.6446157930729965 L-1.1726175734074764,2.6782198437313953 L-1.254460653009682,2.7095224545309224 L-1.3407833730390784,2.73838871498283 L-1.431213692951705,2.7646942149754237 L-1.525361868941998,2.788325580966684 L-1.6228221336917317,2.809180964610604 L-1.7231744451783686,2.8271704817113097 L-1.825986297005672,2.842216599613141 L-1.9308145824542704,2.8542544713570726 L-2.037207504218339,2.8632322151633107 L-2.1447065215976635,2.8691111380355263 L-2.2528483267529236,2.871865902523017 L-2.3611668415067735,2.871484635922071 L-2.4691952260847434,2.8679689814458964 L-2.576467891138539,2.8613340911425658 L-2.6825225043801457,2.8516085605915134 L-2.786901983178403,2.8388343056600247 L-2.8891564645301853,2.823066381850891 L-2.9888452439158524,2.8043727470198077 L-3.0855386746827413,2.782833968485191 L-3.1788200197705763,2.7585428757927217 L-3.268287247798095,2.731604160631166 L-3.353554765769956,2.702133925623783 L-3.434255080936191,2.6702591839399803 L-3.5100403846417656,2.6361173118838246 L-3.5805840513400664,2.5998554568186902 L-3.6455820463097255,2.5616299029798184 " />
			<path d="M-3.645582046309732,-71.02876312454754 L-3.713809524578467,-71.07545570486275 L-3.7737656219566205,-71.12430769543673 L-3.825101089404259,-71.1750345295356 L-3.867516893737026,-71.22734071931269 L-3.885300640099536,-71.25399116882913 L-3.900765959518242,-71.28092157704884 L-3.913890322108582,-71.30809271174054 L-3.924654608292995,-71.33546498998251 L-3.9330431366543332,-71.36299853582699 L-3.939043686780556,-71.39065323839151 L-3.9426475170674324,-71.41838881029246 L-3.9438493774533154,-71.44616484633569 " />
			<path d="M-3.9438493774533154,-71.44616484633569 L-3.94186188019185,-71.48187936525697 L-3.93590417646244,-71.51750784477395 L-3.925990618895204,-71.55296445275877 L-3.912145090118646,-71.58816377113719 L-3.894400945224313,-71.62302100166812 L-3.8728009314114606,-71.65745217023009 L-3.8473970850052996,-71.6913743291222 L-3.818250606096939,-71.72470575689248 L-3.7854317111069973,-71.75736615521191 L-3.749019463628102,-71.78927684232025 L-3.7091015839537644,-71.82036094257721 L-3.6657742377525153,-71.8505435716626 L-3.61914180439638,-71.8797520169793 L-3.5693166255018323,-71.90791591282417 L-3.516418734288999,-71.93496740990524 L-3.4605755664111193,-71.96084133879663 L-3.401921652950896,-71.98547536693734 L-3.340598296323331,-72.0088101487959 L-3.2767532298658315,-72.03078946883893 L-3.2105402619356602,-72.05136037695928 L-3.071653993216212,-72.08808224132922 L-2.9252770408557147,-72.11862209027763 L-2.77281909492318,-72.14268580836435 L-2.615748408779928,-72.16004164882965 L-2.45557765899709,-72.17052246544218 L-2.293849377453316,-72.17402732220856 L-2.1321210959095414,-72.17052246544218 L-1.9719503461267038,-72.16004164882965 L-1.8148796599834518,-72.14268580836435 L-1.6624217140509172,-72.11862209027763 L-1.5160447616904196,-72.08808224132922 L-1.3771584929709726,-72.05136037695928 L-1.3109455250408013,-72.03078946883893 L-1.2471004585833014,-72.0088101487959 L-1.1857771019557364,-71.98547536693734 L-1.1271231884955124,-71.96084133879663 L-1.0712800206176325,-71.93496740990524 L-1.0183821294047992,-71.90791591282417 L-0.9685569505102511,-71.8797520169793 L-0.9219245171541159,-71.85054357166261 L-0.8785971709528668,-71.82036094257721 L-0.8386792912785301,-71.78927684232025 L-0.8022670437996344,-71.75736615521191 L-0.7694481488096929,-71.72470575689248 L-0.7403016699013318,-71.6913743291222 L-0.7148978234951715,-71.65745217023009 L-0.6932978096823184,-71.62302100166812 L-0.6755536647879856,-71.58816377113719 L-0.661708136011427,-71.55296445275877 L-0.6517945784441908,-71.51750784477395 L-0.6458368747147811,-71.48187936525697 L-0.6438493774533156,-71.44616484633569 " />
			<path d="M-0.6438493774533156,-71.44616484633569 L-0.6451393365630533,-71.41738917733089 L-0.6490071969292308,-71.3886585015823 L-0.655446910816436,-71.36001774199525 L-0.6644484091730416,-71.3315116808834 L-0.6759976173750393,-71.30318488994757 L-0.6900764772329382,-71.27508166058418 L-0.7066629752273097,-71.24724593463168 L-0.7257311769288368,-71.21972123566373 L-0.7472512675490455,-71.19255060093629 L-0.7711895985583137,-71.16577651409517 L-0.8261675405063087,-71.11358475301249 L-0.890321286045882,-71.0634722502118 L-0.9632497522216434,-71.0157523041694 L-1.0444969973812417,-70.97072325533021 L-1.1335550716780722,-70.92866662091254 L-1.2298671927241402,-70.88984533488983 L-1.3328312265392057,-70.85450210415314 L-1.4418034520336565,-70.82285789113136 L-1.5561025854899295,-70.79511053235568 L-1.6750140398818183,-70.77143350160486 L-1.7977943924028108,-70.75197482536419 L-1.9236760322729165,-70.73685615737826 L-2.0518719597663386,-70.72617201808363 L-2.1815807064569457,-70.71998920367638 L-2.311991345920644,-70.71834636850869 L-2.4422885635682303,-70.7212537834257 L-2.5716577539126257,-70.72869327155311 L-2.6992901134028706,-70.74061832193728 L-2.8243876969849824,-70.75695438032714 L-2.946168406776549,-70.77759931528016 L-3.063870881666354,-70.802424056678 L-3.17675925726973,-70.83127340266053 L-3.2841277664808697,-70.86396698993244 L-3.3853051518598836,-70.9003004213772 L-3.479658862268795,-70.94004654392772 L-3.5665990075195175,-70.98295686870526 L-3.6455820463097277,-71.02876312454754 " />
			<path d="M-5.570777059529476,-75.81894478887824 L-5.4775290225478095,-75.76258691088589 L-5.379303026098654,-75.70789932016967 L-5.276252655053447,-75.65496752552457 L-5.168539037612055,-75.60387429040597 L-5.056330593364856,-75.55469950352185 L-4.939802769954088,-75.50752005391985 L-4.819137768746231,-75.46240971076459 L-4.694524259944357,-75.41943900799316 L-4.566157087585893,-75.37867513402918 L-4.434236964887049,-75.3401818267279 L-4.298970160410289,-75.30401927371648 L-4.160568175545531,-75.27024401828545 L-4.019247413809355,-75.23890887097836 L-3.875228842479337,-75.21006282701792 L-3.7287376470925153,-75.18375098969766 L-3.580002879348266,-75.16001449985912 L-3.4292570989660893,-75.13889047156445 L-3.276736010058298,-75.12041193406549 L-3.122678092586182,-75.1046077801595 L-2.967324229475886,-75.09150272101294 L-2.810917329977049,-75.08111724752331 L-2.6537019498531085,-75.07346759827985 L-2.495923908997132,-75.06856573417312 L-2.3378299070710806,-75.06641931969317 L-2.179667137769476,-75.06703171094532 L-2.0216829023106,-75.07040195040271 L-1.8641242227595731,-75.07652476840339 L-1.707237455787916,-75.08539059138998 L-1.551267907473512,-75.09698555687868 L-1.396459449743257,-75.11129153513451 L-1.2430541390581362,-75.12828615751872 L-1.09129183793694,-75.14794285146407 L-0.9414098399103898,-75.17023088202339 L-0.7936424984921093,-75.19511539992631 L-0.6482208607465658,-75.2225574960691 L-0.5053723060269255,-75.2525142623525 L-0.36532019044770236,-75.2849388587722 L-0.22828349764808165,-75.3197805866572 L-0.0944764963919984,-75.35698496794176 L0.03589159445967827,-75.39649383034637 L0.16261693308099323,-75.43824539833533 L0.28550137340529247,-75.48217438970805 L0.4043527749437992,-75.5282121176735 L0.5189853032139418,-75.57628659824795 L0.6292197203077055,-75.62632266280818 L0.7348836651456518,-75.67824207562411 L0.8358119229784293,-75.73196365618725 L0.9318466837143755,-75.78740340614334 L1.0228377886692925,-75.84447464063119 L1.1086429653525856,-75.90308812382192 L1.189128049922647,-75.9631522084469 L1.2641671969636716,-76.0245729790963 L1.3336430762558877,-76.0872543990639 L1.3974470562315378,-76.15109846050885 L1.4554793738297644,-76.21600533769944 L1.5076492904848156,-76.2818735430993 L1.5538752340036694,-76.34860008605192 L1.5940849261112362,-76.41608063381555 L1.628215495463718,-76.4842096746965 L1.65621357595341,-76.55288068302576 L1.6780353901512415,-76.62198628572119 L1.6936468177565875,-76.69141843017462 L1.7030234489473202,-76.76106855320151 L1.7061506225466845,-76.83082775078891 " />
			<path d="M1.7061506225466845,-76.83082775078891 L1.7044940243874374,-76.88160556433277 L1.6995256020684262,-76.9323413186604 L1.6912494709292853,-76.98299298939321 L1.6796724860818197,-77.03351862179892 L1.664804236731924,-77.08387636554274 L1.6466570382368495,-77.13402450935185 L1.6252459219044084,-77.18392151556489 L1.6005886225425519,-77.23352605453755 L1.572705563769647,-77.28279703887584 L1.5416198410976136,-77.3316936574688 L1.5073572028019293,-77.38017540929225 L1.4699460285943609,-77.42820213695575 L1.429417306116071,-77.475734059965 L1.3858046052705877,-77.52273180767193 L1.3391440504178806,-77.56915645188535 L1.2894742904525893,-77.6149695391152 L1.236836466791178,-77.66013312242346 L1.1812741792945385,-77.70460979285569 L1.1228334501542667,-77.74836271042668 L1.0615626857725218,-77.79135563463507 L0.9975126366670484,-77.83355295448133 L0.9307363554345716,-77.87491971796425 L0.8612891528073758,-77.91542166103171 L0.7892285518394804,-77.95502523596157 L0.6375080210355737,-78.03140683827844 L0.4760773388346258,-78.10381151007513 L0.3054712460243363,-78.17199941013493 L0.12625487703402571,-78.2357446653407 " />
			<path d="M-5.756414163772761,-77.71425848231374 L-5.820176068253684,-77.66373448938236 L-5.880150810753452,-77.61231598127675 L-5.936273980318529,-77.5600581798286 L-5.988485302461418,-77.50701720824377 L-6.036728703893527,-77.45325003082782 L-6.080952372746081,-77.39881439180809 L-6.121108814214425,-77.34376875331829 L-6.15715490156591,-77.28817223261203 L-6.189051922456628,-77.2320845385728 L-6.216765620507226,-77.17556590758853 L-6.240266232093171,-77.11867703885963 L-6.259528518309922,-77.06147902920995 L-6.2745317920787045,-77.00403330747086 L-6.285259940363778,-76.94640156850856 L-6.291701441477311,-76.88864570696576 L-6.2938493774533155,-76.83082775078893 " />
			<path d="M-6.2938493774533155,-76.83082775078891 L-6.290935776517841,-76.7634919058356 L-6.2821992182466255,-76.6962541557727 L-6.267652430061844,-76.62921245258599 L-6.247316603731327,-76.56246446265999 L-6.221221364496386,-76.49610742449765 L-6.189404727913744,-76.43023800706322 L-6.1519130444744565,-76.36495216895483 L-6.108800932080493,-76.30034501861196 L-6.060131196477355,-76.23651067576145 L-6.005974739758635,-76.17354213430382 L-5.946410457075809,-76.11153112683972 L-5.881525121703753,-76.05056799103383 L-5.811413258629383,-75.99074153801092 L-5.7361770068476226,-75.93213892297571 L-5.655925970565256,-75.87484551824522 L-5.57077705952948,-75.81894478887824 " />
			<path d="M-3.645582046309732,-76.41342602900076 L-3.713809524578467,-76.46011860931597 L-3.7737656219566205,-76.50897059988995 L-3.825101089404259,-76.55969743398882 L-3.867516893737026,-76.61200362376591 L-3.885300640099536,-76.63865407328235 L-3.900765959518242,-76.66558448150207 L-3.913890322108582,-76.69275561619376 L-3.924654608292995,-76.72012789443573 L-3.9330431366543332,-76.74766144028021 L-3.939043686780556,-76.77531614284473 L-3.9426475170674324,-76.80305171474568 L-3.9438493774533154,-76.83082775078891 " />
			<path d="M-3.9438493774533154,-76.83082775078891 L-3.94186188019185,-76.8665422697102 L-3.93590417646244,-76.90217074922717 L-3.925990618895204,-76.937627357212 L-3.912145090118646,-76.97282667559041 L-3.894400945224313,-77.00768390612134 L-3.8728009314114606,-77.04211507468331 L-3.8473970850052996,-77.07603723357542 L-3.818250606096939,-77.1093686613457 L-3.7854317111069973,-77.14202905966513 L-3.749019463628102,-77.17393974677347 L-3.7091015839537644,-77.20502384703043 L-3.6657742377525153,-77.23520647611582 L-3.61914180439638,-77.26441492143252 L-3.5693166255018323,-77.29257881727739 L-3.516418734288999,-77.31963031435846 L-3.4605755664111193,-77.34550424324985 L-3.401921652950896,-77.37013827139056 L-3.340598296323331,-77.39347305324912 L-3.2767532298658315,-77.41545237329215 L-3.2105402619356602,-77.4360232814125 L-3.071653993216212,-77.47274514578244 L-2.9252770408557147,-77.50328499473085 L-2.77281909492318,-77.52734871281757 L-2.615748408779928,-77.54470455328287 L-2.45557765899709,-77.5551853698954 L-2.293849377453316,-77.55869022666178 L-2.1321210959095414,-77.5551853698954 L-1.9719503461267038,-77.54470455328287 L-1.8148796599834518,-77.52734871281757 L-1.6624217140509172,-77.50328499473085 L-1.5160447616904196,-77.47274514578244 L-1.3771584929709726,-77.4360232814125 L-1.3109455250408013,-77.41545237329215 L-1.2471004585833014,-77.39347305324912 L-1.1857771019557364,-77.37013827139056 L-1.1271231884955124,-77.34550424324985 L-1.0712800206176325,-77.31963031435846 L-1.0183821294047992,-77.29257881727739 L-0.9685569505102511,-77.26441492143252 L-0.9219245171541159,-77.23520647611583 L-0.8785971709528668,-77.20502384703043 L-0.8386792912785301,-77.17393974677347 L-0.8022670437996344,-77.14202905966513 L-0.7694481488096929,-77.1093686613457 L-0.7403016699013318,-77.07603723357542 L-0.7148978234951715,-77.04211507468331 L-0.6932978096823184,-77.00768390612134 L-0.6755536647879856,-76.97282667559041 L-0.661708136011427,-76.937627357212 L-0.6517945784441908,-76.90217074922717 L-0.6458368747147811,-76.8665422697102 L-0.6438493774533156,-76.83082775078891 " />
			<path d="M-0.6438493774533156,-76.83082775078891 L-0.6451393365630533,-76.80205208178411 L-0.6490071969292308,-76.77332140603552 L-0.655446910816436,-76.74468064644847 L-0.6644484091730416,-76.71617458533662 L-0.6759976173750393,-76.6878477944008 L-0.6900764772329382,-76.6597445650374 L-0.7066629752273097,-76.6319088390849 L-0.7257311769288368,-76.60438414011695 L-0.7472512675490455,-76.57721350538951 L-0.7711895985583137,-76.5504394185484 L-0.8261675405063087,-76.49824765746571 L-0.890321286045882,-76.44813515466502 L-0.9632497522216434,-76.40041520862262 L-1.0444969973812417,-76.35538615978344 L-1.1335550716780722,-76.31332952536576 L-1.2298671927241402,-76.27450823934305 L-1.3328312265392057,-76.23916500860636 L-1.4418034520336565,-76.20752079558459 L-1.5561025854899295,-76.1797734368089 L-1.6750140398818183,-76.15609640605808 L-1.7977943924028108,-76.13663772981741 L-1.9236760322729165,-76.12151906183148 L-2.0518719597663386,-76.11083492253685 L-2.1815807064569457,-76.1046521081296 L-2.311991345920644,-76.10300927296191 L-2.4422885635682303,-76.10591668787892 L-2.5716577539126257,-76.11335617600633 L-2.6992901134028706,-76.1252812263905 L-2.8243876969849824,-76.14161728478037 L-2.946168406776549,-76.16226221973338 L-3.063870881666354,-76.18708696113123 L-3.17675925726973,-76.21593630711375 L-3.2841277664808697,-76.24862989438566 L-3.3853051518598836,-76.28496332583042 L-3.479658862268795,-76.32470944838094 L-3.5665990075195175,-76.36761977315848 L-3.6455820463097277,-76.41342602900076 " />
			<path d="M35.39081896642255,23.712995363347126 L28.836963602270227,25.73676128716847 " />
			<path d="M-5.570777059529474,4.053554960511206 L28.836963602270224,25.73676128716847 " />
			<path d="M-3.64558204630973,3.4590737203886857 L-3.7938493774533124,3.5048572105196323 " />
			<path d="M-0.9421167085968971,2.6242702768123807 L-0.8738892303281618,2.6709628571275887 L-0.8139331329500079,2.719814847701564 L-0.7625976655023694,2.770541681800431 L-0.7201818611696025,2.8228478715775394 L-0.7023981148070928,2.849498321093975 L-0.6869327953883864,2.876428729313689 L-0.6738084327980467,2.90359986400539 L-0.6630441466136336,2.9309721422473514 L-0.6546556182522953,2.9585056880918263 L-0.648655068126073,2.98616039065635 L-0.6450512378391964,3.0138959625572914 L-0.6438493774533134,3.0416719986005267 " />
			<path d="M-0.6438493774533134,3.0416719986005334 L-0.6451393365630511,3.0704476676053356 L-0.6490071969292286,3.09917834335393 L-0.6554469108164338,3.12781910294097 L-0.6644484091730394,3.1563251640528325 L-0.675997617375037,3.1846519549886523 L-0.690076477232936,3.212755184352044 L-0.7066629752273075,3.2405909103045474 L-0.7257311769288346,3.268115609272503 L-0.7472512675490433,3.2952862439999397 L-0.7711895985583115,3.322060330841058 L-0.8261675405063065,3.3742520919237355 L-0.8903212860458798,3.4243645947244197 L-0.9632497522216412,3.47208454076683 L-1.0444969973812395,3.5171135896060117 L-1.13355507167807,3.55917022402368 L-1.229867192724138,3.597991510046392 L-1.3328312265392035,3.6333347407830843 L-1.4418034520336542,3.6649789538048636 L-1.5561025854899273,3.6927263125805507 L-1.675014039881816,3.7164033433313595 L-1.7977943924028086,3.735862019572031 L-1.9236760322729143,3.750980687557972 L-2.0518719597663364,3.7616648268525914 L-2.1815807064569435,3.7678476412598436 L-2.311991345920642,3.769490476427528 L-2.442288563568228,3.7665830615105254 L-2.5716577539126235,3.7591435733831187 L-2.6992901134028684,3.747218522998949 L-2.82438769698498,3.730882464609075 L-2.946168406776547,3.7102375296560695 L-3.0638708816663516,3.6854127882582106 L-3.176759257269728,3.6565634422757007 L-3.2841277664808675,3.6238698550037833 L-3.385305151859882,3.5875364235590257 L-3.479658862268793,3.5477903010084986 L-3.5665990075195153,3.504879976230969 L-3.6455820463097255,3.4590737203886888 " />
			<path d="M28.836963602270224,29.32653655680395 L28.836963602270224,25.73676128716847 " />
			<path d="M-3.6455820463097295,5.253961355206426 L-3.5665990075195158,5.2997676110487095 L-3.4796588622687934,5.342677935826239 L-3.385305151859882,5.382424058376766 L-3.284127766480868,5.418757489821523 L-3.176759257269728,5.451451077093441 L-3.063870881666352,5.480300423075951 L-2.946168406776547,5.505125164473809 L-2.8243876969849806,5.525770099426815 L-2.6992901134028684,5.542106157816689 L-2.5716577539126235,5.5540312082008585 L-2.442288563568228,5.561470696328266 L-2.3119913459206414,5.564378111245269 L-2.181580706456943,5.562735276077584 L-2.051871959766336,5.556552461670331 L-1.923676032272914,5.545868322375712 L-1.7977943924028084,5.530749654389771 L-1.6750140398818156,5.511290978149099 L-1.5561025854899273,5.487613947398291 L-1.4418034520336542,5.459866588622604 L-1.3328312265392035,5.428222375600824 L-1.2298671927241376,5.392879144864133 L-1.1335550716780698,5.35405785884142 L-1.0444969973812392,5.312001224423752 L-0.9632497522216408,5.26697217558457 L-0.8903212860458791,5.2192522295421595 L-0.8261675405063063,5.169139726741475 L-0.7711895985583115,5.116947965658799 L-0.7472512675490428,5.09017387881768 L-0.7257311769288344,5.063003244090243 L-0.706662975227307,5.035478545122287 L-0.6900764772329357,5.007642819169784 L-0.675997617375037,4.979539589806392 L-0.6644484091730392,4.951212798870572 L-0.6554469108164336,4.92270673775871 L-0.6490071969292284,4.89406597817167 L-0.6451393365630511,4.865335302423076 L-0.6438493774533134,4.836559633418276 " />
			<path d="M-0.6438493774533134,4.836559633418274 L-0.6450512378391964,4.808783597375032 L-0.6486550681260728,4.781048025474091 L-0.6546556182522953,4.753393322909567 L-0.6630441466136336,4.725859777065092 L-0.6738084327980467,4.69848749882313 L-0.6869327953883864,4.671316364131429 L-0.7023981148070928,4.644385955911716 L-0.7201818611696025,4.61773550639528 L-0.7625976655023692,4.565429316618172 L-0.8139331329500079,4.514702482519304 L-0.8738892303281616,4.4658504919453295 L-0.9421167085968924,4.419157911630124 " />
			<path d="M-3.64558204630973,5.2539613552064255 L-3.64558204630973,6.918289126070202 " />
			<path d="M-3.64558204630973,5.2539613552064255 L-3.64558204630973,3.459073720388685 " />
			<path d="M10.900609370265819,-76.08006078157511 L12.534248383941316,-75.05056767579471 " />
			<path d="M1.8670203229947986,-78.18310844697402 L12.534248383941316,-71.46079240615923 " />
			<path d="M-0.9421167085968991,-78.14567328998594 L-0.9421167085968991,-78.4915366136187 " />
			<path d="M-0.2706982260380818,-78.35300069807288 L-0.942116708596899,-78.14567328998594 " />
			<path d="M35.39081896642255,-60.64672347308667 L28.836963602270227,-58.62295754926533 " />
			<path d="M-5.570777059529477,-80.30616387592259 L28.836963602270224,-58.62295754926533 " />
			<path d="M-3.645582046309732,-80.90064511604511 L-3.7938493774533146,-80.85486162591417 " />
			<path d="M-0.9421167085968998,-81.73544855962142 L-0.8738892303281645,-81.68875597930621 L-0.8139331329500106,-81.63990398873223 L-0.7625976655023721,-81.58917715463336 L-0.7201818611696051,-81.53687096485626 L-0.7023981148070955,-81.51022051533982 L-0.686932795388389,-81.48329010712011 L-0.6738084327980494,-81.45611897242841 L-0.6630441466136363,-81.42874669418644 L-0.654655618252298,-81.40121314834197 L-0.6486550681260757,-81.37355844577745 L-0.645051237839199,-81.3458228738765 L-0.643849377453316,-81.31804683783326 " />
			<path d="M-0.643849377453316,-81.31804683783326 L-0.6451393365630538,-81.28927116882846 L-0.6490071969292313,-81.26054049307987 L-0.6554469108164365,-81.23189973349282 L-0.664448409173042,-81.20339367238097 L-0.6759976173750397,-81.17506688144515 L-0.6900764772329386,-81.14696365208175 L-0.7066629752273101,-81.11912792612925 L-0.7257311769288373,-81.0916032271613 L-0.7472512675490459,-81.06443259243386 L-0.7711895985583141,-81.03765850559274 L-0.8261675405063091,-80.98546674451006 L-0.8903212860458825,-80.93535424170938 L-0.9632497522216439,-80.88763429566697 L-1.0444969973812421,-80.84260524682779 L-1.1335550716780727,-80.80054861241011 L-1.2298671927241407,-80.7617273263874 L-1.3328312265392062,-80.72638409565072 L-1.441803452033657,-80.69473988262894 L-1.55610258548993,-80.66699252385325 L-1.6750140398818187,-80.64331549310243 L-1.7977943924028112,-80.62385681686176 L-1.923676032272917,-80.60873814887583 L-2.051871959766339,-80.5980540095812 L-2.181580706456946,-80.59187119517395 L-2.3119913459206445,-80.59022836000626 L-2.4422885635682308,-80.59313577492327 L-2.571657753912626,-80.60057526305069 L-2.699290113402871,-80.61250031343485 L-2.824387696984983,-80.62883637182472 L-2.9461684067765495,-80.64948130677773 L-3.0638708816663542,-80.6743060481756 L-3.1767592572697305,-80.7031553941581 L-3.28412776648087,-80.73584898143001 L-3.3853051518598845,-80.77218241287477 L-3.4796588622687956,-80.8119285354253 L-3.566599007519518,-80.85483886020283 L-3.645582046309728,-80.90064511604511 " />
			<path d="M28.83696360227022,-55.03318227962985 L28.83696360227022,-58.62295754926533 " />
			<path d="M-5.570777059529477,-76.71638860628711 L12.534248383941314,-65.30689194392698 " />
			<path d="M-3.645582046309732,-77.31086984640963 L-5.570777059529477,-76.71638860628711 " />
			<path d="M-3.645582046309732,-77.31086984640963 L-3.5665990075195175,-77.26506359056735 L-3.4796588622687956,-77.22215326578981 L-3.385305151859884,-77.18240714323929 L-3.28412776648087,-77.14607371179453 L-3.1767592572697305,-77.11338012452262 L-3.0638708816663542,-77.08453077854011 L-2.9461684067765495,-77.05970603714225 L-2.8243876969849824,-77.03906110218924 L-2.6992901134028706,-77.02272504379937 L-2.5716577539126257,-77.0107999934152 L-2.4422885635682303,-77.00336050528779 L-2.3119913459206436,-77.00045309037078 L-2.1815807064569452,-77.00209592553847 L-2.051871959766338,-77.00827873994572 L-1.9236760322729163,-77.01896287924035 L-1.7977943924028106,-77.03408154722628 L-1.6750140398818179,-77.05354022346695 L-1.5561025854899295,-77.07721725421777 L-1.4418034520336565,-77.10496461299346 L-1.3328312265392057,-77.13660882601523 L-1.2298671927241398,-77.17195205675192 L-1.133555071678072,-77.21077334277463 L-1.0444969973812415,-77.2528299771923 L-0.963249752221643,-77.29785902603149 L-0.8903212860458813,-77.3455789720739 L-0.8261675405063085,-77.39569147487458 L-0.7711895985583137,-77.44788323595726 L-0.747251267549045,-77.47465732279838 L-0.7257311769288366,-77.50182795752582 L-0.7066629752273093,-77.52935265649377 L-0.690076477232938,-77.55718838244627 L-0.6759976173750393,-77.58529161180967 L-0.6644484091730414,-77.61361840274549 L-0.6554469108164358,-77.64212446385734 L-0.6490071969292306,-77.67076522344439 L-0.6451393365630533,-77.69949589919298 L-0.6438493774533156,-77.72827156819778 " />
			<path d="M-0.6438493774533156,-77.72827156819778 L-0.6450512378391986,-77.75604760424102 L-0.648655068126075,-77.78378317614197 L-0.6546556182522976,-77.81143787870649 L-0.6630441466136359,-77.83897142455096 L-0.6738084327980489,-77.86634370279293 L-0.6869327953883886,-77.89351483748463 L-0.702398114807095,-77.92044524570434 L-0.7201818611696047,-77.94709569522078 L-0.7625976655023714,-77.99940188499788 L-0.8139331329500101,-78.05012871909675 L-0.8738892303281638,-78.09898070967073 L-0.9421167085968947,-78.14567328998594 " />
			<path d="M-3.645582046309732,-79.10575748122737 L-3.5665990075195175,-79.05995122538509 L-3.4796588622687956,-79.01704090060755 L-3.385305151859884,-78.97729477805703 L-3.28412776648087,-78.94096134661227 L-3.1767592572697305,-78.90826775934036 L-3.0638708816663542,-78.87941841335785 L-2.9461684067765495,-78.85459367195999 L-2.8243876969849824,-78.83394873700698 L-2.6992901134028706,-78.81761267861711 L-2.5716577539126257,-78.80568762823295 L-2.4422885635682303,-78.79824814010553 L-2.3119913459206436,-78.79534072518852 L-2.1815807064569452,-78.79698356035621 L-2.051871959766338,-78.80316637476346 L-1.9236760322729163,-78.81385051405809 L-1.7977943924028106,-78.82896918204402 L-1.6750140398818179,-78.8484278582847 L-1.5561025854899295,-78.87210488903551 L-1.4418034520336565,-78.8998522478112 L-1.3328312265392057,-78.93149646083297 L-1.2298671927241398,-78.96683969156966 L-1.133555071678072,-79.00566097759237 L-1.0444969973812415,-79.04771761201005 L-0.963249752221643,-79.09274666084923 L-0.8903212860458813,-79.14046660689164 L-0.8261675405063085,-79.19057910969232 L-0.7711895985583137,-79.242770870775 L-0.747251267549045,-79.26954495761612 L-0.7257311769288366,-79.29671559234356 L-0.7066629752273093,-79.32424029131151 L-0.690076477232938,-79.35207601726401 L-0.6759976173750393,-79.3801792466274 L-0.6644484091730414,-79.40850603756323 L-0.6554469108164358,-79.43701209867508 L-0.6490071969292306,-79.46565285826213 L-0.6451393365630533,-79.49438353401072 L-0.6438493774533156,-79.52315920301552 " />
			<path d="M-0.6438493774533156,-79.52315920301552 L-0.6450512378391986,-79.55093523905876 L-0.648655068126075,-79.57867081095971 L-0.6546556182522976,-79.60632551352423 L-0.6630441466136359,-79.6338590593687 L-0.6738084327980489,-79.66123133761067 L-0.6869327953883886,-79.68840247230237 L-0.702398114807095,-79.71533288052208 L-0.7201818611696047,-79.74198333003852 L-0.7625976655023714,-79.79428951981562 L-0.8139331329500101,-79.84501635391449 L-0.8738892303281638,-79.89386834448847 L-0.9421167085968947,-79.94056092480368 " />
			<path d="M-3.645582046309732,-79.10575748122737 L-3.645582046309732,-77.31086984640963 " />
			<path d="M-3.645582046309732,-79.10575748122737 L-3.645582046309732,-80.90064511604511 " />
			<path d="M-5.570777059529477,-76.71638860628711 L-5.570777059529477,-77.84271071269958 " />
			<path d="M-3.5226972582318763,-80.93859072711676 L-3.450894495695318,-80.89694867635104 L-3.3718580000128435,-80.85793929018966 L-3.286081899641106,-80.82180645150736 L-3.194102458387457,-80.78877605928486 L-3.0964947227409656,-80.75905461631038 L-2.9938689267378966,-80.73282793814447 L-2.886866676838074,-80.71025999141914 L-2.776156940663922,-80.69149186873459 L-2.6624318646801846,-80.67664090656197 L-2.5464024469617796,-80.66579995166728 L-2.4287940921032383,-80.65903678064237 L-2.3103420760599778,-80.65639367617236 L-2.1917869492747974,-80.65788716268844 L-2.0738699068287914,-80.66350790305867 L-1.957328154562044,-80.67322075696286 L-1.842890300134675,-80.68696500058645 L-1.7312717978428638,-80.70465470625979 L-1.6231704756684198,-80.72617927966961 L-1.5192621725263533,-80.75140415128388 L-1.4201965129859433,-80.7801716176673 L-1.326592845881338,-80.81230182742794 L-1.2390363722030946,-80.8475939056304 L-1.1580744864787031,-80.88582720964646 L-1.0842133545154318,-80.92676270859118 L-1.0179147489011031,-80.97014447772064 L-0.9595931620469458,-81.01570129844853 L-0.9096132148214959,-81.06314835397825 L-0.8682873769765167,-81.11218900994966 L-0.8509526481569467,-81.1372114635569 L-0.8358740136166092,-81.16251666896825 L-0.8230750501094284,-81.18806505929861 L-0.8125757699257938,-81.21381668742208 L-0.8043925896016071,-81.23973128843286 L-0.7985383042496024,-81.26576834260291 L-0.7950220675530777,-81.29188713873799 L-0.793849377453316,-81.31804683783326 " />
			<path d="M-0.793849377453316,-81.31804683783326 L-0.7962046422745162,-81.35511280524157 L-0.8032630403749454,-81.3920623724244 L-0.8150024058922845,-81.42877950469412 L-0.831385873073698,-81.46514889729075 L-0.8523619920473176,-81.50105633747968 L-0.8778648903930037,-81.53638906322 L-0.9078144800050074,-81.57103611727706 L-0.942116708596896,-81.60488869566746 " />
			<path d="M-3.793849377453316,-81.31804683783326 L-3.7927567771025132,-81.29279589597577 L-3.7894805677508074,-81.2675817397022 L-3.784025522181514,-81.24244110100717 L-3.77639958730757,-81.21741060478492 L-3.7666138725944673,-81.19252671547405 L-3.7546826338759764,-81.16782568393613 L-3.7244562104385075,-81.1191158132669 L-3.6858963883178104,-81.07156473165135 L-3.63922778154723,-81.02544942792511 L-3.584722238476181,-80.98103852740331 L-3.5226972582318776,-80.93859072711676 " />
			<path d="M-13.000000000000002,-70.00061775789187 L-13.0,-1.794887634817739 " />
			<path d="M-0.6438493774533135,-3.2404347232615573 L-0.6438493774533133,2.1442281811916635 " />
			<path d="M-3.943849377453313,-3.2404347232615573 L-3.943849377453313,2.1442281811916635 " />
			<path d="M1.706150622546684,-76.83082775078891 L1.706150622546684,-73.24105248115343 " />
			<path d="M-6.293849377453315,-76.83082775078891 L-6.293849377453315,-73.24105248115343 " />
			<path d="M-0.6438493774533157,-76.83082775078891 L-0.6438493774533156,-71.44616484633569 " />
			<path d="M-3.943849377453316,-76.83082775078891 L-3.9438493774533154,-71.44616484633569 " />
			<path d="M-0.6438493774533132,6.631447268236014 L-0.6438493774533132,4.836559633418274 " />
			<path d="M-0.6438493774533132,3.0416719986005334 L-0.6438493774533132,4.836559633418274 " />
			<path d="M-0.6438493774533158,-77.72827156819778 L-0.6438493774533158,-79.52315920301552 " />
			<path d="M-0.6438493774533158,-81.31804683783326 L-0.6438493774533158,-79.52315920301552 " />
			<path d="M-0.793849377453316,-81.31804683783325 L-0.7938493774533134,1.8410022819911722 " />
			<path d="M-0.7938493774533134,2.5784867866814345 L-0.7938493774533133,6.328221369035524 " />
			<path d="M-3.793849377453315,-78.46657702120773 L-3.7938493774533124,1.841002281991173 " />

       </g>

       <!-- solid lines -->
       <g  stroke="rgb(40,40,40)" fill="none">
			<path d="M10.322322198539908,-3.187431330018618 L1.7061506225466871,-0.5268424917801267 " />
			<path d="M-6.293849377453313,1.9434786384550677 L-10.322322198539908,3.1874313300186174 " />
			<path d="M-10.322322198539908,3.187431330018618 L-9.175397509813251,3.9102048742405264 " />
			<path d="M-9.175397509813251,3.9102048742405264 L-9.994629430332292,4.163175614718194 " />
			<path d="M-11.387323695214661,4.054759583084909 L-9.994629430332292,4.163175614718195 " />
			<path d="M-11.96078603957799,3.6933728109739543 L-11.387323695214661,4.054759583084909 " />
			<path d="M-11.960786039577991,3.6933728109739556 L-12.118389762664707,3.592008144339438 L-12.271579564858586,3.4893351487844857 L-12.42029964933498,3.385391221231393 L-12.564495847289221,3.280214221518179 L-12.704115637666671,3.1738424586087857 L-12.83910816629265,3.0663146766396845 L-12.969424264395222,2.9576700408079564 L-13.095016466514098,2.8479481231060326 L-13.215839027789126,2.7371888879082644 L-13.331847940622104,2.6254326774145524 L-13.44300095070581,2.512720196956383 L-13.549257572414417,2.3990925001706 L-13.650579103549717,2.284590974046287 L-13.746928639437748,2.169257323850255 L-13.838271086370696,2.0531335579366092 L-13.924573174389199,1.9362619724458865 L-14.005803469400378,1.8186851358994036 L-14.081932384627164,1.7004458736943941 L-14.152932191384807,1.581587252505556 L-14.218777029180565,1.4621525645987428 L-14.279442915132977,1.342185312062489 L-14.334907752707208,1.221729190963084 L-14.38515133976336,1.1008280754290196 L-14.430155375914742,0.9795260016705797 L-14.469903469193506,0.8578671519403701 L-14.504381142021128,0.735895838440681 L-14.533575836481626,0.613656487183515 L-14.557476918895581,0.4911936218091391 L-14.57607568369327,0.3685518473691011 L-14.589365356585521,0.2457758340795935 L-14.597341097031139,0.12291030105105742 L-14.6,3.0935239496280174e-14 " />
			<path d="M-14.6,2.3337623560835863e-15 L-14.597146175175643,-0.12733542552839924 L-14.58858581636232,-0.2546210711940073 L-14.574322270103108,-0.38180717659471436 L-14.554361112516144,-0.5088440202421771 L-14.528710147114724,-0.635681938999682 L-14.49737940175663,-0.7622713474971989 L-14.460381124723902,-0.8885627575160333 L-14.417729779934547,-1.0145067973354953 L-14.36944204128809,-1.1400542310340378 L-14.315536786147172,-1.2651559777372903 L-14.256035087957722,-1.3897631308054812 L-14.190960208010614,-1.5138269769527588 L-14.120337586348017,-1.637299015290912 L-14.044194831817991,-1.7601309762900612 L-13.96256171128124,-1.8822748406489014 L-13.875470137974174,-2.003682858067125 L-13.782954159032954,-2.124307565912679 L-13.685049942183237,-2.2441018077765653 L-13.58179576160098,-2.3630187519079295 L-13.473231982949713,-2.4810119095222207 L-13.359401047600194,-2.59803515297529 L-13.240347456038593,-2.7140427337962922 L-13.116117750469712,-2.8289893005723536 L-12.986760496622,-2.9428299166780296 L-12.852326264761519,-3.0555200778426 L-12.712867609922258,-3.1670157295483397 L-12.568439051360539,-3.277273284252968 L-12.419097051241533,-3.3862496384295415 L-12.264899992566239,-3.4939021894171267 L-12.105908156347514,-3.600188852075666 L-11.94218369804414,-3.7050680752385317 L-11.77379062326207,-3.80849885795632 L-11.600794762732406,-3.9104407655255655 L-11.42326374657587,-4.010853945296069 L-11.241266977863834,-4.1096991422506886 L-11.054875605486231,-4.206937714351501 L-10.864162496336972,-4.302531647646323 L-10.669202206827727,-4.396443571129689 L-10.470070953741235,-4.488636771352484 L-10.266846584435486,-4.579075206774511 L-10.059608546410491,-4.6677235218543895 L-9.848437856249465,-4.754547060871266 L-9.63341706794662,-4.839511881472953 L-9.414630240633922,-4.922584767945175 L-9.192162905719464,-5.003733244196744 L-8.966102033450229,-5.08292558645561 L-8.736535998912395,-5.160130835670779 L-8.50355454748243,-5.235318809615296 L-8.26724875974248,-5.308460114685526 L-8.027711015873809,-5.37952615739214 L-7.785034959542145,-5.448489155538311 L-7.539315461289107,-5.51532214908074 L-7.290648581444002,-5.579999010669284 L-7.039131532570491,-5.642494455861043 L-6.7848626414627935,-5.702784053004936 L-6.52794131070632,-5.7608442327928815 L-6.268467979817736,-5.81665229747387 L-6.006544085979631,-5.870186429727299 L-5.742272024385204,-5.921425701192134 L-5.475755108208394,-5.970350080648523 L-5.207097528215159,-6.016940441848713 L-4.936404312031669,-6.061178570994161 L-4.66378128308534,-6.103047173855945 L-4.389335019234771,-6.142529882535676 L-4.1131728111047074,-6.179611261864294 L-3.835402620142414,-6.214276815436205 L-3.5561330364117962,-6.246512991276428 L-3.2754732361417234,-6.276307187138547 L-2.9935329390452377,-6.30364775543136 L-2.710422365426289,-6.32852400777233 L-2.4262521930907734,-6.350926219166052 L-2.141133514078711,-6.3708456318060875 L-1.8551777912344924,-6.3882744584987 L-1.568496814632162,-6.40320588570714 L-1.281202657872774,-6.4156340762152935 L-0.993407634270911,-6.425554171409654 L-0.705224252947488,-6.432962293178725 L-0.4167651748460102,-6.437855545429108 L-0.12814316868947737,-6.440232015217688 L0.16052893310484698,-6.440090773499469 L0.44913827853556554,-6.437431875490767 L0.7375720401349343,-6.432256360647631 L1.0257174590770584,-6.424566252259475 L1.3134618892592522,-6.414364556658112 L1.6006928413393344,-6.401655262042466 L1.8872980267116382,-6.386443336919452 L2.1731654014045465,-6.368734728161612 L2.458183209882379,-6.348536358682269 L2.7422400287345714,-6.325856124729127 L3.0252248102349477,-6.300702892797347 L3.3070269257541316,-6.273086496163327 L3.5875362090081744,-6.243017731040528 L3.8666429991263893,-6.210508352358861 L4.144238183521615,-6.175571069169271 L4.42021324054613,-6.13821953967533 L4.6944602819165615,-6.098468365893763 L4.966872094891172,-6.056333087946011 L5.2373421841830705,-6.011830177983062 L5.505764813592933,-5.964977033745902 L5.772035047344972,-5.915791971764136 L6.036048791110003,-5.864294220195419 L6.297702832699542,-5.810503911308494 L6.556894882415057,-5.754442073612787 L6.813523613036582,-5.696130623637629 L7.067488699435064,-5.635592357364318 L7.318690857792956,-5.572850941314379 L7.56703188441773,-5.507930903297485 L7.812414694133128,-5.4408576228226915 L8.054743358233148,-5.371657321176693 L8.293923141983912,-5.300357051173009 L8.5298605416588,-5.226984686576094 L8.7624633210923,-5.151568911204513 L8.991640547738369,-5.07413920771743 L9.217302628219128,-4.994725846088805 L9.439361343350024,-4.913359871773821 L9.657729882627809,-4.830073093572117 L9.872322878167788,-4.74489807119262 L10.083056438077115,-4.657868102524819 L10.28984817925105,-4.569017210621464 L10.492617259579395,-4.478380130397754 L10.691284409550498,-4.385992295052259 L10.885771963240476,-4.29188982221484 L11.076003888675526,-4.196109499827004 L11.261905817555485,-4.098688771760219 L11.443405074326993,-3.999665723177797 L11.6204307045949,-3.8990790656460694 L11.792913502860825,-3.7969681220006883 L11.960786039577915,-3.693372810974004 " />
			<path d="M11.96078603957799,-3.6933728109739543 L12.534248383941318,-3.331986038863 " />
			<path d="M12.534248383941318,-3.331986038863 L12.288478807785605,-2.7176285262743773 " />
			<path d="M12.288478807785605,-2.7176285262743773 L11.469246887266564,-2.4646577857967094 " />
			<path d="M10.322322198539908,-3.187431330018618 L11.469246887266564,-2.4646577857967094 " />
			<path d="M1.7061506225466867,-1.4455470884438184 L1.7049458973315037,-1.4888504565738767 L1.7013324473673763,-1.53212774037419 L1.6953124492614475,-1.5753528712272395 L1.686889529235474,-1.6184998119304912 L1.6760687609415266,-1.6615425723802333 L1.6628566624058103,-1.7044552252270435 L1.6472611921024516,-1.7472119214934545 L1.6292917441596084,-1.7897869061444107 L1.608959142700801,-1.83215453360114 L1.5862756353248626,-1.8742892831890903 L1.5612548857284465,-1.916165774510629 L1.533911965475522,-1.957758782733248 L1.5042633449188325,-1.999043253784056 L1.472326883278769,-2.039994319441417 L1.4016687525918332,-2.120797780702684 L1.3221077950404596,-2.199974503901324 L1.233835679940106,-2.2773337453760902 L1.1370650625477734,-2.3526891399384002 L1.0320290717568663,-2.4258591498424 L0.9189807484692656,-2.4966675021252946 L0.7981924359976329,-2.5649436132643566 L0.6699551239665205,-2.6305230001275706 L0.5345777472928748,-2.693247676227906 L0.3923864419347587,-2.752966532326605 L0.24372375920126732,-2.8095357004685724 L0.08894784051641924,-2.86281890057288 L-0.0715684453749077,-2.91268776874342 L-0.23743840068043198,-2.959022166508772 L-0.40826243014932806,-3.001710470246304 L-0.5836290037321898,-3.0406498400932604 L-0.7631156479929586,-3.075746467696993 L-0.9462899638844369,-3.106915802207503 L-1.132710668435467,-3.134082753967844 L-1.3219286578402603,-3.1571818754116805 L-1.5134880893888023,-3.1761575187322104 L-1.7069274796318676,-3.190963969942605 L-1.9017808161350716,-3.2015655590050063 L-2.0975786801436413,-3.207936745762773 L-2.2938493774533164,-3.210062181468956 L-2.490120074762991,-3.2079367457627725 L-2.685917938771561,-3.2015655590050063 L-2.880771275274765,-3.1909639699426045 L-3.07421066551783,-3.17615751873221 L-3.2657700970663717,-3.1571818754116796 L-3.454988086471165,-3.134082753967843 L-3.641408791022195,-3.106915802207502 L-3.824583106913673,-3.075746467696992 L-4.004069751174442,-3.040649840093259 L-4.179436324757304,-3.001710470246303 L-4.350260354226199,-2.9590221665087704 L-4.516130309531723,-2.9126877687434183 L-4.67664659542305,-2.8628189005728784 L-4.831422514107898,-2.8095357004685706 L-4.980085196841389,-2.752966532326603 L-5.122276502199505,-2.6932476762279034 L-5.2576538788731515,-2.6305230001275683 L-5.385891190904262,-2.5649436132643553 L-5.506679503375894,-2.4966675021252938 L-5.619727826663496,-2.425859149842397 L-5.724763817454405,-2.3526891399383967 L-5.821534434846736,-2.277333745376087 L-5.909806549947088,-2.199974503901321 L-5.9893675074984625,-2.120797780702681 L-6.060025638185397,-2.0399943194414143 L-6.09196209982546,-1.9990432537840532 L-6.121610720382149,-1.9577587827332459 L-6.1489536406350735,-1.9161657745106278 L-6.173974390231489,-1.874289283189089 L-6.1966578976074285,-1.8321545336011387 L-6.2169904990662355,-1.7897869061444094 L-6.234959947009079,-1.747211921493453 L-6.250555417312437,-1.7044552252270422 L-6.263767515848153,-1.661542572380232 L-6.2745882841421015,-1.6184998119304899 L-6.283011204168075,-1.5753528712272382 L-6.289031202274003,-1.5321277403741886 L-6.29264465223813,-1.4888504565738738 L-6.293849377453313,-1.4455470884438317 " />
			<path d="M-9.175397509813251,3.9102048742405264 L-9.175397509813251,2.833272293349882 " />
			<path d="M11.96078603957799,-3.6933728109739556 L11.960786039577988,-75.48887820368357 " />
			<path d="M-14.600000000000003,-71.79550539270961 L-14.597146175175647,-71.92284081823802 L-14.588585816362324,-72.05012646390362 L-14.574322270103112,-72.17731256930433 L-14.554361112516148,-72.3043494129518 L-14.528710147114728,-72.4311873317093 L-14.497379401756634,-72.55777674020682 L-14.460381124723906,-72.68406815022564 L-14.41772977993455,-72.81001219004511 L-14.369442041288094,-72.93555962374366 L-14.315536786147176,-73.06066137044691 L-14.256035087957725,-73.18526852351509 L-14.190960208010617,-73.30933236966237 L-14.12033758634802,-73.43280440800052 L-14.044194831817995,-73.55563636899967 L-13.962561711281243,-73.67778023335852 L-13.875470137974178,-73.79918825077674 L-13.782954159032958,-73.91981295862229 L-13.685049942183241,-74.03960720048617 L-13.581795761600983,-74.15852414461754 L-13.473231982949716,-74.27651730223184 L-13.359401047600198,-74.3935405456849 L-13.240347456038597,-74.5095481265059 L-13.116117750469716,-74.62449469328197 L-12.986760496622004,-74.73833530938765 L-12.852326264761523,-74.85102547055222 L-12.712867609922261,-74.96252112225795 L-12.568439051360542,-75.07277867696259 L-12.419097051241536,-75.18175503113916 L-12.264899992566242,-75.28940758212674 L-12.105908156347517,-75.39569424478528 L-11.942183698044143,-75.50057346794814 L-11.773790623262073,-75.60400425066594 L-11.60079476273241,-75.70594615823518 L-11.423263746575874,-75.80635933800568 L-11.241266977863837,-75.9052045349603 L-11.054875605486234,-76.00244310706111 L-10.864162496336975,-76.09803704035593 L-10.66920220682773,-76.19194896383931 L-10.470070953741239,-76.2841421640621 L-10.26684658443549,-76.37458059948412 L-10.059608546410495,-76.463228914564 L-9.848437856249468,-76.55005245358088 L-9.633417067946624,-76.63501727418257 L-9.414630240633926,-76.7180901606548 L-9.192162905719467,-76.79923863690635 L-8.966102033450232,-76.87843097916523 L-8.736535998912398,-76.9556362283804 L-8.503554547482434,-77.03082420232491 L-8.267248759742484,-77.10396550739515 L-8.027711015873813,-77.17503155010175 L-7.785034959542147,-77.24399454824793 L-7.5393154612891085,-77.31082754179036 L-7.290648581444004,-77.3755044033789 L-7.039131532570493,-77.43799984857066 L-6.784862641462795,-77.49828944571455 L-6.527941310706322,-77.55634962550249 L-6.268467979817737,-77.61215769018348 L-6.006544085979633,-77.66569182243691 L-5.742272024385206,-77.71693109390175 L-5.4757551082083955,-77.76585547335814 L-5.207097528215161,-77.81244583455833 L-4.936404312031671,-77.85668396370377 L-4.663781283085342,-77.89855256656556 L-4.389335019234773,-77.9380352752453 L-4.113172811104709,-77.97511665457391 L-3.8354026201424163,-78.00978220814582 L-3.5561330364117985,-78.04201838398605 L-3.2754732361417256,-78.07181257984816 L-2.99353293904524,-78.09915314814097 L-2.7104223654262913,-78.12402940048194 L-2.4262521930907757,-78.14643161187567 L-2.1411335140787133,-78.1663510245157 L-1.8551777912344947,-78.18377985120831 L-1.5684968146321643,-78.19871127841675 L-1.2812026578727762,-78.21113946892491 L-0.9934076342709133,-78.22105956411927 L-0.7052242529474902,-78.22846768588835 L-0.41676517484601244,-78.23336093813873 L-0.1281431686894796,-78.2357374079273 L0.16052893310484476,-78.23559616620908 L0.4491382785355633,-78.23293726820039 L0.737572040134932,-78.22776175335724 L1.0257174590770561,-78.2200716449691 L1.31346188925925,-78.20986994936773 L1.6006928413393322,-78.19716065475208 L1.887298026711636,-78.18194872962907 L2.1731654014045443,-78.16424012087123 L2.458183209882377,-78.14404175139188 L2.742240028734569,-78.12136151743874 L3.0252248102349455,-78.09620828550696 L3.3070269257541294,-78.06859188887294 L3.587536209008172,-78.03852312375014 L3.866642999126387,-78.00601374506847 L4.1442381835216135,-77.97107646187888 L4.420213240546128,-77.93372493238495 L4.69446028191656,-77.89397375860338 L4.96687209489117,-77.85183848065563 L5.237342184183069,-77.80733557069267 L5.505764813592931,-77.76048242645552 L5.77203504734497,-77.71129736447375 L6.036048791110002,-77.65979961290503 L6.297702832699541,-77.60600930401812 L6.5568948824150555,-77.54994746632241 L6.813523613036581,-77.49163601634724 L7.067488699435062,-77.43109775007393 L7.318690857792954,-77.368356334024 L7.5670318844177284,-77.3034362960071 L7.8124146941331265,-77.2363630155323 L8.054743358233145,-77.16716271388631 L8.293923141983909,-77.09586244388262 L8.529860541658797,-77.0224900792857 L8.762463321092296,-76.94707430391412 L8.991640547738365,-76.86964460042705 L9.217302628219125,-76.79023123879843 L9.43936134335002,-76.70886526448344 L9.657729882627805,-76.62557848628174 L9.872322878167784,-76.54040346390224 L10.083056438077111,-76.45337349523443 L10.289848179251047,-76.36452260333108 L10.492617259579392,-76.27388552310737 L10.691284409550494,-76.18149768776188 L10.885771963240472,-76.08739521492446 L11.076003888675523,-75.99161489253662 L11.261905817555482,-75.89419416446984 L11.44340507432699,-75.79517111588741 L11.620430704594897,-75.69458445835568 L11.792913502860822,-75.5924735147103 L11.960786039577911,-75.48887820368361 " />
			<path d="M11.960786039577988,-75.48887820368357 L12.534248383941316,-75.12749143157261 " />
			<path d="M12.534248383941318,-3.331986038863 L12.534248383941316,-75.12749143157261 " />
			<path d="M-5.570777059529474,3.156111143102336 L-5.4428787680793045,3.2322715534667017 L-5.305894419613394,3.305292576137349 L-5.160219262141855,3.374963519789101 L-5.006273619714534,3.441083359252663 L-4.844501679638349,3.503461315542922 L-4.67537021084072,3.561917406323395 L-4.499367217077099,3.616282965218554 L-4.317000528868554,3.6664011284756204 " />
			<path d="M1.6464857657750454,2.4478577788429106 L1.6725525124403435,2.372448294507247 L1.6912064924758297,2.2966122920104883 L1.7024128436550923,2.2204915004573134 L1.7061506225466867,2.14422818119167 " />
			<path d="M1.7061506225466867,2.144228181191662 L1.7049458973315037,2.100924813061604 L1.7013324473673763,2.0576475292612906 L1.6953124492614475,2.0144223984082408 L1.686889529235474,1.9712754577049894 L1.6760687609415266,1.9282326972552473 L1.6628566624058103,1.885320044408437 L1.6472611921024516,1.842563348142026 L1.6292917441596084,1.7999883634910698 L1.608959142700801,1.7576207360343405 L1.5862756353248626,1.7154859864463903 L1.5612548857284465,1.6736094951248515 L1.533911965475522,1.6320164869022324 L1.5042633449188325,1.5907320158514247 L1.472326883278769,1.5497809501940636 L1.4016687525918332,1.4689774889327967 L1.3221077950404596,1.3898007657341567 L1.233835679940106,1.31244152425939 L1.1370650625477734,1.23708612969708 L1.0320290717568663,1.1639161197930807 L0.9189807484692656,1.0931077675101861 L0.7981924359976329,1.024831656371124 L0.6699551239665205,0.95925226950791 L0.5345777472928748,0.8965275934075747 L0.3923864419347587,0.8368087373088755 L0.24372375920126732,0.780239569166908 L0.08894784051641924,0.7269563690626004 L-0.0715684453749077,0.6770875008920603 L-0.23743840068043198,0.6307531031267084 L-0.40826243014932806,0.5880647993891761 L-0.5836290037321898,0.5491254295422201 L-0.7631156479929586,0.5140288019384875 L-0.9462899638844369,0.48285946742797736 L-1.132710668435467,0.4556925156676366 L-1.3219286578402603,0.43259339422380005 L-1.5134880893888023,0.41361775090327013 L-1.7069274796318676,0.39881129969287565 L-1.9017808161350716,0.3882097106304745 L-2.0975786801436413,0.38183852387270756 L-2.2938493774533164,0.3797130881665245 L-2.490120074762991,0.3818385238727078 L-2.685917938771561,0.3882097106304745 L-2.880771275274765,0.3988112996928759 L-3.07421066551783,0.4136177509032706 L-3.2657700970663717,0.4325933942238007 L-3.454988086471165,0.45569251566763747 L-3.641408791022195,0.48285946742797825 L-3.824583106913673,0.5140288019384887 L-4.004069751174442,0.5491254295422212 L-4.179436324757304,0.5880647993891777 L-4.350260354226199,0.6307531031267102 L-4.516130309531723,0.6770875008920623 L-4.67664659542305,0.7269563690626024 L-4.831422514107898,0.78023956916691 L-4.980085196841389,0.8368087373088775 L-5.122276502199505,0.8965275934075769 L-5.2576538788731515,0.9592522695079124 L-5.385891190904262,1.0248316563711255 L-5.506679503375894,1.093107767510187 L-5.619727826663496,1.1639161197930832 L-5.724763817454405,1.237086129697084 L-5.821534434846736,1.3124415242593934 L-5.909806549947088,1.3898007657341593 L-5.9893675074984625,1.4689774889327993 L-6.060025638185397,1.5497809501940663 L-6.09196209982546,1.5907320158514273 L-6.121610720382149,1.6320164869022347 L-6.1489536406350735,1.6736094951248528 L-6.173974390231489,1.7154859864463916 L-6.1966578976074285,1.7576207360343419 L-6.2169904990662355,1.7999883634910712 L-6.234959947009079,1.8425633481420276 L-6.250555417312437,1.8853200444084384 L-6.263767515848153,1.9282326972552486 L-6.2745882841421015,1.9712754577049907 L-6.283011204168075,2.0144223984082426 L-6.289031202274003,2.057647529261292 L-6.29264465223813,2.100924813061607 L-6.293849377453313,2.144228181191649 " />
			<path d="M-6.293849377453313,2.144228181191665 L-6.2909357765178395,2.2115640261449774 L-6.282199218246623,2.278801776207866 L-6.267652430061841,2.34584347939459 L-6.247316603731324,2.4125914693205894 L-6.221221364496383,2.478948507482919 L-6.189404727913741,2.544817924917347 L-6.151913044474454,2.6101037630257444 L-6.108800932080491,2.674710913368618 L-6.060131196477354,2.738545256219131 L-6.005974739758632,2.8015137976767597 L-5.946410457075807,2.8635248051408557 L-5.881525121703751,2.924487940946741 L-5.811413258629381,2.984314393969659 L-5.73617700684762,3.0429170090048627 L-5.655925970565253,3.1002104137353586 L-5.570777059529477,3.1561111431023345 " />
			<path d="M-3.793849377453313,2.447454080392154 L-3.82858958679045,2.411492698754289 L-3.858903091802396,2.374760436814555 L-3.8847024581970606,2.3373632427078963 L-3.9059132719686636,2.2994089824561277 L-3.922474354032634,2.261007128846236 L-3.934337936686557,2.222268445674228 L-3.941469801388215,2.1833046682652784 L-3.943849377453313,2.144228181191667 " />
			<path d="M-3.943849377453313,2.144228181191664 L-3.9418618801918477,2.108513662270386 L-3.9359041764624383,2.0728851827534114 L-3.925990618895202,2.037428574768583 L-3.912145090118644,2.0022292563901694 L-3.8944009452243114,1.9673720258592389 L-3.872800931411458,1.9329408572972737 L-3.847397085005298,1.899018698405154 L-3.818250606096937,1.8656872706348815 L-3.7854317111069955,1.8330268723154424 L-3.749019463628099,1.8011161852071012 L-3.709101583953762,1.7700320849501483 L-3.6657742377525135,1.7398494558647486 L-3.619141804396378,1.7106410105480545 L-3.56931662550183,1.6824771147031916 L-3.5164187342889965,1.655425617622116 L-3.4605755664111175,1.6295516887307275 L-3.401921652950894,1.6049176605900137 L-3.340598296323329,1.5815828787314523 L-3.2767532298658293,1.5596035586884254 L-3.210540261935658,1.5390326505680778 L-3.0716539932162097,1.502310786198138 L-2.925277040855712,1.4717709372497287 L-2.772819094923178,1.4477072191630027 L-2.6157484087799254,1.4303513786977011 L-2.455577658997088,1.4198705620851728 L-2.2938493774533137,1.4163657053187935 L-2.132121095909539,1.4198705620851728 L-1.9719503461267016,1.4303513786977011 L-1.8148796599834496,1.4477072191630027 L-1.662421714050915,1.4717709372497287 L-1.5160447616904174,1.5023107861981377 L-1.3771584929709704,1.5390326505680774 L-1.310945525040799,1.5596035586884245 L-1.2471004585832992,1.5815828787314514 L-1.1857771019557342,1.6049176605900128 L-1.1271231884955102,1.6295516887307269 L-1.0712800206176303,1.6554256176221158 L-1.018382129404797,1.6824771147031912 L-0.9685569505102489,1.710641010548054 L-0.9219245171541137,1.7398494558647482 L-0.8785971709528646,1.7700320849501479 L-0.8386792912785279,1.8011161852071005 L-0.8022670437996322,1.8330268723154415 L-0.7694481488096907,1.8656872706348804 L-0.7403016699013296,1.8990186984051531 L-0.7148978234951693,1.9329408572972724 L-0.6932978096823161,1.967372025859237 L-0.6755536647879834,2.002229256390168 L-0.6617081360114248,2.0374285747685827 L-0.6517945784441885,2.0728851827534105 L-0.6458368747147789,2.1085136622703846 L-0.6438493774533134,2.1442281811916564 " />
			<path d="M-0.6438493774533134,2.144228181191663 L-0.6462289535184114,2.1833046682652775 L-0.6533608182200696,2.222268445674227 L-0.6652244008739925,2.2610071288462352 L-0.6817854829379628,2.2994089824561272 L-0.702996296709566,2.3373632427078954 L-0.7287956631042305,2.374760436814555 L-0.7591091681161768,2.4114926987542886 L-0.7938493774533133,2.447454080392153 " />
			<path d="M0.1262548770339973,-78.23574466534072 L-0.045883550877308554,-78.29033412260111 L-0.2243367357565833,-78.34082368300264 L-0.40860338506665994,-78.38707151640733 L-0.59816587567736,-78.42894770810527 L-0.7924917079197356,-78.46633462375782 L-0.9910350014299922,-78.499127239844 L-1.1932380285810835,-78.52723343868192 L-1.398532781194433,-78.55057426719637 L-1.6063425661307504,-78.5690841587058 L-1.8160836252777384,-78.58271111710556 L-2.027166775384002,-78.59141686293003 L-2.238999063132727,-78.59517694088352 L-2.4509854308058245,-78.59398078853741 L-2.66253038785955,-78.58783176600124 L-2.8730396837159846,-78.57674714648374 L-3.081921977071311,-78.56075806777066 L-3.2885904970316537,-78.53990944475575 L-3.492464691410206,-78.51425984327034 L-3.692971857555391,-78.4838813155662 L-3.8895487511288973,-78.44885919791365 L-4.081643168314383,-78.40929187088368 L-4.268715497012279,-78.3652904829871 L-4.450240232663223,-78.31697863844761 L-4.62570745444202,-78.26449204998525 L-4.7946242576753475,-78.20797815758613 L-4.956516138459445,-78.14759571432894 L-5.110928326588223,-78.08351434043205 L-5.257427063047469,-78.01591404677352 L-5.395600818486548,-77.94498472922291 L-5.525061449244806,-77.87092563520515 L-5.645445287685266,-77.79394480399489 L-5.756414163772743,-77.71425848231375 " />
			<path d="M0.9830783046228484,5.6195643063253415 L0.9830783046228483,2.029789036689861 " />
			<path d="M0.9830783046228483,2.029789036689861 L35.39081896642255,23.712995363347126 " />
			<path d="M35.39081896642255,27.302770632982607 L35.39081896642255,23.712995363347126 " />
			<path d="M0.9830783046228484,5.6195643063253415 L35.39081896642255,27.302770632982604 " />
			<path d="M-0.9421167085968964,6.214045546447862 L-0.9421167085968964,4.419157911630121 " />
			<path d="M-0.9421167085968964,2.6242702768123807 L-0.9421167085968964,4.419157911630121 " />
			<path d="M0.9830783046228483,2.029789036689861 L-0.9421167085968966,2.624270276812381 " />
			<path d="M0.9830783046228484,5.6195643063253415 L-0.9421167085968964,6.214045546447862 " />
			<path d="M-3.7938493774533124,3.5048572105196323 L-5.570777059529474,4.053554960511206 " />
			<path d="M35.39081896642255,27.302770632982607 L28.836963602270227,29.32653655680395 " />
			<path d="M-5.570777059529474,7.643330230146686 L28.836963602270224,29.32653655680395 " />
			<path d="M-3.6455820463097295,7.048848990024166 L-5.570777059529474,7.643330230146686 " />
			<path d="M-3.6455820463097295,7.048848990024167 L-3.566599007519515,7.09465524586645 L-3.479658862268793,7.13756557064398 L-3.3853051518598813,7.177311693194507 L-3.2841277664808675,7.213645124639264 L-3.176759257269728,7.246338711911181 L-3.0638708816663516,7.275188057893692 L-2.946168406776547,7.30001279929155 L-2.8243876969849797,7.320657734244556 L-2.699290113402868,7.33699379263443 L-2.571657753912623,7.348918843018599 L-2.4422885635682277,7.356358331146007 L-2.311991345920641,7.359265746063009 L-2.1815807064569426,7.357622910895325 L-2.0518719597663355,7.351440096488072 L-1.9236760322729136,7.340755957193453 L-1.797794392402808,7.325637289207512 L-1.6750140398818152,7.30617861296684 L-1.5561025854899269,7.282501582216032 L-1.4418034520336538,7.254754223440345 L-1.332831226539203,7.223110010418565 L-1.2298671927241371,7.187766779681874 L-1.1335550716780693,7.148945493659161 L-1.0444969973812388,7.106888859241493 L-0.9632497522216403,7.061859810402311 L-0.8903212860458787,7.0141398643599 L-0.8261675405063058,6.964027361559216 L-0.771189598558311,6.9118356004765396 L-0.7472512675490424,6.885061513635421 L-0.7257311769288339,6.857890878907984 L-0.7066629752273066,6.830366179940028 L-0.6900764772329353,6.802530453987525 L-0.6759976173750366,6.774427224624133 L-0.6644484091730387,6.746100433688313 L-0.6554469108164331,6.717594372576451 L-0.6490071969292279,6.688953612989411 L-0.6451393365630507,6.660222937240817 L-0.6438493774533129,6.631447268236017 " />
			<path d="M-0.6438493774533129,6.631447268236014 L-0.6450512378391959,6.603671232192773 L-0.6486550681260723,6.575935660291831 L-0.6546556182522949,6.548280957727307 L-0.6630441466136332,6.520747411882833 L-0.6738084327980463,6.493375133640871 L-0.6869327953883859,6.46620399894917 L-0.7023981148070924,6.4392735907294565 L-0.720181861169602,6.412623141213021 L-0.7625976655023687,6.360316951435912 L-0.8139331329500075,6.309590117337045 L-0.8738892303281611,6.26073812676307 L-0.942116708596892,6.214045546447864 " />
			<path d="M-3.64558204630973,6.918289126070202 L-3.64558204630973,7.048848990024165 " />
			<path d="M-5.570777059529474,7.643330230146686 L-5.570777059529474,4.053554960511206 " />
			<path d="M0.9830783046228458,-78.74015453010846 L0.9830783046228457,-82.32992979974394 " />
			<path d="M0.9830783046228457,-82.32992979974394 L10.900609370265819,-76.08006078157511 " />
			<path d="M12.534248383941316,-75.05056767579471 L35.39081896642254,-60.64672347308667 " />
			<path d="M35.39081896642255,-57.05694820345119 L35.39081896642255,-60.64672347308667 " />
			<path d="M0.9830783046228458,-78.74015453010846 L1.8670203229947986,-78.18310844697402 " />
			<path d="M12.534248383941316,-71.46079240615923 L35.39081896642254,-57.05694820345119 " />
			<path d="M-0.9421167085968991,-78.4915366136187 L-0.9421167085968991,-79.94056092480368 " />
			<path d="M-0.9421167085968991,-81.73544855962142 L-0.9421167085968991,-79.94056092480368 " />
			<path d="M0.9830783046228457,-82.32992979974394 L-0.9421167085968991,-81.73544855962142 " />
			<path d="M0.9830783046228458,-78.74015453010846 L-0.2706982260380818,-78.35300069807288 " />
			<path d="M-3.7938493774533146,-80.85486162591417 L-5.570777059529477,-80.30616387592259 " />
			<path d="M35.39081896642255,-57.05694820345119 L28.836963602270227,-55.03318227962985 " />
			<path d="M12.534248383941314,-65.30689194392698 L28.836963602270224,-55.03318227962985 " />
			<path d="M-5.570777059529477,-77.84271071269958 L-5.570777059529477,-80.30616387592259 " />
			<path d="M-3.522697258231873,7.010903378952516 L-3.450894495695315,7.052545429718228 L-3.37185800001284,7.0915548158796184 L-3.2860818996411023,7.1276876545619166 L-3.1941024583874533,7.160718046784423 L-3.096494722740963,7.1904394897588935 L-2.9938689267378935,7.216666167924812 L-2.886866676838071,7.239234114650138 L-2.7761569406639195,7.258002237334688 L-2.6624318646801814,7.272853199507301 L-2.5464024469617765,7.283694154402001 L-2.428794092103235,7.2904573254269165 L-2.3103420760599747,7.293100429896919 L-2.1917869492747943,7.291606943380842 L-2.0738699068287882,7.285986203010612 L-1.957328154562041,7.276273349106413 L-1.842890300134672,7.26252910548283 L-1.7312717978428607,7.244839399809493 L-1.6231704756684167,7.223314826399666 L-1.5192621725263502,7.198089954785406 L-1.4201965129859402,7.16932248840197 L-1.326592845881335,7.137192278641341 L-1.2390363722030915,7.101900200438875 L-1.1580744864787,7.063666896422813 L-1.0842133545154287,7.022731397478102 L-1.0179147489011,6.979349628348638 L-0.9595931620469427,6.933792807620743 L-0.9096132148214928,6.886345752091037 L-0.8682873769765136,6.837305096119623 L-0.8509526481569436,6.812282642512391 L-0.8358740136166061,6.786977437101024 L-0.8230750501094253,6.761429046770668 L-0.8125757699257907,6.735677418647195 L-0.804392589601604,6.7097628176364115 L-0.7985383042495993,6.6837257634663745 L-0.7950220675530746,6.657606967331288 L-0.7938493774533129,6.631447268236017 " />
			<path d="M-0.7938493774533129,6.631447268236014 L-0.7956561931455544,6.598979523762124 L-0.8010722874450176,6.566589996928512 L-0.8100846125061416,6.5343567169423045 L-0.8226714568484672,6.502357336598292 L-0.838802497661497,6.470668945206537 L-0.8584388738549995,6.439367882877478 L-0.881533279678782,6.4085295566119145 L-0.9080300786863829,6.37822825863894 L-0.9378654377681479,6.3485369874394495 L-0.9709674809307807,6.319527271886412 L-1.0072564624529052,6.2912689989255455 L-1.0466449589994955,6.263830245211546 L-1.0890380802323458,6.237277113105461 L-1.134333697409208,6.211673571428312 L-1.1824226894208751,6.187081301354607 L-1.2331892056734923,6.163559547816981 L-1.3422594512078452,6.119951538726731 L-1.4604940279239107,6.081269513123663 L-1.5867542722143184,6.047886000060082 L-1.7198242289056798,6.020122501016074 L-1.8584223615716207,5.9982463936645045 L-2.0012138944291213,5.982468356877867 L-2.146823666958972,5.972940341775569 L-2.2938493774533137,5.969754108351587 L-2.4408750879476555,5.972940341775569 L-2.5864848604775066,5.982468356877868 L-2.7292763933350073,5.9982463936645045 L-2.8678745260009477,6.020122501016074 L-3.0009444826923093,6.047886000060083 L-3.1272047269827166,6.081269513123664 L-3.2454393036987823,6.119951538726732 L-3.3545095492331347,6.163559547816982 L-3.405276065485752,6.187081301354608 L-3.4533650574974186,6.211673571428313 L-3.4986606746742805,6.237277113105461 L-3.541053795907131,6.263830245211547 L-3.5804422924537223,6.291268998925547 L-3.616731273975846,6.319527271886414 L-3.6498333171384787,6.34853698743945 L-3.6796686762202437,6.3782282586389405 L-3.7061654752278446,6.408529556611915 L-3.729259881051626,6.4393678828774785 L-3.748896257245129,6.470668945206538 L-3.7650272980581585,6.502357336598292 L-3.777614142400484,6.534356716942305 L-3.786626467461608,6.566589996928513 L-3.7920425617610714,6.598979523762125 L-3.793849377453313,6.631447268236009 " />
			<path d="M-3.793849377453313,6.631447268236015 L-3.79275677710251,6.6566982100935075 L-3.789480567750804,6.681912366367091 L-3.784025522181511,6.707053005062112 L-3.776399587307567,6.732083501284362 L-3.7666138725944642,6.756967390595236 L-3.754682633875974,6.781668422133146 L-3.7244562104385044,6.830378292802373 L-3.6858963883178077,6.877929374417926 L-3.639227781547227,6.924044678144169 L-3.5847222384761777,6.9684555786659645 L-3.522697258231874,7.010903378952516 " />
			<path d="M-0.9421167085968991,-81.60488869566746 L-1.0015634914345672,-81.6539996884238 L-1.070158712222723,-81.70073238095945 L-1.147416767018871,-81.74475594002571 L-1.232790725358071,-81.78575871105541 L-1.3256762021201998,-81.82345042444902 L-1.4254156361341161,-81.85756425047103 L-1.5313029452293305,-81.88785868820898 L-1.6425885247808292,-81.91411927522316 L-1.7584845543610061,-81.93616010578371 L-1.8781705749315059,-81.95382514694705 L-2.000799297092533,-81.96698934315486 L-2.1255025992714747,-81.97555950153591 L-2.2513976733880527,-81.97947495164333 L-2.3775932744892043,-81.97870797495696 L-2.5031960301108427,-81.97326400111027 L-2.6273167647008364,-81.96318156945233 L-2.7490767943309202,-81.94853205621766 L-2.8676141471356025,-81.92941916923459 L-2.982089665441894,-81.90597821374982 L-3.0916929463912606,-81.87837513456633 L-3.195648078998536,-81.84680534127565 L-3.293219137033633,-81.81149232490111 L-3.383715388840457,-81.77268607574484 L-3.4664961872113276,-81.73066131363963 L-3.540975504700162,-81.68571554313354 L-3.606626082267756,-81.63816694737558 L-3.6629831618897524,-81.5883521356119 L-3.687549312353349,-81.56270454348073 L-3.7096477767031915,-81.53662376023884 L-3.729239427382301,-81.51015596453986 L-3.746289575399803,-81.48334802028207 L-3.7607680317512724,-81.45624739363096 L-3.7726491608714117,-81.42890206897569 L-3.7819119260243985,-81.4013604639679 L-3.788539926551547,-81.37367134379336 L-3.7925214269103256,-81.3458837348283 L-3.793849377453316,-81.31804683783326 " />
			<path d="M-14.600000000000003,-71.79550539270961 L-14.600000000000001,8.881784197001252e-16 " />
			<path d="M1.7061506225466863,-1.4455470884438175 L1.7061506225466863,2.144228181191663 " />
			<path d="M-6.293849377453313,-1.4455470884438175 L-6.293849377453313,2.144228181191663 " />
			<path d="M-0.7938493774533134,1.8410022819911722 L-0.7938493774533134,2.5784867866814345 " />
			<path d="M-0.7938493774533133,6.328221369035524 L-0.7938493774533133,6.6314472682360135 " />
			<path d="M-3.793849377453315,-81.31804683783325 L-3.793849377453315,-78.46657702120773 " />
			<path d="M-3.7938493774533124,1.841002281991173 L-3.7938493774533124,6.631447268236014 " />

       </g>
    </g>
    
</svg>
