<?xml version="1.0" encoding="UTF-8" standalone="no"?>
<svg
   xmlns:svg="http://www.w3.org/2000/svg"
   xmlns="http://www.w3.org/2000/svg"
   width="720.0"
   height="540.0"

>
    <g transform="scale(13.452122515298367, -13.452122515298367)   translate(35.89449488792685,-21.134148403226035)" stroke-width="0.4"  fill="none">
       <!-- hidden lines -->
       <g  stroke="rgb(180,180,180)" fill="none" stroke-dasharray="0.4,0.4" >
			<path d="M-28.673117218166414,-0.12046225737031868 L-34.4077406617997,-3.7343299784798623 " />
			<path d="M-28.673117218166414,-0.12046225737031868 L0.0,-1.6375789613221059e-15 " />
			<path d="M-28.673117218166414,8.853975916718383 L-28.673117218166414,-0.12046225737031868 " />
			<path d="M-28.673117218166414,8.853975916718383 L-22.938493774533132,12.467843637827926 " />
			<path d="M-22.938493774533132,19.64739417709889 L-22.938493774533132,12.467843637827928 " />
			<path d="M5.734623443633283,3.6138677211095436 L-22.93849377453313,12.467843637827926 " />

       </g>

       <!-- solid lines -->
       <g  stroke="rgb(40,40,40)" fill="none">
			<path d="M0.0,0.0 L-5.734623443633283,-3.6138677211095436 " />
			<path d="M-28.673117218166414,8.853975916718383 L-34.4077406617997,5.24010819560884 " />
			<path d="M0.0,0.0 L-28.67311721816641,8.853975916718383 " />
			<path d="M-5.734623443633283,-3.6138677211095436 L-34.40774066179969,5.24010819560884 " />
			<path d="M-34.4077406617997,-3.7343299784798623 L-5.734623443633286,-3.6138677211095454 " />
			<path d="M-34.4077406617997,5.24010819560884 L-34.4077406617997,-3.7343299784798623 " />
			<path d="M2.2204460492503126e-16,7.179550539270961 L-28.67311721816641,16.033526455989346 " />
			<path d="M-28.673117218166414,16.033526455989346 L-28.673117218166414,8.853975916718385 " />
			<path d="M2.2204460492503126e-16,7.179550539270961 L0.0,0.0 " />
			<path d="M2.2204460492503126e-16,7.179550539270961 L5.734623443633283,10.793418260380506 " />
			<path d="M5.734623443633283,10.793418260380506 L-22.93849377453313,19.64739417709889 " />
			<path d="M-28.673117218166414,16.033526455989346 L-22.938493774533132,19.64739417709889 " />
			<path d="M0.0,0.0 L5.734623443633283,3.6138677211095436 " />
			<path d="M5.734623443633283,10.793418260380506 L5.734623443633283,3.6138677211095445 " />

       </g>
    </g>
    
</svg>
