<?xml version="1.0" encoding="UTF-8" standalone="no"?>
<svg
   xmlns:svg="http://www.w3.org/2000/svg"
   xmlns="http://www.w3.org/2000/svg"
   width="720.0"
   height="540.0"

>
    <g transform="scale(12.206555615733702, -12.206555615733702)   translate(40.14236410543298,-22.55071172052531)" stroke-width="0.4"  fill="none">
       <!-- hidden lines -->
       <g  stroke="rgb(180,180,180)" fill="none" stroke-dasharray="0.4,0.4" >
			<path d="M-32.76927682076162,-7.8300467290706806 L-38.5039002643949,-11.443914450180223 " />
			<path d="M-32.76927682076162,-7.8300467290706806 L-7.105427357601002e-15,-1.7763568394002505e-15 " />
			<path d="M-32.76927682076162,10.118829619106723 L-32.76927682076162,-7.8300467290706806 " />
			<path d="M-32.76927682076162,10.118829619106723 L-27.034653377128336,13.732697340216266 " />
			<path d="M-27.034653377128336,20.912247879487225 L-27.034653377128336,13.732697340216264 " />
			<path d="M5.734623443633283,3.6138677211095436 L-27.03465337712833,13.732697340216266 " />

       </g>

       <!-- solid lines -->
       <g  stroke="rgb(40,40,40)" fill="none">
			<path d="M0.0,0.0 L-5.734623443633283,-3.6138677211095436 " />
			<path d="M-32.76927682076162,10.118829619106723 L-38.5039002643949,6.5049618979971795 " />
			<path d="M0.0,0.0 L-32.76927682076161,10.118829619106723 " />
			<path d="M-5.734623443633283,-3.6138677211095436 L-38.50390026439489,6.5049618979971795 " />
			<path d="M-38.5039002643949,-11.443914450180223 L-5.734623443633289,-3.6138677211095445 " />
			<path d="M-38.5039002643949,6.5049618979971795 L-38.5039002643949,-11.443914450180223 " />
			<path d="M2.2204460492503126e-16,7.179550539270961 L-32.76927682076161,17.298380158377682 " />
			<path d="M-32.76927682076162,17.298380158377682 L-32.76927682076162,10.118829619106721 " />
			<path d="M2.2204460492503126e-16,7.179550539270961 L0.0,0.0 " />
			<path d="M2.2204460492503126e-16,7.179550539270961 L5.734623443633283,10.793418260380506 " />
			<path d="M5.734623443633283,10.793418260380506 L-27.03465337712833,20.91224787948723 " />
			<path d="M-32.76927682076162,17.298380158377682 L-27.034653377128336,20.912247879487225 " />
			<path d="M0.0,0.0 L5.734623443633283,3.6138677211095436 " />
			<path d="M5.734623443633283,10.793418260380506 L5.734623443633283,3.6138677211095445 " />

       </g>
    </g>
    
</svg>
