<?xml version="1.0" encoding="UTF-8" standalone="no"?>
<svg
   xmlns:svg="http://www.w3.org/2000/svg"
   xmlns="http://www.w3.org/2000/svg"
   width="720.0"
   height="540.0"

>
    <g transform="scale(12.727922061357855, -12.727922061357855)   translate(36.92668746196415,-19.98284076060324)" stroke-width="0.4"  fill="none">
       <!-- hidden lines -->
       <g  stroke="rgb(180,180,180)" fill="none" stroke-dasharray="0.4,0.4" >
			<path d="M0.0,0.0 L-28.284271247461906,11.04689541477988 " />
			<path d="M0.0,5.5234477073899395 L0.0,0.0 " />
			<path d="M0.0,7.364596943186587 L-7.071067811865476,4.6028730894916166 " />
			<path d="M-7.0710678118654755,4.6028730894916166 L-35.35533905932738,15.649768504271497 " />
			<path d="M-8.485281374238575,-2.2093790829559747 L-28.284271247461902,5.5234477073899395 " />
			<path d="M-7.0710678118654755,4.6028730894916166 L-7.0710678118654755,-2.7617238536949706 " />

       </g>

       <!-- solid lines -->
       <g  stroke="rgb(40,40,40)" fill="none">
			<path d="M0.0,0.0 L7.071067811865476,2.76172385369497 " />
			<path d="M-28.284271247461902,11.04689541477988 L-21.213203435596427,13.808619268474851 " />
			<path d="M7.0710678118654755,2.76172385369497 L-21.21320343559643,13.808619268474851 " />
			<path d="M-28.284271247461902,-7.364596943186585 L-21.213203435596427,-4.602873089491615 " />
			<path d="M-28.284271247461902,-7.364596943186585 L3.552713678800501e-15,3.552713678800501e-15 " />
			<path d="M-21.213203435596427,-4.602873089491615 L7.071067811865479,2.761723853694974 " />
			<path d="M-28.284271247461902,11.04689541477988 L-28.284271247461902,-7.364596943186585 " />
			<path d="M-21.213203435596427,13.808619268474851 L-21.213203435596427,-4.602873089491615 " />
			<path d="M0.0,7.364596943186587 L-28.284271247461906,18.411492357966466 " />
			<path d="M-28.284271247461902,18.411492357966466 L-28.284271247461902,11.046895414779879 " />
			<path d="M0.0,7.364596943186587 L0.0,5.5234477073899395 " />
			<path d="M-28.284271247461902,18.411492357966466 L-35.35533905932738,15.649768504271496 " />
			<path d="M-28.284271247461902,11.04689541477988 L-35.35533905932738,8.28517156108491 " />
			<path d="M-35.35533905932738,15.649768504271497 L-35.35533905932738,8.28517156108491 " />
			<path d="M0.0,0.0 L-7.071067811865476,-2.76172385369497 " />
			<path d="M-7.0710678118654755,-2.76172385369497 L-8.485281374238575,-2.2093790829559747 " />
			<path d="M-28.284271247461902,5.5234477073899395 L-35.35533905932738,8.28517156108491 " />

       </g>
    </g>
    
</svg>
