<?xml version="1.0" encoding="UTF-8" standalone="no"?>
<svg
   xmlns:svg="http://www.w3.org/2000/svg"
   xmlns="http://www.w3.org/2000/svg"
   width="720.0"
   height="540.0"

>
    <g transform="scale(4.536652094881678, -4.536652094881678)   translate(5.908537304979663,-5.070230464864087)" stroke-width="0.4"  fill="none">
       <!-- hidden lines -->
       <g  stroke="rgb(180,180,180)" fill="none" stroke-dasharray="0.4,0.4" >
			<path d="M-1.228847880778563,-87.57003799535276 L-1.1570451182420047,-87.52839594458705 L-1.07800862255953,-87.48938655842566 L-0.9922325221877923,-87.45325371974336 L-0.9002530809341434,-87.42022332752086 L-0.8026453452876525,-87.39050188454638 L-0.7000195492845832,-87.36427520638047 L-0.5930172993847606,-87.34170725965514 L-0.48230756321060914,-87.32293913697059 L-0.36858248722687115,-87.30808817479797 L-0.25255306950846657,-87.29724721990328 L-0.13494471464992516,-87.29048404887837 L-0.016492698606664673,-87.28784094440836 L0.10206242817851559,-87.28933443092444 L0.21997947062452208,-87.29495517129467 L0.3365212228912693,-87.30466802519886 L0.45095907731863816,-87.31841226882246 L0.5625775796104496,-87.33610197449579 L0.6706789017848935,-87.35762654790561 L0.77458720492696,-87.38285141951988 L0.87365286446737,-87.41161888590331 L0.9672565315719753,-87.44374909566395 L1.0548130052502187,-87.4790411738664 L1.1357748909746102,-87.51727447788247 L1.2096360229378815,-87.55820997682719 L1.2759346285522102,-87.60159174595664 L1.3342562154063675,-87.64714856668454 L1.3842361626318174,-87.69459562221425 L1.4255620004767966,-87.74363627818566 L1.4428967292963666,-87.7686587317929 L1.4579753638367041,-87.79396393720425 L1.470774327343885,-87.81951232753461 L1.4812736075275195,-87.84526395565808 L1.4894567878517062,-87.87117855666887 L1.495311073203711,-87.89721561083891 L1.4988273099002356,-87.92333440697399 L1.4999999999999973,-87.94949410606927 " />
			<path d="M-1.5000000000000027,-87.94949410606927 L-1.4989073996492,-87.92424316421177 L-1.495631190297494,-87.8990290079382 L-1.4901761447282007,-87.87388836924318 L-1.482550209854257,-87.84885787302092 L-1.472764495141154,-87.82397398371005 L-1.4608332564226634,-87.79927295217213 L-1.4306068329851942,-87.7505630815029 L-1.3920470108644973,-87.70301199988735 L-1.3453784040939167,-87.65689669616111 L-1.2908728610228677,-87.61248579563932 L-1.228847880778564,-87.57003799535276 " />

       </g>

       <!-- solid lines -->
       <g  stroke="rgb(40,40,40)" fill="none">
			<path d="M-1.2288478807785603,0.37945611071650226 L-1.157045118242002,0.4210981614822141 L-1.0780086225595273,0.4601075476436045 L-0.9922325221877897,0.49624038632590195 L-0.9002530809341407,0.5292707785484086 L-0.8026453452876499,0.5589922215228793 L-0.7000195492845805,0.5852188996887974 L-0.5930172993847579,0.6077868464141235 L-0.4823075632106064,0.626554969098674 L-0.3685824872268684,0.641405931271287 L-0.25255306950846385,0.6522468861659865 L-0.13494471464992244,0.6590100571909019 L-0.016492698606661953,0.6616531616609043 L0.10206242817851831,0.6601596751448274 L0.2199794706245248,0.654538934774598 L0.336521222891272,0.6448260808703988 L0.4509590773186409,0.631081837246816 L0.5625775796104523,0.6133921315734782 L0.6706789017848962,0.5918675581636522 L0.7745872049269626,0.5666426865493913 L0.8736528644673727,0.5378752201659553 L0.967256531571978,0.5057450104053263 L1.0548130052502214,0.47045293220286066 L1.1357748909746128,0.43221962818679827 L1.2096360229378842,0.3912841292420876 L1.2759346285522128,0.34790236011262377 L1.3342562154063702,0.30234553938472897 L1.38423616263182,0.2548984838550225 L1.4255620004767993,0.20585782788360835 L1.4428967292963693,0.1808353742763758 L1.4579753638367068,0.1555301688650094 L1.4707743273438876,0.12998177853465331 L1.4812736075275221,0.10423015041118094 L1.4894567878517089,0.07831554940039678 L1.4953110732037136,0.05227849523036029 L1.4988273099002383,0.026159699095274363 L1.5,2.6329090684651364e-15 " />
			<path d="M1.5,-3.055988568975264e-16 L1.4981931843077585,-0.032467744473889684 L1.4927770900082953,-0.06485727130750263 L1.4837647649471712,-0.09709055129370976 L1.4711779206048456,-0.12908993163772242 L1.455046879791816,-0.16077832302947723 L1.4354105035983133,-0.19207938535853644 L1.4123160977745308,-0.22291771162409976 L1.38581929876693,-0.25321900959707494 L1.355983939685165,-0.2829102807965649 L1.3228818965225322,-0.31191999634960227 L1.2865929150004076,-0.3401782693104685 L1.2472044184538174,-0.3676170230244683 L1.204811297220967,-0.3941701551305538 L1.1595156800441049,-0.4197736968077021 L1.1114266880324377,-0.4443659668814073 L1.0606601717798205,-0.46788772041903304 L0.9515899262454677,-0.5114957295092831 L0.8333553495294022,-0.5501777551123509 L0.7070951052389944,-0.5835612681759325 L0.574025148547633,-0.6113247672199408 L0.43542701588169225,-0.6332008745715099 L0.2926354830241916,-0.6489789113581473 L0.14702571049434066,-0.6585069264604457 L-1.097650956072099e-15,-0.6616931598844269 L-0.1470257104943428,-0.6585069264604456 L-0.2926354830241938,-0.6489789113581471 L-0.43542701588169447,-0.6332008745715095 L-0.574025148547635,-0.6113247672199403 L-0.7070951052389964,-0.583561268175932 L-0.8333553495294039,-0.5501777551123503 L-0.9515899262454695,-0.5114957295092823 L-1.060660171779822,-0.46788772041903226 L-1.1114266880324393,-0.44436596688140645 L-1.1595156800441058,-0.41977369680770155 L-1.2048112972209677,-0.3941701551305535 L-1.2472044184538185,-0.3676170230244674 L-1.2865929150004094,-0.34017826931046713 L-1.3228818965225335,-0.31191999634960105 L-1.3559839396851658,-0.28291028079656383 L-1.3858192987669309,-0.25321900959707383 L-1.4123160977745317,-0.22291771162409874 L-1.4354105035983136,-0.19207938535853564 L-1.4550468797918161,-0.16077832302947673 L-1.4711779206048459,-0.12908993163772195 L-1.4837647649471715,-0.09709055129370923 L-1.4927770900082953,-0.06485727130750209 L-1.4981931843077585,-0.03246774447388916 L-1.5,-5.358600242318549e-15 " />
			<path d="M-1.5,6.8048369046080885e-16 L-1.4989073996491973,0.025250941857492812 L-1.4956311902974913,0.05046509813107614 L-1.490176144728198,0.07560573682609775 L-1.4825502098542542,0.1006362330483475 L-1.4727644951411514,0.1255201223592211 L-1.4608332564226607,0.15022115389713142 L-1.4306068329851915,0.19893102456635828 L-1.3920470108644947,0.24648210618191116 L-1.345378404093914,0.29259740990815425 L-1.290872861022865,0.3370083104299499 L-1.2288478807785614,0.3794561107165017 " />
			<path d="M1.4999999999999973,-87.94949410606927 L1.4981931843077558,-87.98196185054316 L1.4927770900082926,-88.01435137737677 L1.4837647649471686,-88.04658465736297 L1.471177920604843,-88.07858403770699 L1.4550468797918132,-88.11027242909874 L1.4354105035983107,-88.1415734914278 L1.4123160977745282,-88.17241181769337 L1.3858192987669273,-88.20271311566634 L1.3559839396851623,-88.23240438686584 L1.3228818965225295,-88.26141410241887 L1.286592915000405,-88.28967237537974 L1.2472044184538147,-88.31711112909373 L1.2048112972209644,-88.34366426119982 L1.1595156800441022,-88.36926780287696 L1.111426688032435,-88.39386007295067 L1.0606601717798179,-88.4173818264883 L0.951589926245465,-88.46098983557854 L0.8333553495293995,-88.49967186118161 L0.7070951052389918,-88.5330553742452 L0.5740251485476303,-88.56081887328921 L0.4354270158816895,-88.58269498064078 L0.2926354830241889,-88.59847301742741 L0.14702571049433794,-88.60800103252971 L-3.817697366403732e-15,-88.61118726595369 L-0.1470257104943455,-88.60800103252971 L-0.2926354830241965,-88.59847301742741 L-0.4354270158816972,-88.58269498064078 L-0.5740251485476376,-88.56081887328921 L-0.7070951052389991,-88.5330553742452 L-0.8333553495294066,-88.49967186118161 L-0.9515899262454721,-88.46098983557854 L-1.0606601717798247,-88.4173818264883 L-1.111426688032442,-88.39386007295067 L-1.1595156800441084,-88.36926780287696 L-1.2048112972209704,-88.34366426119982 L-1.2472044184538211,-88.31711112909373 L-1.286592915000412,-88.28967237537974 L-1.3228818965225362,-88.26141410241887 L-1.3559839396851685,-88.23240438686582 L-1.3858192987669335,-88.20271311566634 L-1.4123160977745344,-88.17241181769336 L-1.4354105035983162,-88.1415734914278 L-1.4550468797918188,-88.11027242909874 L-1.4711779206048485,-88.07858403770699 L-1.4837647649471741,-88.04658465736297 L-1.492777090008298,-88.01435137737677 L-1.4981931843077612,-87.98196185054316 L-1.5000000000000027,-87.94949410606927 " />
			<path d="M1.4999999999999973,-87.94949410606927 L1.5,-5.551115123125783e-17 " />
			<path d="M-1.5000000000000027,-87.94949410606927 L-1.5,5.551115123125783e-17 " />

       </g>
    </g>
    
</svg>
