<?xml version="1.0" encoding="UTF-8" standalone="no"?>
<svg
   xmlns:svg="http://www.w3.org/2000/svg"
   xmlns="http://www.w3.org/2000/svg"
   width="720.0"
   height="540.0"

>
    <g transform="scale(4.431653428062004, -4.431653428062004)   translate(6.012988284092006,-5.098838383505713)" stroke-width="0.4"  fill="none">
       <!-- hidden lines -->
       <g  stroke="rgb(180,180,180)" fill="none" stroke-dasharray="0.4,0.4" >
			<path d="M-1.5,-6.50424269348035e-17 L-1.4981931843077585,-0.02874630188271733 L-1.4927770900082953,-0.05742335140632046 L-1.4837647649471712,-0.08596206304669421 L-1.4711779206048456,-0.114293684547801 L-1.455046879791816,-0.14234996255188773 L-1.4354105035983133,-0.1700633070278028 L-1.412316097774531,-0.1973669541013015 L-1.38581929876693,-0.22419512689506668 L-1.355983939685165,-0.2504831939909678 L-1.3228818965225324,-0.2761678251328081 L-1.286592915000408,-0.3011871437944589 L-1.2472044184538178,-0.3254808762458306 L-1.2048112972209675,-0.3489904967575685 L-1.1595156800441053,-0.37165936859466014 L-1.0606601717798212,-0.4142585780542456 L-0.9515899262454682,-0.45286825095039457 L-0.8333553495294035,-0.4871165550269229 L-0.7070951052389967,-0.5166736603935463 L-0.5740251485476348,-0.5412549159680269 L-0.4354270158816935,-0.5606235908217012 L-0.2926354830241925,-0.5745931540277335 L-0.14702571049434116,-0.5830290710559098 L-9.184850993605148e-17,-0.5858500994137075 L0.14702571049434096,-0.5830290710559098 L0.2926354830241923,-0.5745931540277335 L0.43542701588169325,-0.5606235908217012 L0.5740251485476346,-0.5412549159680269 L0.7070951052389965,-0.5166736603935463 L0.8333553495294029,-0.4871165550269231 L0.9515899262454681,-0.4528682509503946 L1.0606601717798212,-0.4142585780542456 L1.1595156800441055,-0.3716593685946601 L1.2048112972209677,-0.3489904967575683 L1.247204418453818,-0.32548087624583055 L1.286592915000408,-0.3011871437944588 L1.3228818965225324,-0.27616782513280813 L1.3559839396851647,-0.25048319399096797 L1.38581929876693,-0.2241951268950667 L1.4123160977745313,-0.19736695410130137 L1.4354105035983133,-0.17006330702780278 L1.455046879791816,-0.14234996255188778 L1.4711779206048456,-0.11429368454780114 L1.4837647649471712,-0.08596206304669443 L1.4927770900082953,-0.05742335140632052 L1.4981931843077585,-0.028746301882717238 L1.5,-2.6734430222948553e-15 " />

       </g>

       <!-- solid lines -->
       <g  stroke="rgb(40,40,40)" fill="none">
			<path d="M-1.060660171779821,0.41425857805424565 L-1.1595156800441058,0.37165936859466 L-1.2048112972209677,0.34899049675756844 L-1.2472044184538178,0.32548087624583055 L-1.286592915000408,0.3011871437944589 L-1.3228818965225322,0.2761678251328082 L-1.3559839396851647,0.250483193990968 L-1.3858192987669298,0.22419512689506702 L-1.4123160977745308,0.1973669541013019 L-1.435410503598313,0.17006330702780334 L-1.4550468797918157,0.14234996255188834 L-1.4711779206048454,0.11429368454780121 L-1.4837647649471715,0.085962063046694 L-1.4927770900082953,0.057423351406320336 L-1.4981931843077585,0.02874630188271731 L-1.5,5.3468860445897106e-15 " />
			<path d="M1.5,-7.174594490271555e-17 L1.4989835768825244,0.021563515219337418 L1.4959356850180354,0.04309780689819095 L1.4837647649471715,0.08596206304669404 L1.463553195057793,0.12836048332756878 L1.4354105035983133,0.17006330702780262 L1.3994891982521085,0.21084454293252242 L1.3559839396851652,0.2504831939909676 L1.3051304866630673,0.2887644549186556 L1.2472044184538182,0.32548087624583044 L1.18251964143991,0.36043348850411333 L1.111426688032439,0.39343288045929103 L1.0343108171056006,0.4243002255472045 L0.9515899262454689,0.45286825095039435 L0.8637122871267688,0.4789821440639925 L0.7711541162898327,0.5025003914386404 L0.6744169944819104,0.5232955456541319 L0.5740251485476355,0.5412549159680268 L0.47052261059833844,0.5562811789965472 L0.3644702698548975,0.5682929061184266 L0.2564428331404525,0.5772250047436644 L0.14702571049434202,0.5830290710559098 L0.036811842784369914,0.5856736523169371 L-0.0736015114911265,0.5851444173117596 L-0.1836160127988234,0.5814442340107244 L-0.2926354830241911,0.5745931540277336 L-0.4000691362123473,0.5646283039588104 L-0.5053347800883294,0.5516036841898591 L-0.6078619710074837,0.5355898762638948 L-0.7070951052389964,0.5166736603935463 L-0.8024964298306454,0.49495754519156615 L-0.8935489567386494,0.47055921216777463 L-0.9797592644306652,0.4436108780027627 L-1.0606601717798116,0.4142585780542493 " />
			<path d="M-1.060660171779821,-89.80205397598145 L-1.1595156800441058,-89.84465318544103 L-1.2048112972209677,-89.86732205727813 L-1.2472044184538178,-89.89083167778986 L-1.286592915000408,-89.91512541024123 L-1.3228818965225322,-89.9401447289029 L-1.3559839396851647,-89.96582936004472 L-1.3858192987669298,-89.99211742714063 L-1.4123160977745308,-90.0189455999344 L-1.435410503598313,-90.04624924700789 L-1.4550468797918157,-90.0739625914838 L-1.4711779206048454,-90.10201886948789 L-1.4837647649471715,-90.130350490989 L-1.4927770900082953,-90.15888920262938 L-1.4981931843077585,-90.18756625215298 L-1.5,-90.2163125540357 " />
			<path d="M-1.5,-90.2163125540357 L-1.4981931843077585,-90.24505885591842 L-1.4927770900082953,-90.27373590544201 L-1.4837647649471712,-90.30227461708239 L-1.4711779206048456,-90.3306062385835 L-1.455046879791816,-90.35866251658759 L-1.4354105035983133,-90.3863758610635 L-1.412316097774531,-90.413679508137 L-1.38581929876693,-90.44050768093076 L-1.355983939685165,-90.46679574802667 L-1.3228818965225324,-90.4924803791685 L-1.286592915000408,-90.51749969783016 L-1.2472044184538178,-90.54179343028153 L-1.2048112972209675,-90.56530305079326 L-1.1595156800441053,-90.58797192263036 L-1.0606601717798212,-90.63057113208994 L-0.9515899262454682,-90.66918080498608 L-0.8333553495294035,-90.70342910906263 L-0.7070951052389967,-90.73298621442925 L-0.5740251485476348,-90.75756747000372 L-0.4354270158816935,-90.7769361448574 L-0.2926354830241925,-90.79090570806343 L-0.14702571049434116,-90.7993416250916 L-9.184850993605148e-17,-90.8021626534494 L0.14702571049434096,-90.7993416250916 L0.2926354830241923,-90.79090570806343 L0.43542701588169325,-90.7769361448574 L0.5740251485476346,-90.75756747000372 L0.7070951052389965,-90.73298621442925 L0.8333553495294029,-90.70342910906263 L0.9515899262454681,-90.66918080498608 L1.0606601717798212,-90.63057113208994 L1.1595156800441055,-90.58797192263036 L1.2048112972209677,-90.56530305079326 L1.247204418453818,-90.54179343028153 L1.286592915000408,-90.51749969783016 L1.3228818965225324,-90.4924803791685 L1.3559839396851647,-90.46679574802667 L1.38581929876693,-90.44050768093076 L1.4123160977745313,-90.413679508137 L1.4354105035983133,-90.3863758610635 L1.455046879791816,-90.35866251658759 L1.4711779206048456,-90.3306062385835 L1.4837647649471712,-90.30227461708239 L1.4927770900082953,-90.27373590544201 L1.4981931843077585,-90.24505885591842 L1.5,-90.2163125540357 " />
			<path d="M1.5,-90.2163125540357 L1.4989835768825244,-90.19474903881635 L1.4959356850180354,-90.17321474713751 L1.4837647649471715,-90.130350490989 L1.463553195057793,-90.08795207070813 L1.4354105035983133,-90.04624924700789 L1.3994891982521085,-90.00546801110318 L1.3559839396851652,-89.96582936004472 L1.3051304866630673,-89.92754809911705 L1.2472044184538182,-89.89083167778986 L1.18251964143991,-89.85587906553158 L1.111426688032439,-89.82287967357641 L1.0343108171056006,-89.7920123284885 L0.9515899262454689,-89.76344430308531 L0.8637122871267688,-89.7373304099717 L0.7711541162898327,-89.71381216259705 L0.6744169944819104,-89.69301700838156 L0.5740251485476355,-89.67505763806767 L0.47052261059833844,-89.66003137503915 L0.3644702698548975,-89.64801964791727 L0.2564428331404525,-89.63908754929203 L0.14702571049434202,-89.63328348297979 L0.036811842784369914,-89.63063890171875 L-0.0736015114911265,-89.63116813672394 L-0.1836160127988234,-89.63486832002498 L-0.2926354830241911,-89.64171940000796 L-0.4000691362123473,-89.65168425007688 L-0.5053347800883294,-89.66470886984584 L-0.6078619710074837,-89.6807226777718 L-0.7070951052389964,-89.69963889364215 L-0.8024964298306454,-89.72135500884413 L-0.8935489567386494,-89.74575334186792 L-0.9797592644306652,-89.77270167603294 L-1.0606601717798116,-89.80205397598145 " />
			<path d="M1.5,-90.2163125540357 L1.5,0.0 " />
			<path d="M-1.5,-90.2163125540357 L-1.5,0.0 " />

       </g>
    </g>
    
</svg>
