<?xml version="1.0" encoding="UTF-8" standalone="no"?>
<svg
   xmlns:svg="http://www.w3.org/2000/svg"
   xmlns="http://www.w3.org/2000/svg"
   width="720.0"
   height="540.0"

>
    <g transform="scale(2.9400267763140944, -2.9400267763140944)   translate(98.63855742279068,-62.636915423748704)" stroke-width="0.4"  fill="none">
       <!-- hidden lines -->
       <g  stroke="rgb(180,180,180)" fill="none" stroke-dasharray="0.4,0.4" >
			<path d="M91.83589829018443,-53.66593565847673 L-88.39512422400445,1.987627246610252 " />
			<path d="M-88.39512422400445,1.9876272466102485 L-91.83589829018442,-0.18069338605547758 " />
			<path d="M-88.39512422400445,55.83425629114245 L-88.39512422400445,1.987627246610245 " />
			<path d="M-22.68621869527351,10.505311563903451 L85.36396611808401,-22.859520269878423 " />
			<path d="M-46.94124754546361,23.309155606539754 L-22.686218695273322,10.505311563903401 " />
			<path d="M-70.29009878053367,40.750235113050195 L-46.94124754546353,23.309155606539697 " />
			<path d="M-70.29009878053367,41.35890913423818 L-70.29009878053367,40.750235113050195 " />
			<path d="M-71.67916954372524,41.78784049145119 L-70.29009878053367,41.35890913423818 " />
			<path d="M-72.96888936933883,42.7512328996337 L-71.67916954372524,41.787840491451185 " />
			<path d="M-72.96888936933881,42.75123289963369 L-73.17524454143698,42.24981370135919 " />
			<path d="M-81.92319205190404,44.95109364902107 L-73.175244541437,42.24981370135918 " />
			<path d="M-81.92319205190402,44.95109364902107 L-81.92319205190402,41.72029590634912 " />
			<path d="M-73.73087284671365,38.652122211127136 L-72.34180208352205,38.22319085391412 " />
			<path d="M-72.34180208352208,38.22319085391413 L-49.40115793762783,21.08703308534098 " />
			<path d="M-49.401157937627836,21.087033085340984 L-49.457902133281166,20.79374737392714 " />
			<path d="M-49.45790213328118,20.793747373927147 L-47.925808850641374,19.98497969235266 " />
			<path d="M-47.925808850641424,19.9849796923527 L-47.28343432043435,19.50514001452432 " />
			<path d="M-46.61555282748454,19.00624719525069 L-46.47512464233727,18.90135042249513 " />
			<path d="M-46.36766655283324,19.162461149884976 L-46.47512464233725,18.901350422495128 " />
			<path d="M-46.367666552833256,19.162461149884976 L-25.484618231246223,8.138632009300728 " />
			<path d="M-21.745247963374425,6.16467790587668 L-21.50698795899541,6.03890423821754 " />
			<path d="M-21.44619057856766,6.353139073438168 L-21.50698795899541,6.038904238217537 " />
			<path d="M81.92319205190402,-25.566307192989466 L85.36396611808401,-26.628784302995676 " />
			<path d="M85.36396611808401,-22.859520269878423 L85.36396611808401,-26.628784302995676 " />
			<path d="M-26.12699276145349,8.336990931237729 L-22.68621869527352,10.505311563903454 " />
			<path d="M85.36396611808401,-22.859520269878423 L81.92319205190404,-25.02784090254415 " />
			<path d="M-50.3820216116435,21.14083497387398 L-46.94124754546353,23.309155606539704 " />
			<path d="M-73.73087284671364,38.58191448038447 L-70.29009878053367,40.750235113050195 " />
			<path d="M-70.29009878053367,41.35890913423818 L-73.73087284671364,39.190588501572456 " />
			<path d="M-71.67916954372524,41.78784049145119 L-75.1199436099052,39.619519858785466 " />
			<path d="M-72.96888936933881,42.75123289963369 L-76.40966343551878,40.582912266967966 " />
			<path d="M-73.175244541437,42.24981370135919 L-76.13999474470869,40.38147567252982 " />
			<path d="M-81.92319205190402,44.95109364902107 L-85.363966118084,42.78277301635534 " />
			<path d="M-72.34180208352205,38.22319085391412 L-72.83475915257807,37.9125372151417 " />
			<path d="M-49.401157937627836,21.087033085340984 L-49.80180835169147,20.83454962011168 " />
			<path d="M-49.457902133281166,20.793747373927147 L-49.579432449806816,20.71716091758085 " />
			<path d="M-48.047339167167,19.908393236006347 L-47.92580885064135,19.984979692352645 " />
			<path d="M-46.47512464233726,18.901350422495128 L-49.91589870851723,16.733029789829402 " />
			<path d="M-46.4891968693589,19.085874693538674 L-46.367666552833256,19.16246114988497 " />
			<path d="M-21.506987958995406,6.038904238217537 L-24.947762025175376,3.870583605551811 " />
			<path d="M85.36396611808401,-26.628784302995676 L81.92319205190404,-28.7971049356614 " />

       </g>

       <!-- solid lines -->
       <g  stroke="rgb(40,40,40)" fill="none">
			<path d="M91.83589829018443,0.18069338605547713 L88.39512422400446,-1.987627246610249 " />
			<path d="M88.39512422400445,-1.9876272466102485 L88.39512422400445,-55.83425629114245 " />
			<path d="M91.83589829018443,-53.66593565847673 L88.39512422400446,-55.83425629114245 " />
			<path d="M91.83589829018443,0.18069338605547713 L91.83589829018443,-53.66593565847673 " />
			<path d="M91.83589829018443,0.18069338605547713 L-88.39512422400445,55.83425629114245 " />
			<path d="M-88.39512422400445,55.83425629114245 L-91.83589829018442,53.66593565847673 " />
			<path d="M88.39512422400445,-1.9876272466102485 L-91.83589829018443,53.66593565847673 " />
			<path d="M88.39512422400445,-55.83425629114245 L-91.83589829018443,-0.18069338605547358 " />
			<path d="M-91.83589829018443,53.66593565847673 L-91.83589829018443,-0.1806933860554807 " />
			<path d="M-26.126992761453494,8.336990931237725 L81.92319205190402,-25.02784090254415 " />
			<path d="M-50.38202161164358,21.14083497387403 L-26.12699276145329,8.336990931237676 " />
			<path d="M-73.73087284671365,38.58191448038447 L-50.3820216116435,21.14083497387397 " />
			<path d="M-73.73087284671365,39.190588501572456 L-73.73087284671365,38.58191448038447 " />
			<path d="M-75.1199436099052,39.619519858785466 L-73.73087284671364,39.19058850157245 " />
			<path d="M-76.40966343551881,40.58291226696797 L-75.11994360990522,39.61951985878546 " />
			<path d="M-76.40966343551878,40.582912266967966 L-76.61601860761695,40.08149306869346 " />
			<path d="M-85.36396611808401,42.782773016355335 L-76.61601860761697,40.08149306869345 " />
			<path d="M-85.36396611808401,42.78277301635534 L-85.36396611808401,39.01350898323809 " />
			<path d="M-85.36396611808401,39.01350898323808 L-75.78257614970202,36.05487022124839 " />
			<path d="M-75.78257614970205,36.0548702212484 L-52.8419320038078,18.91871245267525 " />
			<path d="M-52.841932003807806,18.91871245267526 L-52.898676199461136,18.625426741261414 " />
			<path d="M-52.89867619946115,18.62542674126142 L-51.36658291682134,17.816659059686934 " />
			<path d="M-51.36658291682139,17.81665905968697 L-49.91589870851724,16.733029789829402 " />
			<path d="M-49.80844061901321,16.99414051721925 L-49.91589870851722,16.733029789829402 " />
			<path d="M-49.808440619013226,16.99414051721925 L-28.017731681751187,5.491171770637177 " />
			<path d="M-28.017731681751176,5.491171770637173 L-28.017731681751176,5.151568436441654 " />
			<path d="M-28.017731681751172,5.1515684364416465 L-26.467696535869123,4.6729328647566994 " />
			<path d="M-26.4676965358693,4.672932864756799 L-24.94776202517538,3.870583605551815 " />
			<path d="M-24.88696464474763,4.1848184407724425 L-24.94776202517538,3.8705836055518112 " />
			<path d="M-24.88696464474762,4.184818440772435 L81.92319205190402,-28.7971049356614 " />
			<path d="M81.92319205190402,-25.02784090254415 L81.92319205190402,-28.7971049356614 " />
			<path d="M-81.92319205190402,41.72029590634912 L-81.92319205190402,41.181829615903816 " />
			<path d="M-81.92319205190404,41.18182961590381 L-73.73087284671365,38.652122211127136 " />
			<path d="M-47.28343432043435,19.50514001452432 L-46.61555282748454,19.00624719525069 " />
			<path d="M-25.484618231246223,8.138632009300728 L-24.576957615571217,7.659492403302902 " />
			<path d="M-24.576957615571207,7.659492403302899 L-24.576957615571207,7.319889069107379 " />
			<path d="M-24.57695761557119,7.319889069107372 L-23.02692246968914,6.841253497422425 " />
			<path d="M-23.02692246968933,6.8412534974225245 L-21.745247963374425,6.16467790587668 " />
			<path d="M-21.446190578567638,6.353139073438161 L81.92319205190402,-25.566307192989466 " />
			<path d="M-76.13999474470869,40.38147567252982 L-76.61601860761697,40.08149306869346 " />
			<path d="M-81.92319205190402,41.18182961590381 L-85.363966118084,39.01350898323808 " />
			<path d="M-72.83475915257807,37.9125372151417 L-75.78257614970202,36.05487022124839 " />
			<path d="M-49.80180835169147,20.83454962011168 L-52.841932003807806,18.91871245267526 " />
			<path d="M-49.579432449806816,20.71716091758085 L-52.898676199461136,18.62542674126142 " />
			<path d="M-51.36658291682132,17.81665905968692 L-48.047339167167,19.908393236006347 " />
			<path d="M-49.808440619013226,16.994140517219243 L-46.4891968693589,19.085874693538674 " />
			<path d="M-24.576957615571207,7.659492403302901 L-28.017731681751176,5.491171770637175 " />
			<path d="M-24.576957615571207,7.319889069107379 L-28.017731681751176,5.151568436441654 " />
			<path d="M-26.467696535869305,4.672932864756756 L-23.026922469689335,6.841253497422483 " />
			<path d="M-24.88696464474763,4.1848184407724425 L-21.44619057856766,6.353139073438168 " />

       </g>
    </g>
    
</svg>
