<?xml version="1.0" encoding="UTF-8" standalone="no"?>
<svg
   xmlns:svg="http://www.w3.org/2000/svg"
   xmlns="http://www.w3.org/2000/svg"
   width="720.0"
   height="540.0"

>
    <g transform="scale(2.9400267763140944, -2.9400267763140944)   translate(98.63855742279068,-62.636915423748704)" stroke-width="0.4"  fill="none">
       <!-- hidden lines -->
       <g  stroke="rgb(180,180,180)" fill="none" stroke-dasharray="0.4,0.4" >
			<path d="M91.83589829018443,-53.66593565847673 L-88.39512422400445,1.987627246610252 " />
			<path d="M-88.39512422400445,1.9876272466102485 L-91.83589829018442,-0.18069338605547758 " />
			<path d="M-88.39512422400445,55.83425629114245 L-88.39512422400445,1.987627246610245 " />
			<path d="M85.36396611808401,-22.859520269878423 L85.36396611808401,-26.62878430299568 " />
			<path d="M85.36396611808401,-22.859520269878423 L-22.68621869527331,10.50531156390339 " />
			<path d="M-22.68621869527332,10.50531156390339 L-46.94124754546361,23.309155606539747 " />
			<path d="M-46.941247545463604,23.309155606539754 L-70.29009878053367,40.750235113050195 " />
			<path d="M-70.29009878053367,41.35890913423818 L-70.29009878053367,40.750235113050195 " />
			<path d="M-70.29009878053367,41.35890913423818 L-71.67916954372524,41.78784049145119 " />
			<path d="M-71.67916954372525,41.78784049145119 L-72.96888936933883,42.75123289963369 " />
			<path d="M-72.96888936933881,42.75123289963369 L-73.17524454143698,42.24981370135917 " />
			<path d="M-73.175244541437,42.24981370135918 L-81.92319205190404,44.95109364902107 " />
			<path d="M-81.92319205190402,44.95109364902107 L-81.92319205190402,41.181829615903816 " />
			<path d="M-72.34180208352207,38.22319085391412 L-81.92319205190404,41.18182961590381 " />
			<path d="M-49.40115793762784,21.087033085340984 L-72.34180208352207,38.223190853914126 " />
			<path d="M-49.40115793762784,21.087033085340988 L-49.457902133281166,20.793747373927143 " />
			<path d="M-47.92580885064143,19.984979692352688 L-49.457902133281166,20.793747373927147 " />
			<path d="M-46.47512464233726,18.901350422495128 L-47.925808850641424,19.9849796923527 " />
			<path d="M-46.36766655283325,19.16246114988497 L-46.475124642337256,18.901350422495128 " />
			<path d="M-24.57695761557121,7.659492403302901 L-46.367666552833256,19.16246114988497 " />
			<path d="M-24.576957615571207,7.659492403302901 L-24.576957615571207,7.319889069107381 " />
			<path d="M-23.02692246968914,6.8412534974224215 L-24.576957615571203,7.319889069107376 " />
			<path d="M-21.506987958995406,6.038904238217537 L-23.026922469689133,6.841253497422421 " />
			<path d="M-21.446190578567656,6.353139073438166 L-21.506987958995406,6.038904238217536 " />
			<path d="M85.36396611808401,-26.628784302995676 L-21.446190578567666,6.353139073438172 " />
			<path d="M85.36396611808401,-22.859520269878423 L82.49665439626736,-24.666454130433195 " />
			<path d="M82.49665439626736,-24.666454130433195 L82.49665439626736,-28.43571816355045 " />
			<path d="M85.36396611808401,-26.628784302995676 L82.49665439626736,-28.435718163550447 " />
			<path d="M-25.553530417090162,8.698377703348683 L-22.68621869527352,10.505311563903454 " />
			<path d="M82.49665439626736,-24.666454130433195 L-25.55353041708996,8.69837770334862 " />
			<path d="M-49.808559267280174,21.502221745984933 L-46.94124754546353,23.309155606539704 " />
			<path d="M-25.55353041708996,8.69837770334862 L-49.80855926728026,21.502221745984976 " />
			<path d="M-73.15741050235032,38.943301252495424 L-70.29009878053367,40.750235113050195 " />
			<path d="M-49.808559267280245,21.502221745984983 L-73.15741050235032,38.943301252495424 " />
			<path d="M-73.15741050235032,39.55197527368341 L-73.15741050235032,38.943301252495424 " />
			<path d="M-70.29009878053367,41.35890913423818 L-73.15741050235032,39.55197527368341 " />
			<path d="M-71.67916954372524,41.78784049145119 L-74.54648126554189,39.98090663089642 " />
			<path d="M-73.15741050235032,39.55197527368341 L-74.54648126554189,39.98090663089642 " />
			<path d="M-72.96888936933881,42.75123289963369 L-75.83620109115546,40.94429903907892 " />
			<path d="M-74.54648126554189,39.98090663089642 L-75.83620109115546,40.94429903907893 " />
			<path d="M-75.83620109115546,40.94429903907893 L-76.04255626325363,40.44287984080441 " />
			<path d="M-73.175244541437,42.24981370135919 L-76.04255626325364,40.442879840804416 " />
			<path d="M-81.92319205190402,44.95109364902107 L-84.79050377372067,43.1441597884663 " />
			<path d="M-76.04255626325364,40.44287984080441 L-84.79050377372069,43.1441597884663 " />
			<path d="M-84.79050377372067,43.1441597884663 L-84.79050377372067,39.374895755349044 " />
			<path d="M-81.92319205190402,41.18182961590381 L-84.79050377372067,39.37489575534904 " />
			<path d="M-75.20911380533872,36.41625699335935 L-84.79050377372069,39.37489575534904 " />
			<path d="M-72.34180208352205,38.22319085391412 L-75.2091138053387,36.41625699335935 " />
			<path d="M-52.268469659444484,19.280099224786213 L-75.20911380533872,36.416256993359355 " />
			<path d="M-49.401157937627836,21.087033085340984 L-52.26846965944448,19.280099224786213 " />
			<path d="M-52.268469659444484,19.280099224786216 L-52.32521385509781,18.986813513372372 " />
			<path d="M-49.457902133281166,20.793747373927147 L-52.32521385509781,18.986813513372375 " />
			<path d="M-50.79312057245807,18.178045831797917 L-52.325213855097815,18.986813513372375 " />
			<path d="M-50.793120572457994,18.178045831797874 L-47.92580885064135,19.984979692352645 " />
			<path d="M-49.342436364153905,17.094416561940356 L-50.793120572458065,18.178045831797927 " />
			<path d="M-46.47512464233726,18.901350422495128 L-49.342436364153905,17.094416561940356 " />
			<path d="M-49.23497827464989,17.355527289330198 L-49.3424363641539,17.094416561940356 " />
			<path d="M-49.2349782746499,17.355527289330198 L-46.367666552833256,19.16246114988497 " />
			<path d="M-27.44426933738785,5.852558542748129 L-49.23497827464989,17.355527289330198 " />
			<path d="M-24.576957615571207,7.6594924033029 L-27.444269337387848,5.8525585427481275 " />
			<path d="M-27.444269337387848,5.852558542748129 L-27.444269337387848,5.51295520855261 " />
			<path d="M-24.576957615571207,7.31988906910738 L-27.444269337387848,5.512955208552608 " />
			<path d="M-25.894234191505788,5.03431963686765 L-27.44426933738785,5.512955208552604 " />
			<path d="M-25.894234191505976,5.034319636867711 L-23.026922469689335,6.841253497422483 " />
			<path d="M-24.374299680812047,4.2319703776627655 L-25.894234191505774,5.034319636867649 " />
			<path d="M-21.506987958995406,6.038904238217537 L-24.374299680812047,4.2319703776627655 " />
			<path d="M-24.313502300384297,4.546205212883395 L-24.374299680812047,4.231970377662765 " />
			<path d="M-24.3135023003843,4.546205212883397 L-21.44619057856766,6.353139073438168 " />
			<path d="M82.49665439626736,-28.435718163550447 L-24.313502300384314,4.5462052128834 " />

       </g>

       <!-- solid lines -->
       <g  stroke="rgb(40,40,40)" fill="none">
			<path d="M91.83589829018443,0.18069338605547713 L88.39512422400446,-1.987627246610249 " />
			<path d="M88.39512422400445,-1.9876272466102485 L88.39512422400445,-55.83425629114245 " />
			<path d="M91.83589829018443,-53.66593565847673 L88.39512422400446,-55.83425629114245 " />
			<path d="M91.83589829018443,0.18069338605547713 L91.83589829018443,-53.66593565847673 " />
			<path d="M91.83589829018443,0.18069338605547713 L-88.39512422400445,55.83425629114245 " />
			<path d="M-88.39512422400445,55.83425629114245 L-91.83589829018442,53.66593565847673 " />
			<path d="M88.39512422400445,-1.9876272466102485 L-91.83589829018443,53.66593565847673 " />
			<path d="M88.39512422400445,-55.83425629114245 L-91.83589829018443,-0.18069338605547358 " />
			<path d="M-91.83589829018443,53.66593565847673 L-91.83589829018443,-0.1806933860554807 " />

       </g>
    </g>
    
</svg>
