<?xml version="1.0" encoding="UTF-8" standalone="no"?>
<svg
   xmlns:svg="http://www.w3.org/2000/svg"
   xmlns="http://www.w3.org/2000/svg"
   width="720.0"
   height="540.0"

>
    <g transform="scale(3.3790943525728814, -3.3790943525728814)   translate(85.82181192401171,-64.74346373363471)" stroke-width="0.4"  fill="none">
       <!-- hidden lines -->
       <g  stroke="rgb(180,180,180)" fill="none" stroke-dasharray="0.4,0.4" >
			<path d="M75.66042558696059,-3.5902410098034565 L79.90306627407988,-1.9332066975864748 " />
			<path d="M75.66042558696059,-3.5902410098034565 L75.66042558696059,-58.82471808370286 " />
			<path d="M75.66042558696059,-3.5902410098034565 L-79.90306627407988,57.16768377148588 " />
			<path d="M-23.187487303140614,9.332433546502166 L-21.360239911612084,8.618771502515216 " />
			<path d="M-44.12282313206984,22.96017640943282 L-23.187487303140447,9.33243354650211 " />
			<path d="M-64.27600640985719,41.32622329555743 L-44.12282313206977,22.96017640943277 " />
			<path d="M-64.27600640985717,41.39824056688761 L-64.27600640985717,41.32622329555741 " />
			<path d="M-66.58816117736518,43.433341673964335 L-66.24974813223007,43.12493829330941 " />
			<path d="M-66.58816117736517,43.43334167396431 L-66.76627330638364,42.923200743557715 " />
			<path d="M-74.31692270270617,45.87223320987346 L-70.07428201558686,44.215198897656464 " />
			<path d="M-74.31692270270615,45.87223320987346 L-74.31692270270615,42.005819814700494 " />
			<path d="M-74.31692270270617,42.0058198147005 L-66.04690092969811,38.775824429453635 " />
			<path d="M-66.04690092969811,38.775824429453664 L-46.24605499821653,20.730870451223005 " />
			<path d="M-46.246054998216536,20.730870451222998 L-46.29503283286197,20.43118101635266 " />
			<path d="M-46.295032832861985,20.431181016352685 L-44.972631297435264,19.5703709374698 " />
			<path d="M-44.97263129743529,19.570370937469846 L-43.72049668773625,18.42927264880302 " />
			<path d="M-43.62774597590668,18.694925160450303 L-43.72049668773624,18.429272648803007 " />
			<path d="M-43.6277459759067,18.694925160450314 L-24.81944801964783,6.451766018809323 " />
			<path d="M-24.819448019647815,6.451766018809312 L-24.819448019647815,6.10340971666588 " />
			<path d="M-24.819448019647808,6.10340971666588 L-23.48156025517173,5.580875263450743 " />
			<path d="M-23.48156025517188,5.5808752634508565 L-22.169653367083093,4.726896618108256 " />
			<path d="M-22.117177091559547,5.047992588757026 L-22.169653367083093,4.726896618108249 " />
			<path d="M-22.117177091559554,5.047992588757026 L70.07428201558686,-30.958924399920612 " />
			<path d="M70.07428201558686,-27.64485577548665 L70.07428201558686,-30.958924399920615 " />
			<path d="M-22.73067545525847,9.510849057498909 L-23.18748730314061,9.332433546502168 " />
			<path d="M-43.07880714941332,23.367934320918614 L-44.12282313206977,22.960176409432762 " />
			<path d="M-64.18381055028202,41.36223193122251 L-64.27600640985717,41.32622329555742 " />
			<path d="M-66.58816117736518,43.433341673964314 L-62.34552049024589,45.0903759861813 " />
			<path d="M-74.31692270270615,45.87223320987345 L-70.07428201558686,47.529267522090436 " />
			<path d="M-74.31692270270615,42.005819814700494 L-70.07428201558686,43.66285412691748 " />
			<path d="M-66.04690092969811,38.775824429453635 L-61.80426024257882,40.43285874167062 " />
			<path d="M-46.246054998216536,20.730870451222998 L-42.003414311097245,22.38790476343998 " />
			<path d="M-46.29503283286197,20.431181016352664 L-42.05239214574268,22.088215328569646 " />
			<path d="M-40.72999061031595,21.22740524968677 L-44.97263129743524,19.570370937469786 " />
			<path d="M-43.72049668773625,18.429272648803014 L-39.47785600061696,20.086306961019996 " />
			<path d="M-39.6540823530931,20.246905979424948 L-43.6277459759067,18.6949251604503 " />
			<path d="M-24.819448019647815,6.4517660188093116 L-20.57680733252853,8.108800331026293 " />
			<path d="M-24.819448019647815,6.103409716665881 L-20.57680733252853,7.760444028882864 " />
			<path d="M-19.23891956805259,7.237909575667789 L-23.481560255171875,5.580875263450808 " />
			<path d="M-22.169653367083086,4.726896618108249 L-17.927012679963802,6.383930930325231 " />
			<path d="M-18.215632195343296,6.571806232300578 L-22.117177091559544,5.047992588757025 " />
			<path d="M70.07428201558686,-30.958924399920612 L74.31692270270615,-29.30189008770363 " />

       </g>

       <!-- solid lines -->
       <g  stroke="rgb(40,40,40)" fill="none">
			<path d="M79.90306627407988,-1.9332066975864777 L79.90306627407988,-57.16768377148588 " />
			<path d="M75.66042558696059,-58.82471808370286 L79.90306627407988,-57.16768377148588 " />
			<path d="M-79.90306627407988,57.16768377148588 L-75.66042558696059,58.82471808370286 " />
			<path d="M79.90306627407988,-1.9332066975864777 L-75.66042558696059,58.82471808370286 " />
			<path d="M79.90306627407988,-57.16768377148588 L-75.66042558696059,3.5902410098034565 " />
			<path d="M-75.66042558696059,58.82471808370286 L-75.66042558696059,3.5902410098034565 " />
			<path d="M-18.944846616021323,10.989467858719145 L74.31692270270615,-25.43547669253067 " />
			<path d="M-39.88018244495056,24.6172107216498 L-18.944846616021163,10.989467858719092 " />
			<path d="M-60.0333657227379,42.98325760777442 L-39.88018244495048,24.61721072164975 " />
			<path d="M-60.03336572273789,43.60761964984358 L-60.03336572273789,42.98325760777439 " />
			<path d="M-61.23231968388045,44.07589118139546 L-60.033365722737884,43.60761964984358 " />
			<path d="M-62.34552049024589,45.090375986181314 L-61.23231968388046,44.07589118139548 " />
			<path d="M-62.34552049024588,45.090375986181286 L-62.52363261926435,44.58023505577469 " />
			<path d="M-70.07428201558687,47.529267522090436 L-62.52363261926436,44.58023505577471 " />
			<path d="M-70.07428201558686,47.529267522090436 L-70.07428201558686,43.66285412691747 " />
			<path d="M-70.07428201558687,43.66285412691748 L-61.80426024257882,40.432858741670614 " />
			<path d="M-61.804260242578835,40.43285874167064 L-42.003414311097245,22.387904763439987 " />
			<path d="M-42.003414311097245,22.387904763439977 L-42.05239214574268,22.08821532856964 " />
			<path d="M-42.0523921457427,22.088215328569667 L-40.72999061031598,21.227405249686782 " />
			<path d="M-40.72999061031601,21.22740524968683 L-39.47785600061697,20.086306961020004 " />
			<path d="M-39.38510528878739,20.35195947266729 L-39.47785600061695,20.086306961019993 " />
			<path d="M-39.385105288787415,20.351959472667296 L-20.576807332528546,8.108800331026305 " />
			<path d="M-20.57680733252853,8.108800331026295 L-20.57680733252853,7.760444028882862 " />
			<path d="M-20.576807332528517,7.7604440288828584 L-19.238919568052438,7.237909575667722 " />
			<path d="M-19.238919568052594,7.237909575667839 L-17.92701267996381,6.3839309303252385 " />
			<path d="M-17.874536404440263,6.705026900974008 L-17.927012679963806,6.383930930325231 " />
			<path d="M-17.874536404440263,6.705026900974005 L74.31692270270615,-29.301890087703633 " />
			<path d="M74.31692270270615,-25.435476692530678 L74.31692270270615,-29.301890087703637 " />
			<path d="M75.66042558696059,-58.82471808370286 L-79.90306627407988,1.9332066975864777 " />
			<path d="M-79.90306627407988,1.9332066975864777 L-75.66042558696059,3.590241009803459 " />
			<path d="M-79.90306627407988,57.16768377148588 L-79.90306627407988,1.9332066975864777 " />
			<path d="M-21.360239911612084,8.618771502515216 L70.07428201558686,-27.09251100474765 " />
			<path d="M-64.27600640985717,41.9505853376266 L-64.27600640985717,41.39824056688761 " />
			<path d="M-65.47496037099974,42.418856869178484 L-64.27600640985717,41.95058533762659 " />
			<path d="M-66.24974813223007,43.12493829330941 L-65.47496037099975,42.4188568691785 " />
			<path d="M-70.07428201558686,44.215198897656464 L-66.76627330638365,42.92320074355773 " />
			<path d="M70.07428201558686,-27.092511004747657 L70.07428201558686,-27.64485577548665 " />
			<path d="M-18.944846616021326,10.98946785871915 L-22.73067545525847,9.510849057498909 " />
			<path d="M70.07428201558686,-27.092511004747657 L74.31692270270615,-25.435476692530674 " />
			<path d="M-39.88018244495048,24.617210721649744 L-43.07880714941332,23.367934320918614 " />
			<path d="M-60.033365722737884,42.983257607774405 L-64.18381055028202,41.36223193122251 " />
			<path d="M-64.27600640985717,41.9505853376266 L-60.033365722737884,43.607619649843585 " />
			<path d="M-65.47496037099974,42.41885686917848 L-61.23231968388045,44.07589118139546 " />
			<path d="M-66.76627330638364,42.92320074355772 L-62.52363261926435,44.58023505577471 " />
			<path d="M-39.38510528878741,20.351959472667282 L-39.6540823530931,20.246905979424948 " />
			<path d="M-17.87453640444026,6.705026900974007 L-18.215632195343296,6.571806232300578 " />

       </g>
    </g>
    
</svg>
