<?xml version="1.0" encoding="UTF-8" standalone="no"?>
<svg
   xmlns:svg="http://www.w3.org/2000/svg"
   xmlns="http://www.w3.org/2000/svg"
   width="720.0"
   height="540.0"

>
    <g transform="scale(4.7728724503502304, -4.7728724503502304)   translate(18.790348727742018,-9.546100690426359)" stroke-width="0.4"  fill="none">
       <!-- hidden lines -->
       <g  stroke="rgb(180,180,180)" fill="none" stroke-dasharray="0.4,0.4" >
			<path d="M0.27249476163836484,-0.08414369594420679 L-7.045394516463745,2.1755483681079446 " />
			<path d="M-7.045394516463747,2.1755483681079455 L-7.045394516463747,0.3806607332902052 " />
			<path d="M7.045394516463747,-3.9704360029256858 L-7.04539451646375,0.3806607332902061 " />
			<path d="M7.045394516463747,-2.1755483681079455 L7.045394516463747,-3.9704360029256858 " />
			<path d="M-7.045394516463747,2.1755483681079455 L-6.532768417520279,2.4985971140594985 " />
			<path d="M-7.004432920437795,-1.3371310568105308 L-6.911184883456128,-1.2807731788181715 L-6.812958887006973,-1.2260855881019659 L-6.709908515961766,-1.1731537934568648 L-6.602194898520374,-1.1220605583382581 L-6.489986454273175,-1.0728857714541307 L-6.373458630862407,-1.0257063218521316 L-6.252793629654549,-0.9805959786968748 L-6.128180120852676,-0.9376252759254471 L-5.9998129484942115,-0.8968614019614747 L-5.8678928257953675,-0.8583680946601919 L-5.732626021318608,-0.822205541648771 L-5.594224036453849,-0.7884302862177435 L-5.4529032747176736,-0.7570951389106573 L-5.308884703387656,-0.7282490949502076 L-5.162393508000834,-0.7019372576299541 L-5.013658740256584,-0.6782007677914059 L-4.862912959874408,-0.6570767394967458 L-4.710391870966617,-0.6385982019977716 L-4.556333953494501,-0.6227940480917935 L-4.400980090384205,-0.6096889889452395 L-4.244573190885368,-0.5993035154555999 L-4.087357810761428,-0.5916538662121318 L-3.929579769905451,-0.5867520021054144 L-3.7714857679793994,-0.5846055876254588 L-3.613322998677795,-0.5852179788776122 L-3.455338763218919,-0.5885882183349971 L-3.297780083667892,-0.5947110363356856 L-3.1408933166962347,-0.6035768593222752 L-2.984923768381831,-0.6151718248109761 L-2.8301153106515757,-0.6294778030668067 L-2.676709999966455,-0.6464724254510101 L-2.524947698845259,-0.6661291193963608 L-2.3750657008187086,-0.6884171499556802 L-2.227298359400428,-0.7133016678585951 L-2.0818767216548846,-0.7407437640013956 L-1.9390281669352443,-0.7707005302847978 L-1.7989760513560211,-0.8031251267044792 L-1.6619393585564004,-0.8379668545894936 L-1.5281323573003172,-0.8751712358740418 L-1.3977642664486405,-0.9146800982786563 L-1.2710389278273255,-0.9564316662676113 L-1.1481544875030263,-1.0003606576403334 L-1.0293030859645196,-1.0463983856057884 L-0.914670557694377,-1.0944728661802419 L-0.8044361406006133,-1.1445089307404663 L-0.6987721957626669,-1.1964283435564083 L-0.5978439379298894,-1.2501499241195404 L-0.5018091771939432,-1.3055896740756365 L-0.4108180722390262,-1.3626609085634878 L-0.3250128955557332,-1.4212743917542068 L-0.24452781098567167,-1.481338476379194 L-0.16948866394464712,-1.542759247028593 L-0.10001278465243102,-1.6054406669961916 L-0.036208804676781,-1.6692847284411436 L0.021823512921445687,-1.7341916056317346 L0.0739934295764968,-1.8000598110315815 L0.12021937309535069,-1.8667863539842013 L0.16042906520291744,-1.9342669017478453 L0.19455963455539926,-2.002395942628795 L0.22255771504509125,-2.0710669509580546 L0.24437952924292272,-2.140172553653479 L0.2599909568482688,-2.2096046981069097 L0.2693675880390014,-2.2792548211338053 L0.2724947616383657,-2.3490140187211965 " />
			<path d="M-7.727505238361634,-2.349014018721202 L-7.72459163742616,-2.2816781737678893 L-7.715855079154944,-2.2144404237050006 L-7.701308290970163,-2.147398720518276 L-7.680972464639646,-2.080650730592277 L-7.654877225404705,-2.0142936924299475 L-7.623060588822063,-1.9484242749955198 L-7.585568905382775,-1.8831384368871225 L-7.542456792988812,-1.8185312865442482 L-7.493787057385674,-1.7546969436937356 L-7.439630600666954,-1.691728402236107 L-7.380066317984128,-1.629717394772011 L-7.3151809826120715,-1.5687542589661256 L-7.2450691195377015,-1.5089278059432074 L-7.169832867755941,-1.4503251909080037 L-7.089581831473574,-1.3930317861775083 L-7.004432920437798,-1.3371310568105323 " />
			<path d="M-7.045394516463747,0.3806607332902052 L-7.045394516463749,-67.82506938978393 " />
			<path d="M-7.045394516463749,-67.82506938978393 L-7.045394516463749,-69.61995702460167 " />
			<path d="M-7.045394516463749,-69.61995702460167 L-3.604620450283779,-67.45163639193595 " />
			<path d="M-3.604620450283777,3.0044434798134443 L-3.6046204502837793,-67.45163639193595 " />
			<path d="M10.650014966747525,-5.0835072610274255 L7.045394516463747,-3.9704360029256858 " />
			<path d="M-10.650014966747525,1.4937319913919456 L-10.790347048948027,1.4034757813749097 L-10.926748927613808,1.3120546209492676 L-11.059170920640735,1.219501808744459 L-11.187564795531497,1.1258510555751589 L-11.311883786963474,1.0311364721626852 L-11.432082613822221,0.935392556710746 L-11.548117495694374,0.8386541823400291 L-11.659946168813923,0.7409565843862616 L-11.76752790145607,0.6423353475663307 L-11.870823508773105,0.5428263930171353 L-11.969795367066817,0.44246596521191583 L-12.064407427492288,0.3412906187588216 L-12.154625229188103,0.23933720508648748 L-12.240415911828132,0.13664285902152784 L-12.321748227590344,0.03324498526280206 L-12.398592552538325,-0.07081875524263626 L-12.470920897411295,-0.17551045901690188 L-12.538706917818706,-0.2807919938569787 L-12.601925923835784,-0.38662501272375205 L-12.660554888996392,-0.4929709677092706 L-12.714572458680045,-0.5997911240771681 L-12.763958957889978,-0.7070465743711585 L-12.808696398419427,-0.8146982525864216 L-12.848768485403536,-0.922706948398731 L-12.884160623254491,-1.031033321446178 L-12.914859920977715,-1.13963791565823 L-12.940855196867199,-1.2484811736269392 L-12.962136982578256,-1.3575234510150822 L-12.978697526576198,-1.4667250309959379 L-12.990530796959709,-1.576046138719472 L-12.997632483657862,-1.6854469557996754 L-12.999999999999998,-1.7948876348177127 " />
			<path d="M-12.999999999999998,-1.794887634817738 L-12.997458923101599,-1.908268493164945 L-12.989836685802064,-2.0216050269767876 L-12.977136267900026,-2.1348529290459104 L-12.959362634432182,-2.247967926814199 L-12.936522733732287,-2.3609057996804705 L-12.908625494714807,-2.4736223962878485 L-12.875681823384294,-2.586073651784071 L-12.837704598571856,-2.6982156050479755 L-12.794708666900354,-2.810004415875445 L-12.746710836980357,-2.9213963821180666 L-12.693729872839066,-3.032347956767826 L-12.635786486584792,-3.1428157649811554 L-12.572903330309876,-3.252756621035675 L-12.505104987235196,-3.362127545213 L-12.43241796209973,-3.4708857806010087 L-12.354870670798922,-3.5789888098090152 L-12.272493429275917,-3.6863943715893033 L-12.185318441670006,-3.793060477358517 L-12.0933797877269,-3.898945427612471 L-11.99671340947577,-4.004007828227936 L-11.895357097178254,-4.108206606645052 L-11.78935047455491,-4.211501027924028 L-11.678734983294948,-4.313850710669835 L-11.563553866855205,-4.415215642818725 L-11.443852153554777,-4.515556197280328 L-11.319676638971872,-4.614833147429275 L-11.191075867649793,-4.713007682440245 L-11.058100114119172,-4.810041422460482 L-10.920801363243909,-4.905896433613811 L-10.77923328989847,-5.000535242830319 L-10.633451237984508,-5.093920852495884 L-10.483512198794992,-5.186016754915833 L-10.329474788734332,-5.276786946587079 L-10.171399226403171,-5.366195942273144 L-10.009347309056837,-5.4542087888765725 L-9.843382388446644,-5.5407910791033235 L-9.673569346053467,-5.625908964913782 L-9.499974567723317,-5.709529170755134 L-9.322665917714797,-5.7916190065699515 L-9.141712712168584,-5.872146380575866 L-8.95718569200934,-5.951079811811375 L-8.769156995290619,-6.028388442442839 L-8.577700128993564,-6.104042049827904 L-8.382889940290477,-6.178011058330567 L-8.184802587284453,-6.250266550883334 L-7.983515509236505,-6.320780280291913 L-7.779107396291859,-6.389524680278023 L-7.571658158717232,-6.456472876256017 L-7.361248895661114,-6.521598695839098 L-7.147961863449282,-6.584876679071016 L-6.931880443427937,-6.64628208837925 L-6.713089109367012,-6.705790918245797 L-6.49167339443644,-6.76337990459176 L-6.2677198577682445,-6.819026533872093 L-6.041316050617555,-6.87270905187693 L-5.812550482135764,-6.924406472236059 L-5.581512584769216,-6.974098584623241 L-5.348292679296931,-7.021765962657116 L-5.112981939521071,-7.067389971495667 L-4.8756723566239115,-7.110952775121219 L-4.636456703205278,-7.15243734331317 L-4.3954284970145,-7.191827458305692 L-4.152681964391055,-7.229107721127828 L-3.9083120034282204,-7.264263557623479 L-3.6624141468740548,-7.297281224148961 L-3.415084524784341,-7.3281478129458675 L-3.16641982694201,-7.356851257187162 L-2.9165172650576987,-7.383380335694529 L-2.665474534766307,-7.407724677325115 L-2.413389777434367,-7.429874765025978 L-2.1603615417931543,-7.449821939554636 L-1.9064887454125505,-7.467558402864256 L-1.6518706360307125,-7.483077221152199 L-1.3966067527546648,-7.496372327570673 L-1.1407968871469905,-7.507438524598481 L-0.8845410442138246,-7.516271486072911 L-0.6279394033094069,-7.522867758880987 L-0.37109227897247477,-7.527224764309412 L-0.11410008170980857,-7.529340799052668 L0.14293672125774048,-7.52921503587891 L0.399917645271394,-7.5268475239533545 L0.6567422275174073,-7.5222391888190545 L0.9133100663014903,-7.515391832035081 L1.1695208602993339,-7.506308130472222 L1.4252744477679002,-7.494991635266511 L1.6804708457021433,-7.481446770430951 L1.9350102889218563,-7.4656788311260245 L2.188793269073351,-7.447693981589623 L2.4417205735307825,-7.4274992527272365 L2.6936933241818024,-7.405102539363323 L2.944613016082446,-7.380512597154949 L3.1943815559661823,-7.353739039168895 L3.44290130059199,-7.324792332123575 L3.690075094916506,-7.2936837922972275 L3.935806310075321,-7.260425581103992 L4.179998881158582,-7.225030700339583 L4.422557344766112,-7.187512987098435 L4.663386876327391,-7.147887108364301 L4.902393327171788,-7.10616855527642 L5.139483261334564,-7.0623736370734775 L5.37456399208425,-7.0165194747177715 L5.607543618157126,-6.968623994202016 L5.83833105968464,-6.918705919541455 L6.066836093799696,-6.866784765453985 L6.292969389907933,-6.812880829731173 L6.516642544610165,-6.757015185303145 L6.7377681162623615,-6.699209672000431 L6.956259659159634,-6.639486888016027 L7.172031757330884,-6.577870181070959 L7.38500005793088,-6.514383639286858 L7.595081304216739,-6.449052081769056 L7.802193368095882,-6.38190104890395 L8.006255282232793,-6.312956792374355 L8.207187271701963,-6.242246264896813 L8.404910785174678,-6.169797109684842 L8.5993485256275,-6.095637649642228 L8.79042448056036,-6.019796876290621 L8.9780639517125,-5.94230443843573 L9.162193584264633,-5.863190630576578 L9.3427413955159,-5.7824863810623155 L9.519636803024415,-5.700223240001258 L9.692810652200423,-5.6164333669268425 L9.86219524334122,-5.531149518225345 L10.02772435809735,-5.444405034330264 L10.18933328535965,-5.35623382668838 L10.346958846557103,-5.266670364502596 L10.500539420355528,-5.175749661256709 L10.650014966747458,-5.083507261027469 " />
			<path d="M-7.04539451646375,0.3806607332902061 L-10.650014966747525,1.493731991391945 " />
			<path d="M-5.0382763111920985,-3.7391484687746743 L-5.104436290119357,-3.7844261224136635 L-5.162575536061809,-3.831797749636912 L-5.212355383283762,-3.8809874069449046 L-5.253485860212505,-3.931708560668161 L-5.270730705170091,-3.957551420805311 L-5.285727378545806,-3.9836657560486697 L-5.298454033178863,-4.010013523022441 L-5.308892128872839,-4.036556338287373 L-5.317026459405046,-4.063255534257772 L-5.3228451746789585,-4.090072215532462 L-5.326339797987445,-4.116967315557618 L-5.327505238361635,-4.14390165353894 " />
			<path d="M-5.327505238361635,-4.143901653538943 L-5.3255779682899105,-4.178533914311091 L-5.319800801037149,-4.2130827429336115 L-5.310187654305284,-4.247464908252233 L-5.2967616870068035,-4.28159758061918 L-5.279555243472905,-4.315398531437052 L-5.258609775533169,-4.348786331254715 L-5.233975742654468,-4.381680545937982 L-5.205712490379693,-4.414001930442489 L-5.1738881073591445,-4.445672619721945 L-5.138579261319003,-4.476616316311852 L-5.09987101436207,-4.506758474136776 L-5.057856618045707,-4.536026478098376 L-5.012637288730667,-4.564349819011533 L-4.964321963742014,-4.591660263467158 L-4.91302703892957,-4.617892018212443 L-4.858876088260111,-4.642981888652578 L-4.801999566116864,-4.666869431092058 L-4.742534493023468,-4.689497098348845 L-4.680624125549529,-4.710810378390568 L-4.616417611192999,-4.730757925658784 L-4.481740017283231,-4.766367006259937 L-4.3397987301457785,-4.795981405240213 L-4.191960721968775,-4.819315919748553 L-4.03964975358744,-4.836145825654301 L-3.884332662888931,-4.846309041763419 L-3.7275052383616347,-4.849707690748999 L-3.570677813834338,-4.846309041763419 L-3.415360723135829,-4.836145825654301 L-3.2630497547544937,-4.819315919748553 L-3.11521174657749,-4.795981405240213 L-2.9732704594400383,-4.766367006259937 L-2.8385928655302712,-4.730757925658784 L-2.7743863511737414,-4.710810378390569 L-2.712475983699802,-4.689497098348846 L-2.653010910606406,-4.666869431092059 L-2.5961343884631587,-4.642981888652579 L-2.541983437793699,-4.617892018212443 L-2.4906885129812544,-4.591660263467158 L-2.442373187992602,-4.564349819011534 L-2.397153858677562,-4.536026478098376 L-2.355139462361199,-4.5067584741367765 L-2.3164312154042666,-4.476616316311852 L-2.281122369364125,-4.445672619721947 L-2.249297986343576,-4.41400193044249 L-2.2210347340688017,-4.381680545937983 L-2.1964007011901003,-4.348786331254717 L-2.1754552332503643,-4.3153985314370535 L-2.158248789716466,-4.281597580619181 L-2.144822822417985,-4.247464908252233 L-2.135209675686119,-4.213082742933612 L-2.129432508433358,-4.1785339143110924 L-2.127505238361634,-4.14390165353895 " />
			<path d="M-2.127505238361634,-4.1439016535389435 L-2.12875610780138,-4.115997974503983 L-2.132506760277673,-4.088137925293226 L-2.1387513313198117,-4.060365067511853 L-2.147480056998944,-4.032722826433684 L-2.1586792891948208,-4.00525442310198 L-2.172331516935814,-3.9780028067496 L-2.1884153937788406,-3.9510105876441424 L-2.206905771186382,-3.924319970463094 L-2.227773737848403,-3.8979726883031556 L-2.250986664887693,-3.8720099374269195 L-2.3042986085948396,-3.821399744861899 L-2.366508301239274,-3.7728058027521447 L-2.437226813894558,-3.7265319156807166 L-2.516012021322047,-3.6828673834730252 L-2.602371366094731,-3.6420851925225586 L-2.6957649380181916,-3.6044403091065953 L-2.795608849596437,-3.5701680853619244 L-2.9012788864395405,-3.5394827878862594 L-3.012114409791078,-3.512576258164381 L-3.127422486777152,-3.4896167131939 L-3.246482222555084,-3.470747693809006 L-3.368549267277611,-3.4560871672771847 L-3.492860469695475,-3.445726789779372 L-3.618638648304548,-3.4397313333844606 L-3.7450974502087404,-3.4381382811006453 L-3.8714462673215517,-3.4409575925353146 L-3.996895179170662,-3.4481716416285577 L-4.120659891403627,-3.4597353268495707 L-4.241966639119615,-3.4755763531670243 L-4.3600570243720425,-3.495595684030545 L-4.47419275759852,-3.5196681605375595 L-4.583660273335127,-3.547643283914539 L-4.6877751913580505,-3.5793461564206406 L-4.785886595361943,-3.614578574791315 L-4.8773811024251295,-3.653120269385765 L-4.961686697819769,-3.6947302812912484 L-5.038276311192095,-3.7391484687746717 " />
			<path d="M7.045394516463747,-3.9704360029256858 L7.0453945164637455,-72.17616612599981 " />
			<path d="M7.0453945164637455,-72.17616612599981 L7.0453945164637455,-73.97105376081755 " />
			<path d="M7.0453945164637455,-73.97105376081755 L10.486168582643716,-71.80273312815183 " />
			<path d="M10.486168582643717,-0.0072277354422189966 L10.486168582643716,-71.80273312815183 " />
			<path d="M-6.881548132359938,5.355751962684344 L-6.8815481323599395,-66.43975343002526 " />
			<path d="M-3.6046204502837793,-67.45163639193595 L-6.88154813235994,-66.43975343002528 " />
			<path d="M-9.666936662124677,5.138919899417772 L-9.666936662124678,-66.65658549329184 " />
			<path d="M-9.666936662124677,-66.65658549329184 L-6.881548132359939,-66.43975343002528 " />
			<path d="M-11.960786039577991,-68.10213258173566 L-9.666936662124678,-66.65658549329184 " />
			<path d="M-11.960786039577991,3.6933728109739548 L-11.960786039577993,-68.10213258173566 " />
			<path d="M-11.960786039577995,-68.10213258173566 L-12.11838976266471,-68.20349724837018 L-12.27157956485859,-68.30617024392512 L-12.420299649334984,-68.41011417147823 L-12.564495847289225,-68.51529117119144 L-12.704115637666675,-68.62166293410083 L-12.839108166292654,-68.72919071606994 L-12.969424264395226,-68.83783535190166 L-13.095016466514101,-68.94755726960358 L-13.21583902778913,-69.05831650480135 L-13.331847940622108,-69.17007271529506 L-13.443000950705814,-69.28278519575323 L-13.54925757241442,-69.39641289253902 L-13.65057910354972,-69.51091441866333 L-13.746928639437751,-69.62624806885935 L-13.8382710863707,-69.74237183477301 L-13.924573174389202,-69.85924342026372 L-14.005803469400382,-69.97682025681021 L-14.081932384627168,-70.09505951901522 L-14.15293219138481,-70.21391814020406 L-14.218777029180568,-70.33335282811088 L-14.27944291513298,-70.45332008064713 L-14.334907752707212,-70.57377620174653 L-14.385151339763363,-70.6946773172806 L-14.430155375914746,-70.81597939103904 L-14.46990346919351,-70.93763824076925 L-14.504381142021131,-71.05960955426893 L-14.53357583648163,-71.1818489055261 L-14.557476918895585,-71.30431177090047 L-14.576075683693274,-71.42695354534051 L-14.589365356585525,-71.54972955863002 L-14.597341097031142,-71.67259509165856 L-14.600000000000003,-71.79550539270959 " />
			<path d="M13.763096264719877,-1.0191106973528914 L13.763096264719875,-72.8146160900625 " />
			<path d="M14.2546354170313,-74.04333111523975 L13.763096264719877,-72.8146160900625 " />
			<path d="M13.763096264719877,-72.8146160900625 L10.486168582643714,-71.80273312815183 " />
			<path d="M-10.650014966747525,1.493731991391945 L-10.650014966747527,-66.7119981316822 " />
			<path d="M-7.045394516463752,-67.82506938978392 L-10.650014966747527,-66.71199813168218 " />
			<path d="M7.0453945164637455,-72.17616612599981 L-7.045394516463752,-67.82506938978392 " />
			<path d="M7.0453945164637455,-73.97105376081755 L-7.045394516463746,-69.61995702460167 " />
			<path d="M-7.0044329204377975,-73.13263644952015 L-6.91118488345613,-73.0762785715278 L-6.8129588870069755,-73.02159098081158 L-6.709908515961768,-72.96865918616648 L-6.602194898520376,-72.91756595104788 L-6.489986454273177,-72.86839116416375 L-6.373458630862409,-72.82121171456176 L-6.252793629654551,-72.7761013714065 L-6.1281801208526785,-72.73313066863507 L-5.999812948494213,-72.69236679467109 L-5.867892825795369,-72.65387348736981 L-5.732626021318611,-72.61771093435839 L-5.594224036453851,-72.58393567892736 L-5.452903274717676,-72.55260053162027 L-5.308884703387657,-72.52375448765983 L-5.162393508000836,-72.49744265033956 L-5.013658740256587,-72.47370616050102 L-4.86291295987441,-72.45258213220636 L-4.710391870966619,-72.4341035947074 L-4.556333953494503,-72.4182994408014 L-4.4009800903842065,-72.40519438165485 L-4.2445731908853706,-72.39480890816522 L-4.0873578107614295,-72.38715925892176 L-3.929579769905453,-72.38225739481503 L-3.7714857679794016,-72.38011098033508 L-3.613322998677797,-72.38072337158722 L-3.455338763218921,-72.38409361104462 L-3.2977800836678943,-72.3902164290453 L-3.140893316696237,-72.39908225203189 L-2.984923768381833,-72.4106772175206 L-2.830115310651578,-72.42498319577642 L-2.676709999966457,-72.44197781816062 L-2.524947698845261,-72.46163451210597 L-2.375065700818711,-72.4839225426653 L-2.2272983594004305,-72.50880706056822 L-2.081876721654887,-72.53624915671101 L-1.9390281669352465,-72.56620592299441 L-1.7989760513560233,-72.5986305194141 L-1.6619393585564026,-72.63347224729911 L-1.5281323573003194,-72.67067662858366 L-1.3977642664486427,-72.71018549098828 L-1.2710389278273277,-72.75193705897723 L-1.1481544875030285,-72.79586605034996 L-1.0293030859645218,-72.84190377831541 L-0.9146705576943792,-72.88997825888985 L-0.8044361406006155,-72.94001432345009 L-0.6987721957626691,-72.99193373626602 L-0.5978439379298917,-73.04565531682915 L-0.5018091771939455,-73.10109506678525 L-0.41081807223902844,-73.1581663012731 L-0.3250128955557354,-73.21677978446382 L-0.2445278109856739,-73.27684386908881 L-0.16948866394464934,-73.33826463973821 L-0.10001278465243324,-73.4009460597058 L-0.036208804676783224,-73.46479012115076 L0.021823512921443466,-73.52969699834135 L0.07399342957649457,-73.5955652037412 L0.12021937309534847,-73.66229174669382 L0.16042906520291522,-73.72977229445746 L0.19455963455539704,-73.79790133533841 L0.22255771504508903,-73.86657234366767 L0.2443795292429205,-73.9356779463631 L0.25999095684826656,-74.00511009081653 L0.2693675880389992,-74.07476021384342 L0.2724947616383635,-74.14451941143082 " />
			<path d="M0.2724947616383635,-74.14451941143082 L0.2712900364231805,-74.18782277956088 L0.2676765864590531,-74.2311000633612 L0.26165658835312433,-74.27432519421424 L0.2532336683271508,-74.3174721349175 L0.24241290003320337,-74.36051489536723 L0.22920080149748712,-74.40342754821404 L0.2136053311941284,-74.44618424448046 L0.19563588325128523,-74.48875922913142 L0.17530328179247778,-74.53112685658814 L0.1526197744165394,-74.57326160617609 L0.1275990248201233,-74.61513809749763 L0.1002561045671988,-74.65673110572025 L0.07060748401050931,-74.69801557677106 L0.03867102237044584,-74.73896664242842 L-0.03198710831648999,-74.81977010368969 L-0.11154806586786359,-74.89894682688833 L-0.1998201809682172,-74.97630606836309 L-0.2965907983605498,-75.05166146292541 L-0.4016267891514569,-75.1248314728294 L-0.5146751124390576,-75.1956398251123 L-0.6354634249106903,-75.26391593625137 L-0.7637007369418027,-75.32949532311457 L-0.8990781136154484,-75.39221999921492 L-1.0412694189735645,-75.45193885531361 L-1.1899321017070559,-75.50850802345558 L-1.344708020391904,-75.56179122355988 L-1.505224306283231,-75.61166009173043 L-1.6710942615887552,-75.65799448949578 L-1.8419182910576513,-75.70068279323331 L-2.017284864640513,-75.73962216308027 L-2.196771508901282,-75.77471879068399 L-2.37994582479276,-75.8058881251945 L-2.5663665293437905,-75.83305507695485 L-2.7555845187485835,-75.85615419839868 L-2.9471439502971255,-75.87512984171921 L-3.140583340540191,-75.8899362929296 L-3.3354366770433947,-75.90053788199201 L-3.5312345410519645,-75.90690906874977 L-3.7275052383616396,-75.90903450445596 L-3.923775935671314,-75.90690906874977 L-4.119573799679884,-75.90053788199201 L-4.314427136183088,-75.8899362929296 L-4.507866526426153,-75.87512984171921 L-4.699425957974695,-75.85615419839868 L-4.888643947379489,-75.83305507695485 L-5.075064651930518,-75.8058881251945 L-5.258238967821996,-75.77471879068399 L-5.437725612082765,-75.73962216308026 L-5.613092185665627,-75.70068279323331 L-5.783916215134523,-75.65799448949578 L-5.949786170440047,-75.61166009173043 L-6.1103024563313735,-75.56179122355988 L-6.265078375016222,-75.50850802345558 L-6.4137410577497125,-75.4519388553136 L-6.555932363107829,-75.3922199992149 L-6.691309739781474,-75.32949532311457 L-6.819547051812585,-75.26391593625137 L-6.940335364284216,-75.1956398251123 L-7.053383687571819,-75.1248314728294 L-7.158419678362728,-75.0516614629254 L-7.255190295755059,-74.97630606836309 L-7.3434624108554125,-74.89894682688832 L-7.423023368406785,-74.81977010368968 L-7.4936814990937215,-74.73896664242842 L-7.5256179607337845,-74.69801557677106 L-7.555266581290473,-74.65673110572025 L-7.582609501543397,-74.61513809749763 L-7.607630251139813,-74.57326160617609 L-7.630313758515751,-74.53112685658814 L-7.650646359974559,-74.48875922913142 L-7.668615807917401,-74.44618424448046 L-7.6842112782207606,-74.40342754821404 L-7.697423376756476,-74.36051489536723 L-7.708244145050424,-74.3174721349175 L-7.716667065076397,-74.27432519421424 L-7.722687063182326,-74.2311000633612 L-7.7263005131464535,-74.18782277956088 L-7.727505238361637,-74.14451941143084 " />
			<path d="M-7.727505238361637,-74.14451941143082 L-7.724591637426163,-74.0771835664775 L-7.715855079154947,-74.00994581641461 L-7.7013082909701644,-73.9429041132279 L-7.680972464639648,-73.8761561233019 L-7.654877225404707,-73.80979908513956 L-7.6230605888220655,-73.74392966770513 L-7.585568905382777,-73.67864382959674 L-7.542456792988814,-73.61403667925387 L-7.493787057385676,-73.55020233640336 L-7.4396306006669555,-73.48723379494572 L-7.380066317984131,-73.42522278748163 L-7.315180982612073,-73.36425965167574 L-7.245069119537704,-73.30443319865283 L-7.169832867755943,-73.24583058361762 L-7.089581831473577,-73.18853717888713 L-7.0044329204378,-73.13263644952015 " />
			<path d="M10.650014966747523,-73.28923738410155 L7.0453945164637455,-72.17616612599981 " />
			<path d="M10.650014966747523,-5.083507261027426 L10.650014966747522,-73.28923738410155 " />
			<path d="M-10.650014966747529,-66.7119981316822 L-10.79034704894803,-66.80225434169922 L-10.926748927613811,-66.89367550212486 L-11.059170920640739,-66.98622831432968 L-11.1875647955315,-67.07987906749898 L-11.311883786963477,-67.17459365091145 L-11.432082613822224,-67.2703375663634 L-11.548117495694378,-67.36707594073411 L-11.659946168813926,-67.46477353868788 L-11.767527901456074,-67.5633947755078 L-11.870823508773109,-67.662903730057 L-11.969795367066821,-67.76326415786222 L-12.064407427492291,-67.86443950431531 L-12.154625229188106,-67.96639291798765 L-12.240415911828135,-68.06908726405261 L-12.321748227590348,-68.17248513781134 L-12.398592552538329,-68.27654887831677 L-12.470920897411299,-68.38124058209104 L-12.53870691781871,-68.48652211693111 L-12.601925923835788,-68.59235513579789 L-12.660554888996396,-68.6987010907834 L-12.714572458680049,-68.8055212471513 L-12.763958957889981,-68.9127766974453 L-12.80869639841943,-69.02042837566056 L-12.84876848540354,-69.12843707147286 L-12.884160623254495,-69.2367634445203 L-12.914859920977719,-69.34536803873236 L-12.940855196867203,-69.45421129670108 L-12.96213698257826,-69.56325357408922 L-12.978697526576202,-69.67245515407008 L-12.990530796959712,-69.78177626179361 L-12.997632483657865,-69.89117707887381 L-13.000000000000002,-70.00061775789185 " />
			<path d="M-13.000000000000002,-70.00061775789187 L-12.997458923101602,-70.11399861623907 L-12.989836685802068,-70.22733515005092 L-12.977136267900029,-70.34058305212004 L-12.959362634432186,-70.45369804988833 L-12.936522733732291,-70.5666359227546 L-12.90862549471481,-70.67935251936198 L-12.875681823384298,-70.79180377485821 L-12.83770459857186,-70.90394572812211 L-12.794708666900357,-71.01573453894957 L-12.74671083698036,-71.1271265051922 L-12.69372987283907,-71.23807807984196 L-12.635786486584795,-71.34854588805528 L-12.57290333030988,-71.4584867441098 L-12.5051049872352,-71.56785766828713 L-12.432417962099734,-71.67661590367514 L-12.354870670798926,-71.78471893288315 L-12.27249342927592,-71.89212449466343 L-12.18531844167001,-71.99879060043266 L-12.093379787726903,-72.10467555068661 L-11.996713409475774,-72.20973795130207 L-11.895357097178257,-72.31393672971919 L-11.789350474554913,-72.41723115099816 L-11.678734983294952,-72.51958083374397 L-11.563553866855209,-72.62094576589286 L-11.443852153554781,-72.72128632035447 L-11.319676638971876,-72.82056327050341 L-11.191075867649797,-72.91873780551438 L-11.058100114119176,-73.01577154553462 L-10.920801363243912,-73.11162655668795 L-10.779233289898473,-73.20626536590446 L-10.633451237984511,-73.29965097557002 L-10.483512198794996,-73.39174687798997 L-10.329474788734336,-73.48251706966121 L-10.171399226403175,-73.57192606534728 L-10.00934730905684,-73.6599389119507 L-9.843382388446647,-73.74652120217746 L-9.67356934605347,-73.83163908798791 L-9.49997456772332,-73.91525929382927 L-9.3226659177148,-73.99734912964409 L-9.141712712168587,-74.07787650365 L-8.957185692009343,-74.1568099348855 L-8.769156995290622,-74.23411856551698 L-8.577700128993568,-74.30977217290204 L-8.38288994029048,-74.3837411814047 L-8.184802587284457,-74.45599667395747 L-7.983515509236507,-74.52651040336605 L-7.77910739629186,-74.59525480335216 L-7.571658158717233,-74.66220299933015 L-7.361248895661116,-74.72732881891324 L-7.147961863449284,-74.79060680214515 L-6.931880443427938,-74.85201221145338 L-6.713089109367014,-74.91152104131993 L-6.491673394436442,-74.96911002766589 L-6.267719857768246,-75.02475665694622 L-6.0413160506175565,-75.07843917495106 L-5.812550482135766,-75.13013659531019 L-5.581512584769218,-75.17982870769737 L-5.348292679296933,-75.22749608573125 L-5.112981939521073,-75.2731200945698 L-4.875672356623913,-75.31668289819535 L-4.63645670320528,-75.3581674663873 L-4.3954284970145014,-75.39755758137983 L-4.152681964391057,-75.43483784420197 L-3.9083120034282226,-75.46999368069761 L-3.662414146874057,-75.5030113472231 L-3.4150845247843433,-75.53387793602 L-3.166419826942012,-75.56258138026129 L-2.916517265057701,-75.58911045876866 L-2.665474534766309,-75.61345480039925 L-2.4133897774343693,-75.63560488810012 L-2.1603615417931565,-75.65555206262877 L-1.9064887454125525,-75.67328852593839 L-1.6518706360307145,-75.68880734422633 L-1.3966067527546668,-75.7021024506448 L-1.1407968871469925,-75.71316864767262 L-0.8845410442138267,-75.72200160914704 L-0.627939403309409,-75.72859788195512 L-0.3710922789724769,-75.73295488738354 L-0.11410008170981067,-75.7350709221268 L0.14293672125773838,-75.73494515895304 L0.3999176452713919,-75.73257764702748 L0.6567422275174052,-75.72796931189319 L0.9133100663014881,-75.72112195510921 L1.1695208602993319,-75.71203825354635 L1.4252744477678982,-75.70072175834065 L1.6804708457021413,-75.68717689350508 L1.9350102889218543,-75.67140895420016 L2.188793269073349,-75.65342410466376 L2.4417205735307803,-75.63322937580136 L2.6936933241818,-75.61083266243746 L2.9446130160824437,-75.58624272022908 L3.19438155596618,-75.55946916224303 L3.4429013005919877,-75.53052245519771 L3.6900750949165038,-75.49941391537136 L3.9358063100753187,-75.46615570417812 L4.17999888115858,-75.43076082341372 L4.42255734476611,-75.39324311017256 L4.663386876327389,-75.35361723143843 L4.9023933271717866,-75.31189867835056 L5.139483261334562,-75.26810376014761 L5.374563992084248,-75.2222495977919 L5.607543618157124,-75.17435411727615 L5.838331059684638,-75.12443604261559 L6.066836093799695,-75.07251488852812 L6.292969389907931,-75.0186109528053 L6.516642544610163,-74.96274530837728 L6.73776811626236,-74.90493979507457 L6.956259659159632,-74.84521701109016 L7.172031757330882,-74.7836003041451 L7.3850000579308785,-74.720113762361 L7.5950813042167375,-74.65478220484319 L7.80219336809588,-74.58763117197809 L8.00625528223279,-74.51868691544848 L8.20718727170196,-74.44797638797095 L8.404910785174675,-74.37552723275897 L8.599348525627496,-74.30136777271636 L8.790424480560356,-74.22552699936476 L8.978063951712496,-74.14803456150986 L9.16219358426463,-74.06892075365072 L9.342741395515896,-73.98821650413645 L9.519636803024412,-73.9059533630754 L9.69281065220042,-73.82216349000097 L9.862195243341217,-73.73687964129948 L10.027724358097347,-73.65013515740439 L10.189333285359647,-73.56196394976251 L10.346958846557099,-73.47240048757673 L10.500539420355524,-73.38147978433085 L10.650014966747454,-73.2892373841016 " />
			<path d="M-5.038276311192101,-71.9448785918488 L-5.104436290119359,-71.9901562454878 L-5.162575536061811,-72.03752787271105 L-5.212355383283764,-72.08671753001904 L-5.253485860212507,-72.1374386837423 L-5.270730705170093,-72.16328154387945 L-5.285727378545808,-72.18939587912281 L-5.2984540331788645,-72.21574364609658 L-5.3088921288728415,-72.24228646136152 L-5.317026459405048,-72.26898565733191 L-5.32284517467896,-72.29580233860659 L-5.326339797987448,-72.32269743863175 L-5.327505238361637,-72.34963177661308 " />
			<path d="M-5.327505238361637,-72.34963177661308 L-5.325577968289912,-72.38426403738522 L-5.319800801037152,-72.41881286600776 L-5.310187654305286,-72.45319503132637 L-5.296761687006805,-72.48732770369331 L-5.279555243472908,-72.52112865451119 L-5.258609775533171,-72.55451645432885 L-5.23397574265447,-72.58741066901212 L-5.205712490379696,-72.61973205351663 L-5.173888107359146,-72.65140274279608 L-5.1385792613190056,-72.682346439386 L-5.099871014362072,-72.7124885972109 L-5.05785661804571,-72.74175660117251 L-5.012637288730669,-72.77007994208567 L-4.964321963742016,-72.7973903865413 L-4.913027038929572,-72.82362214128658 L-4.858876088260113,-72.84871201172672 L-4.801999566116867,-72.8725995541662 L-4.74253449302347,-72.89522722142299 L-4.680624125549531,-72.91654050146471 L-4.616417611193001,-72.93648804873293 L-4.481740017283233,-72.97209712933407 L-4.339798730145781,-73.00171152831435 L-4.191960721968778,-73.0250460428227 L-4.039649753587442,-73.04187594872843 L-3.884332662888933,-73.05203916483755 L-3.727505238361637,-73.05543781382313 L-3.5706778138343402,-73.05203916483755 L-3.4153607231358314,-73.04187594872843 L-3.263049754754496,-73.0250460428227 L-3.1152117465774927,-73.00171152831435 L-2.97327045944004,-72.97209712933407 L-2.8385928655302735,-72.93648804873293 L-2.7743863511737437,-72.91654050146471 L-2.7124759836998047,-72.89522722142299 L-2.653010910606408,-72.8725995541662 L-2.5961343884631605,-72.84871201172672 L-2.5419834377937014,-72.82362214128658 L-2.490688512981257,-72.7973903865413 L-2.4423731879926045,-72.77007994208567 L-2.397153858677564,-72.74175660117251 L-2.355139462361201,-72.7124885972109 L-2.3164312154042688,-72.682346439386 L-2.2811223693641276,-72.65140274279608 L-2.249297986343578,-72.61973205351663 L-2.2210347340688035,-72.58741066901212 L-2.1964007011901026,-72.55451645432885 L-2.1754552332503665,-72.52112865451119 L-2.1582487897164677,-72.48732770369332 L-2.1448228224179866,-72.45319503132637 L-2.1352096756861214,-72.41881286600776 L-2.1294325084333607,-72.38426403738522 L-2.1275052383616364,-72.34963177661308 " />
			<path d="M-2.1275052383616364,-72.34963177661308 L-2.128756107801382,-72.32172809757812 L-2.1325067602776753,-72.29386804836736 L-2.138751331319814,-72.26609519058599 L-2.1474800569989463,-72.23845294950782 L-2.158679289194823,-72.21098454617612 L-2.1723315169358157,-72.18373292982373 L-2.188415393778843,-72.15674071071828 L-2.206905771186384,-72.13005009353724 L-2.2277737378484046,-72.10370281137729 L-2.2509866648876953,-72.07774006050106 L-2.304298608594842,-72.02712986793604 L-2.3665083012392767,-71.97853592582628 L-2.4372268138945605,-71.93226203875486 L-2.51601202132205,-71.88859750654716 L-2.602371366094734,-71.84781531559669 L-2.6957649380181934,-71.81017043218073 L-2.795608849596439,-71.77589820843606 L-2.9012788864395427,-71.74521291096039 L-3.01211440979108,-71.71830638123852 L-3.1274224867771543,-71.69534683626803 L-3.2464822225550862,-71.67647781688315 L-3.368549267277613,-71.66181729035132 L-3.492860469695477,-71.6514569128535 L-3.6186386483045503,-71.64546145645859 L-3.7450974502087426,-71.64386840417478 L-3.871446267321554,-71.64668771560945 L-3.9968951791706644,-71.6539017647027 L-4.120659891403629,-71.6654654499237 L-4.2419666391196165,-71.68130647624116 L-4.360057024372045,-71.70132580710468 L-4.474192757598522,-71.7253982836117 L-4.58366027333513,-71.75337340698867 L-4.687775191358053,-71.78507627949477 L-4.785886595361945,-71.82030869786546 L-4.877381102425132,-71.8588503924599 L-4.961686697819772,-71.90046040436539 L-5.038276311192097,-71.9448785918488 " />
			<path d="M-7.0044329204377975,-76.72241171915563 L-6.91118488345613,-76.66605384116328 L-6.8129588870069755,-76.61136625044706 L-6.709908515961768,-76.55843445580196 L-6.602194898520376,-76.50734122068336 L-6.489986454273177,-76.45816643379924 L-6.373458630862409,-76.41098698419724 L-6.252793629654551,-76.36587664104198 L-6.1281801208526785,-76.32290593827055 L-5.999812948494213,-76.28214206430657 L-5.867892825795369,-76.24364875700529 L-5.732626021318611,-76.20748620399387 L-5.594224036453851,-76.17371094856284 L-5.452903274717676,-76.14237580125575 L-5.308884703387657,-76.11352975729531 L-5.162393508000836,-76.08721791997505 L-5.013658740256587,-76.0634814301365 L-4.86291295987441,-76.04235740184184 L-4.710391870966619,-76.02387886434288 L-4.556333953494503,-76.00807471043689 L-4.4009800903842065,-75.99496965129033 L-4.2445731908853706,-75.9845841778007 L-4.0873578107614295,-75.97693452855724 L-3.929579769905453,-75.97203266445051 L-3.7714857679794016,-75.96988624997056 L-3.613322998677797,-75.9704986412227 L-3.455338763218921,-75.9738688806801 L-3.2977800836678943,-75.97999169868078 L-3.140893316696237,-75.98885752166737 L-2.984923768381833,-76.00045248715608 L-2.830115310651578,-76.0147584654119 L-2.676709999966457,-76.0317530877961 L-2.524947698845261,-76.05140978174146 L-2.375065700818711,-76.07369781230078 L-2.2272983594004305,-76.0985823302037 L-2.081876721654887,-76.12602442634649 L-1.9390281669352465,-76.1559811926299 L-1.7989760513560233,-76.18840578904958 L-1.6619393585564026,-76.22324751693459 L-1.5281323573003194,-76.26045189821915 L-1.3977642664486427,-76.29996076062376 L-1.2710389278273277,-76.34171232861272 L-1.1481544875030285,-76.38564131998544 L-1.0293030859645218,-76.4316790479509 L-0.9146705576943792,-76.47975352852534 L-0.8044361406006155,-76.52978959308557 L-0.6987721957626691,-76.5817090059015 L-0.5978439379298917,-76.63543058646464 L-0.5018091771939455,-76.69087033642073 L-0.41081807223902844,-76.74794157090858 L-0.3250128955557354,-76.8065550540993 L-0.2445278109856739,-76.86661913872429 L-0.16948866394464934,-76.9280399093737 L-0.10001278465243324,-76.99072132934128 L-0.036208804676783224,-77.05456539078624 L0.021823512921443466,-77.11947226797683 L0.07399342957649457,-77.18534047337668 L0.12021937309534847,-77.2520670163293 L0.16042906520291522,-77.31954756409294 L0.19455963455539704,-77.38767660497389 L0.22255771504508903,-77.45634761330315 L0.2443795292429205,-77.52545321599858 L0.25999095684826656,-77.59488536045201 L0.2693675880389992,-77.6645354834789 L0.2724947616383635,-77.7342946810663 " />
			<path d="M0.2724947616383635,-77.7342946810663 L0.26989951101574094,-77.7978467328369 L0.26211712681077026,-77.86131631785653 L0.24915770764217804,-77.92462107638518 L0.23103806998029786,-77.98767886256586 L0.207781726325591,-78.05040785101913 L0.17941885469823227,-78.11272664302183 L0.14598625947834742,-78.17455437213209 L0.10752732364772166,-78.23581080912366 " />
			<path d="M-7.727505238361637,-77.7342946810663 L-7.724591637426163,-77.66695883611298 L-7.715855079154947,-77.5997210860501 L-7.7013082909701644,-77.53267938286338 L-7.680972464639648,-77.46593139293738 L-7.654877225404707,-77.39957435477504 L-7.6230605888220655,-77.33370493734061 L-7.585568905382777,-77.26841909923222 L-7.542456792988814,-77.20381194888935 L-7.493787057385676,-77.13997760603884 L-7.4396306006669555,-77.0770090645812 L-7.380066317984131,-77.01499805711711 L-7.315180982612073,-76.95403492131122 L-7.245069119537704,-76.89420846828831 L-7.169832867755943,-76.8356058532531 L-7.089581831473577,-76.77831244852261 L-7.0044329204378,-76.72241171915563 " />
			<path d="M-5.038276311192101,-77.32954149630203 L-5.104436290119359,-77.37481914994102 L-5.162575536061811,-77.42219077716427 L-5.212355383283764,-77.47138043447227 L-5.253485860212507,-77.52210158819553 L-5.270730705170093,-77.54794444833267 L-5.285727378545808,-77.57405878357604 L-5.2984540331788645,-77.6004065505498 L-5.3088921288728415,-77.62694936581474 L-5.317026459405048,-77.65364856178513 L-5.32284517467896,-77.68046524305981 L-5.326339797987448,-77.70736034308497 L-5.327505238361637,-77.7342946810663 " />
			<path d="M-5.327505238361637,-77.7342946810663 L-5.325577968289912,-77.76892694183844 L-5.319800801037152,-77.80347577046098 L-5.310187654305286,-77.8378579357796 L-5.296761687006805,-77.87199060814653 L-5.279555243472908,-77.90579155896441 L-5.258609775533171,-77.93917935878207 L-5.23397574265447,-77.97207357346534 L-5.205712490379696,-78.00439495796985 L-5.173888107359146,-78.0360656472493 L-5.1385792613190056,-78.06700934383922 L-5.099871014362072,-78.09715150166413 L-5.05785661804571,-78.12641950562573 L-5.012637288730669,-78.1547428465389 L-4.964321963742016,-78.18205329099452 L-4.913027038929572,-78.2082850457398 L-4.858876088260113,-78.23337491617994 L-4.801999566116867,-78.25726245861942 L-4.74253449302347,-78.27989012587621 L-4.680624125549531,-78.30120340591793 L-4.616417611193001,-78.32115095318615 L-4.481740017283233,-78.3567600337873 L-4.339798730145781,-78.38637443276757 L-4.191960721968778,-78.40970894727592 L-4.039649753587442,-78.42653885318165 L-3.884332662888933,-78.43670206929077 L-3.727505238361637,-78.44010071827635 L-3.5706778138343402,-78.43670206929077 L-3.4153607231358314,-78.42653885318165 L-3.263049754754496,-78.40970894727592 L-3.1152117465774927,-78.38637443276757 L-2.97327045944004,-78.3567600337873 L-2.8385928655302735,-78.32115095318615 L-2.7743863511737437,-78.30120340591793 L-2.7124759836998047,-78.27989012587621 L-2.653010910606408,-78.25726245861942 L-2.5961343884631605,-78.23337491617994 L-2.5419834377937014,-78.2082850457398 L-2.490688512981257,-78.18205329099452 L-2.4423731879926045,-78.1547428465389 L-2.397153858677564,-78.12641950562573 L-2.355139462361201,-78.09715150166413 L-2.3164312154042688,-78.06700934383922 L-2.2811223693641276,-78.0360656472493 L-2.249297986343578,-78.00439495796985 L-2.2210347340688035,-77.97207357346534 L-2.1964007011901026,-77.93917935878207 L-2.1754552332503665,-77.90579155896441 L-2.1582487897164677,-77.87199060814655 L-2.1448228224179866,-77.8378579357796 L-2.1352096756861214,-77.80347577046098 L-2.1294325084333607,-77.76892694183844 L-2.1275052383616364,-77.7342946810663 " />
			<path d="M-2.1275052383616364,-77.7342946810663 L-2.128756107801382,-77.70639100203134 L-2.1325067602776753,-77.67853095282058 L-2.138751331319814,-77.65075809503921 L-2.1474800569989463,-77.62311585396104 L-2.158679289194823,-77.59564745062934 L-2.1723315169358157,-77.56839583427696 L-2.188415393778843,-77.5414036151715 L-2.206905771186384,-77.51471299799046 L-2.2277737378484046,-77.48836571583051 L-2.2509866648876953,-77.46240296495428 L-2.304298608594842,-77.41179277238926 L-2.3665083012392767,-77.3631988302795 L-2.4372268138945605,-77.31692494320808 L-2.51601202132205,-77.27326041100038 L-2.602371366094734,-77.23247822004991 L-2.6957649380181934,-77.19483333663395 L-2.795608849596439,-77.16056111288928 L-2.9012788864395427,-77.12987581541361 L-3.01211440979108,-77.10296928569174 L-3.1274224867771543,-77.08000974072125 L-3.2464822225550862,-77.06114072133637 L-3.368549267277613,-77.04648019480454 L-3.492860469695477,-77.03611981730673 L-3.6186386483045503,-77.03012436091181 L-3.7450974502087426,-77.028531308628 L-3.871446267321554,-77.03135062006267 L-3.9968951791706644,-77.03856466915592 L-4.120659891403629,-77.05012835437692 L-4.2419666391196165,-77.06596938069438 L-4.360057024372045,-77.0859887115579 L-4.474192757598522,-77.11006118806492 L-4.58366027333513,-77.1380363114419 L-4.687775191358053,-77.169739183948 L-4.785886595361945,-77.20497160231868 L-4.877381102425132,-77.24351329691312 L-4.961686697819772,-77.28512330881861 L-5.038276311192097,-77.32954149630203 " />
			<path d="M-13.000000000000002,-70.00061775789187 L-13.0,-1.794887634817739 " />
			<path d="M-2.1275052383616337,-4.1439016535389435 L-2.1275052383616337,1.2407612509142771 " />
			<path d="M-5.327505238361635,-4.1439016535389435 L-5.327505238361635,1.2407612509142776 " />
			<path d="M0.27249476163836295,-77.7342946810663 L0.27249476163836306,-74.14451941143082 " />
			<path d="M-7.727505238361635,-77.25990806300503 L-7.727505238361635,-74.14451941143082 " />
			<path d="M-2.1275052383616364,-77.7342946810663 L-2.127505238361636,-72.34963177661308 " />
			<path d="M-5.3275052383616375,-77.7342946810663 L-5.3275052383616375,-72.34963177661308 " />

       </g>

       <!-- solid lines -->
       <g  stroke="rgb(40,40,40)" fill="none">
			<path d="M7.045394516463747,-2.175548368107946 L0.27249476163836484,-0.08414369594420679 " />
			<path d="M-6.532768417520279,2.4985971140594985 L-3.604620450283777,4.3438690007736716 " />
			<path d="M-3.604620450283777,4.343869000773672 L-6.881548132359939,5.355751962684344 " />
			<path d="M-9.666936662124675,5.138919899417771 L-6.881548132359937,5.3557519626843435 " />
			<path d="M-11.96078603957799,3.6933728109739543 L-9.666936662124677,5.138919899417772 " />
			<path d="M-11.960786039577991,3.6933728109739556 L-12.118389762664707,3.592008144339438 L-12.271579564858586,3.4893351487844857 L-12.42029964933498,3.385391221231393 L-12.564495847289221,3.280214221518179 L-12.704115637666671,3.1738424586087857 L-12.83910816629265,3.0663146766396845 L-12.969424264395222,2.9576700408079564 L-13.095016466514098,2.8479481231060326 L-13.215839027789126,2.7371888879082644 L-13.331847940622104,2.6254326774145524 L-13.44300095070581,2.512720196956383 L-13.549257572414417,2.3990925001706 L-13.650579103549717,2.284590974046287 L-13.746928639437748,2.169257323850255 L-13.838271086370696,2.0531335579366092 L-13.924573174389199,1.9362619724458865 L-14.005803469400378,1.8186851358994036 L-14.081932384627164,1.7004458736943941 L-14.152932191384807,1.581587252505556 L-14.218777029180565,1.4621525645987428 L-14.279442915132977,1.342185312062489 L-14.334907752707208,1.221729190963084 L-14.38515133976336,1.1008280754290196 L-14.430155375914742,0.9795260016705797 L-14.469903469193506,0.8578671519403701 L-14.504381142021128,0.735895838440681 L-14.533575836481626,0.613656487183515 L-14.557476918895581,0.4911936218091391 L-14.57607568369327,0.3685518473691011 L-14.589365356585521,0.2457758340795935 L-14.597341097031139,0.12291030105105742 L-14.6,3.0935239496280174e-14 " />
			<path d="M-14.6,2.3337623560835863e-15 L-14.597146175175643,-0.12733542552839924 L-14.58858581636232,-0.2546210711940073 L-14.574322270103108,-0.38180717659471436 L-14.554361112516144,-0.5088440202421771 L-14.528710147114724,-0.635681938999682 L-14.49737940175663,-0.7622713474971989 L-14.460381124723902,-0.8885627575160333 L-14.417729779934547,-1.0145067973354953 L-14.36944204128809,-1.1400542310340378 L-14.315536786147172,-1.2651559777372903 L-14.256035087957722,-1.3897631308054812 L-14.190960208010614,-1.5138269769527588 L-14.120337586348017,-1.637299015290912 L-14.044194831817991,-1.7601309762900612 L-13.96256171128124,-1.8822748406489014 L-13.875470137974174,-2.003682858067125 L-13.782954159032954,-2.124307565912679 L-13.685049942183237,-2.2441018077765653 L-13.58179576160098,-2.3630187519079295 L-13.473231982949713,-2.4810119095222207 L-13.359401047600194,-2.59803515297529 L-13.240347456038593,-2.7140427337962922 L-13.116117750469712,-2.8289893005723536 L-12.986760496622,-2.9428299166780296 L-12.852326264761519,-3.0555200778426 L-12.712867609922258,-3.1670157295483397 L-12.568439051360539,-3.277273284252968 L-12.419097051241533,-3.3862496384295415 L-12.264899992566239,-3.4939021894171267 L-12.105908156347514,-3.600188852075666 L-11.94218369804414,-3.7050680752385317 L-11.77379062326207,-3.80849885795632 L-11.600794762732406,-3.9104407655255655 L-11.42326374657587,-4.010853945296069 L-11.241266977863834,-4.1096991422506886 L-11.054875605486231,-4.206937714351501 L-10.864162496336972,-4.302531647646323 L-10.669202206827727,-4.396443571129689 L-10.470070953741235,-4.488636771352484 L-10.266846584435486,-4.579075206774511 L-10.059608546410491,-4.6677235218543895 L-9.848437856249465,-4.754547060871266 L-9.63341706794662,-4.839511881472953 L-9.414630240633922,-4.922584767945175 L-9.192162905719464,-5.003733244196744 L-8.966102033450229,-5.08292558645561 L-8.736535998912395,-5.160130835670779 L-8.50355454748243,-5.235318809615296 L-8.26724875974248,-5.308460114685526 L-8.027711015873809,-5.37952615739214 L-7.785034959542145,-5.448489155538311 L-7.539315461289107,-5.51532214908074 L-7.290648581444002,-5.579999010669284 L-7.039131532570491,-5.642494455861043 L-6.7848626414627935,-5.702784053004936 L-6.52794131070632,-5.7608442327928815 L-6.268467979817736,-5.81665229747387 L-6.006544085979631,-5.870186429727299 L-5.742272024385204,-5.921425701192134 L-5.475755108208394,-5.970350080648523 L-5.207097528215159,-6.016940441848713 L-4.936404312031669,-6.061178570994161 L-4.66378128308534,-6.103047173855945 L-4.389335019234771,-6.142529882535676 L-4.1131728111047074,-6.179611261864294 L-3.835402620142414,-6.214276815436205 L-3.5561330364117962,-6.246512991276428 L-3.2754732361417234,-6.276307187138547 L-2.9935329390452377,-6.30364775543136 L-2.710422365426289,-6.32852400777233 L-2.4262521930907734,-6.350926219166052 L-2.141133514078711,-6.3708456318060875 L-1.8551777912344924,-6.3882744584987 L-1.568496814632162,-6.40320588570714 L-1.281202657872774,-6.4156340762152935 L-0.993407634270911,-6.425554171409654 L-0.705224252947488,-6.432962293178725 L-0.4167651748460102,-6.437855545429108 L-0.12814316868947737,-6.440232015217688 L0.16052893310484698,-6.440090773499469 L0.44913827853556554,-6.437431875490767 L0.7375720401349343,-6.432256360647631 L1.0257174590770584,-6.424566252259475 L1.3134618892592522,-6.414364556658112 L1.6006928413393344,-6.401655262042466 L1.8872980267116382,-6.386443336919452 L2.1731654014045465,-6.368734728161612 L2.458183209882379,-6.348536358682269 L2.7422400287345714,-6.325856124729127 L3.0252248102349477,-6.300702892797347 L3.3070269257541316,-6.273086496163327 L3.5875362090081744,-6.243017731040528 L3.8666429991263893,-6.210508352358861 L4.144238183521615,-6.175571069169271 L4.42021324054613,-6.13821953967533 L4.6944602819165615,-6.098468365893763 L4.966872094891172,-6.056333087946011 L5.2373421841830705,-6.011830177983062 L5.505764813592933,-5.964977033745902 L5.772035047344972,-5.915791971764136 L6.036048791110003,-5.864294220195419 L6.297702832699542,-5.810503911308494 L6.556894882415057,-5.754442073612787 L6.813523613036582,-5.696130623637629 L7.067488699435064,-5.635592357364318 L7.318690857792956,-5.572850941314379 L7.56703188441773,-5.507930903297485 L7.812414694133128,-5.4408576228226915 L8.054743358233148,-5.371657321176693 L8.293923141983912,-5.300357051173009 L8.5298605416588,-5.226984686576094 L8.7624633210923,-5.151568911204513 L8.991640547738369,-5.07413920771743 L9.217302628219128,-4.994725846088805 L9.439361343350024,-4.913359871773821 L9.657729882627809,-4.830073093572117 L9.872322878167788,-4.74489807119262 L10.083056438077115,-4.657868102524819 L10.28984817925105,-4.569017210621464 L10.492617259579395,-4.478380130397754 L10.691284409550498,-4.385992295052259 L10.885771963240476,-4.29188982221484 L11.076003888675526,-4.196109499827004 L11.261905817555485,-4.098688771760219 L11.443405074326993,-3.999665723177797 L11.6204307045949,-3.8990790656460694 L11.792913502860825,-3.7969681220006883 L11.960786039577915,-3.693372810974004 " />
			<path d="M11.96078603957799,-3.6933728109739543 L14.254635417031302,-2.247825722530137 " />
			<path d="M14.254635417031302,-2.247825722530137 L13.763096264719879,-1.0191106973528914 " />
			<path d="M13.763096264719877,-1.0191106973528916 L10.486168582643717,-0.007227735442219219 " />
			<path d="M7.045394516463747,-2.1755483681079455 L10.486168582643717,-0.007227735442219441 " />
			<path d="M0.2724947616383657,-2.3490140187212045 L0.2712900364231827,-2.392317386851263 L0.26767658645905534,-2.435594670651576 L0.26165658835312655,-2.478819801504626 L0.253233668327153,-2.5219667422078773 L0.2424129000332056,-2.5650095026576194 L0.22920080149748934,-2.6079221555044296 L0.2136053311941306,-2.6506788517708406 L0.19563588325128745,-2.693253836421797 L0.17530328179248,-2.7356214638785263 L0.15261977441654162,-2.777756213466476 L0.12759902482012553,-2.819632704788015 L0.10025610456720102,-2.861225713010634 L0.07060748401051153,-2.902510184061442 L0.03867102237044806,-2.943461249718803 L-0.03198710831648777,-3.02426471098007 L-0.11154806586786137,-3.10344143417871 L-0.19982018096821497,-3.180800675653477 L-0.2965907983605476,-3.256156070215787 L-0.40162678915145467,-3.329326080119786 L-0.5146751124390554,-3.4001344324026803 L-0.6354634249106881,-3.4684105435417427 L-0.7637007369418005,-3.5339899304049567 L-0.8990781136154462,-3.5967146065052917 L-1.0412694189735623,-3.6564334626039914 L-1.1899321017070537,-3.713002630745959 L-1.3447080203919017,-3.7662858308502662 L-1.5052243062832287,-3.8161546990208066 L-1.671094261588753,-3.8624890967861583 L-1.841918291057649,-3.905177400523691 L-2.017284864640511,-3.9441167703706466 L-2.1967715089012794,-3.9792133979743793 L-2.379945824792758,-4.0103827324848895 L-2.566366529343788,-4.03754968424523 L-2.7555845187485812,-4.060648805689066 L-2.9471439502971233,-4.0796244490095965 L-3.1405833405401884,-4.094430900219991 L-3.3354366770433925,-4.105032489282392 L-3.5312345410519623,-4.111403676040159 L-3.7275052383616374,-4.113529111746342 L-3.923775935671312,-4.111403676040159 L-4.119573799679882,-4.105032489282392 L-4.3144271361830855,-4.094430900219991 L-4.507866526426151,-4.0796244490095965 L-4.699425957974693,-4.060648805689066 L-4.888643947379486,-4.03754968424523 L-5.075064651930516,-4.010382732484889 L-5.2582389678219945,-3.979213397974378 L-5.437725612082763,-3.9441167703706457 L-5.613092185665625,-3.905177400523689 L-5.7839162151345205,-3.8624890967861565 L-5.949786170440045,-3.8161546990208044 L-6.110302456331372,-3.766285830850264 L-6.26507837501622,-3.7130026307459567 L-6.413741057749711,-3.656433462603989 L-6.555932363107827,-3.59671460650529 L-6.691309739781472,-3.533989930404954 L-6.819547051812583,-3.468410543541741 L-6.9403353642842145,-3.4001344324026794 L-7.0533836875718166,-3.3293260801197837 L-7.158419678362726,-3.2561560702157823 L-7.255190295755057,-3.1808006756534732 L-7.34346241085541,-3.1034414341787073 L-7.423023368406783,-3.0242647109800673 L-7.493681499093719,-2.9434612497188004 L-7.525617960733782,-2.9025101840614393 L-7.5552665812904705,-2.861225713010632 L-7.582609501543395,-2.8196327047880136 L-7.607630251139811,-2.777756213466475 L-7.630313758515749,-2.735621463878525 L-7.650646359974557,-2.6932538364217953 L-7.6686158079174,-2.6506788517708393 L-7.684211278220758,-2.6079221555044283 L-7.697423376756474,-2.565009502657618 L-7.708244145050422,-2.521966742207876 L-7.716667065076395,-2.478819801504624 L-7.722687063182324,-2.4355946706515748 L-7.726300513146452,-2.3923173868512597 L-7.727505238361634,-2.349014018721218 " />
			<path d="M-3.604620450283777,4.343869000773672 L-3.604620450283777,3.0044434798134443 " />
			<path d="M11.96078603957799,-3.6933728109739556 L11.960786039577988,-75.48887820368357 " />
			<path d="M-14.600000000000003,-71.79550539270961 L-14.597146175175647,-71.92284081823802 L-14.588585816362324,-72.05012646390362 L-14.574322270103112,-72.17731256930433 L-14.554361112516148,-72.3043494129518 L-14.528710147114728,-72.4311873317093 L-14.497379401756634,-72.55777674020682 L-14.460381124723906,-72.68406815022564 L-14.41772977993455,-72.81001219004511 L-14.369442041288094,-72.93555962374366 L-14.315536786147176,-73.06066137044691 L-14.256035087957725,-73.18526852351509 L-14.190960208010617,-73.30933236966237 L-14.12033758634802,-73.43280440800052 L-14.044194831817995,-73.55563636899967 L-13.962561711281243,-73.67778023335852 L-13.875470137974178,-73.79918825077674 L-13.782954159032958,-73.91981295862229 L-13.685049942183241,-74.03960720048617 L-13.581795761600983,-74.15852414461754 L-13.473231982949716,-74.27651730223184 L-13.359401047600198,-74.3935405456849 L-13.240347456038597,-74.5095481265059 L-13.116117750469716,-74.62449469328197 L-12.986760496622004,-74.73833530938765 L-12.852326264761523,-74.85102547055222 L-12.712867609922261,-74.96252112225795 L-12.568439051360542,-75.07277867696259 L-12.419097051241536,-75.18175503113916 L-12.264899992566242,-75.28940758212674 L-12.105908156347517,-75.39569424478528 L-11.942183698044143,-75.50057346794814 L-11.773790623262073,-75.60400425066594 L-11.60079476273241,-75.70594615823518 L-11.423263746575874,-75.80635933800568 L-11.241266977863837,-75.9052045349603 L-11.054875605486234,-76.00244310706111 L-10.864162496336975,-76.09803704035593 L-10.66920220682773,-76.19194896383931 L-10.470070953741239,-76.2841421640621 L-10.26684658443549,-76.37458059948412 L-10.059608546410495,-76.463228914564 L-9.848437856249468,-76.55005245358088 L-9.633417067946624,-76.63501727418257 L-9.414630240633926,-76.7180901606548 L-9.192162905719467,-76.79923863690635 L-8.966102033450232,-76.87843097916523 L-8.736535998912398,-76.9556362283804 L-8.503554547482434,-77.03082420232491 L-8.267248759742484,-77.10396550739515 L-8.027711015873813,-77.17503155010175 L-7.785034959542147,-77.24399454824793 L-7.5393154612891085,-77.31082754179036 L-7.290648581444004,-77.3755044033789 L-7.039131532570493,-77.43799984857066 L-6.784862641462795,-77.49828944571455 L-6.527941310706322,-77.55634962550249 L-6.268467979817737,-77.61215769018348 L-6.006544085979633,-77.66569182243691 L-5.742272024385206,-77.71693109390175 L-5.4757551082083955,-77.76585547335814 L-5.207097528215161,-77.81244583455833 L-4.936404312031671,-77.85668396370377 L-4.663781283085342,-77.89855256656556 L-4.389335019234773,-77.9380352752453 L-4.113172811104709,-77.97511665457391 L-3.8354026201424163,-78.00978220814582 L-3.5561330364117985,-78.04201838398605 L-3.2754732361417256,-78.07181257984816 L-2.99353293904524,-78.09915314814097 L-2.7104223654262913,-78.12402940048194 L-2.4262521930907757,-78.14643161187567 L-2.1411335140787133,-78.1663510245157 L-1.8551777912344947,-78.18377985120831 L-1.5684968146321643,-78.19871127841675 L-1.2812026578727762,-78.21113946892491 L-0.9934076342709133,-78.22105956411927 L-0.7052242529474902,-78.22846768588835 L-0.41676517484601244,-78.23336093813873 L-0.1281431686894796,-78.2357374079273 L0.16052893310484476,-78.23559616620908 L0.4491382785355633,-78.23293726820039 L0.737572040134932,-78.22776175335724 L1.0257174590770561,-78.2200716449691 L1.31346188925925,-78.20986994936773 L1.6006928413393322,-78.19716065475208 L1.887298026711636,-78.18194872962907 L2.1731654014045443,-78.16424012087123 L2.458183209882377,-78.14404175139188 L2.742240028734569,-78.12136151743874 L3.0252248102349455,-78.09620828550696 L3.3070269257541294,-78.06859188887294 L3.587536209008172,-78.03852312375014 L3.866642999126387,-78.00601374506847 L4.1442381835216135,-77.97107646187888 L4.420213240546128,-77.93372493238495 L4.69446028191656,-77.89397375860338 L4.96687209489117,-77.85183848065563 L5.237342184183069,-77.80733557069267 L5.505764813592931,-77.76048242645552 L5.77203504734497,-77.71129736447375 L6.036048791110002,-77.65979961290503 L6.297702832699541,-77.60600930401812 L6.5568948824150555,-77.54994746632241 L6.813523613036581,-77.49163601634724 L7.067488699435062,-77.43109775007393 L7.318690857792954,-77.368356334024 L7.5670318844177284,-77.3034362960071 L7.8124146941331265,-77.2363630155323 L8.054743358233145,-77.16716271388631 L8.293923141983909,-77.09586244388262 L8.529860541658797,-77.0224900792857 L8.762463321092296,-76.94707430391412 L8.991640547738365,-76.86964460042705 L9.217302628219125,-76.79023123879843 L9.43936134335002,-76.70886526448344 L9.657729882627805,-76.62557848628174 L9.872322878167784,-76.54040346390224 L10.083056438077111,-76.45337349523443 L10.289848179251047,-76.36452260333108 L10.492617259579392,-76.27388552310737 L10.691284409550494,-76.18149768776188 L10.885771963240472,-76.08739521492446 L11.076003888675523,-75.99161489253662 L11.261905817555482,-75.89419416446984 L11.44340507432699,-75.79517111588741 L11.620430704594897,-75.69458445835568 L11.792913502860822,-75.5924735147103 L11.960786039577911,-75.48887820368361 " />
			<path d="M11.960786039577988,-75.48887820368357 L14.2546354170313,-74.04333111523975 " />
			<path d="M14.254635417031302,-2.247825722530137 L14.2546354170313,-74.04333111523975 " />
			<path d="M-7.004432920437795,2.2526442128249498 L-6.911184883456128,2.309002090817309 L-6.812958887006973,2.363689681533515 L-6.709908515961766,2.416621476178616 L-6.602194898520374,2.4677147112972224 L-6.489986454273175,2.51688949818135 L-6.373458630862407,2.564068947783349 L-6.252793629654549,2.609179290938606 L-6.128180120852676,2.6521499937100335 L-5.9998129484942115,2.692913867674006 L-5.8678928257953675,2.7314071749752884 L-5.732626021318608,2.7675697279867095 L-5.594224036453849,2.801344983417737 L-5.4529032747176736,2.8326801307248233 L-5.308884703387656,2.861526174685273 L-5.162393508000834,2.8878380120055267 L-5.013658740256584,2.9115745018440746 L-4.862912959874408,2.932698530138735 L-4.710391870966617,2.951177067637709 L-4.556333953494501,2.966981221543687 L-4.400980090384205,2.980086280690241 L-4.244573190885368,2.9904717541798806 L-4.087357810761428,2.9981214034233488 L-3.929579769905451,3.0030232675300663 L-3.7714857679793994,3.0051696820100218 L-3.613322998677795,3.0045572907578686 L-3.455338763218919,3.0011870513004837 L-3.297780083667892,2.9950642332997948 L-3.1408933166962347,2.9861984103132055 L-2.984923768381831,2.9746034448245045 L-2.8301153106515757,2.960297466568674 L-2.676709999966455,2.9433028441844704 L-2.524947698845259,2.9236461502391196 L-2.3750657008187086,2.9013581196798004 L-2.227298359400428,2.8764736017768855 L-2.0818767216548846,2.849031505634085 L-1.9390281669352443,2.8190747393506825 L-1.7989760513560211,2.786650142931001 L-1.6619393585564004,2.751808415045987 L-1.5281323573003172,2.7146040337614386 L-1.3977642664486405,2.6750951713568245 L-1.2710389278273255,2.6333436033678694 L-1.1481544875030263,2.589414611995147 L-1.0293030859645196,2.5433768840296924 L-0.914670557694377,2.4953024034552387 L-0.8044361406006133,2.4452663388950144 L-0.6987721957626669,2.3933469260790723 L-0.5978439379298894,2.33962534551594 L-0.5018091771939432,2.284185595559844 L-0.4108180722390262,2.227114361071993 L-0.3250128955557332,2.1685008778812738 L-0.24452781098567167,2.1084367932562866 L-0.16948866394464712,2.0470160226068876 L-0.10001278465243102,1.984334602639289 L-0.036208804676781,1.920490541194337 L0.021823512921445687,1.855583664003746 L0.0739934295764968,1.789715458603899 L0.12021937309535069,1.7229889156512792 L0.16042906520291744,1.6555083678876352 L0.19455963455539926,1.5873793270066858 L0.22255771504509125,1.5187083186774262 L0.24437952924292272,1.4496027159820017 L0.2599909568482688,1.380170571528571 L0.2693675880390014,1.3105204485016753 L0.2724947616383657,1.240761250914284 " />
			<path d="M0.2724947616383657,1.240761250914276 L0.2712900364231827,1.1974578827842177 L0.26767658645905534,1.1541805989839045 L0.26165658835312655,1.1109554681308549 L0.253233668327153,1.0678085274276032 L0.2424129000332056,1.0247657669778611 L0.22920080149748934,0.9818531141310509 L0.2136053311941306,0.93909641786464 L0.19563588325128745,0.8965214332136837 L0.17530328179248,0.8541538057569544 L0.15261977441654162,0.8120190561690042 L0.12759902482012553,0.7701425648474653 L0.10025610456720102,0.7285495566248463 L0.07060748401051153,0.6872650855740384 L0.03867102237044806,0.6463140199166775 L-0.03198710831648777,0.5655105586554104 L-0.11154806586786137,0.48633383545677056 L-0.19982018096821497,0.408974593982004 L-0.2965907983605476,0.333619199419694 L-0.40162678915145467,0.2604491895156946 L-0.5146751124390554,0.1896408372328 L-0.6354634249106881,0.12136472609373783 L-0.7637007369418005,0.05578533923052387 L-0.8990781136154462,-0.006939336869811408 L-1.0412694189735623,-0.06665819296851061 L-1.1899321017070537,-0.12322736111047816 L-1.3447080203919017,-0.1765105612147857 L-1.5052243062832287,-0.22637942938532585 L-1.671094261588753,-0.2727138271506777 L-1.841918291057649,-0.31540213088821 L-2.017284864640511,-0.354341500735166 L-2.1967715089012794,-0.38943812833889857 L-2.379945824792758,-0.42060746284940875 L-2.566366529343788,-0.44777441460974954 L-2.7555845187485812,-0.47087353605358606 L-2.9471439502971233,-0.489849179374116 L-3.1405833405401884,-0.5046556305845105 L-3.3354366770433925,-0.5152572196469116 L-3.5312345410519623,-0.5216284064046786 L-3.7275052383616374,-0.5237538421108616 L-3.923775935671312,-0.5216284064046783 L-4.119573799679882,-0.5152572196469116 L-4.3144271361830855,-0.5046556305845102 L-4.507866526426151,-0.48984917937411554 L-4.699425957974693,-0.4708735360535854 L-4.888643947379486,-0.44777441460974865 L-5.075064651930516,-0.42060746284940786 L-5.2582389678219945,-0.38943812833889746 L-5.437725612082763,-0.3543415007351649 L-5.613092185665625,-0.31540213088820845 L-5.7839162151345205,-0.27271382715067594 L-5.949786170440045,-0.22637942938532385 L-6.110302456331372,-0.1765105612147837 L-6.26507837501622,-0.12322736111047616 L-6.413741057749711,-0.06665819296850861 L-6.555932363107827,-0.006939336869809187 L-6.691309739781472,0.05578533923052631 L-6.819547051812583,0.12136472609373938 L-6.9403353642842145,0.1896408372328009 L-7.0533836875718166,0.26044918951569707 L-7.158419678362726,0.333619199419698 L-7.255190295755057,0.4089745939820074 L-7.34346241085541,0.4863338354567732 L-7.423023368406783,0.5655105586554133 L-7.493681499093719,0.6463140199166802 L-7.525617960733782,0.6872650855740412 L-7.5552665812904705,0.7285495566248484 L-7.582609501543395,0.7701425648474667 L-7.607630251139811,0.8120190561690055 L-7.630313758515749,0.8541538057569558 L-7.650646359974557,0.896521433213685 L-7.6686158079174,0.9390964178646415 L-7.684211278220758,0.9818531141310523 L-7.697423376756474,1.0247657669778625 L-7.708244145050422,1.0678085274276046 L-7.716667065076395,1.1109554681308562 L-7.722687063182324,1.1541805989839058 L-7.726300513146452,1.1974578827842206 L-7.727505238361634,1.2407612509142627 " />
			<path d="M-7.727505238361634,1.2407612509142787 L-7.72459163742616,1.308097095867591 L-7.715855079154944,1.37533484593048 L-7.701308290970163,1.4423765491172043 L-7.680972464639646,1.5091245390432035 L-7.654877225404705,1.5754815772055333 L-7.623060588822063,1.6413509946399607 L-7.585568905382775,1.706636832748358 L-7.542456792988812,1.7712439830912323 L-7.493787057385674,1.835078325941745 L-7.439630600666954,1.8980468673993736 L-7.380066317984128,1.9600578748634696 L-7.3151809826120715,2.021021010669355 L-7.2450691195377015,2.0808474636922734 L-7.169832867755941,2.139450078727477 L-7.089581831473574,2.196743483457972 L-7.004432920437798,2.252644212824948 " />
			<path d="M-5.0382763111920985,1.645514435678546 L-5.104436290119357,1.6002367820395569 L-5.162575536061809,1.5528651548163084 L-5.212355383283762,1.5036754975083155 L-5.253485860212505,1.4529543437850592 L-5.270730705170091,1.4271114836479093 L-5.285727378545806,1.4009971484045507 L-5.298454033178863,1.3746493814307794 L-5.308892128872839,1.3481065661658476 L-5.317026459405046,1.321407370195448 L-5.3228451746789585,1.2945906889207581 L-5.326339797987445,1.2676955888956025 L-5.327505238361635,1.240761250914281 " />
			<path d="M-5.327505238361635,1.2407612509142778 L-5.3255779682899105,1.2061289901421293 L-5.319800801037149,1.1715801615196086 L-5.310187654305284,1.1371979962009873 L-5.2967616870068035,1.1030653238340404 L-5.279555243472905,1.0692643730161686 L-5.258609775533169,1.0358765731985056 L-5.233975742654468,1.002982358515238 L-5.205712490379693,0.9706609740107311 L-5.1738881073591445,0.9389902847312751 L-5.138579261319003,0.9080465881413685 L-5.09987101436207,0.8779044303164445 L-5.057856618045707,0.8486364263548447 L-5.012637288730667,0.8203130854416867 L-4.964321963742014,0.7930026409860622 L-4.91302703892957,0.7667708862407768 L-4.858876088260111,0.7416810158006424 L-4.801999566116864,0.7177934733611625 L-4.742534493023468,0.6951658061043755 L-4.680624125549529,0.6738525260626524 L-4.616417611192999,0.6539049787944367 L-4.481740017283231,0.6182958981932828 L-4.3397987301457785,0.5886814992130073 L-4.191960721968775,0.5653469847046668 L-4.03964975358744,0.5485170787989199 L-3.884332662888931,0.5383538626898015 L-3.7275052383616347,0.5349552137042215 L-3.570677813834338,0.5383538626898015 L-3.415360723135829,0.5485170787989199 L-3.2630497547544937,0.5653469847046667 L-3.11521174657749,0.5886814992130072 L-2.9732704594400383,0.6182958981932827 L-2.8385928655302712,0.6539049787944362 L-2.7743863511737414,0.6738525260626518 L-2.712475983699802,0.6951658061043747 L-2.653010910606406,0.7177934733611616 L-2.5961343884631587,0.7416810158006419 L-2.541983437793699,0.7667708862407765 L-2.4906885129812544,0.7930026409860618 L-2.442373187992602,0.8203130854416865 L-2.397153858677562,0.8486364263548444 L-2.355139462361199,0.877904430316444 L-2.3164312154042666,0.9080465881413677 L-2.281122369364125,0.9389902847312741 L-2.249297986343576,0.9706609740107301 L-2.2210347340688017,1.0029823585152369 L-2.1964007011901003,1.0358765731985042 L-2.1754552332503643,1.069264373016167 L-2.158248789716466,1.1030653238340393 L-2.144822822417985,1.1371979962009868 L-2.135209675686119,1.1715801615196078 L-2.129432508433358,1.2061289901421284 L-2.127505238361634,1.2407612509142705 " />
			<path d="M-2.127505238361634,1.240761250914277 L-2.12875610780138,1.2686649299492367 L-2.132506760277673,1.2965249791599949 L-2.1387513313198117,1.3242978369413672 L-2.147480056998944,1.3519400780195368 L-2.1586792891948208,1.3794084813512406 L-2.172331516935814,1.4066600977036205 L-2.1884153937788406,1.4336523168090782 L-2.206905771186382,1.4603429339901262 L-2.227773737848403,1.4866902161500648 L-2.250986664887693,1.5126529670263011 L-2.3042986085948396,1.5632631595913213 L-2.366508301239274,1.6118571017010759 L-2.437226813894558,1.658130988772504 L-2.516012021322047,1.7017955209801952 L-2.602371366094731,1.7425777119306618 L-2.6957649380181916,1.780222595346625 L-2.795608849596437,1.814494819091296 L-2.9012788864395405,1.845180116566961 L-3.012114409791078,1.8720866462888393 L-3.127422486777152,1.8950461912593204 L-3.246482222555084,1.913915210644214 L-3.368549267277611,1.9285757371760357 L-3.492860469695475,1.9389361146738482 L-3.618638648304548,1.9449315710687596 L-3.7450974502087404,1.946524623352575 L-3.8714462673215517,1.9437053119179057 L-3.996895179170662,1.9364912628246627 L-4.120659891403627,1.9249275776036496 L-4.241966639119615,1.909086551286196 L-4.3600570243720425,1.8890672204226755 L-4.47419275759852,1.864994743915661 L-4.583660273335127,1.8370196205386815 L-4.6877751913580505,1.8053167480325798 L-4.785886595361943,1.7700843296619058 L-4.8773811024251295,1.7315426350674552 L-4.961686697819769,1.689932623161972 L-5.038276311192095,1.6455144356785487 " />
			<path d="M0.10752732364771678,-78.23581080912368 L0.05304558683102778,-78.31071268110814 L-0.00894973927626852,-78.38446896126953 L-0.07833544315292817,-78.45693306398519 L-0.15497362540130455,-78.5279609717478 L-0.2387119728130802,-78.59741152139048 L-0.32938406108147555,-78.66514668463897 L-0.42680968555831367,-78.73103184243362 L-0.5307952193985797,-78.79493605247555 L-0.6411339983806914,-78.85673230946568 L-0.7576067316376744,-78.91629779751922 L-0.8799819374829414,-78.97351413425383 L-1.0080164034644983,-79.02826760606672 L-1.1414556697332636,-79.08044939413266 L-1.2800345347648205,-79.12995579067412 L-1.423477582429518,-79.17668840507342 L-1.5714997293634343,-79.22055435941743 L-1.7238067915522786,-79.2614664730862 L-1.880096069002248,-79.29934343601848 L-2.040056947335816,-79.33410997031 L-2.203371515116812,-79.36569697982324 L-2.369715195677913,-79.39404168751133 L-2.5387573921948423,-79.41908776018317 L-2.7101621447252153,-79.44078542046182 L-2.8835887979062216,-79.45909154571372 L-3.0586926779841437,-79.47396975375199 L-3.2351257778301488,-79.48539047514355 L-3.412537448580931,-79.49333101197642 L-3.5905750965296424,-79.49777558297023 L-3.768884883882055,-79.49871535484048 L-3.947112431985263,-79.49614845985407 L-4.124903525631317,-79.49007999954134 L-4.301904817036009,-79.48052203455705 L-4.477764528093705,-79.46749356071075 L-4.6521331495125695,-79.4510204712138 L-4.824664135440668,-79.43113550521836 L-4.995014592202423,-79.40787818275062 L-5.16284595977662,-79.38129472616734 L-5.327824684661573,-79.35143796829209 L-5.489622882790176,-79.31836724741353 L-5.647918991177317,-79.28214828935462 L-5.802398407004597,-79.242853076847 L-5.952754112872162,-79.20055970647007 L-6.098687286975033,-79.15535223343946 L-6.239907896991258,-79.10732050455289 L-6.376135276501552,-79.05655997962572 L-6.507098682794837,-79.00317154177104 L-6.632537834951089,-78.94726129690132 L-6.7522034311320756,-78.88894036285005 L-6.8658576440519035,-78.82832464853256 L-6.9732745936426905,-78.7655346235849 L-7.074240795975932,-78.70069507893852 L-7.168555587547385,-78.63393487880685 L-7.256031524082215,-78.56538670457624 L-7.336494753067829,-78.49518679111078 L-7.409785359274004,-78.42347465599464 L-7.4757576825735885,-78.35039282225034 L-7.534280607432172,-78.27608653508388 L-7.5852378234913385,-78.20070347321969 L-7.628528056727658,-78.12439345539913 L-7.664065270727955,-78.04730814262588 L-7.691778837680862,-77.96960073674998 L-7.711613678744834,-77.89142567598945 L-7.723530373513617,-77.8129383279948 L-7.727505238361637,-77.73429468106632 " />
			<path d="M-14.600000000000003,-71.79550539270961 L-14.600000000000001,8.881784197001252e-16 " />
			<path d="M0.2724947616383653,-2.3490140187212036 L0.2724947616383654,1.240761250914277 " />
			<path d="M-7.727505238361633,-2.349014018721203 L-7.727505238361633,1.2407612509142774 " />
			<path d="M-7.727505238361635,-77.7342946810663 L-7.727505238361635,-77.25990806300503 " />

       </g>
    </g>
    
</svg>
