<?xml version="1.0" encoding="utf-8" standalone="no"?>
<!DOCTYPE svg PUBLIC "-//W3C//DTD SVG 1.1//EN"
  "http://www.w3.org/Graphics/SVG/1.1/DTD/svg11.dtd">
<svg xmlns:xlink="http://www.w3.org/1999/xlink" width="504pt" height="324pt" viewBox="0 0 504 324" xmlns="http://www.w3.org/2000/svg" version="1.1">
 <metadata>
  <rdf:RDF xmlns:dc="http://purl.org/dc/elements/1.1/" xmlns:cc="http://creativecommons.org/ns#" xmlns:rdf="http://www.w3.org/1999/02/22-rdf-syntax-ns#">
   <cc:Work>
    <dc:type rdf:resource="http://purl.org/dc/dcmitype/StillImage"/>
    <dc:date>2026-04-24T01:10:17.925479</dc:date>
    <dc:format>image/svg+xml</dc:format>
    <dc:creator>
     <cc:Agent>
      <dc:title>Matplotlib v3.10.9, https://matplotlib.org/</dc:title>
     </cc:Agent>
    </dc:creator>
   </cc:Work>
  </rdf:RDF>
 </metadata>
 <defs>
  <style type="text/css">*{stroke-linejoin: round; stroke-linecap: butt}</style>
 </defs>
 <g id="figure_1">
  <g id="patch_1">
   <path d="M 0 324 
L 504 324 
L 504 0 
L 0 0 
z
" style="fill: #ffffff"/>
  </g>
  <g id="axes_1">
   <g id="patch_2">
    <path d="M 62.12 279.16 
L 493.2 279.16 
L 493.2 26.88 
L 62.12 26.88 
z
" style="fill: #ffffff"/>
   </g>
   <g id="matplotlib.axis_1">
    <g id="xtick_1">
     <g id="line2d_1">
      <path d="M 92.911429 279.16 
L 92.911429 26.88 
" clip-path="url(#p4c4d19ce36)" style="fill: none; stroke: #b0b0b0; stroke-opacity: 0.3; stroke-width: 0.8; stroke-linecap: square"/>
     </g>
     <g id="line2d_2">
      <defs>
       <path id="m21e65230f1" d="M 0 0 
L 0 3.5 
" style="stroke: #000000; stroke-width: 0.8"/>
      </defs>
      <g>
       <use xlink:href="#m21e65230f1" x="92.911429" y="279.16" style="stroke: #000000; stroke-width: 0.8"/>
      </g>
     </g>
     <g id="text_1">
      <!-- −6 -->
      <g transform="translate(85.540335 293.758438) scale(0.1 -0.1)">
       <defs>
        <path id="DejaVuSans-2212" d="M 678 2272 
L 4684 2272 
L 4684 1741 
L 678 1741 
L 678 2272 
z
" transform="scale(0.015625)"/>
        <path id="DejaVuSans-36" d="M 2113 2584 
Q 1688 2584 1439 2293 
Q 1191 2003 1191 1497 
Q 1191 994 1439 701 
Q 1688 409 2113 409 
Q 2538 409 2786 701 
Q 3034 994 3034 1497 
Q 3034 2003 2786 2293 
Q 2538 2584 2113 2584 
z
M 3366 4563 
L 3366 3988 
Q 3128 4100 2886 4159 
Q 2644 4219 2406 4219 
Q 1781 4219 1451 3797 
Q 1122 3375 1075 2522 
Q 1259 2794 1537 2939 
Q 1816 3084 2150 3084 
Q 2853 3084 3261 2657 
Q 3669 2231 3669 1497 
Q 3669 778 3244 343 
Q 2819 -91 2113 -91 
Q 1303 -91 875 529 
Q 447 1150 447 2328 
Q 447 3434 972 4092 
Q 1497 4750 2381 4750 
Q 2619 4750 2861 4703 
Q 3103 4656 3366 4563 
z
" transform="scale(0.015625)"/>
       </defs>
       <use xlink:href="#DejaVuSans-2212"/>
       <use xlink:href="#DejaVuSans-36" transform="translate(83.789062 0)"/>
      </g>
     </g>
    </g>
    <g id="xtick_2">
     <g id="line2d_3">
      <path d="M 154.494286 279.16 
L 154.494286 26.88 
" clip-path="url(#p4c4d19ce36)" style="fill: none; stroke: #b0b0b0; stroke-opacity: 0.3; stroke-width: 0.8; stroke-linecap: square"/>
     </g>
     <g id="line2d_4">
      <g>
       <use xlink:href="#m21e65230f1" x="154.494286" y="279.16" style="stroke: #000000; stroke-width: 0.8"/>
      </g>
     </g>
     <g id="text_2">
      <!-- −4 -->
      <g transform="translate(147.123192 293.758438) scale(0.1 -0.1)">
       <defs>
        <path id="DejaVuSans-34" d="M 2419 4116 
L 825 1625 
L 2419 1625 
L 2419 4116 
z
M 2253 4666 
L 3047 4666 
L 3047 1625 
L 3713 1625 
L 3713 1100 
L 3047 1100 
L 3047 0 
L 2419 0 
L 2419 1100 
L 313 1100 
L 313 1709 
L 2253 4666 
z
" transform="scale(0.015625)"/>
       </defs>
       <use xlink:href="#DejaVuSans-2212"/>
       <use xlink:href="#DejaVuSans-34" transform="translate(83.789062 0)"/>
      </g>
     </g>
    </g>
    <g id="xtick_3">
     <g id="line2d_5">
      <path d="M 216.077143 279.16 
L 216.077143 26.88 
" clip-path="url(#p4c4d19ce36)" style="fill: none; stroke: #b0b0b0; stroke-opacity: 0.3; stroke-width: 0.8; stroke-linecap: square"/>
     </g>
     <g id="line2d_6">
      <g>
       <use xlink:href="#m21e65230f1" x="216.077143" y="279.16" style="stroke: #000000; stroke-width: 0.8"/>
      </g>
     </g>
     <g id="text_3">
      <!-- −2 -->
      <g transform="translate(208.706049 293.758438) scale(0.1 -0.1)">
       <defs>
        <path id="DejaVuSans-32" d="M 1228 531 
L 3431 531 
L 3431 0 
L 469 0 
L 469 531 
Q 828 903 1448 1529 
Q 2069 2156 2228 2338 
Q 2531 2678 2651 2914 
Q 2772 3150 2772 3378 
Q 2772 3750 2511 3984 
Q 2250 4219 1831 4219 
Q 1534 4219 1204 4116 
Q 875 4013 500 3803 
L 500 4441 
Q 881 4594 1212 4672 
Q 1544 4750 1819 4750 
Q 2544 4750 2975 4387 
Q 3406 4025 3406 3419 
Q 3406 3131 3298 2873 
Q 3191 2616 2906 2266 
Q 2828 2175 2409 1742 
Q 1991 1309 1228 531 
z
" transform="scale(0.015625)"/>
       </defs>
       <use xlink:href="#DejaVuSans-2212"/>
       <use xlink:href="#DejaVuSans-32" transform="translate(83.789062 0)"/>
      </g>
     </g>
    </g>
    <g id="xtick_4">
     <g id="line2d_7">
      <path d="M 277.66 279.16 
L 277.66 26.88 
" clip-path="url(#p4c4d19ce36)" style="fill: none; stroke: #b0b0b0; stroke-opacity: 0.3; stroke-width: 0.8; stroke-linecap: square"/>
     </g>
     <g id="line2d_8">
      <g>
       <use xlink:href="#m21e65230f1" x="277.66" y="279.16" style="stroke: #000000; stroke-width: 0.8"/>
      </g>
     </g>
     <g id="text_4">
      <!-- 0 -->
      <g transform="translate(274.47875 293.758438) scale(0.1 -0.1)">
       <defs>
        <path id="DejaVuSans-30" d="M 2034 4250 
Q 1547 4250 1301 3770 
Q 1056 3291 1056 2328 
Q 1056 1369 1301 889 
Q 1547 409 2034 409 
Q 2525 409 2770 889 
Q 3016 1369 3016 2328 
Q 3016 3291 2770 3770 
Q 2525 4250 2034 4250 
z
M 2034 4750 
Q 2819 4750 3233 4129 
Q 3647 3509 3647 2328 
Q 3647 1150 3233 529 
Q 2819 -91 2034 -91 
Q 1250 -91 836 529 
Q 422 1150 422 2328 
Q 422 3509 836 4129 
Q 1250 4750 2034 4750 
z
" transform="scale(0.015625)"/>
       </defs>
       <use xlink:href="#DejaVuSans-30"/>
      </g>
     </g>
    </g>
    <g id="xtick_5">
     <g id="line2d_9">
      <path d="M 339.242857 279.16 
L 339.242857 26.88 
" clip-path="url(#p4c4d19ce36)" style="fill: none; stroke: #b0b0b0; stroke-opacity: 0.3; stroke-width: 0.8; stroke-linecap: square"/>
     </g>
     <g id="line2d_10">
      <g>
       <use xlink:href="#m21e65230f1" x="339.242857" y="279.16" style="stroke: #000000; stroke-width: 0.8"/>
      </g>
     </g>
     <g id="text_5">
      <!-- 2 -->
      <g transform="translate(336.061607 293.758438) scale(0.1 -0.1)">
       <use xlink:href="#DejaVuSans-32"/>
      </g>
     </g>
    </g>
    <g id="xtick_6">
     <g id="line2d_11">
      <path d="M 400.825714 279.16 
L 400.825714 26.88 
" clip-path="url(#p4c4d19ce36)" style="fill: none; stroke: #b0b0b0; stroke-opacity: 0.3; stroke-width: 0.8; stroke-linecap: square"/>
     </g>
     <g id="line2d_12">
      <g>
       <use xlink:href="#m21e65230f1" x="400.825714" y="279.16" style="stroke: #000000; stroke-width: 0.8"/>
      </g>
     </g>
     <g id="text_6">
      <!-- 4 -->
      <g transform="translate(397.644464 293.758438) scale(0.1 -0.1)">
       <use xlink:href="#DejaVuSans-34"/>
      </g>
     </g>
    </g>
    <g id="xtick_7">
     <g id="line2d_13">
      <path d="M 462.408571 279.16 
L 462.408571 26.88 
" clip-path="url(#p4c4d19ce36)" style="fill: none; stroke: #b0b0b0; stroke-opacity: 0.3; stroke-width: 0.8; stroke-linecap: square"/>
     </g>
     <g id="line2d_14">
      <g>
       <use xlink:href="#m21e65230f1" x="462.408571" y="279.16" style="stroke: #000000; stroke-width: 0.8"/>
      </g>
     </g>
     <g id="text_7">
      <!-- 6 -->
      <g transform="translate(459.227321 293.758438) scale(0.1 -0.1)">
       <use xlink:href="#DejaVuSans-36"/>
      </g>
     </g>
    </g>
    <g id="text_8">
     <!-- apex displacement  $y$  [mm] -->
     <g transform="translate(207.11 307.438125) scale(0.1 -0.1)">
      <defs>
       <path id="DejaVuSans-61" d="M 2194 1759 
Q 1497 1759 1228 1600 
Q 959 1441 959 1056 
Q 959 750 1161 570 
Q 1363 391 1709 391 
Q 2188 391 2477 730 
Q 2766 1069 2766 1631 
L 2766 1759 
L 2194 1759 
z
M 3341 1997 
L 3341 0 
L 2766 0 
L 2766 531 
Q 2569 213 2275 61 
Q 1981 -91 1556 -91 
Q 1019 -91 701 211 
Q 384 513 384 1019 
Q 384 1609 779 1909 
Q 1175 2209 1959 2209 
L 2766 2209 
L 2766 2266 
Q 2766 2663 2505 2880 
Q 2244 3097 1772 3097 
Q 1472 3097 1187 3025 
Q 903 2953 641 2809 
L 641 3341 
Q 956 3463 1253 3523 
Q 1550 3584 1831 3584 
Q 2591 3584 2966 3190 
Q 3341 2797 3341 1997 
z
" transform="scale(0.015625)"/>
       <path id="DejaVuSans-70" d="M 1159 525 
L 1159 -1331 
L 581 -1331 
L 581 3500 
L 1159 3500 
L 1159 2969 
Q 1341 3281 1617 3432 
Q 1894 3584 2278 3584 
Q 2916 3584 3314 3078 
Q 3713 2572 3713 1747 
Q 3713 922 3314 415 
Q 2916 -91 2278 -91 
Q 1894 -91 1617 61 
Q 1341 213 1159 525 
z
M 3116 1747 
Q 3116 2381 2855 2742 
Q 2594 3103 2138 3103 
Q 1681 3103 1420 2742 
Q 1159 2381 1159 1747 
Q 1159 1113 1420 752 
Q 1681 391 2138 391 
Q 2594 391 2855 752 
Q 3116 1113 3116 1747 
z
" transform="scale(0.015625)"/>
       <path id="DejaVuSans-65" d="M 3597 1894 
L 3597 1613 
L 953 1613 
Q 991 1019 1311 708 
Q 1631 397 2203 397 
Q 2534 397 2845 478 
Q 3156 559 3463 722 
L 3463 178 
Q 3153 47 2828 -22 
Q 2503 -91 2169 -91 
Q 1331 -91 842 396 
Q 353 884 353 1716 
Q 353 2575 817 3079 
Q 1281 3584 2069 3584 
Q 2775 3584 3186 3129 
Q 3597 2675 3597 1894 
z
M 3022 2063 
Q 3016 2534 2758 2815 
Q 2500 3097 2075 3097 
Q 1594 3097 1305 2825 
Q 1016 2553 972 2059 
L 3022 2063 
z
" transform="scale(0.015625)"/>
       <path id="DejaVuSans-78" d="M 3513 3500 
L 2247 1797 
L 3578 0 
L 2900 0 
L 1881 1375 
L 863 0 
L 184 0 
L 1544 1831 
L 300 3500 
L 978 3500 
L 1906 2253 
L 2834 3500 
L 3513 3500 
z
" transform="scale(0.015625)"/>
       <path id="DejaVuSans-20" transform="scale(0.015625)"/>
       <path id="DejaVuSans-64" d="M 2906 2969 
L 2906 4863 
L 3481 4863 
L 3481 0 
L 2906 0 
L 2906 525 
Q 2725 213 2448 61 
Q 2172 -91 1784 -91 
Q 1150 -91 751 415 
Q 353 922 353 1747 
Q 353 2572 751 3078 
Q 1150 3584 1784 3584 
Q 2172 3584 2448 3432 
Q 2725 3281 2906 2969 
z
M 947 1747 
Q 947 1113 1208 752 
Q 1469 391 1925 391 
Q 2381 391 2643 752 
Q 2906 1113 2906 1747 
Q 2906 2381 2643 2742 
Q 2381 3103 1925 3103 
Q 1469 3103 1208 2742 
Q 947 2381 947 1747 
z
" transform="scale(0.015625)"/>
       <path id="DejaVuSans-69" d="M 603 3500 
L 1178 3500 
L 1178 0 
L 603 0 
L 603 3500 
z
M 603 4863 
L 1178 4863 
L 1178 4134 
L 603 4134 
L 603 4863 
z
" transform="scale(0.015625)"/>
       <path id="DejaVuSans-73" d="M 2834 3397 
L 2834 2853 
Q 2591 2978 2328 3040 
Q 2066 3103 1784 3103 
Q 1356 3103 1142 2972 
Q 928 2841 928 2578 
Q 928 2378 1081 2264 
Q 1234 2150 1697 2047 
L 1894 2003 
Q 2506 1872 2764 1633 
Q 3022 1394 3022 966 
Q 3022 478 2636 193 
Q 2250 -91 1575 -91 
Q 1294 -91 989 -36 
Q 684 19 347 128 
L 347 722 
Q 666 556 975 473 
Q 1284 391 1588 391 
Q 1994 391 2212 530 
Q 2431 669 2431 922 
Q 2431 1156 2273 1281 
Q 2116 1406 1581 1522 
L 1381 1569 
Q 847 1681 609 1914 
Q 372 2147 372 2553 
Q 372 3047 722 3315 
Q 1072 3584 1716 3584 
Q 2034 3584 2315 3537 
Q 2597 3491 2834 3397 
z
" transform="scale(0.015625)"/>
       <path id="DejaVuSans-6c" d="M 603 4863 
L 1178 4863 
L 1178 0 
L 603 0 
L 603 4863 
z
" transform="scale(0.015625)"/>
       <path id="DejaVuSans-63" d="M 3122 3366 
L 3122 2828 
Q 2878 2963 2633 3030 
Q 2388 3097 2138 3097 
Q 1578 3097 1268 2742 
Q 959 2388 959 1747 
Q 959 1106 1268 751 
Q 1578 397 2138 397 
Q 2388 397 2633 464 
Q 2878 531 3122 666 
L 3122 134 
Q 2881 22 2623 -34 
Q 2366 -91 2075 -91 
Q 1284 -91 818 406 
Q 353 903 353 1747 
Q 353 2603 823 3093 
Q 1294 3584 2113 3584 
Q 2378 3584 2631 3529 
Q 2884 3475 3122 3366 
z
" transform="scale(0.015625)"/>
       <path id="DejaVuSans-6d" d="M 3328 2828 
Q 3544 3216 3844 3400 
Q 4144 3584 4550 3584 
Q 5097 3584 5394 3201 
Q 5691 2819 5691 2113 
L 5691 0 
L 5113 0 
L 5113 2094 
Q 5113 2597 4934 2840 
Q 4756 3084 4391 3084 
Q 3944 3084 3684 2787 
Q 3425 2491 3425 1978 
L 3425 0 
L 2847 0 
L 2847 2094 
Q 2847 2600 2669 2842 
Q 2491 3084 2119 3084 
Q 1678 3084 1418 2786 
Q 1159 2488 1159 1978 
L 1159 0 
L 581 0 
L 581 3500 
L 1159 3500 
L 1159 2956 
Q 1356 3278 1631 3431 
Q 1906 3584 2284 3584 
Q 2666 3584 2933 3390 
Q 3200 3197 3328 2828 
z
" transform="scale(0.015625)"/>
       <path id="DejaVuSans-6e" d="M 3513 2113 
L 3513 0 
L 2938 0 
L 2938 2094 
Q 2938 2591 2744 2837 
Q 2550 3084 2163 3084 
Q 1697 3084 1428 2787 
Q 1159 2491 1159 1978 
L 1159 0 
L 581 0 
L 581 3500 
L 1159 3500 
L 1159 2956 
Q 1366 3272 1645 3428 
Q 1925 3584 2291 3584 
Q 2894 3584 3203 3211 
Q 3513 2838 3513 2113 
z
" transform="scale(0.015625)"/>
       <path id="DejaVuSans-74" d="M 1172 4494 
L 1172 3500 
L 2356 3500 
L 2356 3053 
L 1172 3053 
L 1172 1153 
Q 1172 725 1289 603 
Q 1406 481 1766 481 
L 2356 481 
L 2356 0 
L 1766 0 
Q 1100 0 847 248 
Q 594 497 594 1153 
L 594 3053 
L 172 3053 
L 172 3500 
L 594 3500 
L 594 4494 
L 1172 4494 
z
" transform="scale(0.015625)"/>
       <path id="DejaVuSans-Oblique-79" d="M 1588 -325 
Q 1188 -997 936 -1164 
Q 684 -1331 294 -1331 
L -159 -1331 
L -63 -850 
L 269 -850 
Q 509 -850 678 -719 
Q 847 -588 1056 -206 
L 1234 128 
L 459 3500 
L 1069 3500 
L 1650 819 
L 3256 3500 
L 3859 3500 
L 1588 -325 
z
" transform="scale(0.015625)"/>
       <path id="DejaVuSans-5b" d="M 550 4863 
L 1875 4863 
L 1875 4416 
L 1125 4416 
L 1125 -397 
L 1875 -397 
L 1875 -844 
L 550 -844 
L 550 4863 
z
" transform="scale(0.015625)"/>
       <path id="DejaVuSans-5d" d="M 1947 4863 
L 1947 -844 
L 622 -844 
L 622 -397 
L 1369 -397 
L 1369 4416 
L 622 4416 
L 622 4863 
L 1947 4863 
z
" transform="scale(0.015625)"/>
      </defs>
      <use xlink:href="#DejaVuSans-61" transform="translate(0 0.015625)"/>
      <use xlink:href="#DejaVuSans-70" transform="translate(61.279297 0.015625)"/>
      <use xlink:href="#DejaVuSans-65" transform="translate(124.755859 0.015625)"/>
      <use xlink:href="#DejaVuSans-78" transform="translate(186.279297 0.015625)"/>
      <use xlink:href="#DejaVuSans-20" transform="translate(245.458984 0.015625)"/>
      <use xlink:href="#DejaVuSans-64" transform="translate(277.246094 0.015625)"/>
      <use xlink:href="#DejaVuSans-69" transform="translate(340.722656 0.015625)"/>
      <use xlink:href="#DejaVuSans-73" transform="translate(368.505859 0.015625)"/>
      <use xlink:href="#DejaVuSans-70" transform="translate(420.605469 0.015625)"/>
      <use xlink:href="#DejaVuSans-6c" transform="translate(484.082031 0.015625)"/>
      <use xlink:href="#DejaVuSans-61" transform="translate(511.865234 0.015625)"/>
      <use xlink:href="#DejaVuSans-63" transform="translate(573.144531 0.015625)"/>
      <use xlink:href="#DejaVuSans-65" transform="translate(628.125 0.015625)"/>
      <use xlink:href="#DejaVuSans-6d" transform="translate(689.648438 0.015625)"/>
      <use xlink:href="#DejaVuSans-65" transform="translate(787.060547 0.015625)"/>
      <use xlink:href="#DejaVuSans-6e" transform="translate(848.583984 0.015625)"/>
      <use xlink:href="#DejaVuSans-74" transform="translate(911.962891 0.015625)"/>
      <use xlink:href="#DejaVuSans-20" transform="translate(951.171875 0.015625)"/>
      <use xlink:href="#DejaVuSans-20" transform="translate(982.958984 0.015625)"/>
      <use xlink:href="#DejaVuSans-Oblique-79" transform="translate(1014.746094 0.015625)"/>
      <use xlink:href="#DejaVuSans-20" transform="translate(1073.925781 0.015625)"/>
      <use xlink:href="#DejaVuSans-20" transform="translate(1105.712891 0.015625)"/>
      <use xlink:href="#DejaVuSans-5b" transform="translate(1137.5 0.015625)"/>
      <use xlink:href="#DejaVuSans-6d" transform="translate(1176.513672 0.015625)"/>
      <use xlink:href="#DejaVuSans-6d" transform="translate(1273.925781 0.015625)"/>
      <use xlink:href="#DejaVuSans-5d" transform="translate(1371.337891 0.015625)"/>
     </g>
    </g>
   </g>
   <g id="matplotlib.axis_2">
    <g id="ytick_1">
     <g id="line2d_15">
      <path d="M 62.12 267.692727 
L 493.2 267.692727 
" clip-path="url(#p4c4d19ce36)" style="fill: none; stroke: #b0b0b0; stroke-opacity: 0.3; stroke-width: 0.8; stroke-linecap: square"/>
     </g>
     <g id="line2d_16">
      <defs>
       <path id="mfda373118d" d="M 0 0 
L -3.5 0 
" style="stroke: #000000; stroke-width: 0.8"/>
      </defs>
      <g>
       <use xlink:href="#mfda373118d" x="62.12" y="267.692727" style="stroke: #000000; stroke-width: 0.8"/>
      </g>
     </g>
     <g id="text_9">
      <!-- −200 -->
      <g transform="translate(27.652813 271.491946) scale(0.1 -0.1)">
       <use xlink:href="#DejaVuSans-2212"/>
       <use xlink:href="#DejaVuSans-32" transform="translate(83.789062 0)"/>
       <use xlink:href="#DejaVuSans-30" transform="translate(147.412109 0)"/>
       <use xlink:href="#DejaVuSans-30" transform="translate(211.035156 0)"/>
      </g>
     </g>
    </g>
    <g id="ytick_2">
     <g id="line2d_17">
      <path d="M 62.12 239.024545 
L 493.2 239.024545 
" clip-path="url(#p4c4d19ce36)" style="fill: none; stroke: #b0b0b0; stroke-opacity: 0.3; stroke-width: 0.8; stroke-linecap: square"/>
     </g>
     <g id="line2d_18">
      <g>
       <use xlink:href="#mfda373118d" x="62.12" y="239.024545" style="stroke: #000000; stroke-width: 0.8"/>
      </g>
     </g>
     <g id="text_10">
      <!-- −150 -->
      <g transform="translate(27.652813 242.823764) scale(0.1 -0.1)">
       <defs>
        <path id="DejaVuSans-31" d="M 794 531 
L 1825 531 
L 1825 4091 
L 703 3866 
L 703 4441 
L 1819 4666 
L 2450 4666 
L 2450 531 
L 3481 531 
L 3481 0 
L 794 0 
L 794 531 
z
" transform="scale(0.015625)"/>
        <path id="DejaVuSans-35" d="M 691 4666 
L 3169 4666 
L 3169 4134 
L 1269 4134 
L 1269 2991 
Q 1406 3038 1543 3061 
Q 1681 3084 1819 3084 
Q 2600 3084 3056 2656 
Q 3513 2228 3513 1497 
Q 3513 744 3044 326 
Q 2575 -91 1722 -91 
Q 1428 -91 1123 -41 
Q 819 9 494 109 
L 494 744 
Q 775 591 1075 516 
Q 1375 441 1709 441 
Q 2250 441 2565 725 
Q 2881 1009 2881 1497 
Q 2881 1984 2565 2268 
Q 2250 2553 1709 2553 
Q 1456 2553 1204 2497 
Q 953 2441 691 2322 
L 691 4666 
z
" transform="scale(0.015625)"/>
       </defs>
       <use xlink:href="#DejaVuSans-2212"/>
       <use xlink:href="#DejaVuSans-31" transform="translate(83.789062 0)"/>
       <use xlink:href="#DejaVuSans-35" transform="translate(147.412109 0)"/>
       <use xlink:href="#DejaVuSans-30" transform="translate(211.035156 0)"/>
      </g>
     </g>
    </g>
    <g id="ytick_3">
     <g id="line2d_19">
      <path d="M 62.12 210.356364 
L 493.2 210.356364 
" clip-path="url(#p4c4d19ce36)" style="fill: none; stroke: #b0b0b0; stroke-opacity: 0.3; stroke-width: 0.8; stroke-linecap: square"/>
     </g>
     <g id="line2d_20">
      <g>
       <use xlink:href="#mfda373118d" x="62.12" y="210.356364" style="stroke: #000000; stroke-width: 0.8"/>
      </g>
     </g>
     <g id="text_11">
      <!-- −100 -->
      <g transform="translate(27.652813 214.155582) scale(0.1 -0.1)">
       <use xlink:href="#DejaVuSans-2212"/>
       <use xlink:href="#DejaVuSans-31" transform="translate(83.789062 0)"/>
       <use xlink:href="#DejaVuSans-30" transform="translate(147.412109 0)"/>
       <use xlink:href="#DejaVuSans-30" transform="translate(211.035156 0)"/>
      </g>
     </g>
    </g>
    <g id="ytick_4">
     <g id="line2d_21">
      <path d="M 62.12 181.688182 
L 493.2 181.688182 
" clip-path="url(#p4c4d19ce36)" style="fill: none; stroke: #b0b0b0; stroke-opacity: 0.3; stroke-width: 0.8; stroke-linecap: square"/>
     </g>
     <g id="line2d_22">
      <g>
       <use xlink:href="#mfda373118d" x="62.12" y="181.688182" style="stroke: #000000; stroke-width: 0.8"/>
      </g>
     </g>
     <g id="text_12">
      <!-- −50 -->
      <g transform="translate(34.015313 185.487401) scale(0.1 -0.1)">
       <use xlink:href="#DejaVuSans-2212"/>
       <use xlink:href="#DejaVuSans-35" transform="translate(83.789062 0)"/>
       <use xlink:href="#DejaVuSans-30" transform="translate(147.412109 0)"/>
      </g>
     </g>
    </g>
    <g id="ytick_5">
     <g id="line2d_23">
      <path d="M 62.12 153.02 
L 493.2 153.02 
" clip-path="url(#p4c4d19ce36)" style="fill: none; stroke: #b0b0b0; stroke-opacity: 0.3; stroke-width: 0.8; stroke-linecap: square"/>
     </g>
     <g id="line2d_24">
      <g>
       <use xlink:href="#mfda373118d" x="62.12" y="153.02" style="stroke: #000000; stroke-width: 0.8"/>
      </g>
     </g>
     <g id="text_13">
      <!-- 0 -->
      <g transform="translate(48.7575 156.819219) scale(0.1 -0.1)">
       <use xlink:href="#DejaVuSans-30"/>
      </g>
     </g>
    </g>
    <g id="ytick_6">
     <g id="line2d_25">
      <path d="M 62.12 124.351818 
L 493.2 124.351818 
" clip-path="url(#p4c4d19ce36)" style="fill: none; stroke: #b0b0b0; stroke-opacity: 0.3; stroke-width: 0.8; stroke-linecap: square"/>
     </g>
     <g id="line2d_26">
      <g>
       <use xlink:href="#mfda373118d" x="62.12" y="124.351818" style="stroke: #000000; stroke-width: 0.8"/>
      </g>
     </g>
     <g id="text_14">
      <!-- 50 -->
      <g transform="translate(42.395 128.151037) scale(0.1 -0.1)">
       <use xlink:href="#DejaVuSans-35"/>
       <use xlink:href="#DejaVuSans-30" transform="translate(63.623047 0)"/>
      </g>
     </g>
    </g>
    <g id="ytick_7">
     <g id="line2d_27">
      <path d="M 62.12 95.683636 
L 493.2 95.683636 
" clip-path="url(#p4c4d19ce36)" style="fill: none; stroke: #b0b0b0; stroke-opacity: 0.3; stroke-width: 0.8; stroke-linecap: square"/>
     </g>
     <g id="line2d_28">
      <g>
       <use xlink:href="#mfda373118d" x="62.12" y="95.683636" style="stroke: #000000; stroke-width: 0.8"/>
      </g>
     </g>
     <g id="text_15">
      <!-- 100 -->
      <g transform="translate(36.0325 99.482855) scale(0.1 -0.1)">
       <use xlink:href="#DejaVuSans-31"/>
       <use xlink:href="#DejaVuSans-30" transform="translate(63.623047 0)"/>
       <use xlink:href="#DejaVuSans-30" transform="translate(127.246094 0)"/>
      </g>
     </g>
    </g>
    <g id="ytick_8">
     <g id="line2d_29">
      <path d="M 62.12 67.015455 
L 493.2 67.015455 
" clip-path="url(#p4c4d19ce36)" style="fill: none; stroke: #b0b0b0; stroke-opacity: 0.3; stroke-width: 0.8; stroke-linecap: square"/>
     </g>
     <g id="line2d_30">
      <g>
       <use xlink:href="#mfda373118d" x="62.12" y="67.015455" style="stroke: #000000; stroke-width: 0.8"/>
      </g>
     </g>
     <g id="text_16">
      <!-- 150 -->
      <g transform="translate(36.0325 70.814673) scale(0.1 -0.1)">
       <use xlink:href="#DejaVuSans-31"/>
       <use xlink:href="#DejaVuSans-35" transform="translate(63.623047 0)"/>
       <use xlink:href="#DejaVuSans-30" transform="translate(127.246094 0)"/>
      </g>
     </g>
    </g>
    <g id="ytick_9">
     <g id="line2d_31">
      <path d="M 62.12 38.347273 
L 493.2 38.347273 
" clip-path="url(#p4c4d19ce36)" style="fill: none; stroke: #b0b0b0; stroke-opacity: 0.3; stroke-width: 0.8; stroke-linecap: square"/>
     </g>
     <g id="line2d_32">
      <g>
       <use xlink:href="#mfda373118d" x="62.12" y="38.347273" style="stroke: #000000; stroke-width: 0.8"/>
      </g>
     </g>
     <g id="text_17">
      <!-- 200 -->
      <g transform="translate(36.0325 42.146491) scale(0.1 -0.1)">
       <use xlink:href="#DejaVuSans-32"/>
       <use xlink:href="#DejaVuSans-30" transform="translate(63.623047 0)"/>
       <use xlink:href="#DejaVuSans-30" transform="translate(127.246094 0)"/>
      </g>
     </g>
    </g>
    <g id="text_18">
     <!-- restoring force  $F$  [N] -->
     <g transform="translate(21.552813 206.77) rotate(-90) scale(0.1 -0.1)">
      <defs>
       <path id="DejaVuSans-72" d="M 2631 2963 
Q 2534 3019 2420 3045 
Q 2306 3072 2169 3072 
Q 1681 3072 1420 2755 
Q 1159 2438 1159 1844 
L 1159 0 
L 581 0 
L 581 3500 
L 1159 3500 
L 1159 2956 
Q 1341 3275 1631 3429 
Q 1922 3584 2338 3584 
Q 2397 3584 2469 3576 
Q 2541 3569 2628 3553 
L 2631 2963 
z
" transform="scale(0.015625)"/>
       <path id="DejaVuSans-6f" d="M 1959 3097 
Q 1497 3097 1228 2736 
Q 959 2375 959 1747 
Q 959 1119 1226 758 
Q 1494 397 1959 397 
Q 2419 397 2687 759 
Q 2956 1122 2956 1747 
Q 2956 2369 2687 2733 
Q 2419 3097 1959 3097 
z
M 1959 3584 
Q 2709 3584 3137 3096 
Q 3566 2609 3566 1747 
Q 3566 888 3137 398 
Q 2709 -91 1959 -91 
Q 1206 -91 779 398 
Q 353 888 353 1747 
Q 353 2609 779 3096 
Q 1206 3584 1959 3584 
z
" transform="scale(0.015625)"/>
       <path id="DejaVuSans-67" d="M 2906 1791 
Q 2906 2416 2648 2759 
Q 2391 3103 1925 3103 
Q 1463 3103 1205 2759 
Q 947 2416 947 1791 
Q 947 1169 1205 825 
Q 1463 481 1925 481 
Q 2391 481 2648 825 
Q 2906 1169 2906 1791 
z
M 3481 434 
Q 3481 -459 3084 -895 
Q 2688 -1331 1869 -1331 
Q 1566 -1331 1297 -1286 
Q 1028 -1241 775 -1147 
L 775 -588 
Q 1028 -725 1275 -790 
Q 1522 -856 1778 -856 
Q 2344 -856 2625 -561 
Q 2906 -266 2906 331 
L 2906 616 
Q 2728 306 2450 153 
Q 2172 0 1784 0 
Q 1141 0 747 490 
Q 353 981 353 1791 
Q 353 2603 747 3093 
Q 1141 3584 1784 3584 
Q 2172 3584 2450 3431 
Q 2728 3278 2906 2969 
L 2906 3500 
L 3481 3500 
L 3481 434 
z
" transform="scale(0.015625)"/>
       <path id="DejaVuSans-66" d="M 2375 4863 
L 2375 4384 
L 1825 4384 
Q 1516 4384 1395 4259 
Q 1275 4134 1275 3809 
L 1275 3500 
L 2222 3500 
L 2222 3053 
L 1275 3053 
L 1275 0 
L 697 0 
L 697 3053 
L 147 3053 
L 147 3500 
L 697 3500 
L 697 3744 
Q 697 4328 969 4595 
Q 1241 4863 1831 4863 
L 2375 4863 
z
" transform="scale(0.015625)"/>
       <path id="DejaVuSans-Oblique-46" d="M 1081 4666 
L 3756 4666 
L 3653 4134 
L 1606 4134 
L 1338 2759 
L 3188 2759 
L 3084 2228 
L 1234 2228 
L 800 0 
L 172 0 
L 1081 4666 
z
" transform="scale(0.015625)"/>
       <path id="DejaVuSans-4e" d="M 628 4666 
L 1478 4666 
L 3547 763 
L 3547 4666 
L 4159 4666 
L 4159 0 
L 3309 0 
L 1241 3903 
L 1241 0 
L 628 0 
L 628 4666 
z
" transform="scale(0.015625)"/>
      </defs>
      <use xlink:href="#DejaVuSans-72" transform="translate(0 0.015625)"/>
      <use xlink:href="#DejaVuSans-65" transform="translate(41.113281 0.015625)"/>
      <use xlink:href="#DejaVuSans-73" transform="translate(102.636719 0.015625)"/>
      <use xlink:href="#DejaVuSans-74" transform="translate(154.736328 0.015625)"/>
      <use xlink:href="#DejaVuSans-6f" transform="translate(193.945312 0.015625)"/>
      <use xlink:href="#DejaVuSans-72" transform="translate(255.126953 0.015625)"/>
      <use xlink:href="#DejaVuSans-69" transform="translate(296.240234 0.015625)"/>
      <use xlink:href="#DejaVuSans-6e" transform="translate(324.023438 0.015625)"/>
      <use xlink:href="#DejaVuSans-67" transform="translate(387.402344 0.015625)"/>
      <use xlink:href="#DejaVuSans-20" transform="translate(450.878906 0.015625)"/>
      <use xlink:href="#DejaVuSans-66" transform="translate(482.666016 0.015625)"/>
      <use xlink:href="#DejaVuSans-6f" transform="translate(517.871094 0.015625)"/>
      <use xlink:href="#DejaVuSans-72" transform="translate(579.052734 0.015625)"/>
      <use xlink:href="#DejaVuSans-63" transform="translate(620.166016 0.015625)"/>
      <use xlink:href="#DejaVuSans-65" transform="translate(675.146484 0.015625)"/>
      <use xlink:href="#DejaVuSans-20" transform="translate(736.669922 0.015625)"/>
      <use xlink:href="#DejaVuSans-20" transform="translate(768.457031 0.015625)"/>
      <use xlink:href="#DejaVuSans-Oblique-46" transform="translate(800.244141 0.015625)"/>
      <use xlink:href="#DejaVuSans-20" transform="translate(857.763672 0.015625)"/>
      <use xlink:href="#DejaVuSans-20" transform="translate(889.550781 0.015625)"/>
      <use xlink:href="#DejaVuSans-5b" transform="translate(921.337891 0.015625)"/>
      <use xlink:href="#DejaVuSans-4e" transform="translate(960.351562 0.015625)"/>
      <use xlink:href="#DejaVuSans-5d" transform="translate(1035.15625 0.015625)"/>
     </g>
    </g>
   </g>
   <g id="line2d_33">
    <path d="M 62.12 3.749765 
L 67.5085 14.675322 
L 72.897 25.109547 
L 78.2855 35.058661 
L 83.674 44.529269 
L 88.84696 53.177361 
L 94.01992 61.397428 
L 99.19288 69.196323 
L 104.36584 76.581233 
L 109.32326 83.276921 
L 114.28068 89.606207 
L 119.2381 95.576267 
L 124.19552 101.194558 
L 129.15294 106.468807 
L 134.11036 111.407015 
L 138.85224 115.823698 
L 143.59412 119.947955 
L 148.336 123.78747 
L 153.07788 127.350143 
L 157.81976 130.644087 
L 162.56164 133.677624 
L 167.51906 136.579873 
L 172.47648 139.216799 
L 177.4339 141.598606 
L 182.39132 143.735727 
L 187.34874 145.63881 
L 192.5217 147.386861 
L 197.69466 148.904479 
L 203.08316 150.254099 
L 208.6872 151.423026 
L 214.50678 152.401476 
L 220.5419 153.183033 
L 226.79256 153.765134 
L 233.4743 154.158881 
L 240.58712 154.351819 
L 248.34656 154.338798 
L 257.39924 154.09184 
L 268.82286 153.539378 
L 301.15386 151.835756 
L 309.991 151.671349 
L 317.75044 151.743812 
L 324.86326 152.031546 
L 331.32946 152.508719 
L 337.58012 153.191655 
L 343.3997 154.044967 
L 349.00374 155.083366 
L 354.60778 156.351578 
L 359.99628 157.803303 
L 365.16924 159.424961 
L 370.3422 161.282843 
L 375.29962 163.296515 
L 380.25704 165.549345 
L 385.21446 168.051877 
L 389.95634 170.688781 
L 394.69822 173.572436 
L 399.4401 176.711484 
L 404.18198 180.114368 
L 408.92386 183.789326 
L 413.66574 187.744384 
L 418.40762 191.987353 
L 423.1495 196.525829 
L 427.89138 201.367187 
L 432.63326 206.518575 
L 437.37514 211.986919 
L 442.33256 218.049983 
L 447.28998 224.474171 
L 452.2474 231.266588 
L 457.20482 238.434064 
L 462.16224 245.983146 
L 467.3352 254.274083 
L 472.50816 262.994156 
L 477.68112 272.149833 
L 482.85408 281.747254 
L 488.24258 292.220562 
L 493.2 302.290235 
L 493.2 302.290235 
" clip-path="url(#p4c4d19ce36)" style="fill: none; stroke: #0000ff; stroke-width: 2; stroke-linecap: square"/>
   </g>
   <g id="line2d_34">
    <defs>
     <path id="ma9cfd1ad7f" d="M -3 3 
L 3 3 
L 3 -3 
L -3 -3 
z
" style="stroke: #ff0000; stroke-width: 1.5; stroke-linejoin: miter"/>
    </defs>
    <g clip-path="url(#p4c4d19ce36)">
     <use xlink:href="#ma9cfd1ad7f" x="474.725143" y="270.791987" style="fill-opacity: 0; stroke: #ff0000; stroke-width: 1.5; stroke-linejoin: miter"/>
     <use xlink:href="#ma9cfd1ad7f" x="468.469107" y="259.263135" style="fill-opacity: 0; stroke: #ff0000; stroke-width: 1.5; stroke-linejoin: miter"/>
     <use xlink:href="#ma9cfd1ad7f" x="462.21307" y="248.485905" style="fill-opacity: 0; stroke: #ff0000; stroke-width: 1.5; stroke-linejoin: miter"/>
     <use xlink:href="#ma9cfd1ad7f" x="455.957034" y="238.435701" style="fill-opacity: 0; stroke: #ff0000; stroke-width: 1.5; stroke-linejoin: miter"/>
     <use xlink:href="#ma9cfd1ad7f" x="449.700998" y="229.088211" style="fill-opacity: 0; stroke: #ff0000; stroke-width: 1.5; stroke-linejoin: miter"/>
     <use xlink:href="#ma9cfd1ad7f" x="443.444961" y="220.418781" style="fill-opacity: 0; stroke: #ff0000; stroke-width: 1.5; stroke-linejoin: miter"/>
     <use xlink:href="#ma9cfd1ad7f" x="437.188925" y="212.402985" style="fill-opacity: 0; stroke: #ff0000; stroke-width: 1.5; stroke-linejoin: miter"/>
     <use xlink:href="#ma9cfd1ad7f" x="430.932889" y="205.01641" style="fill-opacity: 0; stroke: #ff0000; stroke-width: 1.5; stroke-linejoin: miter"/>
     <use xlink:href="#ma9cfd1ad7f" x="424.676853" y="198.234499" style="fill-opacity: 0; stroke: #ff0000; stroke-width: 1.5; stroke-linejoin: miter"/>
     <use xlink:href="#ma9cfd1ad7f" x="418.420816" y="192.032774" style="fill-opacity: 0; stroke: #ff0000; stroke-width: 1.5; stroke-linejoin: miter"/>
     <use xlink:href="#ma9cfd1ad7f" x="412.16478" y="186.386765" style="fill-opacity: 0; stroke: #ff0000; stroke-width: 1.5; stroke-linejoin: miter"/>
     <use xlink:href="#ma9cfd1ad7f" x="405.908744" y="181.271977" style="fill-opacity: 0; stroke: #ff0000; stroke-width: 1.5; stroke-linejoin: miter"/>
     <use xlink:href="#ma9cfd1ad7f" x="399.652707" y="176.663934" style="fill-opacity: 0; stroke: #ff0000; stroke-width: 1.5; stroke-linejoin: miter"/>
     <use xlink:href="#ma9cfd1ad7f" x="393.396671" y="172.538152" style="fill-opacity: 0; stroke: #ff0000; stroke-width: 1.5; stroke-linejoin: miter"/>
     <use xlink:href="#ma9cfd1ad7f" x="387.140635" y="168.870145" style="fill-opacity: 0; stroke: #ff0000; stroke-width: 1.5; stroke-linejoin: miter"/>
     <use xlink:href="#ma9cfd1ad7f" x="380.884599" y="165.635422" style="fill-opacity: 0; stroke: #ff0000; stroke-width: 1.5; stroke-linejoin: miter"/>
     <use xlink:href="#ma9cfd1ad7f" x="374.628562" y="162.809508" style="fill-opacity: 0; stroke: #ff0000; stroke-width: 1.5; stroke-linejoin: miter"/>
     <use xlink:href="#ma9cfd1ad7f" x="368.372526" y="160.367924" style="fill-opacity: 0; stroke: #ff0000; stroke-width: 1.5; stroke-linejoin: miter"/>
     <use xlink:href="#ma9cfd1ad7f" x="362.11649" y="158.286033" style="fill-opacity: 0; stroke: #ff0000; stroke-width: 1.5; stroke-linejoin: miter"/>
     <use xlink:href="#ma9cfd1ad7f" x="355.860454" y="156.539617" style="fill-opacity: 0; stroke: #ff0000; stroke-width: 1.5; stroke-linejoin: miter"/>
     <use xlink:href="#ma9cfd1ad7f" x="349.604417" y="155.104064" style="fill-opacity: 0; stroke: #ff0000; stroke-width: 1.5; stroke-linejoin: miter"/>
     <use xlink:href="#ma9cfd1ad7f" x="343.348381" y="153.954898" style="fill-opacity: 0; stroke: #ff0000; stroke-width: 1.5; stroke-linejoin: miter"/>
     <use xlink:href="#ma9cfd1ad7f" x="337.092345" y="153.067639" style="fill-opacity: 0; stroke: #ff0000; stroke-width: 1.5; stroke-linejoin: miter"/>
     <use xlink:href="#ma9cfd1ad7f" x="330.836308" y="152.417793" style="fill-opacity: 0; stroke: #ff0000; stroke-width: 1.5; stroke-linejoin: miter"/>
     <use xlink:href="#ma9cfd1ad7f" x="324.580272" y="151.980885" style="fill-opacity: 0; stroke: #ff0000; stroke-width: 1.5; stroke-linejoin: miter"/>
     <use xlink:href="#ma9cfd1ad7f" x="318.324236" y="151.732424" style="fill-opacity: 0; stroke: #ff0000; stroke-width: 1.5; stroke-linejoin: miter"/>
     <use xlink:href="#ma9cfd1ad7f" x="312.0682" y="151.647931" style="fill-opacity: 0; stroke: #ff0000; stroke-width: 1.5; stroke-linejoin: miter"/>
     <use xlink:href="#ma9cfd1ad7f" x="305.812163" y="151.70292" style="fill-opacity: 0; stroke: #ff0000; stroke-width: 1.5; stroke-linejoin: miter"/>
     <use xlink:href="#ma9cfd1ad7f" x="299.556127" y="151.872906" style="fill-opacity: 0; stroke: #ff0000; stroke-width: 1.5; stroke-linejoin: miter"/>
     <use xlink:href="#ma9cfd1ad7f" x="293.300091" y="152.133407" style="fill-opacity: 0; stroke: #ff0000; stroke-width: 1.5; stroke-linejoin: miter"/>
     <use xlink:href="#ma9cfd1ad7f" x="287.044054" y="152.459938" style="fill-opacity: 0; stroke: #ff0000; stroke-width: 1.5; stroke-linejoin: miter"/>
     <use xlink:href="#ma9cfd1ad7f" x="280.788018" y="152.828017" style="fill-opacity: 0; stroke: #ff0000; stroke-width: 1.5; stroke-linejoin: miter"/>
     <use xlink:href="#ma9cfd1ad7f" x="274.531982" y="153.213155" style="fill-opacity: 0; stroke: #ff0000; stroke-width: 1.5; stroke-linejoin: miter"/>
     <use xlink:href="#ma9cfd1ad7f" x="268.275946" y="153.590875" style="fill-opacity: 0; stroke: #ff0000; stroke-width: 1.5; stroke-linejoin: miter"/>
     <use xlink:href="#ma9cfd1ad7f" x="262.019909" y="153.936688" style="fill-opacity: 0; stroke: #ff0000; stroke-width: 1.5; stroke-linejoin: miter"/>
     <use xlink:href="#ma9cfd1ad7f" x="255.763873" y="154.226111" style="fill-opacity: 0; stroke: #ff0000; stroke-width: 1.5; stroke-linejoin: miter"/>
     <use xlink:href="#ma9cfd1ad7f" x="249.507837" y="154.434661" style="fill-opacity: 0; stroke: #ff0000; stroke-width: 1.5; stroke-linejoin: miter"/>
     <use xlink:href="#ma9cfd1ad7f" x="243.2518" y="154.537854" style="fill-opacity: 0; stroke: #ff0000; stroke-width: 1.5; stroke-linejoin: miter"/>
     <use xlink:href="#ma9cfd1ad7f" x="236.995764" y="154.511206" style="fill-opacity: 0; stroke: #ff0000; stroke-width: 1.5; stroke-linejoin: miter"/>
     <use xlink:href="#ma9cfd1ad7f" x="230.739728" y="154.330233" style="fill-opacity: 0; stroke: #ff0000; stroke-width: 1.5; stroke-linejoin: miter"/>
     <use xlink:href="#ma9cfd1ad7f" x="224.483692" y="153.970452" style="fill-opacity: 0; stroke: #ff0000; stroke-width: 1.5; stroke-linejoin: miter"/>
     <use xlink:href="#ma9cfd1ad7f" x="218.227655" y="153.407377" style="fill-opacity: 0; stroke: #ff0000; stroke-width: 1.5; stroke-linejoin: miter"/>
     <use xlink:href="#ma9cfd1ad7f" x="211.971619" y="152.616528" style="fill-opacity: 0; stroke: #ff0000; stroke-width: 1.5; stroke-linejoin: miter"/>
     <use xlink:href="#ma9cfd1ad7f" x="205.715583" y="151.573415" style="fill-opacity: 0; stroke: #ff0000; stroke-width: 1.5; stroke-linejoin: miter"/>
     <use xlink:href="#ma9cfd1ad7f" x="199.459546" y="150.253557" style="fill-opacity: 0; stroke: #ff0000; stroke-width: 1.5; stroke-linejoin: miter"/>
     <use xlink:href="#ma9cfd1ad7f" x="193.20351" y="148.632478" style="fill-opacity: 0; stroke: #ff0000; stroke-width: 1.5; stroke-linejoin: miter"/>
     <use xlink:href="#ma9cfd1ad7f" x="186.947474" y="146.685679" style="fill-opacity: 0; stroke: #ff0000; stroke-width: 1.5; stroke-linejoin: miter"/>
     <use xlink:href="#ma9cfd1ad7f" x="180.691438" y="144.388693" style="fill-opacity: 0; stroke: #ff0000; stroke-width: 1.5; stroke-linejoin: miter"/>
     <use xlink:href="#ma9cfd1ad7f" x="174.435401" y="141.717019" style="fill-opacity: 0; stroke: #ff0000; stroke-width: 1.5; stroke-linejoin: miter"/>
     <use xlink:href="#ma9cfd1ad7f" x="168.179365" y="138.646181" style="fill-opacity: 0; stroke: #ff0000; stroke-width: 1.5; stroke-linejoin: miter"/>
     <use xlink:href="#ma9cfd1ad7f" x="161.923329" y="135.151707" style="fill-opacity: 0; stroke: #ff0000; stroke-width: 1.5; stroke-linejoin: miter"/>
     <use xlink:href="#ma9cfd1ad7f" x="155.667293" y="131.209087" style="fill-opacity: 0; stroke: #ff0000; stroke-width: 1.5; stroke-linejoin: miter"/>
     <use xlink:href="#ma9cfd1ad7f" x="149.411256" y="126.793877" style="fill-opacity: 0; stroke: #ff0000; stroke-width: 1.5; stroke-linejoin: miter"/>
     <use xlink:href="#ma9cfd1ad7f" x="143.15522" y="121.881538" style="fill-opacity: 0; stroke: #ff0000; stroke-width: 1.5; stroke-linejoin: miter"/>
     <use xlink:href="#ma9cfd1ad7f" x="136.899184" y="116.447622" style="fill-opacity: 0; stroke: #ff0000; stroke-width: 1.5; stroke-linejoin: miter"/>
     <use xlink:href="#ma9cfd1ad7f" x="130.643147" y="110.467663" style="fill-opacity: 0; stroke: #ff0000; stroke-width: 1.5; stroke-linejoin: miter"/>
     <use xlink:href="#ma9cfd1ad7f" x="124.387111" y="103.917127" style="fill-opacity: 0; stroke: #ff0000; stroke-width: 1.5; stroke-linejoin: miter"/>
     <use xlink:href="#ma9cfd1ad7f" x="118.131075" y="96.771588" style="fill-opacity: 0; stroke: #ff0000; stroke-width: 1.5; stroke-linejoin: miter"/>
     <use xlink:href="#ma9cfd1ad7f" x="111.875039" y="89.006473" style="fill-opacity: 0; stroke: #ff0000; stroke-width: 1.5; stroke-linejoin: miter"/>
     <use xlink:href="#ma9cfd1ad7f" x="105.619002" y="80.597407" style="fill-opacity: 0; stroke: #ff0000; stroke-width: 1.5; stroke-linejoin: miter"/>
     <use xlink:href="#ma9cfd1ad7f" x="99.362966" y="71.519857" style="fill-opacity: 0; stroke: #ff0000; stroke-width: 1.5; stroke-linejoin: miter"/>
     <use xlink:href="#ma9cfd1ad7f" x="93.10693" y="61.749282" style="fill-opacity: 0; stroke: #ff0000; stroke-width: 1.5; stroke-linejoin: miter"/>
     <use xlink:href="#ma9cfd1ad7f" x="86.850893" y="51.261085" style="fill-opacity: 0; stroke: #ff0000; stroke-width: 1.5; stroke-linejoin: miter"/>
     <use xlink:href="#ma9cfd1ad7f" x="80.594857" y="40.031414" style="fill-opacity: 0; stroke: #ff0000; stroke-width: 1.5; stroke-linejoin: miter"/>
    </g>
   </g>
   <g id="line2d_35">
    <path d="M 62.12 153.02 
L 493.2 153.02 
" clip-path="url(#p4c4d19ce36)" style="fill: none; stroke: #000000; stroke-width: 0.5; stroke-linecap: square"/>
   </g>
   <g id="patch_3">
    <path d="M 62.12 279.16 
L 62.12 26.88 
" style="fill: none; stroke: #000000; stroke-width: 0.8; stroke-linejoin: miter; stroke-linecap: square"/>
   </g>
   <g id="patch_4">
    <path d="M 493.2 279.16 
L 493.2 26.88 
" style="fill: none; stroke: #000000; stroke-width: 0.8; stroke-linejoin: miter; stroke-linecap: square"/>
   </g>
   <g id="patch_5">
    <path d="M 62.12 279.16 
L 493.2 279.16 
" style="fill: none; stroke: #000000; stroke-width: 0.8; stroke-linejoin: miter; stroke-linecap: square"/>
   </g>
   <g id="patch_6">
    <path d="M 62.12 26.88 
L 493.2 26.88 
" style="fill: none; stroke: #000000; stroke-width: 0.8; stroke-linejoin: miter; stroke-linecap: square"/>
   </g>
   <g id="text_19">
    <!-- Snap-through cross-check: PRBM vs CalculiX FEA -->
    <g transform="translate(130.803438 20.88) scale(0.12 -0.12)">
     <defs>
      <path id="DejaVuSans-53" d="M 3425 4513 
L 3425 3897 
Q 3066 4069 2747 4153 
Q 2428 4238 2131 4238 
Q 1616 4238 1336 4038 
Q 1056 3838 1056 3469 
Q 1056 3159 1242 3001 
Q 1428 2844 1947 2747 
L 2328 2669 
Q 3034 2534 3370 2195 
Q 3706 1856 3706 1288 
Q 3706 609 3251 259 
Q 2797 -91 1919 -91 
Q 1588 -91 1214 -16 
Q 841 59 441 206 
L 441 856 
Q 825 641 1194 531 
Q 1563 422 1919 422 
Q 2459 422 2753 634 
Q 3047 847 3047 1241 
Q 3047 1584 2836 1778 
Q 2625 1972 2144 2069 
L 1759 2144 
Q 1053 2284 737 2584 
Q 422 2884 422 3419 
Q 422 4038 858 4394 
Q 1294 4750 2059 4750 
Q 2388 4750 2728 4690 
Q 3069 4631 3425 4513 
z
" transform="scale(0.015625)"/>
      <path id="DejaVuSans-2d" d="M 313 2009 
L 1997 2009 
L 1997 1497 
L 313 1497 
L 313 2009 
z
" transform="scale(0.015625)"/>
      <path id="DejaVuSans-68" d="M 3513 2113 
L 3513 0 
L 2938 0 
L 2938 2094 
Q 2938 2591 2744 2837 
Q 2550 3084 2163 3084 
Q 1697 3084 1428 2787 
Q 1159 2491 1159 1978 
L 1159 0 
L 581 0 
L 581 4863 
L 1159 4863 
L 1159 2956 
Q 1366 3272 1645 3428 
Q 1925 3584 2291 3584 
Q 2894 3584 3203 3211 
Q 3513 2838 3513 2113 
z
" transform="scale(0.015625)"/>
      <path id="DejaVuSans-75" d="M 544 1381 
L 544 3500 
L 1119 3500 
L 1119 1403 
Q 1119 906 1312 657 
Q 1506 409 1894 409 
Q 2359 409 2629 706 
Q 2900 1003 2900 1516 
L 2900 3500 
L 3475 3500 
L 3475 0 
L 2900 0 
L 2900 538 
Q 2691 219 2414 64 
Q 2138 -91 1772 -91 
Q 1169 -91 856 284 
Q 544 659 544 1381 
z
M 1991 3584 
L 1991 3584 
z
" transform="scale(0.015625)"/>
      <path id="DejaVuSans-6b" d="M 581 4863 
L 1159 4863 
L 1159 1991 
L 2875 3500 
L 3609 3500 
L 1753 1863 
L 3688 0 
L 2938 0 
L 1159 1709 
L 1159 0 
L 581 0 
L 581 4863 
z
" transform="scale(0.015625)"/>
      <path id="DejaVuSans-3a" d="M 750 794 
L 1409 794 
L 1409 0 
L 750 0 
L 750 794 
z
M 750 3309 
L 1409 3309 
L 1409 2516 
L 750 2516 
L 750 3309 
z
" transform="scale(0.015625)"/>
      <path id="DejaVuSans-50" d="M 1259 4147 
L 1259 2394 
L 2053 2394 
Q 2494 2394 2734 2622 
Q 2975 2850 2975 3272 
Q 2975 3691 2734 3919 
Q 2494 4147 2053 4147 
L 1259 4147 
z
M 628 4666 
L 2053 4666 
Q 2838 4666 3239 4311 
Q 3641 3956 3641 3272 
Q 3641 2581 3239 2228 
Q 2838 1875 2053 1875 
L 1259 1875 
L 1259 0 
L 628 0 
L 628 4666 
z
" transform="scale(0.015625)"/>
      <path id="DejaVuSans-52" d="M 2841 2188 
Q 3044 2119 3236 1894 
Q 3428 1669 3622 1275 
L 4263 0 
L 3584 0 
L 2988 1197 
Q 2756 1666 2539 1819 
Q 2322 1972 1947 1972 
L 1259 1972 
L 1259 0 
L 628 0 
L 628 4666 
L 2053 4666 
Q 2853 4666 3247 4331 
Q 3641 3997 3641 3322 
Q 3641 2881 3436 2590 
Q 3231 2300 2841 2188 
z
M 1259 4147 
L 1259 2491 
L 2053 2491 
Q 2509 2491 2742 2702 
Q 2975 2913 2975 3322 
Q 2975 3731 2742 3939 
Q 2509 4147 2053 4147 
L 1259 4147 
z
" transform="scale(0.015625)"/>
      <path id="DejaVuSans-42" d="M 1259 2228 
L 1259 519 
L 2272 519 
Q 2781 519 3026 730 
Q 3272 941 3272 1375 
Q 3272 1813 3026 2020 
Q 2781 2228 2272 2228 
L 1259 2228 
z
M 1259 4147 
L 1259 2741 
L 2194 2741 
Q 2656 2741 2882 2914 
Q 3109 3088 3109 3444 
Q 3109 3797 2882 3972 
Q 2656 4147 2194 4147 
L 1259 4147 
z
M 628 4666 
L 2241 4666 
Q 2963 4666 3353 4366 
Q 3744 4066 3744 3513 
Q 3744 3084 3544 2831 
Q 3344 2578 2956 2516 
Q 3422 2416 3680 2098 
Q 3938 1781 3938 1306 
Q 3938 681 3513 340 
Q 3088 0 2303 0 
L 628 0 
L 628 4666 
z
" transform="scale(0.015625)"/>
      <path id="DejaVuSans-4d" d="M 628 4666 
L 1569 4666 
L 2759 1491 
L 3956 4666 
L 4897 4666 
L 4897 0 
L 4281 0 
L 4281 4097 
L 3078 897 
L 2444 897 
L 1241 4097 
L 1241 0 
L 628 0 
L 628 4666 
z
" transform="scale(0.015625)"/>
      <path id="DejaVuSans-76" d="M 191 3500 
L 800 3500 
L 1894 563 
L 2988 3500 
L 3597 3500 
L 2284 0 
L 1503 0 
L 191 3500 
z
" transform="scale(0.015625)"/>
      <path id="DejaVuSans-43" d="M 4122 4306 
L 4122 3641 
Q 3803 3938 3442 4084 
Q 3081 4231 2675 4231 
Q 1875 4231 1450 3742 
Q 1025 3253 1025 2328 
Q 1025 1406 1450 917 
Q 1875 428 2675 428 
Q 3081 428 3442 575 
Q 3803 722 4122 1019 
L 4122 359 
Q 3791 134 3420 21 
Q 3050 -91 2638 -91 
Q 1578 -91 968 557 
Q 359 1206 359 2328 
Q 359 3453 968 4101 
Q 1578 4750 2638 4750 
Q 3056 4750 3426 4639 
Q 3797 4528 4122 4306 
z
" transform="scale(0.015625)"/>
      <path id="DejaVuSans-58" d="M 403 4666 
L 1081 4666 
L 2241 2931 
L 3406 4666 
L 4084 4666 
L 2584 2425 
L 4184 0 
L 3506 0 
L 2194 1984 
L 872 0 
L 191 0 
L 1856 2491 
L 403 4666 
z
" transform="scale(0.015625)"/>
      <path id="DejaVuSans-46" d="M 628 4666 
L 3309 4666 
L 3309 4134 
L 1259 4134 
L 1259 2759 
L 3109 2759 
L 3109 2228 
L 1259 2228 
L 1259 0 
L 628 0 
L 628 4666 
z
" transform="scale(0.015625)"/>
      <path id="DejaVuSans-45" d="M 628 4666 
L 3578 4666 
L 3578 4134 
L 1259 4134 
L 1259 2753 
L 3481 2753 
L 3481 2222 
L 1259 2222 
L 1259 531 
L 3634 531 
L 3634 0 
L 628 0 
L 628 4666 
z
" transform="scale(0.015625)"/>
      <path id="DejaVuSans-41" d="M 2188 4044 
L 1331 1722 
L 3047 1722 
L 2188 4044 
z
M 1831 4666 
L 2547 4666 
L 4325 0 
L 3669 0 
L 3244 1197 
L 1141 1197 
L 716 0 
L 50 0 
L 1831 4666 
z
" transform="scale(0.015625)"/>
     </defs>
     <use xlink:href="#DejaVuSans-53"/>
     <use xlink:href="#DejaVuSans-6e" transform="translate(63.476562 0)"/>
     <use xlink:href="#DejaVuSans-61" transform="translate(126.855469 0)"/>
     <use xlink:href="#DejaVuSans-70" transform="translate(188.134766 0)"/>
     <use xlink:href="#DejaVuSans-2d" transform="translate(251.611328 0)"/>
     <use xlink:href="#DejaVuSans-74" transform="translate(287.695312 0)"/>
     <use xlink:href="#DejaVuSans-68" transform="translate(326.904297 0)"/>
     <use xlink:href="#DejaVuSans-72" transform="translate(390.283203 0)"/>
     <use xlink:href="#DejaVuSans-6f" transform="translate(429.146484 0)"/>
     <use xlink:href="#DejaVuSans-75" transform="translate(490.328125 0)"/>
     <use xlink:href="#DejaVuSans-67" transform="translate(553.707031 0)"/>
     <use xlink:href="#DejaVuSans-68" transform="translate(617.183594 0)"/>
     <use xlink:href="#DejaVuSans-20" transform="translate(680.5625 0)"/>
     <use xlink:href="#DejaVuSans-63" transform="translate(712.349609 0)"/>
     <use xlink:href="#DejaVuSans-72" transform="translate(767.330078 0)"/>
     <use xlink:href="#DejaVuSans-6f" transform="translate(806.193359 0)"/>
     <use xlink:href="#DejaVuSans-73" transform="translate(867.375 0)"/>
     <use xlink:href="#DejaVuSans-73" transform="translate(919.474609 0)"/>
     <use xlink:href="#DejaVuSans-2d" transform="translate(971.574219 0)"/>
     <use xlink:href="#DejaVuSans-63" transform="translate(1007.658203 0)"/>
     <use xlink:href="#DejaVuSans-68" transform="translate(1062.638672 0)"/>
     <use xlink:href="#DejaVuSans-65" transform="translate(1126.017578 0)"/>
     <use xlink:href="#DejaVuSans-63" transform="translate(1187.541016 0)"/>
     <use xlink:href="#DejaVuSans-6b" transform="translate(1242.521484 0)"/>
     <use xlink:href="#DejaVuSans-3a" transform="translate(1300.431641 0)"/>
     <use xlink:href="#DejaVuSans-20" transform="translate(1334.123047 0)"/>
     <use xlink:href="#DejaVuSans-50" transform="translate(1365.910156 0)"/>
     <use xlink:href="#DejaVuSans-52" transform="translate(1426.212891 0)"/>
     <use xlink:href="#DejaVuSans-42" transform="translate(1495.695312 0)"/>
     <use xlink:href="#DejaVuSans-4d" transform="translate(1564.298828 0)"/>
     <use xlink:href="#DejaVuSans-20" transform="translate(1650.578125 0)"/>
     <use xlink:href="#DejaVuSans-76" transform="translate(1682.365234 0)"/>
     <use xlink:href="#DejaVuSans-73" transform="translate(1741.544922 0)"/>
     <use xlink:href="#DejaVuSans-20" transform="translate(1793.644531 0)"/>
     <use xlink:href="#DejaVuSans-43" transform="translate(1825.431641 0)"/>
     <use xlink:href="#DejaVuSans-61" transform="translate(1895.255859 0)"/>
     <use xlink:href="#DejaVuSans-6c" transform="translate(1956.535156 0)"/>
     <use xlink:href="#DejaVuSans-63" transform="translate(1984.318359 0)"/>
     <use xlink:href="#DejaVuSans-75" transform="translate(2039.298828 0)"/>
     <use xlink:href="#DejaVuSans-6c" transform="translate(2102.677734 0)"/>
     <use xlink:href="#DejaVuSans-69" transform="translate(2130.460938 0)"/>
     <use xlink:href="#DejaVuSans-58" transform="translate(2158.244141 0)"/>
     <use xlink:href="#DejaVuSans-20" transform="translate(2226.75 0)"/>
     <use xlink:href="#DejaVuSans-46" transform="translate(2258.537109 0)"/>
     <use xlink:href="#DejaVuSans-45" transform="translate(2316.056641 0)"/>
     <use xlink:href="#DejaVuSans-41" transform="translate(2379.240234 0)"/>
    </g>
   </g>
   <g id="line2d_36">
    <path d="M 219.127122 153.02 
" clip-path="url(#p4c4d19ce36)" style="fill: none; stroke: #2ca02c; stroke-width: 1.5; stroke-linecap: square"/>
    <defs>
     <path id="maba5100b1b" d="M 0 5.5 
C 1.458617 5.5 2.857689 4.920485 3.889087 3.889087 
C 4.920485 2.857689 5.5 1.458617 5.5 0 
C 5.5 -1.458617 4.920485 -2.857689 3.889087 -3.889087 
C 2.857689 -4.920485 1.458617 -5.5 0 -5.5 
C -1.458617 -5.5 -2.857689 -4.920485 -3.889087 -3.889087 
C -4.920485 -2.857689 -5.5 -1.458617 -5.5 0 
C -5.5 1.458617 -4.920485 2.857689 -3.889087 3.889087 
C -2.857689 4.920485 -1.458617 5.5 0 5.5 
z
" style="stroke: #2ca02c"/>
    </defs>
    <g clip-path="url(#p4c4d19ce36)">
     <use xlink:href="#maba5100b1b" x="219.127122" y="153.02" style="fill: #2ca02c; stroke: #2ca02c"/>
    </g>
   </g>
   <g id="line2d_37">
    <path d="M 277.66 153.02 
" clip-path="url(#p4c4d19ce36)" style="fill: none; stroke: #d62728; stroke-width: 1.5; stroke-linecap: square"/>
    <defs>
     <path id="mfb868036eb" d="M -2.75 5.5 
L 0 2.75 
L 2.75 5.5 
L 5.5 2.75 
L 2.75 0 
L 5.5 -2.75 
L 2.75 -5.5 
L 0 -2.75 
L -2.75 -5.5 
L -5.5 -2.75 
L -2.75 0 
L -5.5 2.75 
z
" style="stroke: #d62728; stroke-linejoin: miter"/>
    </defs>
    <g clip-path="url(#p4c4d19ce36)">
     <use xlink:href="#mfb868036eb" x="277.66" y="153.02" style="fill: #d62728; stroke: #d62728; stroke-linejoin: miter"/>
    </g>
   </g>
   <g id="line2d_38">
    <path d="M 336.192878 153.02 
" clip-path="url(#p4c4d19ce36)" style="fill: none; stroke: #2ca02c; stroke-width: 1.5; stroke-linecap: square"/>
    <g clip-path="url(#p4c4d19ce36)">
     <use xlink:href="#maba5100b1b" x="336.192878" y="153.02" style="fill: #2ca02c; stroke: #2ca02c"/>
    </g>
   </g>
   <g id="legend_1">
    <g id="patch_7">
     <path d="M 249.384375 60.750937 
L 486.9 60.750937 
Q 488.7 60.750937 488.7 58.950937 
L 488.7 33.18 
Q 488.7 31.38 486.9 31.38 
L 249.384375 31.38 
Q 247.584375 31.38 247.584375 33.18 
L 247.584375 58.950937 
Q 247.584375 60.750937 249.384375 60.750937 
z
" style="fill: #ffffff; opacity: 0.8; stroke: #cccccc; stroke-linejoin: miter"/>
    </g>
    <g id="line2d_39">
     <path d="M 251.184375 38.668594 
L 260.184375 38.668594 
L 269.184375 38.668594 
" style="fill: none; stroke: #0000ff; stroke-width: 2; stroke-linecap: square"/>
    </g>
    <g id="text_20">
     <!-- PRBM (scripts/bimodal_compliance.py) -->
     <g transform="translate(276.384375 41.818594) scale(0.09 -0.09)">
      <defs>
       <path id="DejaVuSans-28" d="M 1984 4856 
Q 1566 4138 1362 3434 
Q 1159 2731 1159 2009 
Q 1159 1288 1364 580 
Q 1569 -128 1984 -844 
L 1484 -844 
Q 1016 -109 783 600 
Q 550 1309 550 2009 
Q 550 2706 781 3412 
Q 1013 4119 1484 4856 
L 1984 4856 
z
" transform="scale(0.015625)"/>
       <path id="DejaVuSans-2f" d="M 1625 4666 
L 2156 4666 
L 531 -594 
L 0 -594 
L 1625 4666 
z
" transform="scale(0.015625)"/>
       <path id="DejaVuSans-62" d="M 3116 1747 
Q 3116 2381 2855 2742 
Q 2594 3103 2138 3103 
Q 1681 3103 1420 2742 
Q 1159 2381 1159 1747 
Q 1159 1113 1420 752 
Q 1681 391 2138 391 
Q 2594 391 2855 752 
Q 3116 1113 3116 1747 
z
M 1159 2969 
Q 1341 3281 1617 3432 
Q 1894 3584 2278 3584 
Q 2916 3584 3314 3078 
Q 3713 2572 3713 1747 
Q 3713 922 3314 415 
Q 2916 -91 2278 -91 
Q 1894 -91 1617 61 
Q 1341 213 1159 525 
L 1159 0 
L 581 0 
L 581 4863 
L 1159 4863 
L 1159 2969 
z
" transform="scale(0.015625)"/>
       <path id="DejaVuSans-5f" d="M 3263 -1063 
L 3263 -1509 
L -63 -1509 
L -63 -1063 
L 3263 -1063 
z
" transform="scale(0.015625)"/>
       <path id="DejaVuSans-2e" d="M 684 794 
L 1344 794 
L 1344 0 
L 684 0 
L 684 794 
z
" transform="scale(0.015625)"/>
       <path id="DejaVuSans-79" d="M 2059 -325 
Q 1816 -950 1584 -1140 
Q 1353 -1331 966 -1331 
L 506 -1331 
L 506 -850 
L 844 -850 
Q 1081 -850 1212 -737 
Q 1344 -625 1503 -206 
L 1606 56 
L 191 3500 
L 800 3500 
L 1894 763 
L 2988 3500 
L 3597 3500 
L 2059 -325 
z
" transform="scale(0.015625)"/>
       <path id="DejaVuSans-29" d="M 513 4856 
L 1013 4856 
Q 1481 4119 1714 3412 
Q 1947 2706 1947 2009 
Q 1947 1309 1714 600 
Q 1481 -109 1013 -844 
L 513 -844 
Q 928 -128 1133 580 
Q 1338 1288 1338 2009 
Q 1338 2731 1133 3434 
Q 928 4138 513 4856 
z
" transform="scale(0.015625)"/>
      </defs>
      <use xlink:href="#DejaVuSans-50"/>
      <use xlink:href="#DejaVuSans-52" transform="translate(60.302734 0)"/>
      <use xlink:href="#DejaVuSans-42" transform="translate(129.785156 0)"/>
      <use xlink:href="#DejaVuSans-4d" transform="translate(198.388672 0)"/>
      <use xlink:href="#DejaVuSans-20" transform="translate(284.667969 0)"/>
      <use xlink:href="#DejaVuSans-28" transform="translate(316.455078 0)"/>
      <use xlink:href="#DejaVuSans-73" transform="translate(355.46875 0)"/>
      <use xlink:href="#DejaVuSans-63" transform="translate(407.568359 0)"/>
      <use xlink:href="#DejaVuSans-72" transform="translate(462.548828 0)"/>
      <use xlink:href="#DejaVuSans-69" transform="translate(503.662109 0)"/>
      <use xlink:href="#DejaVuSans-70" transform="translate(531.445312 0)"/>
      <use xlink:href="#DejaVuSans-74" transform="translate(594.921875 0)"/>
      <use xlink:href="#DejaVuSans-73" transform="translate(634.130859 0)"/>
      <use xlink:href="#DejaVuSans-2f" transform="translate(686.230469 0)"/>
      <use xlink:href="#DejaVuSans-62" transform="translate(719.921875 0)"/>
      <use xlink:href="#DejaVuSans-69" transform="translate(783.398438 0)"/>
      <use xlink:href="#DejaVuSans-6d" transform="translate(811.181641 0)"/>
      <use xlink:href="#DejaVuSans-6f" transform="translate(908.59375 0)"/>
      <use xlink:href="#DejaVuSans-64" transform="translate(969.775391 0)"/>
      <use xlink:href="#DejaVuSans-61" transform="translate(1033.251953 0)"/>
      <use xlink:href="#DejaVuSans-6c" transform="translate(1094.53125 0)"/>
      <use xlink:href="#DejaVuSans-5f" transform="translate(1122.314453 0)"/>
      <use xlink:href="#DejaVuSans-63" transform="translate(1172.314453 0)"/>
      <use xlink:href="#DejaVuSans-6f" transform="translate(1227.294922 0)"/>
      <use xlink:href="#DejaVuSans-6d" transform="translate(1288.476562 0)"/>
      <use xlink:href="#DejaVuSans-70" transform="translate(1385.888672 0)"/>
      <use xlink:href="#DejaVuSans-6c" transform="translate(1449.365234 0)"/>
      <use xlink:href="#DejaVuSans-69" transform="translate(1477.148438 0)"/>
      <use xlink:href="#DejaVuSans-61" transform="translate(1504.931641 0)"/>
      <use xlink:href="#DejaVuSans-6e" transform="translate(1566.210938 0)"/>
      <use xlink:href="#DejaVuSans-63" transform="translate(1629.589844 0)"/>
      <use xlink:href="#DejaVuSans-65" transform="translate(1684.570312 0)"/>
      <use xlink:href="#DejaVuSans-2e" transform="translate(1746.09375 0)"/>
      <use xlink:href="#DejaVuSans-70" transform="translate(1777.880859 0)"/>
      <use xlink:href="#DejaVuSans-79" transform="translate(1841.357422 0)"/>
      <use xlink:href="#DejaVuSans-29" transform="translate(1900.537109 0)"/>
     </g>
    </g>
    <g id="line2d_40">
     <g>
      <use xlink:href="#ma9cfd1ad7f" x="260.184375" y="52.129219" style="fill-opacity: 0; stroke: #ff0000; stroke-width: 1.5; stroke-linejoin: miter"/>
     </g>
    </g>
    <g id="text_21">
     <!-- CalculiX 2.21 (NLGEOM truss, disp.-controlled) -->
     <g transform="translate(276.384375 55.279219) scale(0.09 -0.09)">
      <defs>
       <path id="DejaVuSans-4c" d="M 628 4666 
L 1259 4666 
L 1259 531 
L 3531 531 
L 3531 0 
L 628 0 
L 628 4666 
z
" transform="scale(0.015625)"/>
       <path id="DejaVuSans-47" d="M 3809 666 
L 3809 1919 
L 2778 1919 
L 2778 2438 
L 4434 2438 
L 4434 434 
Q 4069 175 3628 42 
Q 3188 -91 2688 -91 
Q 1594 -91 976 548 
Q 359 1188 359 2328 
Q 359 3472 976 4111 
Q 1594 4750 2688 4750 
Q 3144 4750 3555 4637 
Q 3966 4525 4313 4306 
L 4313 3634 
Q 3963 3931 3569 4081 
Q 3175 4231 2741 4231 
Q 1884 4231 1454 3753 
Q 1025 3275 1025 2328 
Q 1025 1384 1454 906 
Q 1884 428 2741 428 
Q 3075 428 3337 486 
Q 3600 544 3809 666 
z
" transform="scale(0.015625)"/>
       <path id="DejaVuSans-4f" d="M 2522 4238 
Q 1834 4238 1429 3725 
Q 1025 3213 1025 2328 
Q 1025 1447 1429 934 
Q 1834 422 2522 422 
Q 3209 422 3611 934 
Q 4013 1447 4013 2328 
Q 4013 3213 3611 3725 
Q 3209 4238 2522 4238 
z
M 2522 4750 
Q 3503 4750 4090 4092 
Q 4678 3434 4678 2328 
Q 4678 1225 4090 567 
Q 3503 -91 2522 -91 
Q 1538 -91 948 565 
Q 359 1222 359 2328 
Q 359 3434 948 4092 
Q 1538 4750 2522 4750 
z
" transform="scale(0.015625)"/>
       <path id="DejaVuSans-2c" d="M 750 794 
L 1409 794 
L 1409 256 
L 897 -744 
L 494 -744 
L 750 256 
L 750 794 
z
" transform="scale(0.015625)"/>
      </defs>
      <use xlink:href="#DejaVuSans-43"/>
      <use xlink:href="#DejaVuSans-61" transform="translate(69.824219 0)"/>
      <use xlink:href="#DejaVuSans-6c" transform="translate(131.103516 0)"/>
      <use xlink:href="#DejaVuSans-63" transform="translate(158.886719 0)"/>
      <use xlink:href="#DejaVuSans-75" transform="translate(213.867188 0)"/>
      <use xlink:href="#DejaVuSans-6c" transform="translate(277.246094 0)"/>
      <use xlink:href="#DejaVuSans-69" transform="translate(305.029297 0)"/>
      <use xlink:href="#DejaVuSans-58" transform="translate(332.8125 0)"/>
      <use xlink:href="#DejaVuSans-20" transform="translate(401.318359 0)"/>
      <use xlink:href="#DejaVuSans-32" transform="translate(433.105469 0)"/>
      <use xlink:href="#DejaVuSans-2e" transform="translate(496.728516 0)"/>
      <use xlink:href="#DejaVuSans-32" transform="translate(528.515625 0)"/>
      <use xlink:href="#DejaVuSans-31" transform="translate(592.138672 0)"/>
      <use xlink:href="#DejaVuSans-20" transform="translate(655.761719 0)"/>
      <use xlink:href="#DejaVuSans-28" transform="translate(687.548828 0)"/>
      <use xlink:href="#DejaVuSans-4e" transform="translate(726.5625 0)"/>
      <use xlink:href="#DejaVuSans-4c" transform="translate(801.367188 0)"/>
      <use xlink:href="#DejaVuSans-47" transform="translate(857.080078 0)"/>
      <use xlink:href="#DejaVuSans-45" transform="translate(934.570312 0)"/>
      <use xlink:href="#DejaVuSans-4f" transform="translate(997.753906 0)"/>
      <use xlink:href="#DejaVuSans-4d" transform="translate(1076.464844 0)"/>
      <use xlink:href="#DejaVuSans-20" transform="translate(1162.744141 0)"/>
      <use xlink:href="#DejaVuSans-74" transform="translate(1194.53125 0)"/>
      <use xlink:href="#DejaVuSans-72" transform="translate(1233.740234 0)"/>
      <use xlink:href="#DejaVuSans-75" transform="translate(1274.853516 0)"/>
      <use xlink:href="#DejaVuSans-73" transform="translate(1338.232422 0)"/>
      <use xlink:href="#DejaVuSans-73" transform="translate(1390.332031 0)"/>
      <use xlink:href="#DejaVuSans-2c" transform="translate(1442.431641 0)"/>
      <use xlink:href="#DejaVuSans-20" transform="translate(1474.21875 0)"/>
      <use xlink:href="#DejaVuSans-64" transform="translate(1506.005859 0)"/>
      <use xlink:href="#DejaVuSans-69" transform="translate(1569.482422 0)"/>
      <use xlink:href="#DejaVuSans-73" transform="translate(1597.265625 0)"/>
      <use xlink:href="#DejaVuSans-70" transform="translate(1649.365234 0)"/>
      <use xlink:href="#DejaVuSans-2e" transform="translate(1712.841797 0)"/>
      <use xlink:href="#DejaVuSans-2d" transform="translate(1744.628906 0)"/>
      <use xlink:href="#DejaVuSans-63" transform="translate(1780.712891 0)"/>
      <use xlink:href="#DejaVuSans-6f" transform="translate(1835.693359 0)"/>
      <use xlink:href="#DejaVuSans-6e" transform="translate(1896.875 0)"/>
      <use xlink:href="#DejaVuSans-74" transform="translate(1960.253906 0)"/>
      <use xlink:href="#DejaVuSans-72" transform="translate(1999.462891 0)"/>
      <use xlink:href="#DejaVuSans-6f" transform="translate(2038.326172 0)"/>
      <use xlink:href="#DejaVuSans-6c" transform="translate(2099.507812 0)"/>
      <use xlink:href="#DejaVuSans-6c" transform="translate(2127.291016 0)"/>
      <use xlink:href="#DejaVuSans-65" transform="translate(2155.074219 0)"/>
      <use xlink:href="#DejaVuSans-64" transform="translate(2216.597656 0)"/>
      <use xlink:href="#DejaVuSans-29" transform="translate(2280.074219 0)"/>
     </g>
    </g>
   </g>
  </g>
 </g>
 <defs>
  <clipPath id="p4c4d19ce36">
   <rect x="62.12" y="26.88" width="431.08" height="252.28"/>
  </clipPath>
 </defs>
</svg>
