<svg xmlns="http://www.w3.org/2000/svg" width="500" height="720" style="background:white; font-family:Arial,sans-serif;">
<text x="250.0" y="28.0" style="font-size:15px; text-anchor:middle; fill:#222; font-weight:bold;">Archimedes Auger Attachment — Design Preview</text>
<text x="250.0" y="45.0" style="font-size:10px; text-anchor:middle; fill:#555; font-style:italic;">20mm OD × 100mm height | M3 spindle mount | 2.5mm exit hole | PLA/PETG FDM</text>
<text x="110.0" y="86.0" style="font-size:12px; text-anchor:middle; fill:#222; font-weight:bold;">Cross-Section View</text>
<rect x="60.0" y="100.0" width="10.0" height="500.0" fill="#a8c8e8" stroke="#1a5276" stroke-width="2" opacity="1.0" rx="0"/>
<rect x="150.0" y="100.0" width="10.0" height="500.0" fill="#a8c8e8" stroke="#1a5276" stroke-width="2" opacity="1.0" rx="0"/>
<rect x="60.0" y="580.0" width="100.0" height="20.0" fill="#2e86c1" stroke="#1a5276" stroke-width="2" opacity="1.0" rx="0"/>
<rect x="103.8" y="601.0" width="12.5" height="19.0" fill="white" stroke="none" stroke-width="1.5" opacity="1.0" rx="0"/>
<rect x="60.0" y="100.0" width="100.0" height="20.0" fill="#2e86c1" stroke="#1a5276" stroke-width="2" opacity="1.0" rx="0"/>
<rect x="103.8" y="99.0" width="12.5" height="51.0" fill="white" stroke="none" stroke-width="1.5" opacity="1.0" rx="0"/>
<rect x="82.5" y="99.0" width="15.0" height="21.0" fill="white" stroke="none" stroke-width="1.5" opacity="1.0" rx="0"/>
<rect x="122.5" y="99.0" width="15.0" height="21.0" fill="white" stroke="none" stroke-width="1.5" opacity="1.0" rx="0"/>
<line x1="70.0" y1="580.0" x2="102.5" y2="580.0" stroke="#c0392b" stroke-width="2"/>
<line x1="117.5" y1="580.0" x2="150.0" y2="580.0" stroke="#c0392b" stroke-width="2"/>
<line x1="70.0" y1="555.0" x2="102.5" y2="555.0" stroke="#c0392b" stroke-width="2"/>
<line x1="117.5" y1="555.0" x2="150.0" y2="555.0" stroke="#c0392b" stroke-width="2"/>
<line x1="70.0" y1="530.0" x2="102.5" y2="530.0" stroke="#c0392b" stroke-width="2"/>
<line x1="117.5" y1="530.0" x2="150.0" y2="530.0" stroke="#c0392b" stroke-width="2"/>
<line x1="70.0" y1="505.0" x2="102.5" y2="505.0" stroke="#c0392b" stroke-width="2"/>
<line x1="117.5" y1="505.0" x2="150.0" y2="505.0" stroke="#c0392b" stroke-width="2"/>
<line x1="70.0" y1="480.0" x2="102.5" y2="480.0" stroke="#c0392b" stroke-width="2"/>
<line x1="117.5" y1="480.0" x2="150.0" y2="480.0" stroke="#c0392b" stroke-width="2"/>
<line x1="70.0" y1="455.0" x2="102.5" y2="455.0" stroke="#c0392b" stroke-width="2"/>
<line x1="117.5" y1="455.0" x2="150.0" y2="455.0" stroke="#c0392b" stroke-width="2"/>
<line x1="70.0" y1="430.0" x2="102.5" y2="430.0" stroke="#c0392b" stroke-width="2"/>
<line x1="117.5" y1="430.0" x2="150.0" y2="430.0" stroke="#c0392b" stroke-width="2"/>
<line x1="70.0" y1="405.0" x2="102.5" y2="405.0" stroke="#c0392b" stroke-width="2"/>
<line x1="117.5" y1="405.0" x2="150.0" y2="405.0" stroke="#c0392b" stroke-width="2"/>
<line x1="70.0" y1="380.0" x2="102.5" y2="380.0" stroke="#c0392b" stroke-width="2"/>
<line x1="117.5" y1="380.0" x2="150.0" y2="380.0" stroke="#c0392b" stroke-width="2"/>
<line x1="70.0" y1="355.0" x2="102.5" y2="355.0" stroke="#c0392b" stroke-width="2"/>
<line x1="117.5" y1="355.0" x2="150.0" y2="355.0" stroke="#c0392b" stroke-width="2"/>
<line x1="70.0" y1="330.0" x2="102.5" y2="330.0" stroke="#c0392b" stroke-width="2"/>
<line x1="117.5" y1="330.0" x2="150.0" y2="330.0" stroke="#c0392b" stroke-width="2"/>
<line x1="70.0" y1="305.0" x2="102.5" y2="305.0" stroke="#c0392b" stroke-width="2"/>
<line x1="117.5" y1="305.0" x2="150.0" y2="305.0" stroke="#c0392b" stroke-width="2"/>
<line x1="70.0" y1="280.0" x2="102.5" y2="280.0" stroke="#c0392b" stroke-width="2"/>
<line x1="117.5" y1="280.0" x2="150.0" y2="280.0" stroke="#c0392b" stroke-width="2"/>
<line x1="70.0" y1="255.0" x2="102.5" y2="255.0" stroke="#c0392b" stroke-width="2"/>
<line x1="117.5" y1="255.0" x2="150.0" y2="255.0" stroke="#c0392b" stroke-width="2"/>
<line x1="70.0" y1="230.0" x2="102.5" y2="230.0" stroke="#c0392b" stroke-width="2"/>
<line x1="117.5" y1="230.0" x2="150.0" y2="230.0" stroke="#c0392b" stroke-width="2"/>
<line x1="70.0" y1="205.0" x2="102.5" y2="205.0" stroke="#c0392b" stroke-width="2"/>
<line x1="117.5" y1="205.0" x2="150.0" y2="205.0" stroke="#c0392b" stroke-width="2"/>
<line x1="70.0" y1="180.0" x2="102.5" y2="180.0" stroke="#c0392b" stroke-width="2"/>
<line x1="117.5" y1="180.0" x2="150.0" y2="180.0" stroke="#c0392b" stroke-width="2"/>
<line x1="70.0" y1="155.0" x2="102.5" y2="155.0" stroke="#c0392b" stroke-width="2"/>
<line x1="117.5" y1="155.0" x2="150.0" y2="155.0" stroke="#c0392b" stroke-width="2"/>
<line x1="70.0" y1="130.0" x2="102.5" y2="130.0" stroke="#c0392b" stroke-width="2"/>
<line x1="117.5" y1="130.0" x2="150.0" y2="130.0" stroke="#c0392b" stroke-width="2"/>
<line x1="185.0" y1="100.0" x2="185.0" y2="105.0" stroke="#888" stroke-width="1"/>
<polygon points="185.0,105.0 182.0,100.0 188.0,100.0" fill="#888"/>
<line x1="185.0" y1="600.0" x2="185.0" y2="595.0" stroke="#888" stroke-width="1"/>
<polygon points="185.0,595.0 188.0,600.0 182.0,600.0" fill="#888"/>
<line x1="185.0" y1="100.0" x2="185.0" y2="600.0" stroke="#888" stroke-width="1" stroke-dasharray="4,3"/>
<text x="193.0" y="354.0" style="font-size:9px; text-anchor:start; fill:#666;">100mm</text>
<line x1="60.0" y1="622.0" x2="65.0" y2="622.0" stroke="#888" stroke-width="1"/>
<polygon points="65.0,622.0 60.0,625.0 60.0,619.0" fill="#888"/>
<line x1="160.0" y1="622.0" x2="155.0" y2="622.0" stroke="#888" stroke-width="1"/>
<polygon points="155.0,622.0 160.0,619.0 160.0,625.0" fill="#888"/>
<line x1="60.0" y1="622.0" x2="160.0" y2="622.0" stroke="#888" stroke-width="1" stroke-dasharray="4,3"/>
<text x="110.0" y="618.0" style="font-size:9px; text-anchor:middle; fill:#666;">20mm OD</text>
<line x1="60.0" y1="433.3" x2="65.0" y2="433.3" stroke="#888" stroke-width="1"/>
<polygon points="65.0,433.3 60.0,436.3 60.0,430.3" fill="#888"/>
<line x1="70.0" y1="433.3" x2="65.0" y2="433.3" stroke="#888" stroke-width="1"/>
<polygon points="65.0,433.3 70.0,430.3 70.0,436.3" fill="#888"/>
<line x1="60.0" y1="433.3" x2="70.0" y2="433.3" stroke="#888" stroke-width="1" stroke-dasharray="4,3"/>
<text x="65.0" y="429.3" style="font-size:9px; text-anchor:middle; fill:#666;">2mm wall</text>
<line x1="52.0" y1="480.0" x2="52.0" y2="485.0" stroke="#888" stroke-width="1"/>
<polygon points="52.0,485.0 49.0,480.0 55.0,480.0" fill="#888"/>
<line x1="52.0" y1="430.0" x2="52.0" y2="425.0" stroke="#888" stroke-width="1"/>
<polygon points="52.0,425.0 55.0,430.0 49.0,430.0" fill="#888"/>
<line x1="52.0" y1="480.0" x2="52.0" y2="430.0" stroke="#888" stroke-width="1" stroke-dasharray="4,3"/>
<text x="44.0" y="459.0" style="font-size:9px; text-anchor:end; fill:#666;">10mm pitch</text>
<text x="110.0" y="635.0" style="font-size:9px; text-anchor:middle; fill:#27ae60; font-weight:bold;">Exit hole ⌀2.5mm</text>
<text x="110.0" y="94.0" style="font-size:9px; text-anchor:middle; fill:#7d3c98; font-weight:bold;">M3 pilot ⌀2.5mm + 4 loading slots</text>
<text x="65.0" y="540.0" style="font-size:9px; text-anchor:end; fill:#c0392b;">Helical fin</text>
<text x="65.0" y="552.0" style="font-size:8px; text-anchor:end; fill:#888;">(1.5mm inner radius,</text>
<text x="65.0" y="562.0" style="font-size:8px; text-anchor:end; fill:#888;">2mm thick)</text>
<text x="360.0" y="86.0" style="font-size:12px; text-anchor:middle; fill:#222; font-weight:bold;">Helix Path (Front Projection)</text>
<rect x="310.0" y="100.0" width="100.0" height="500.0" fill="#ddeeff" stroke="#1a5276" stroke-width="2" opacity="0.3" rx="0"/>
<rect x="310.0" y="100.0" width="10.0" height="500.0" fill="#a8c8e8" stroke="none" stroke-width="1.5" opacity="0.7" rx="0"/>
<rect x="400.0" y="100.0" width="10.0" height="500.0" fill="#a8c8e8" stroke="none" stroke-width="1.5" opacity="0.7" rx="0"/>
<line x1="310.0" y1="600.0" x2="310.0" y2="100.0" stroke="#1a5276" stroke-width="2"/>
<line x1="410.0" y1="600.0" x2="410.0" y2="100.0" stroke="#1a5276" stroke-width="2"/>
<rect x="310.0" y="580.0" width="100.0" height="20.0" fill="#2e86c1" stroke="none" stroke-width="1.5" opacity="0.6" rx="0"/>
<rect x="310.0" y="100.0" width="100.0" height="20.0" fill="#2e86c1" stroke="none" stroke-width="1.5" opacity="0.6" rx="0"/>
<polyline points="397.5,580.0 397.1,578.8 395.9,577.7 394.0,576.5 391.4,575.4 388.1,574.2 384.3,573.1 379.9,572.0 375.1,570.8 370.0,569.7 364.7,568.5 359.3,567.4 353.9,566.2 348.6,565.0 343.6,563.9 338.9,562.8 334.7,561.6 331.0,560.5 327.8,559.3 325.4,558.1 323.7,557.0 322.7,555.9 322.5,554.7 323.1,553.6 324.5,552.4 326.6,551.2 329.4,550.1 332.8,548.9 336.8,547.8 341.3,546.6 346.2,545.5 351.4,544.4 356.7,543.2 362.1,542.0 367.5,540.9 372.7,539.8 377.7,538.6 382.2,537.5 386.3,536.3 389.9,535.1 392.9,534.0 395.1,532.8 396.6,531.7 397.4,530.5 397.4,529.4 396.6,528.2 395.0,527.1 392.7,526.0 389.8,524.8 386.2,523.7 382.0,522.5 377.4,521.3 372.5,520.2 367.3,519.0 361.9,517.9 356.5,516.8 351.1,515.6 346.0,514.5 341.1,513.3 336.6,512.2 332.7,511.0 329.3,509.9 326.5,508.7 324.4,507.5 323.1,506.4 322.5,505.2 322.7,504.1 323.7,503.0 325.5,501.8 328.0,500.6 331.1,499.5 334.8,498.4 339.1,497.2 343.8,496.1 348.9,494.9 354.1,493.8 359.5,492.6 364.9,491.4 370.2,490.3 375.3,489.1 380.1,488.0 384.4,486.9 388.3,485.7 391.5,484.5 394.1,483.4 396.0,482.2 397.1,481.1 397.5,479.9 397.1,478.8 395.9,477.6 393.9,476.5 391.3,475.3 388.0,474.2 384.1,473.1 379.7,471.9 374.9,470.8 369.8,469.6 364.5,468.4 359.1,467.3 353.7,466.2 348.4,465.0 343.4,463.8 338.7,462.7 334.5,461.6 330.8,460.4 327.7,459.2 325.3,458.1 323.6,456.9 322.7,455.8 322.5,454.7 323.2,453.5 324.6,452.4 326.7,451.2 329.5,450.1 333.0,448.9 337.0,447.8 341.5,446.6 346.4,445.5 351.6,444.3 356.9,443.1 362.4,442.0 367.7,440.9 372.9,439.7 377.9,438.6 382.4,437.4 386.5,436.2 390.1,435.1 393.0,433.9 395.2,432.8 396.7,431.6 397.4,430.5 397.4,429.4 396.5,428.2 395.0,427.0 392.6,425.9 389.6,424.8 386.0,423.6 381.9,422.4 377.2,421.3 372.3,420.1 367.0,419.0 361.6,417.9 356.2,416.7 350.9,415.6 345.8,414.4 340.9,413.2 336.5,412.1 332.5,410.9 329.1,409.8 326.4,408.6 324.3,407.5 323.0,406.4 322.5,405.2 322.8,404.1 323.8,402.9 325.6,401.8 328.1,400.6 331.3,399.4 335.0,398.3 339.3,397.1 344.0,396.0 349.1,394.9 354.4,393.7 359.8,392.6 365.2,391.4 370.5,390.2 375.5,389.1 380.3,388.0 384.6,386.8 388.4,385.7 391.7,384.5 394.2,383.4 396.1,382.2 397.2,381.1 397.5,379.9 397.0,378.8 395.8,377.6 393.8,376.4 391.1,375.3 387.8,374.1 383.9,373.0 379.5,371.8 374.7,370.7 369.6,369.5 364.2,368.4 358.8,367.2 353.4,366.1 348.2,364.9 343.2,363.8 338.5,362.6 334.3,361.5 330.7,360.4 327.6,359.2 325.2,358.1 323.6,356.9 322.7,355.8 322.5,354.6 323.2,353.4 324.6,352.3 326.8,351.1 329.7,350.0 333.2,348.9 337.2,347.7 341.7,346.6 346.6,345.4 351.8,344.2 357.2,343.1 362.6,341.9 368.0,340.8 373.1,339.7 378.1,338.5 382.6,337.4 386.7,336.2 390.2,335.1 393.1,333.9 395.3,332.8 396.7,331.6 397.4,330.5 397.4,329.3 396.5,328.1 394.9,327.0 392.5,325.9 389.5,324.7 385.8,323.6 381.7,322.4 377.0,321.2 372.0,320.1 366.8,318.9 361.4,317.8 356.0,316.6 350.7,315.5 345.5,314.4 340.7,313.2 336.3,312.0 332.3,310.9 329.0,309.8 326.3,308.6 324.3,307.4 323.0,306.3 322.5,305.1 322.8,304.0 323.9,302.8 325.7,301.7 328.2,300.6 331.4,299.4 335.2,298.2 339.5,297.1 344.2,295.9 349.3,294.8 354.6,293.6 360.0,292.5 365.4,291.4 370.7,290.2 375.8,289.1 380.5,287.9 384.8,286.8 388.6,285.6 391.8,284.4 394.3,283.3 396.1,282.2 397.2,281.0 397.5,279.9 397.0,278.7 395.7,277.6 393.7,276.4 391.0,275.3 387.7,274.1 383.7,273.0 379.3,271.8 374.5,270.6 369.3,269.5 364.0,268.4 358.6,267.2 353.2,266.1 348.0,264.9 343.0,263.8 338.3,262.6 334.2,261.4 330.5,260.3 327.5,259.1 325.1,258.0 323.5,256.9 322.6,255.7 322.6,254.5 323.3,253.4 324.7,252.2 326.9,251.1 329.8,249.9 333.3,248.8 337.4,247.7 341.9,246.5 346.9,245.3 352.0,244.2 357.4,243.1 362.8,241.9 368.2,240.7 373.4,239.6 378.3,238.4 382.8,237.3 386.8,236.1 390.3,235.0 393.2,233.9 395.4,232.7 396.8,231.6 397.5,230.4 397.3,229.3 396.4,228.1 394.8,226.9 392.4,225.8 389.3,224.7 385.7,223.5 381.5,222.3 376.8,221.2 371.8,220.1 366.6,218.9 361.2,217.8 355.8,216.6 350.4,215.5 345.3,214.3 340.5,213.1 336.1,212.0 332.2,210.9 328.9,209.7 326.2,208.5 324.2,207.4 323.0,206.2 322.5,205.1 322.8,204.0 323.9,202.8 325.8,201.6 328.3,200.5 331.6,199.4 335.4,198.2 339.7,197.0 344.5,195.9 349.5,194.8 354.8,193.6 360.2,192.4 365.6,191.3 370.9,190.2 376.0,189.0 380.7,187.8 385.0,186.7 388.7,185.6 391.9,184.4 394.4,183.2 396.2,182.1 397.2,180.9 397.5,179.8 397.0,178.6 395.7,177.5 393.6,176.4 390.9,175.2 387.5,174.1 383.5,172.9 379.1,171.8 374.2,170.6 369.1,169.4 363.8,168.3 358.4,167.2 353.0,166.0 347.7,164.8 342.8,163.7 338.1,162.6 334.0,161.4 330.4,160.2 327.4,159.1 325.0,158.0 323.5,156.8 322.6,155.6 322.6,154.5 323.3,153.4 324.8,152.2 327.0,151.0 329.9,149.9 333.5,148.8 337.6,147.6 342.1,146.5 347.1,145.3 352.3,144.1 357.6,143.0 363.1,141.9 368.4,140.7 373.6,139.5 378.5,138.4 383.0,137.2 387.0,136.1 390.5,134.9 393.3,133.8 395.4,132.7 396.8,131.5 397.5,130.3 397.3,129.2 396.4,128.1 394.7,126.9 392.3,125.7 389.2,124.6 385.5,123.4 381.3,122.3 376.6,121.1 371.6,120.0" fill="none" stroke="#c0392b" stroke-width="2.0" opacity="1.0"/>
<polyline points="367.5,580.0 367.4,578.8 367.2,577.7 366.8,576.5 366.3,575.4 365.6,574.2 364.9,573.1 364.0,572.0 363.0,570.8 362.0,569.7 360.9,568.5 359.9,567.4 358.8,566.2 357.7,565.0 356.7,563.9 355.8,562.8 354.9,561.6 354.2,560.5 353.6,559.3 353.1,558.1 352.7,557.0 352.5,555.9 352.5,554.7 352.6,553.6 352.9,552.4 353.3,551.2 353.9,550.1 354.6,548.9 355.4,547.8 356.3,546.6 357.2,545.5 358.3,544.4 359.3,543.2 360.4,542.0 361.5,540.9 362.5,539.8 363.5,538.6 364.4,537.5 365.3,536.3 366.0,535.1 366.6,534.0 367.0,532.8 367.3,531.7 367.5,530.5 367.5,529.4 367.3,528.2 367.0,527.1 366.5,526.0 366.0,524.8 365.2,523.7 364.4,522.5 363.5,521.3 362.5,520.2 361.5,519.0 360.4,517.9 359.3,516.8 358.2,515.6 357.2,514.5 356.2,513.3 355.3,512.2 354.5,511.0 353.9,509.9 353.3,508.7 352.9,507.5 352.6,506.4 352.5,505.2 352.5,504.1 352.7,503.0 353.1,501.8 353.6,500.6 354.2,499.5 355.0,498.4 355.8,497.2 356.8,496.1 357.8,494.9 358.8,493.8 359.9,492.6 361.0,491.4 362.0,490.3 363.1,489.1 364.0,488.0 364.9,486.9 365.7,485.7 366.3,484.5 366.8,483.4 367.2,482.2 367.4,481.1 367.5,479.9 367.4,478.8 367.2,477.6 366.8,476.5 366.3,475.3 365.6,474.2 364.8,473.1 363.9,471.9 363.0,470.8 362.0,469.6 360.9,468.4 359.8,467.3 358.7,466.2 357.7,465.0 356.7,463.8 355.7,462.7 354.9,461.6 354.2,460.4 353.5,459.2 353.1,458.1 352.7,456.9 352.5,455.8 352.5,454.7 352.6,453.5 352.9,452.4 353.3,451.2 353.9,450.1 354.6,448.9 355.4,447.8 356.3,446.6 357.3,445.5 358.3,444.3 359.4,443.1 360.5,442.0 361.5,440.9 362.6,439.7 363.6,438.6 364.5,437.4 365.3,436.2 366.0,435.1 366.6,433.9 367.0,432.8 367.3,431.6 367.5,430.5 367.5,429.4 367.3,428.2 367.0,427.0 366.5,425.9 365.9,424.8 365.2,423.6 364.4,422.4 363.4,421.3 362.5,420.1 361.4,419.0 360.3,417.9 359.2,416.7 358.2,415.6 357.2,414.4 356.2,413.2 355.3,412.1 354.5,410.9 353.8,409.8 353.3,408.6 352.9,407.5 352.6,406.4 352.5,405.2 352.6,404.1 352.8,402.9 353.1,401.8 353.6,400.6 354.3,399.4 355.0,398.3 355.9,397.1 356.8,396.0 357.8,394.9 358.9,393.7 360.0,392.6 361.0,391.4 362.1,390.2 363.1,389.1 364.1,388.0 364.9,386.8 365.7,385.7 366.3,384.5 366.8,383.4 367.2,382.2 367.4,381.1 367.5,379.9 367.4,378.8 367.2,377.6 366.8,376.4 366.2,375.3 365.6,374.1 364.8,373.0 363.9,371.8 362.9,370.7 361.9,369.5 360.8,368.4 359.8,367.2 358.7,366.1 357.6,364.9 356.6,363.8 355.7,362.6 354.9,361.5 354.1,360.4 353.5,359.2 353.0,358.1 352.7,356.9 352.5,355.8 352.5,354.6 352.6,353.4 352.9,352.3 353.4,351.1 353.9,350.0 354.6,348.9 355.4,347.7 356.3,346.6 357.3,345.4 358.4,344.2 359.4,343.1 360.5,341.9 361.6,340.8 362.6,339.7 363.6,338.5 364.5,337.4 365.3,336.2 366.0,335.1 366.6,333.9 367.1,332.8 367.3,331.6 367.5,330.5 367.5,329.3 367.3,328.1 367.0,327.0 366.5,325.9 365.9,324.7 365.2,323.6 364.3,322.4 363.4,321.2 362.4,320.1 361.4,318.9 360.3,317.8 359.2,316.6 358.1,315.5 357.1,314.4 356.1,313.2 355.3,312.0 354.5,310.9 353.8,309.8 353.3,308.6 352.9,307.4 352.6,306.3 352.5,305.1 352.6,304.0 352.8,302.8 353.1,301.7 353.6,300.6 354.3,299.4 355.0,298.2 355.9,297.1 356.8,295.9 357.9,294.8 358.9,293.6 360.0,292.5 361.1,291.4 362.1,290.2 363.2,289.1 364.1,287.9 365.0,286.8 365.7,285.6 366.4,284.4 366.9,283.3 367.2,282.2 367.4,281.0 367.5,279.9 367.4,278.7 367.1,277.6 366.7,276.4 366.2,275.3 365.5,274.1 364.7,273.0 363.9,271.8 362.9,270.6 361.9,269.5 360.8,268.4 359.7,267.2 358.6,266.1 357.6,264.9 356.6,263.8 355.7,262.6 354.8,261.4 354.1,260.3 353.5,259.1 353.0,258.0 352.7,256.9 352.5,255.7 352.5,254.5 352.7,253.4 352.9,252.2 353.4,251.1 354.0,249.9 354.7,248.8 355.5,247.7 356.4,246.5 357.4,245.3 358.4,244.2 359.5,243.1 360.6,241.9 361.6,240.7 362.7,239.6 363.7,238.4 364.6,237.3 365.4,236.1 366.1,235.0 366.6,233.9 367.1,232.7 367.4,231.6 367.5,230.4 367.5,229.3 367.3,228.1 367.0,226.9 366.5,225.8 365.9,224.7 365.1,223.5 364.3,222.3 363.4,221.2 362.4,220.1 361.3,218.9 360.2,217.8 359.2,216.6 358.1,215.5 357.1,214.3 356.1,213.1 355.2,212.0 354.4,210.9 353.8,209.7 353.2,208.5 352.8,207.4 352.6,206.2 352.5,205.1 352.6,204.0 352.8,202.8 353.2,201.6 353.7,200.5 354.3,199.4 355.1,198.2 355.9,197.0 356.9,195.9 357.9,194.8 359.0,193.6 360.0,192.4 361.1,191.3 362.2,190.2 363.2,189.0 364.1,187.8 365.0,186.7 365.7,185.6 366.4,184.4 366.9,183.2 367.2,182.1 367.4,180.9 367.5,179.8 367.4,178.6 367.1,177.5 366.7,176.4 366.2,175.2 365.5,174.1 364.7,172.9 363.8,171.8 362.8,170.6 361.8,169.4 360.8,168.3 359.7,167.2 358.6,166.0 357.5,164.8 356.6,163.7 355.6,162.6 354.8,161.4 354.1,160.2 353.5,159.1 353.0,158.0 352.7,156.8 352.5,155.6 352.5,154.5 352.7,153.4 353.0,152.2 353.4,151.0 354.0,149.9 354.7,148.8 355.5,147.6 356.4,146.5 357.4,145.3 358.5,144.1 359.5,143.0 360.6,141.9 361.7,140.7 362.7,139.5 363.7,138.4 364.6,137.2 365.4,136.1 366.1,134.9 366.7,133.8 367.1,132.7 367.4,131.5 367.5,130.3 367.5,129.2 367.3,128.1 366.9,126.9 366.5,125.7 365.8,124.6 365.1,123.4 364.3,122.3 363.3,121.1 362.3,120.0" fill="none" stroke="#e74c3c" stroke-width="1.2" opacity="1.0"/>
<circle cx="360.0" cy="600.0" r="4" fill="#27ae60" stroke="white" stroke-width="1.5"/>
<circle cx="360.0" cy="100.0" r="4" fill="#7d3c98" stroke="white" stroke-width="1.5"/>
<text x="418.0" y="600.0" style="font-size:9px; text-anchor:start; fill:#27ae60;">← Exit ⌀2.5mm</text>
<text x="418.0" y="104.0" style="font-size:9px; text-anchor:start; fill:#7d3c98;">← M3 mount</text>
<text x="81.1" y="665.0" style="font-size:8px; text-anchor:middle; fill:#555;">Outer diameter</text>
<text x="81.1" y="678.0" style="font-size:9px; text-anchor:middle; fill:#111; font-weight:bold;">20 mm</text>
<text x="123.3" y="665.0" style="font-size:8px; text-anchor:middle; fill:#555;">Total height</text>
<text x="123.3" y="678.0" style="font-size:9px; text-anchor:middle; fill:#111; font-weight:bold;">100 mm</text>
<text x="165.6" y="665.0" style="font-size:8px; text-anchor:middle; fill:#555;">Wall thickness</text>
<text x="165.6" y="678.0" style="font-size:9px; text-anchor:middle; fill:#111; font-weight:bold;">2 mm</text>
<text x="207.8" y="665.0" style="font-size:8px; text-anchor:middle; fill:#555;">Inner diameter</text>
<text x="207.8" y="678.0" style="font-size:9px; text-anchor:middle; fill:#111; font-weight:bold;">16 mm</text>
<text x="250.0" y="665.0" style="font-size:8px; text-anchor:middle; fill:#555;">Helix pitch</text>
<text x="250.0" y="678.0" style="font-size:9px; text-anchor:middle; fill:#111; font-weight:bold;">10 mm / turn</text>
<text x="292.2" y="665.0" style="font-size:8px; text-anchor:middle; fill:#555;">Turns</text>
<text x="292.2" y="678.0" style="font-size:9px; text-anchor:middle; fill:#111; font-weight:bold;">9.2</text>
<text x="334.4" y="665.0" style="font-size:8px; text-anchor:middle; fill:#555;">Exit hole</text>
<text x="334.4" y="678.0" style="font-size:9px; text-anchor:middle; fill:#111; font-weight:bold;">⌀2.5 mm</text>
<text x="376.7" y="665.0" style="font-size:8px; text-anchor:middle; fill:#555;">M3 pilot</text>
<text x="376.7" y="678.0" style="font-size:9px; text-anchor:middle; fill:#111; font-weight:bold;">⌀2.5 mm × 10 mm deep</text>
<text x="418.9" y="665.0" style="font-size:8px; text-anchor:middle; fill:#555;">Print</text>
<text x="418.9" y="678.0" style="font-size:9px; text-anchor:middle; fill:#111; font-weight:bold;">PLA/PETG, 0.2mm layers, vertical</text>
<line x1="60.0" y1="657.0" x2="440.0" y2="657.0" stroke="#ccc" stroke-width="1"/>
</svg>