<svg xmlns="http://www.w3.org/2000/svg" width="680" height="730" style="background:white; font-family:Arial,sans-serif;">
<text x="340.0" y="22.0" style="font-size:15px; text-anchor:middle; fill:#222; font-weight:bold;">Archimedes Auger v2 — Design Preview</text>
<text x="340.0" y="38.0" style="font-size:10px; text-anchor:middle; fill:#555; font-style:italic;">20mm OD × 100mm height | M3 spindle mount (12mm engagement) | 3.0mm exit hole (conical funnel) | PLA/PETG FDM</text>
<text x="110.0" y="84.0" style="font-size:12px; text-anchor:middle; fill:#222; font-weight:bold;">Cross-Section (Half View)</text>
<rect x="60.0" y="100.0" width="10.0" height="500.0" fill="#a8c8e8" stroke="#1a5276" stroke-width="2" opacity="1.0" rx="0"/>
<rect x="150.0" y="100.0" width="10.0" height="500.0" fill="#a8c8e8" stroke="#1a5276" stroke-width="2" opacity="1.0" rx="0"/>
<rect x="70.0" y="160.0" width="80.0" height="410.0" fill="#eef5fb" stroke="none" stroke-width="1.5" opacity="1.0" rx="0"/>
<polygon points="60.0,570.0 70.0,570.0 102.5,600.0 60.0,600.0" fill="#2e86c1" stroke="#1a5276" stroke-width="2" opacity="1.0"/>
<polygon points="150.0,570.0 160.0,570.0 160.0,600.0 117.5,600.0" fill="#2e86c1" stroke="#1a5276" stroke-width="2" opacity="1.0"/>
<rect x="102.5" y="600.0" width="15.0" height="3.0" fill="white" stroke="none" stroke-width="1.5" opacity="1.0" rx="0"/>
<polygon points="70.0,570.0 150.0,570.0 117.5,600.0 102.5,600.0" fill="#ddeeff" stroke="none" stroke-width="1.5" opacity="0.6"/>
<line x1="70.0" y1="570.0" x2="102.5" y2="600.0" stroke="#1a5276" stroke-width="1.5"/>
<line x1="150.0" y1="570.0" x2="117.5" y2="600.0" stroke="#1a5276" stroke-width="1.5"/>
<rect x="60.0" y="100.0" width="100.0" height="30.0" fill="#2e86c1" stroke="#1a5276" stroke-width="2" opacity="1.0" rx="0"/>
<rect x="90.0" y="130.0" width="40.0" height="30.0" fill="#2e86c1" stroke="#1a5276" stroke-width="1.5" opacity="1.0" rx="0"/>
<rect x="103.8" y="100.0" width="12.5" height="62.0" fill="white" stroke="none" stroke-width="1.5" opacity="1.0" rx="0"/>
<line x1="103.8" y1="100.0" x2="103.8" y2="160.0" stroke="#555" stroke-width="1"/>
<line x1="116.2" y1="100.0" x2="116.2" y2="160.0" stroke="#555" stroke-width="1"/>
<line x1="103.8" y1="160.0" x2="116.2" y2="160.0" stroke="#555" stroke-width="1"/>
<rect x="75.0" y="100.0" width="20.0" height="32.0" fill="white" stroke="none" stroke-width="1.5" opacity="1.0" rx="0"/>
<rect x="125.0" y="100.0" width="20.0" height="32.0" fill="white" stroke="none" stroke-width="1.5" opacity="1.0" rx="0"/>
<line x1="70.0" y1="570.0" x2="100.0" y2="570.0" stroke="#c0392b" stroke-width="2"/>
<line x1="120.0" y1="570.0" x2="150.0" y2="570.0" stroke="#c0392b" stroke-width="2"/>
<line x1="70.0" y1="545.0" x2="100.0" y2="545.0" stroke="#c0392b" stroke-width="2"/>
<line x1="120.0" y1="545.0" x2="150.0" y2="545.0" stroke="#c0392b" stroke-width="2"/>
<line x1="70.0" y1="520.0" x2="100.0" y2="520.0" stroke="#c0392b" stroke-width="2"/>
<line x1="120.0" y1="520.0" x2="150.0" y2="520.0" stroke="#c0392b" stroke-width="2"/>
<line x1="70.0" y1="495.0" x2="100.0" y2="495.0" stroke="#c0392b" stroke-width="2"/>
<line x1="120.0" y1="495.0" x2="150.0" y2="495.0" stroke="#c0392b" stroke-width="2"/>
<line x1="70.0" y1="470.0" x2="100.0" y2="470.0" stroke="#c0392b" stroke-width="2"/>
<line x1="120.0" y1="470.0" x2="150.0" y2="470.0" stroke="#c0392b" stroke-width="2"/>
<line x1="70.0" y1="445.0" x2="100.0" y2="445.0" stroke="#c0392b" stroke-width="2"/>
<line x1="120.0" y1="445.0" x2="150.0" y2="445.0" stroke="#c0392b" stroke-width="2"/>
<line x1="70.0" y1="420.0" x2="100.0" y2="420.0" stroke="#c0392b" stroke-width="2"/>
<line x1="120.0" y1="420.0" x2="150.0" y2="420.0" stroke="#c0392b" stroke-width="2"/>
<line x1="70.0" y1="395.0" x2="100.0" y2="395.0" stroke="#c0392b" stroke-width="2"/>
<line x1="120.0" y1="395.0" x2="150.0" y2="395.0" stroke="#c0392b" stroke-width="2"/>
<line x1="70.0" y1="370.0" x2="100.0" y2="370.0" stroke="#c0392b" stroke-width="2"/>
<line x1="120.0" y1="370.0" x2="150.0" y2="370.0" stroke="#c0392b" stroke-width="2"/>
<line x1="70.0" y1="345.0" x2="100.0" y2="345.0" stroke="#c0392b" stroke-width="2"/>
<line x1="120.0" y1="345.0" x2="150.0" y2="345.0" stroke="#c0392b" stroke-width="2"/>
<line x1="70.0" y1="320.0" x2="100.0" y2="320.0" stroke="#c0392b" stroke-width="2"/>
<line x1="120.0" y1="320.0" x2="150.0" y2="320.0" stroke="#c0392b" stroke-width="2"/>
<line x1="70.0" y1="295.0" x2="100.0" y2="295.0" stroke="#c0392b" stroke-width="2"/>
<line x1="120.0" y1="295.0" x2="150.0" y2="295.0" stroke="#c0392b" stroke-width="2"/>
<line x1="70.0" y1="270.0" x2="100.0" y2="270.0" stroke="#c0392b" stroke-width="2"/>
<line x1="120.0" y1="270.0" x2="150.0" y2="270.0" stroke="#c0392b" stroke-width="2"/>
<line x1="70.0" y1="245.0" x2="100.0" y2="245.0" stroke="#c0392b" stroke-width="2"/>
<line x1="120.0" y1="245.0" x2="150.0" y2="245.0" stroke="#c0392b" stroke-width="2"/>
<line x1="70.0" y1="220.0" x2="100.0" y2="220.0" stroke="#c0392b" stroke-width="2"/>
<line x1="120.0" y1="220.0" x2="150.0" y2="220.0" stroke="#c0392b" stroke-width="2"/>
<line x1="70.0" y1="195.0" x2="100.0" y2="195.0" stroke="#c0392b" stroke-width="2"/>
<line x1="120.0" y1="195.0" x2="150.0" y2="195.0" stroke="#c0392b" stroke-width="2"/>
<line x1="70.0" y1="170.0" x2="100.0" y2="170.0" stroke="#c0392b" stroke-width="2"/>
<line x1="120.0" y1="170.0" x2="150.0" y2="170.0" stroke="#c0392b" stroke-width="2"/>
<line x1="60.0" y1="600.0" x2="60.0" y2="100.0" stroke="#1a5276" stroke-width="2"/>
<line x1="160.0" y1="600.0" x2="160.0" y2="100.0" stroke="#1a5276" stroke-width="2"/>
<line x1="60.0" y1="600.0" x2="160.0" y2="600.0" stroke="#1a5276" stroke-width="2"/>
<line x1="188.0" y1="100.0" x2="188.0" y2="105.0" stroke="#888" stroke-width="1"/>
<polygon points="188.0,105.0 185.0,100.0 191.0,100.0" fill="#888"/>
<line x1="188.0" y1="600.0" x2="188.0" y2="595.0" stroke="#888" stroke-width="1"/>
<polygon points="188.0,595.0 191.0,600.0 185.0,600.0" fill="#888"/>
<line x1="188.0" y1="100.0" x2="188.0" y2="600.0" stroke="#888" stroke-width="1" stroke-dasharray="4,3"/>
<text x="196.0" y="354.0" style="font-size:9px; text-anchor:start; fill:#666;">100mm</text>
<line x1="60.0" y1="620.0" x2="65.0" y2="620.0" stroke="#888" stroke-width="1"/>
<polygon points="65.0,620.0 60.0,623.0 60.0,617.0" fill="#888"/>
<line x1="160.0" y1="620.0" x2="155.0" y2="620.0" stroke="#888" stroke-width="1"/>
<polygon points="155.0,620.0 160.0,617.0 160.0,623.0" fill="#888"/>
<line x1="60.0" y1="620.0" x2="160.0" y2="620.0" stroke="#888" stroke-width="1" stroke-dasharray="4,3"/>
<text x="110.0" y="616.0" style="font-size:9px; text-anchor:middle; fill:#666;">20mm OD</text>
<line x1="60.0" y1="433.3" x2="65.0" y2="433.3" stroke="#888" stroke-width="1"/>
<polygon points="65.0,433.3 60.0,436.3 60.0,430.3" fill="#888"/>
<line x1="70.0" y1="433.3" x2="65.0" y2="433.3" stroke="#888" stroke-width="1"/>
<polygon points="65.0,433.3 70.0,430.3 70.0,436.3" fill="#888"/>
<line x1="60.0" y1="433.3" x2="70.0" y2="433.3" stroke="#888" stroke-width="1" stroke-dasharray="4,3"/>
<text x="65.0" y="429.3" style="font-size:9px; text-anchor:middle; fill:#666;">2mm</text>
<line x1="40.0" y1="570.0" x2="40.0" y2="575.0" stroke="#888" stroke-width="1"/>
<polygon points="40.0,575.0 37.0,570.0 43.0,570.0" fill="#888"/>
<line x1="40.0" y1="600.0" x2="40.0" y2="595.0" stroke="#888" stroke-width="1"/>
<polygon points="40.0,595.0 43.0,600.0 37.0,600.0" fill="#888"/>
<line x1="40.0" y1="570.0" x2="40.0" y2="600.0" stroke="#888" stroke-width="1" stroke-dasharray="4,3"/>
<text x="32.0" y="589.0" style="font-size:9px; text-anchor:end; fill:#666;">6mm</text>
<line x1="40.0" y1="100.0" x2="40.0" y2="105.0" stroke="#888" stroke-width="1"/>
<polygon points="40.0,105.0 37.0,100.0 43.0,100.0" fill="#888"/>
<line x1="40.0" y1="130.0" x2="40.0" y2="125.0" stroke="#888" stroke-width="1"/>
<polygon points="40.0,125.0 43.0,130.0 37.0,130.0" fill="#888"/>
<line x1="40.0" y1="100.0" x2="40.0" y2="130.0" stroke="#888" stroke-width="1" stroke-dasharray="4,3"/>
<text x="32.0" y="119.0" style="font-size:9px; text-anchor:end; fill:#666;">6mm cap</text>
<line x1="22.0" y1="100.0" x2="22.0" y2="105.0" stroke="#888" stroke-width="1"/>
<polygon points="22.0,105.0 19.0,100.0 25.0,100.0" fill="#888"/>
<line x1="22.0" y1="160.0" x2="22.0" y2="155.0" stroke="#888" stroke-width="1"/>
<polygon points="22.0,155.0 25.0,160.0 19.0,160.0" fill="#888"/>
<line x1="22.0" y1="100.0" x2="22.0" y2="160.0" stroke="#888" stroke-width="1" stroke-dasharray="4,3"/>
<text x="14.0" y="134.0" style="font-size:9px; text-anchor:end; fill:#666;">12mm M3</text>
<line x1="52.0" y1="470.0" x2="52.0" y2="475.0" stroke="#888" stroke-width="1"/>
<polygon points="52.0,475.0 49.0,470.0 55.0,470.0" fill="#888"/>
<line x1="52.0" y1="420.0" x2="52.0" y2="415.0" stroke="#888" stroke-width="1"/>
<polygon points="52.0,415.0 55.0,420.0 49.0,420.0" fill="#888"/>
<line x1="52.0" y1="470.0" x2="52.0" y2="420.0" stroke="#888" stroke-width="1" stroke-dasharray="4,3"/>
<text x="44.0" y="449.0" style="font-size:9px; text-anchor:end; fill:#666;">10mm pitch</text>
<text x="110.0" y="632.0" style="font-size:9px; text-anchor:middle; fill:#27ae60; font-weight:bold;">Exit hole dia.3.0mm (conical funnel)</text>
<text x="110.0" y="95.0" style="font-size:9px; text-anchor:middle; fill:#7d3c98; font-weight:bold;">M3 pilot hole dia.2.5mm x 12mm deep + 4 loading slots</text>
<text x="65.0" y="520.0" style="font-size:9px; text-anchor:end; fill:#c0392b;">Helical fin</text>
<text x="65.0" y="531.0" style="font-size:8px; text-anchor:end; fill:#888;">(8.2 turns)</text>
<text x="135.0" y="145.0" style="font-size:8px; text-anchor:start; fill:#2c7fba;">M3 boss</text>
<text x="65.0" y="585.0" style="font-size:8px; text-anchor:end; fill:#1a5276;">Conical</text>
<text x="65.0" y="595.0" style="font-size:8px; text-anchor:end; fill:#1a5276;">funnel</text>
<text x="340.0" y="84.0" style="font-size:11px; text-anchor:middle; fill:#222; font-weight:bold;">Detail Views</text>
<text x="340.0" y="108.0" style="font-size:9px; text-anchor:middle; fill:#333; font-weight:bold;">Detail A — Funnel Bottom</text>
<rect x="260.0" y="110.0" width="16.0" height="64.0" fill="#a8c8e8" stroke="#1a5276" stroke-width="1.5" opacity="1.0" rx="0"/>
<rect x="404.0" y="110.0" width="16.0" height="64.0" fill="#a8c8e8" stroke="#1a5276" stroke-width="1.5" opacity="1.0" rx="0"/>
<polygon points="260.0,126.0 276.0,126.0 328.0,174.0 260.0,174.0" fill="#2e86c1" stroke="#1a5276" stroke-width="1.5" opacity="1.0"/>
<polygon points="404.0,126.0 420.0,126.0 420.0,174.0 352.0,174.0" fill="#2e86c1" stroke="#1a5276" stroke-width="1.5" opacity="1.0"/>
<polygon points="276.0,126.0 404.0,126.0 352.0,174.0 328.0,174.0" fill="#ddeeff" stroke="none" stroke-width="1.5" opacity="1.0"/>
<line x1="276.0" y1="126.0" x2="328.0" y2="174.0" stroke="#1a5276" stroke-width="1.5"/>
<line x1="404.0" y1="126.0" x2="352.0" y2="174.0" stroke="#1a5276" stroke-width="1.5"/>
<rect x="328.0" y="174.0" width="24.0" height="3.0" fill="white" stroke="none" stroke-width="1.5" opacity="1.0" rx="0"/>
<text x="340.0" y="122.0" style="font-size:8px; text-anchor:middle; fill:#555;">r=7.5mm at top</text>
<text x="340.0" y="188.0" style="font-size:8px; text-anchor:middle; fill:#27ae60; font-weight:bold;">exit r=1.5mm</text>
<text x="340.0" y="202.0" style="font-size:9px; text-anchor:middle; fill:#333; font-weight:bold;">Detail B — M3 Boss Top Mount</text>
<rect x="260.0" y="204.0" width="160.0" height="48.0" fill="#2e86c1" stroke="#1a5276" stroke-width="1.5" opacity="1.0" rx="0"/>
<rect x="308.0" y="252.0" width="64.0" height="48.0" fill="#2e86c1" stroke="#1a5276" stroke-width="1.5" opacity="1.0" rx="0"/>
<rect x="260.0" y="252.0" width="16.0" height="64.0" fill="#a8c8e8" stroke="#1a5276" stroke-width="1.5" opacity="1.0" rx="0"/>
<rect x="404.0" y="252.0" width="16.0" height="64.0" fill="#a8c8e8" stroke="#1a5276" stroke-width="1.5" opacity="1.0" rx="0"/>
<rect x="276.0" y="252.0" width="16.0" height="64.0" fill="#eef5fb" stroke="none" stroke-width="1.5" opacity="1.0" rx="0"/>
<rect x="372.0" y="252.0" width="16.0" height="64.0" fill="#eef5fb" stroke="none" stroke-width="1.5" opacity="1.0" rx="0"/>
<rect x="330.0" y="204.0" width="20.0" height="98.0" fill="white" stroke="none" stroke-width="1.5" opacity="1.0" rx="0"/>
<line x1="330.0" y1="204.0" x2="330.0" y2="300.0" stroke="#555" stroke-width="1"/>
<line x1="350.0" y1="204.0" x2="350.0" y2="300.0" stroke="#555" stroke-width="1"/>
<line x1="330.0" y1="300.0" x2="350.0" y2="300.0" stroke="#555" stroke-width="1"/>
<text x="340.0" y="232.0" style="font-size:8px; text-anchor:middle; fill:white; font-weight:bold;">solid cap 6mm</text>
<text x="340.0" y="280.0" style="font-size:8px; text-anchor:middle; fill:white; font-weight:bold;">boss r=4mm</text>
<text x="340.0" y="314.0" style="font-size:8px; text-anchor:middle; fill:#555;">M3 pilot 12mm deep</text>
<text x="510.0" y="84.0" style="font-size:12px; text-anchor:middle; fill:#222; font-weight:bold;">Helix Front Projection</text>
<rect x="460.0" y="100.0" width="100.0" height="500.0" fill="#ddeeff" stroke="#1a5276" stroke-width="2" opacity="0.3" rx="0"/>
<rect x="460.0" y="100.0" width="10.0" height="500.0" fill="#a8c8e8" stroke="none" stroke-width="1.5" opacity="0.7" rx="0"/>
<rect x="550.0" y="100.0" width="10.0" height="500.0" fill="#a8c8e8" stroke="none" stroke-width="1.5" opacity="0.7" rx="0"/>
<line x1="460.0" y1="600.0" x2="460.0" y2="100.0" stroke="#1a5276" stroke-width="2"/>
<line x1="560.0" y1="600.0" x2="560.0" y2="100.0" stroke="#1a5276" stroke-width="2"/>
<rect x="460.0" y="570.0" width="100.0" height="30.0" fill="#2e86c1" stroke="none" stroke-width="1.5" opacity="0.6" rx="0"/>
<rect x="460.0" y="100.0" width="100.0" height="30.0" fill="#2e86c1" stroke="none" stroke-width="1.5" opacity="0.6" rx="0"/>
<rect x="490.0" y="130.0" width="40.0" height="30.0" fill="#3a9bd5" stroke="none" stroke-width="1.5" opacity="0.7" rx="0"/>
<polyline points="549.5,570.0 549.3,569.2 548.7,568.4 547.6,567.5 546.2,566.7 544.4,565.9 542.2,565.1 539.7,564.3 536.8,563.4 533.7,562.6 530.3,561.8 526.7,561.0 523.0,560.2 519.1,559.3 515.0,558.5 511.0,557.7 506.9,556.9 502.9,556.1 498.9,555.2 495.1,554.4 491.4,553.6 487.9,552.8 484.7,552.0 481.7,551.1 479.0,550.3 476.6,549.5 474.6,548.7 473.0,547.9 471.8,547.0 471.0,546.2 470.5,545.4 470.6,544.6 471.0,543.8 471.8,542.9 473.1,542.1 474.7,541.3 476.7,540.5 479.1,539.7 481.8,538.8 484.7,538.0 488.0,537.2 491.5,536.4 495.2,535.6 499.0,534.7 503.0,533.9 507.0,533.1 511.1,532.3 515.1,531.5 519.1,530.6 523.1,529.8 526.8,529.0 530.4,528.2 533.8,527.4 536.9,526.5 539.7,525.7 542.2,524.9 544.4,524.1 546.2,523.3 547.7,522.4 548.7,521.6 549.3,520.8 549.5,520.0 549.3,519.2 548.6,518.3 547.6,517.5 546.2,516.7 544.3,515.9 542.1,515.1 539.6,514.2 536.7,513.4 533.6,512.6 530.2,511.8 526.6,511.0 522.9,510.1 519.0,509.3 515.0,508.5 510.9,507.7 506.8,506.9 502.8,506.0 498.8,505.2 495.0,504.4 491.3,503.6 487.8,502.8 484.6,501.9 481.6,501.1 478.9,500.3 476.6,499.5 474.6,498.7 473.0,497.8 471.8,497.0 470.9,496.2 470.5,495.4 470.6,494.6 471.0,493.7 471.8,492.9 473.1,492.1 474.7,491.3 476.8,490.5 479.1,489.6 481.8,488.8 484.8,488.0 488.1,487.2 491.6,486.4 495.3,485.5 499.1,484.7 503.1,483.9 507.1,483.1 511.2,482.3 515.2,481.4 519.2,480.6 523.1,479.8 526.9,479.0 530.5,478.2 533.9,477.3 537.0,476.5 539.8,475.7 542.3,474.9 544.5,474.1 546.3,473.2 547.7,472.4 548.7,471.6 549.3,470.8 549.5,470.0 549.3,469.1 548.6,468.3 547.6,467.5 546.1,466.7 544.3,465.9 542.1,465.0 539.5,464.2 536.7,463.4 533.5,462.6 530.1,461.8 526.5,460.9 522.8,460.1 518.9,459.3 514.9,458.5 510.8,457.7 506.7,456.8 502.7,456.0 498.7,455.2 494.9,454.4 491.2,453.6 487.8,452.7 484.5,451.9 481.5,451.1 478.9,450.3 476.5,449.5 474.6,448.6 473.0,447.8 471.7,447.0 470.9,446.2 470.5,445.4 470.6,444.5 471.0,443.7 471.9,442.9 473.1,442.1 474.8,441.3 476.8,440.4 479.2,439.6 481.9,438.8 484.9,438.0 488.2,437.2 491.7,436.3 495.4,435.5 499.2,434.7 503.2,433.9 507.2,433.1 511.3,432.2 515.3,431.4 519.3,430.6 523.2,429.8 527.0,429.0 530.6,428.1 533.9,427.3 537.0,426.5 539.9,425.7 542.4,424.9 544.5,424.0 546.3,423.2 547.7,422.4 548.7,421.6 549.3,420.8 549.5,419.9 549.3,419.1 548.6,418.3 547.5,417.5 546.1,416.7 544.2,415.8 542.0,415.0 539.5,414.2 536.6,413.4 533.5,412.6 530.1,411.7 526.5,410.9 522.7,410.1 518.8,409.3 514.8,408.5 510.7,407.6 506.6,406.8 502.6,406.0 498.6,405.2 494.8,404.4 491.1,403.5 487.7,402.7 484.4,401.9 481.5,401.1 478.8,400.3 476.5,399.4 474.5,398.6 472.9,397.8 471.7,397.0 470.9,396.2 470.5,395.3 470.6,394.5 471.0,393.7 471.9,392.9 473.2,392.1 474.8,391.2 476.9,390.4 479.3,389.6 482.0,388.8 485.0,388.0 488.3,387.1 491.8,386.3 495.5,385.5 499.3,384.7 503.3,383.9 507.3,383.0 511.4,382.2 515.4,381.4 519.4,380.6 523.3,379.8 527.1,378.9 530.7,378.1 534.0,377.3 537.1,376.5 539.9,375.7 542.4,374.8 544.6,374.0 546.3,373.2 547.7,372.4 548.7,371.6 549.3,370.7 549.5,369.9 549.2,369.1 548.6,368.3 547.5,367.5 546.0,366.6 544.2,365.8 542.0,365.0 539.4,364.2 536.5,363.4 533.4,362.5 530.0,361.7 526.4,360.9 522.6,360.1 518.7,359.3 514.7,358.4 510.6,357.6 506.5,356.8 502.5,356.0 498.6,355.2 494.7,354.3 491.1,353.5 487.6,352.7 484.4,351.9 481.4,351.1 478.8,350.2 476.4,349.4 474.5,348.6 472.9,347.8 471.7,347.0 470.9,346.1 470.5,345.3 470.6,344.5 471.0,343.7 471.9,342.9 473.2,342.0 474.9,341.2 476.9,340.4 479.3,339.6 482.0,338.8 485.1,337.9 488.3,337.1 491.8,336.3 495.6,335.5 499.4,334.7 503.4,333.8 507.4,333.0 511.5,332.2 515.5,331.4 519.5,330.6 523.4,329.7 527.2,328.9 530.7,328.1 534.1,327.3 537.2,326.5 540.0,325.6 542.5,324.8 544.6,324.0 546.4,323.2 547.8,322.4 548.8,321.5 549.3,320.7 549.5,319.9 549.2,319.1 548.6,318.3 547.5,317.4 546.0,316.6 544.1,315.8 541.9,315.0 539.3,314.2 536.5,313.3 533.3,312.5 529.9,311.7 526.3,310.9 522.5,310.1 518.6,309.2 514.6,308.4 510.5,307.6 506.4,306.8 502.4,306.0 498.5,305.1 494.6,304.3 491.0,303.5 487.5,302.7 484.3,301.9 481.3,301.0 478.7,300.2 476.4,299.4 474.4,298.6 472.9,297.8 471.7,296.9 470.9,296.1 470.5,295.3 470.6,294.5 471.1,293.7 471.9,292.8 473.2,292.0 474.9,291.2 477.0,290.4 479.4,289.6 482.1,288.7 485.1,287.9 488.4,287.1 491.9,286.3 495.6,285.5 499.5,284.6 503.5,283.8 507.5,283.0 511.6,282.2 515.6,281.4 519.6,280.5 523.5,279.7 527.3,278.9 530.8,278.1 534.2,277.3 537.3,276.4 540.1,275.6 542.5,274.8 544.7,274.0 546.4,273.2 547.8,272.3 548.8,271.5 549.3,270.7 549.5,269.9 549.2,269.1 548.5,268.2 547.4,267.4 545.9,266.6 544.1,265.8 541.8,265.0 539.3,264.1 536.4,263.3 533.2,262.5 529.8,261.7 526.2,260.9 522.4,260.0 518.5,259.2 514.5,258.4 510.4,257.6 506.3,256.8 502.3,255.9 498.4,255.1 494.5,254.3 490.9,253.5 487.4,252.7 484.2,251.8 481.3,251.0 478.6,250.2 476.3,249.4 474.4,248.6 472.8,247.7 471.6,246.9 470.9,246.1 470.5,245.3 470.6,244.5 471.1,243.6 472.0,242.8 473.3,242.0 475.0,241.2 477.0,240.4 479.4,239.5 482.2,238.7 485.2,237.9 488.5,237.1 492.0,236.3 495.7,235.4 499.6,234.6 503.6,233.8 507.6,233.0 511.7,232.2 515.7,231.3 519.7,230.5 523.6,229.7 527.4,228.9 530.9,228.1 534.2,227.2 537.3,226.4 540.1,225.6 542.6,224.8 544.7,224.0 546.5,223.1 547.8,222.3 548.8,221.5 549.4,220.7 549.5,219.9 549.2,219.0 548.5,218.2 547.4,217.4 545.9,216.6 544.0,215.8 541.8,214.9 539.2,214.1 536.3,213.3 533.1,212.5 529.7,211.7 526.1,210.8 522.3,210.0 518.4,209.2 514.4,208.4 510.3,207.6 506.2,206.7 502.2,205.9 498.3,205.1 494.4,204.3 490.8,203.5 487.3,202.6 484.1,201.8 481.2,201.0 478.6,200.2 476.3,199.4 474.3,198.5 472.8,197.7 471.6,196.9 470.9,196.1 470.5,195.3 470.6,194.4 471.1,193.6 472.0,192.8 473.3,192.0 475.0,191.2 477.1,190.3 479.5,189.5 482.2,188.7 485.3,187.9 488.6,187.1 492.1,186.2 495.8,185.4 499.7,184.6 503.7,183.8 507.7,183.0 511.8,182.1 515.8,181.3 519.8,180.5 523.7,179.7 527.4,178.9 531.0,178.0 534.3,177.2 537.4,176.4 540.2,175.6 542.6,174.8 544.8,173.9 546.5,173.1 547.9,172.3 548.8,171.5 549.4,170.7 549.5,169.8 549.2,169.0 548.5,168.2 547.4,167.4 545.9,166.6 544.0,165.7 541.7,164.9 539.1,164.1 536.2,163.3 533.1,162.5 529.6,161.6 526.0,160.8 522.2,160.0" fill="none" stroke="#c0392b" stroke-width="2.0" opacity="1.0"/>
<polyline points="520.0,570.0 519.9,569.2 519.8,568.4 519.5,567.5 519.2,566.7 518.7,565.9 518.1,565.1 517.5,564.3 516.8,563.4 516.0,562.6 515.1,561.8 514.2,561.0 513.3,560.2 512.3,559.3 511.3,558.5 510.3,557.7 509.2,556.9 508.2,556.1 507.2,555.2 506.2,554.4 505.3,553.6 504.4,552.8 503.6,552.0 502.8,551.1 502.2,550.3 501.6,549.5 501.1,548.7 500.6,547.9 500.3,547.0 500.1,546.2 500.0,545.4 500.0,544.6 500.1,543.8 500.3,542.9 500.6,542.1 501.1,541.3 501.6,540.5 502.2,539.7 502.8,538.8 503.6,538.0 504.4,537.2 505.3,536.4 506.2,535.6 507.2,534.7 508.2,533.9 509.2,533.1 510.3,532.3 511.3,531.5 512.3,530.6 513.3,529.8 514.3,529.0 515.2,528.2 516.0,527.4 516.8,526.5 517.5,525.7 518.2,524.9 518.7,524.1 519.2,523.3 519.5,522.4 519.8,521.6 519.9,520.8 520.0,520.0 519.9,519.2 519.8,518.3 519.5,517.5 519.2,516.7 518.7,515.9 518.1,515.1 517.5,514.2 516.8,513.4 516.0,512.6 515.1,511.8 514.2,511.0 513.3,510.1 512.3,509.3 511.3,508.5 510.2,507.7 509.2,506.9 508.2,506.0 507.2,505.2 506.2,504.4 505.3,503.6 504.4,502.8 503.6,501.9 502.8,501.1 502.1,500.3 501.5,499.5 501.0,498.7 500.6,497.8 500.3,497.0 500.1,496.2 500.0,495.4 500.0,494.6 500.1,493.7 500.3,492.9 500.7,492.1 501.1,491.3 501.6,490.5 502.2,489.6 502.9,488.8 503.6,488.0 504.5,487.2 505.3,486.4 506.3,485.5 507.2,484.7 508.2,483.9 509.3,483.1 510.3,482.3 511.3,481.4 512.3,480.6 513.3,479.8 514.3,479.0 515.2,478.2 516.0,477.3 516.8,476.5 517.5,475.7 518.2,474.9 518.7,474.1 519.2,473.2 519.5,472.4 519.8,471.6 520.0,470.8 520.0,470.0 519.9,469.1 519.8,468.3 519.5,467.5 519.1,466.7 518.7,465.9 518.1,465.0 517.5,464.2 516.8,463.4 516.0,462.6 515.1,461.8 514.2,460.9 513.2,460.1 512.2,459.3 511.2,458.5 510.2,457.7 509.2,456.8 508.2,456.0 507.1,455.2 506.2,454.4 505.2,453.6 504.4,452.7 503.5,451.9 502.8,451.1 502.1,450.3 501.5,449.5 501.0,448.6 500.6,447.8 500.3,447.0 500.1,446.2 500.0,445.4 500.0,444.5 500.1,443.7 500.3,442.9 500.7,442.1 501.1,441.3 501.6,440.4 502.2,439.6 502.9,438.8 503.6,438.0 504.5,437.2 505.4,436.3 506.3,435.5 507.3,434.7 508.3,433.9 509.3,433.1 510.3,432.2 511.4,431.4 512.4,430.6 513.4,429.8 514.3,429.0 515.2,428.1 516.1,427.3 516.8,426.5 517.6,425.7 518.2,424.9 518.7,424.0 519.2,423.2 519.5,422.4 519.8,421.6 520.0,420.8 520.0,419.9 519.9,419.1 519.8,418.3 519.5,417.5 519.1,416.7 518.7,415.8 518.1,415.0 517.5,414.2 516.7,413.4 515.9,412.6 515.1,411.7 514.2,410.9 513.2,410.1 512.2,409.3 511.2,408.5 510.2,407.6 509.1,406.8 508.1,406.0 507.1,405.2 506.2,404.4 505.2,403.5 504.3,402.7 503.5,401.9 502.8,401.1 502.1,400.3 501.5,399.4 501.0,398.6 500.6,397.8 500.3,397.0 500.1,396.2 500.0,395.3 500.0,394.5 500.1,393.7 500.4,392.9 500.7,392.1 501.1,391.2 501.6,390.4 502.2,389.6 502.9,388.8 503.7,388.0 504.5,387.1 505.4,386.3 506.3,385.5 507.3,384.7 508.3,383.9 509.3,383.0 510.4,382.2 511.4,381.4 512.4,380.6 513.4,379.8 514.3,378.9 515.2,378.1 516.1,377.3 516.9,376.5 517.6,375.7 518.2,374.8 518.8,374.0 519.2,373.2 519.6,372.4 519.8,371.6 520.0,370.7 520.0,369.9 519.9,369.1 519.8,368.3 519.5,367.5 519.1,366.6 518.7,365.8 518.1,365.0 517.4,364.2 516.7,363.4 515.9,362.5 515.1,361.7 514.1,360.9 513.2,360.1 512.2,359.3 511.2,358.4 510.2,357.6 509.1,356.8 508.1,356.0 507.1,355.2 506.1,354.3 505.2,353.5 504.3,352.7 503.5,351.9 502.8,351.1 502.1,350.2 501.5,349.4 501.0,348.6 500.6,347.8 500.3,347.0 500.1,346.1 500.0,345.3 500.0,344.5 500.1,343.7 500.4,342.9 500.7,342.0 501.1,341.2 501.6,340.4 502.2,339.6 502.9,338.8 503.7,337.9 504.5,337.1 505.4,336.3 506.3,335.5 507.3,334.7 508.3,333.8 509.3,333.0 510.4,332.2 511.4,331.4 512.4,330.6 513.4,329.7 514.3,328.9 515.3,328.1 516.1,327.3 516.9,326.5 517.6,325.6 518.2,324.8 518.8,324.0 519.2,323.2 519.6,322.4 519.8,321.5 520.0,320.7 520.0,319.9 519.9,319.1 519.8,318.3 519.5,317.4 519.1,316.6 518.6,315.8 518.1,315.0 517.4,314.2 516.7,313.3 515.9,312.5 515.0,311.7 514.1,310.9 513.2,310.1 512.2,309.2 511.2,308.4 510.1,307.6 509.1,306.8 508.1,306.0 507.1,305.1 506.1,304.3 505.2,303.5 504.3,302.7 503.5,301.9 502.7,301.0 502.1,300.2 501.5,299.4 501.0,298.6 500.6,297.8 500.3,296.9 500.1,296.1 500.0,295.3 500.0,294.5 500.1,293.7 500.4,292.8 500.7,292.0 501.1,291.2 501.6,290.4 502.2,289.6 502.9,288.7 503.7,287.9 504.5,287.1 505.4,286.3 506.4,285.5 507.3,284.6 508.3,283.8 509.4,283.0 510.4,282.2 511.4,281.4 512.4,280.5 513.4,279.7 514.4,278.9 515.3,278.1 516.1,277.3 516.9,276.4 517.6,275.6 518.2,274.8 518.8,274.0 519.2,273.2 519.6,272.3 519.8,271.5 520.0,270.7 520.0,269.9 519.9,269.1 519.8,268.2 519.5,267.4 519.1,266.6 518.6,265.8 518.1,265.0 517.4,264.1 516.7,263.3 515.9,262.5 515.0,261.7 514.1,260.9 513.1,260.0 512.1,259.2 511.1,258.4 510.1,257.6 509.1,256.8 508.1,255.9 507.1,255.1 506.1,254.3 505.2,253.5 504.3,252.7 503.5,251.8 502.7,251.0 502.1,250.2 501.5,249.4 501.0,248.6 500.6,247.7 500.3,246.9 500.1,246.1 500.0,245.3 500.0,244.5 500.1,243.6 500.4,242.8 500.7,242.0 501.1,241.2 501.7,240.4 502.3,239.5 503.0,238.7 503.7,237.9 504.6,237.1 505.4,236.3 506.4,235.4 507.4,234.6 508.4,233.8 509.4,233.0 510.4,232.2 511.5,231.3 512.5,230.5 513.4,229.7 514.4,228.9 515.3,228.1 516.1,227.2 516.9,226.4 517.6,225.6 518.2,224.8 518.8,224.0 519.2,223.1 519.6,222.3 519.8,221.5 520.0,220.7 520.0,219.9 519.9,219.0 519.8,218.2 519.5,217.4 519.1,216.6 518.6,215.8 518.0,214.9 517.4,214.1 516.7,213.3 515.9,212.5 515.0,211.7 514.1,210.8 513.1,210.0 512.1,209.2 511.1,208.4 510.1,207.6 509.0,206.7 508.0,205.9 507.0,205.1 506.1,204.3 505.1,203.5 504.3,202.6 503.5,201.8 502.7,201.0 502.0,200.2 501.5,199.4 501.0,198.5 500.6,197.7 500.3,196.9 500.1,196.1 500.0,195.3 500.0,194.4 500.1,193.6 500.4,192.8 500.7,192.0 501.1,191.2 501.7,190.3 502.3,189.5 503.0,188.7 503.7,187.9 504.6,187.1 505.5,186.2 506.4,185.4 507.4,184.6 508.4,183.8 509.4,183.0 510.5,182.1 511.5,181.3 512.5,180.5 513.5,179.7 514.4,178.9 515.3,178.0 516.2,177.2 516.9,176.4 517.6,175.6 518.3,174.8 518.8,173.9 519.2,173.1 519.6,172.3 519.8,171.5 520.0,170.7 520.0,169.8 519.9,169.0 519.7,168.2 519.5,167.4 519.1,166.6 518.6,165.7 518.0,164.9 517.4,164.1 516.6,163.3 515.8,162.5 515.0,161.6 514.1,160.8 513.1,160.0" fill="none" stroke="#e74c3c" stroke-width="1.2" opacity="1.0"/>
<circle cx="510.0" cy="600.0" r="5" fill="#27ae60" stroke="white" stroke-width="1.5"/>
<circle cx="510.0" cy="100.0" r="5" fill="#7d3c98" stroke="white" stroke-width="1.5"/>
<text x="568.0" y="600.0" style="font-size:9px; text-anchor:start; fill:#27ae60;">← Exit 3mm</text>
<text x="568.0" y="104.0" style="font-size:9px; text-anchor:start; fill:#7d3c98;">← M3 mount</text>
<text x="568.0" y="365.0" style="font-size:9px; text-anchor:start; fill:#c0392b;">8.2 turns</text>
<text x="85.5" y="678.0" style="font-size:8px; text-anchor:middle; fill:#555;">Outer diam.</text>
<text x="85.5" y="691.0" style="font-size:9px; text-anchor:middle; fill:#111; font-weight:bold;">20 mm</text>
<text x="136.4" y="678.0" style="font-size:8px; text-anchor:middle; fill:#555;">Total height</text>
<text x="136.4" y="691.0" style="font-size:9px; text-anchor:middle; fill:#111; font-weight:bold;">100 mm</text>
<text x="187.3" y="678.0" style="font-size:8px; text-anchor:middle; fill:#555;">Wall</text>
<text x="187.3" y="691.0" style="font-size:9px; text-anchor:middle; fill:#111; font-weight:bold;">2 mm</text>
<text x="238.2" y="678.0" style="font-size:8px; text-anchor:middle; fill:#555;">Inner diam.</text>
<text x="238.2" y="691.0" style="font-size:9px; text-anchor:middle; fill:#111; font-weight:bold;">16 mm</text>
<text x="289.1" y="678.0" style="font-size:8px; text-anchor:middle; fill:#555;">Helix pitch</text>
<text x="289.1" y="691.0" style="font-size:9px; text-anchor:middle; fill:#111; font-weight:bold;">10 mm/turn</text>
<text x="340.0" y="678.0" style="font-size:8px; text-anchor:middle; fill:#555;">Turns</text>
<text x="340.0" y="691.0" style="font-size:9px; text-anchor:middle; fill:#111; font-weight:bold;">8.2</text>
<text x="390.9" y="678.0" style="font-size:8px; text-anchor:middle; fill:#555;">Exit hole (CAD)</text>
<text x="390.9" y="691.0" style="font-size:9px; text-anchor:middle; fill:#111; font-weight:bold;">dia.3.0 mm</text>
<text x="441.8" y="678.0" style="font-size:8px; text-anchor:middle; fill:#555;">M3 pilot</text>
<text x="441.8" y="691.0" style="font-size:9px; text-anchor:middle; fill:#111; font-weight:bold;">dia.2.5 x 12mm</text>
<text x="492.7" y="678.0" style="font-size:8px; text-anchor:middle; fill:#555;">Boss radius</text>
<text x="492.7" y="691.0" style="font-size:9px; text-anchor:middle; fill:#111; font-weight:bold;">4 mm</text>
<text x="543.6" y="678.0" style="font-size:8px; text-anchor:middle; fill:#555;">Funnel r bottom</text>
<text x="543.6" y="691.0" style="font-size:9px; text-anchor:middle; fill:#111; font-weight:bold;">1.5 mm</text>
<text x="594.5" y="678.0" style="font-size:8px; text-anchor:middle; fill:#555;">Print</text>
<text x="594.5" y="691.0" style="font-size:9px; text-anchor:middle; fill:#111; font-weight:bold;">PLA/PETG 0.2mm vertical</text>
<line x1="60.0" y1="670.0" x2="620.0" y2="670.0" stroke="#ccc" stroke-width="1"/>
</svg>